# 3ds Max Wavefront OBJ Exporter v0.97b - (c)2007 guruware
# File Created: 03.02.2021 23:01:35

#
# object Fr_Ferme_Small_1_LOD0
#

v  950.9875 78.9455 171.4901
v  950.9875 203.6979 191.3333
v  950.9875 78.9455 191.3331
v  256.1804 190.5710 -48.6320
v  274.1694 92.0723 -48.6321
v  256.1804 92.0723 -48.6321
v  535.3466 78.9455 171.4903
v  535.3466 203.6979 191.3334
v  535.3466 78.9455 191.3332
v  392.6555 203.6980 171.4906
v  392.6555 78.9455 191.3333
v  392.6555 203.6979 191.3335
v  256.1803 29.3363 -398.8547
v  256.1805 0.0021 191.3332
v  256.1805 29.3384 191.3333
v  464.0012 29.3384 191.3332
v  1016.1166 78.9455 171.4901
v  1016.1166 78.9455 191.3331
v  600.4759 203.6980 171.4905
v  600.4759 78.9455 191.3332
v  600.4759 203.6979 191.3334
v  327.5265 78.9455 191.3333
v  327.5265 203.6980 171.4906
v  327.5265 203.6979 191.3335
v  256.1805 253.3050 191.3337
v  256.1805 253.3490 213.0617
v  256.1804 492.7612 -103.7598
v  256.1804 253.3046 -103.7602
v  879.6419 253.3050 191.3334
v  1087.4623 253.3490 213.0614
v  671.8215 253.3490 213.0615
v  1087.4623 0.0021 191.3329
v  1087.4623 29.3384 191.3329
v  879.6419 29.3384 191.3330
v  1087.4622 492.7612 -103.7601
v  1087.4623 190.5710 -48.6321
v  1069.4733 190.5693 -158.8902
v  1087.4622 190.5693 -158.8903
v  1087.4622 253.3046 -103.7605
v  1087.4623 253.3050 191.3333
v  671.8215 0.0021 191.3331
v  671.8215 29.3384 191.3331
v  464.0012 253.3050 191.3335
v  671.8215 253.3050 191.3335
v  950.9875 203.6980 171.4903
v  1016.1166 203.6979 191.3333
v  600.4759 78.9455 171.4903
v  743.1669 203.6979 191.3334
v  808.2963 78.9455 191.3331
v  808.2963 203.6979 191.3333
v  743.1669 78.9455 191.3332
v  743.1669 78.9455 171.4902
v  327.5265 78.9455 171.4904
v  1016.1166 203.6980 171.4903
v  535.3466 203.6980 171.4905
v  743.1669 203.6980 171.4904
v  808.2963 203.6980 171.4904
v  392.6555 78.9455 171.4904
v  950.9874 203.6958 -398.8565
v  950.9874 78.9436 -379.0125
v  950.9874 78.9434 -398.8554
v  1087.4623 92.0723 -48.6322
v  1069.4734 190.5710 -48.6321
v  535.3463 78.9434 -398.8553
v  535.3463 203.6960 -379.0135
v  535.3463 78.9436 -379.0123
v  392.6554 78.9434 -398.8552
v  392.6554 203.6960 -379.0134
v  392.6554 203.6958 -398.8563
v  1087.4622 29.3363 -398.8549
v  1087.4622 0.0000 -398.8548
v  535.3463 203.6958 -398.8564
v  464.0010 29.3363 -398.8549
v  1016.1165 78.9436 -379.0125
v  1016.1165 78.9434 -398.8554
v  600.4757 78.9434 -398.8553
v  600.4757 203.6960 -379.0135
v  600.4757 203.6958 -398.8564
v  327.5263 78.9434 -398.8552
v  327.5263 203.6960 -379.0134
v  327.5263 78.9436 -379.0123
v  256.1803 253.3029 -398.8568
v  256.1803 253.3468 -420.5848
v  879.6417 253.3029 -398.8569
v  671.8214 253.3468 -420.5849
v  1087.4620 253.3468 -420.5850
v  879.6417 29.3363 -398.8550
v  256.1804 92.0707 -158.8900
v  274.1694 190.5693 -158.8902
v  256.1804 190.5693 -158.8902
v  1087.4622 253.3029 -398.8570
v  256.1803 0.0000 -398.8546
v  671.8214 0.0000 -398.8547
v  671.8214 29.3363 -398.8549
v  464.0010 253.3029 -398.8568
v  671.8214 253.3029 -398.8568
v  1016.1165 203.6958 -398.8565
v  950.9874 203.6960 -379.0135
v  327.5263 203.6958 -398.8563
v  600.4757 78.9436 -379.0123
v  743.1667 203.6958 -398.8564
v  808.2961 78.9434 -398.8554
v  808.2961 203.6958 -398.8565
v  743.1667 78.9434 -398.8553
v  808.2961 78.9436 -379.0124
v  1016.1165 203.6960 -379.0135
v  808.2961 203.6960 -379.0135
v  743.1667 203.6960 -379.0135
v  392.6554 78.9436 -379.0123
v  743.1667 78.9436 -379.0124
v  1087.4622 92.0707 -158.8900
v  274.1694 190.5710 -48.6320
v  1069.4734 92.0723 -48.6321
v  1069.4733 92.0707 -158.8900
v  274.1694 92.0707 -158.8900
v  808.2963 78.9455 171.4902
# 116 vertices

vn 1.0000 0.0000 0.0000
vn 0.0000 0.0000 -1.0000
vn -1.0000 0.0000 0.0000
vn -1.0000 -0.0000 0.0000
vn 0.0000 -0.0000 1.0000
vn 0.0000 1.0000 0.0000
vn -1.0000 -0.0000 -0.0000
vn 1.0000 -0.0000 -0.0000
vn 0.0000 -1.0000 0.0020
vn 0.0000 0.7978 0.6029
vn 0.0000 -1.0000 0.0000
vn 1.0000 0.0000 -0.0000
vn 0.0000 -1.0000 -0.0000
vn -0.0000 -0.0000 1.0000
vn -0.0000 1.0000 0.0000
vn -0.0000 0.0000 -1.0000
vn -1.0000 0.0000 -0.0000
vn -0.0000 -0.0000 -1.0000
vn 0.0000 1.0000 -0.0000
vn -0.0000 -1.0000 -0.0020
vn 0.0000 -0.0000 -1.0000
vn -0.0000 0.7978 -0.6029
vn 0.0000 0.0000 1.0000
vn 0.0000 -1.0000 -0.0020
vn -0.0000 1.0000 -0.0000
# 25 vertex normals

vt 0.1818 0.0000 0.0000
vt 0.0909 0.8220 0.0000
vt 0.0909 0.0000 0.0000
vt 0.2727 0.8220 0.0000
vt 0.3636 0.0000 0.0000
vt 0.3636 0.8220 0.0000
vt 0.4545 0.8220 0.0000
vt 0.5455 0.0000 0.0000
vt 0.5455 0.8220 0.0000
vt 2.3674 0.2651 0.0000
vt -2.2641 0.4953 0.0000
vt -2.2641 0.2651 0.0000
vt 0.9449 1.0034 0.0000
vt 1.5118 0.2906 0.0000
vt 1.2283 0.0072 0.0000
vt 0.9091 0.2984 0.0000
vt 0.8182 0.5968 0.0000
vt 0.8182 0.2984 0.0000
vt 0.2727 0.0000 0.0000
vt 0.1818 0.8220 0.0000
vt 0.6364 0.8220 0.0000
vt 0.6364 0.0000 0.0000
vt 0.4363 0.7814 0.0000
vt 0.4378 0.7801 0.0000
vt 0.4378 0.8223 0.0000
vt 3.7278 1.2833 0.0000
vt 5.3964 1.2832 0.0000
vt 3.7278 2.6373 0.0000
vt 0.4344 0.7989 0.0000
vt 0.4363 0.7801 0.0000
vt 0.4363 0.8176 0.0000
vt -3.1268 0.0308 0.0000
vt -3.1268 -0.2252 0.0000
vt -1.3134 -0.2252 0.0000
vt 0.4344 0.8176 0.0000
vt 0.4344 0.8552 0.0000
vt 0.3921 0.8552 0.0000
vt -2.9289 1.2848 0.0000
vt -2.9290 2.6505 0.0000
vt -4.6119 1.2848 0.0000
vt 0.4392 0.8223 0.0000
vt 0.4378 0.8210 0.0000
vt 0.4392 0.7801 0.0000
vt 0.4344 0.7801 0.0000
vt 0.3921 0.7801 0.0000
vt 4.1268 0.0308 0.0000
vt 2.3134 -0.2252 0.0000
vt 4.1268 -0.2252 0.0000
vt 0.5000 0.0308 0.0000
vt 0.5000 -0.2252 0.0000
vt 0.4344 0.8364 0.0000
vt 0.4363 0.8552 0.0000
vt 1.0000 0.5968 0.0000
vt 0.9091 0.8952 0.0000
vt 0.9091 0.5968 0.0000
vt 0.7273 0.8952 0.0000
vt 0.7273 0.5968 0.0000
vt 0.8182 0.8952 0.0000
vt 1.2283 1.2869 0.0000
vt 1.7705 1.0034 0.0000
vt 1.5118 1.0034 0.0000
vt -0.7064 0.2906 0.0000
vt -0.4230 1.2869 0.0000
vt -0.4230 0.0072 0.0000
vt 1.7705 0.2906 0.0000
vt 2.0540 0.0072 0.0000
vt 0.6861 0.2906 0.0000
vt 0.1192 1.0034 0.0000
vt 0.4027 1.2869 0.0000
vt -0.9651 1.0034 0.0000
vt -1.2486 1.2869 0.0000
vt -0.1395 0.2906 0.0000
vt -1.2486 0.0072 0.0000
vt -0.1395 1.0034 0.0000
vt 0.4027 0.0072 0.0000
vt 0.1192 0.2906 0.0000
vt 0.6861 1.0034 0.0000
vt 0.9449 0.2906 0.0000
vt 0.8182 0.0000 0.0000
vt 0.0214 0.0398 0.0000
vt 0.1110 0.2397 0.0000
vt 0.0214 0.2397 0.0000
vt 0.6216 0.5439 0.0000
vt 0.7070 0.7155 0.0000
vt 0.6216 0.7155 0.0000
vt 0.7273 0.2984 0.0000
vt 0.0000 0.8220 0.0000
vt 0.0000 0.0000 0.0000
vt 0.7273 0.0000 0.0000
vt 1.0000 0.0000 0.0000
vt 0.9091 0.0000 0.0000
vt 0.4545 0.0000 0.0000
vt 2.0540 1.2869 0.0000
vt -0.7064 1.0034 0.0000
vt -0.9651 0.2906 0.0000
vt 2.3673 0.7349 0.0000
vt -2.2641 0.5047 0.0000
vt 2.3673 0.5047 0.0000
vt 2.0592 1.2832 0.0000
vt -3.1268 0.0431 0.0000
vt -1.3134 0.2991 0.0000
vt -3.1268 0.2991 0.0000
vt -1.2460 1.2848 0.0000
vt 4.1268 0.0431 0.0000
vt 4.1268 0.2991 0.0000
vt 2.3134 0.2991 0.0000
vt 0.5000 0.0431 0.0000
vt 0.5000 0.2991 0.0000
vt 0.7070 0.5439 0.0000
vt 4.0395 0.9285 0.0000
vt 5.3964 0.0168 0.0000
vt 3.4161 0.3716 0.0000
vt 4.0395 0.3716 0.0000
vt -3.2433 0.9271 0.0000
vt -4.6119 0.0075 0.0000
vt -3.2433 0.3653 0.0000
vt -2.6145 0.9271 0.0000
vt 3.4161 0.9285 0.0000
vt 2.0592 0.0168 0.0000
vt -1.2460 0.0075 0.0000
vt -2.6145 0.3653 0.0000
vt 0.6365 0.2707 0.0000
vt 0.4318 0.4795 0.0000
vt 0.4318 0.2707 0.0000
vt 0.6365 0.4795 0.0000
vt 2.3674 0.4953 0.0000
vt 1.0000 0.8952 0.0000
vt 0.1110 0.0398 0.0000
vt 0.7273 0.8220 0.0000
vt 1.0000 0.2984 0.0000
vt -2.2641 0.7349 0.0000
# 131 texture coords

g Fr_Ferme_Small_1_LOD0
s off
f 1/1/1 2/2/1 3/3/1 
f 4/2/2 5/1/2 6/3/2 
f 7/4/1 8/5/1 9/6/1 
f 10/7/3 11/8/3 12/9/3 
f 13/10/4 14/11/4 15/12/4 
f 8/13/5 11/14/5 16/15/5 
f 17/16/6 3/17/6 18/18/6 
f 19/19/7 20/20/7 21/1/7 
f 22/21/1 23/8/8 24/22/8 
f 25/23/4 26/24/4 27/25/4 
f 28/26/3 25/27/4 27/28/4 
f 29/29/9 30/30/9 31/31/9 
f 32/32/5 33/33/5 34/34/5 
f 31/35/10 30/36/10 35/37/10 
f 36/2/11 37/1/11 38/3/11 
f 39/38/12 35/39/8 40/40/12 
f 30/41/12 40/42/12 35/43/12 
f 26/44/10 31/35/10 27/45/10 
f 27/45/10 31/35/10 35/37/10 
f 14/46/5 16/47/5 15/48/5 
f 41/49/5 42/50/5 16/47/5 
f 41/49/5 32/32/5 34/34/5 
f 43/51/9 26/52/9 25/36/9 
f 43/51/9 44/35/9 31/31/9 
f 44/35/9 29/29/9 31/31/9 
f 45/53/13 46/54/13 2/55/13 
f 23/17/13 12/56/13 24/57/13 
f 47/55/6 9/58/6 20/17/6 
f 43/59/5 24/60/5 12/61/5 
f 3/62/5 29/63/5 34/64/5 
f 16/15/5 22/65/5 15/66/5 
f 20/67/14 48/68/5 44/69/5 
f 29/63/5 46/70/5 40/71/5 
f 29/63/5 49/72/5 34/64/5 
f 33/73/5 3/62/5 34/64/5 
f 44/69/5 50/74/5 29/63/5 
f 42/75/5 49/72/5 51/76/5 
f 46/70/5 33/73/5 40/71/5 
f 43/59/5 21/77/14 44/69/5 
f 42/75/5 9/78/5 16/15/5 
f 49/79/15 52/16/15 51/18/6 
f 53/80/5 10/81/5 23/82/5 
f 1/83/5 54/84/5 45/85/5 
f 7/83/5 19/84/5 55/85/5 
f 56/18/13 50/57/13 48/86/13 
f 54/3/7 18/87/3 46/88/7 
f 57/89/3 49/21/3 50/22/3 
f 55/79/13 21/86/13 8/89/13 
f 58/90/6 22/16/6 11/91/6 
f 51/7/8 56/5/8 48/92/12 
f 42/50/5 41/49/5 34/34/5 
f 14/46/5 41/49/5 16/47/5 
f 52/80/5 57/81/5 56/82/5 
f 22/65/5 25/93/5 15/66/5 
f 29/29/9 40/44/9 30/30/9 
f 43/51/9 31/31/9 26/52/9 
f 43/59/5 25/93/5 24/60/5 
f 16/15/5 11/14/5 22/65/5 
f 43/59/5 12/61/5 11/14/5 
f 29/63/5 2/94/5 46/70/5 
f 33/73/5 18/95/5 3/62/5 
f 44/69/5 48/68/5 50/74/5 
f 42/75/5 51/76/5 48/68/5 
f 42/75/5 34/64/5 49/72/5 
f 43/59/5 8/13/5 21/77/14 
f 16/15/5 9/78/5 8/13/5 
f 42/75/5 20/67/14 9/78/5 
f 44/69/5 21/77/14 20/67/14 
f 59/2/1 60/1/1 61/3/12 
f 62/2/16 63/1/16 36/3/16 
f 64/6/8 65/19/8 66/4/8 
f 67/8/3 68/7/3 69/9/17 
f 70/96/12 32/97/8 71/98/12 
f 67/14/18 72/13/18 73/15/18 
f 61/17/19 74/16/19 75/18/19 
f 76/20/3 77/19/3 78/1/17 
f 79/21/1 80/8/1 81/9/1 
f 82/23/4 27/25/4 83/24/4 
f 28/26/3 27/28/4 82/99/3 
f 84/29/20 85/31/20 86/30/20 
f 71/100/21 87/101/18 70/102/18 
f 85/35/22 35/37/22 86/36/22 
f 88/2/23 89/1/23 90/3/23 
f 39/38/12 91/103/12 35/39/8 
f 86/41/12 35/43/12 91/42/12 
f 83/44/22 27/45/22 85/35/22 
f 27/45/22 35/37/22 85/35/22 
f 92/104/18 13/105/18 73/106/18 
f 93/107/18 73/106/18 94/108/18 
f 93/107/18 87/101/18 71/100/21 
f 95/51/20 82/36/24 83/52/20 
f 95/51/20 85/31/20 96/35/20 
f 96/35/20 85/31/20 84/29/20 
f 97/54/11 98/53/11 59/55/11 
f 69/56/11 80/17/11 99/57/11 
f 64/58/19 100/55/19 76/17/19 
f 95/59/18 69/61/18 99/60/21 
f 84/63/18 61/62/21 87/64/18 
f 73/15/18 13/66/18 79/65/18 
f 101/68/18 76/67/18 96/69/18 
f 84/63/18 91/71/18 97/70/18 
f 102/72/18 84/63/18 87/64/18 
f 70/73/18 87/64/18 61/62/21 
f 96/69/18 84/63/18 103/74/18 
f 94/75/18 104/76/21 102/72/18 
f 70/73/18 97/70/18 91/71/18 
f 95/59/18 96/69/18 78/77/21 
f 94/75/18 73/15/18 64/78/21 
f 104/18/25 105/91/25 102/79/25 
f 68/81/21 81/80/21 80/82/21 
f 106/84/21 60/83/21 98/85/21 
f 77/84/21 66/83/21 65/85/21 
f 101/86/11 107/17/11 108/18/11 
f 75/87/7 106/3/3 97/88/3 
f 102/21/3 107/89/7 103/22/7 
f 72/89/11 77/18/11 65/79/11 
f 79/16/19 109/90/19 67/91/19 
f 104/7/1 108/5/1 110/6/1 
f 94/108/18 87/101/18 93/107/18 
f 92/104/18 73/106/18 93/107/18 
f 107/85/18 110/109/18 108/84/21 
f 82/93/21 79/65/18 13/66/18 
f 84/29/20 86/30/20 91/44/20 
f 95/51/20 83/52/20 85/31/20 
f 95/59/18 99/60/21 82/93/21 
f 73/15/18 79/65/18 67/14/18 
f 95/59/18 67/14/18 69/61/18 
f 84/63/18 97/70/18 59/94/21 
f 70/73/18 61/62/21 75/95/18 
f 96/69/18 103/74/18 101/68/18 
f 94/75/18 101/68/18 104/76/21 
f 94/75/18 102/72/18 87/64/18 
f 95/59/18 78/77/21 72/13/18 
f 73/15/18 72/13/18 64/78/21 
f 94/75/18 64/78/21 76/67/18 
f 96/69/18 76/67/18 78/77/21 
f 4/110/3 15/111/4 25/27/4 
f 4/110/3 25/27/4 28/26/3 
f 88/112/4 15/111/4 6/113/3 
f 36/114/12 33/115/8 62/116/8 
f 36/114/12 39/38/12 40/40/12 
f 36/114/12 38/117/8 39/38/12 
f 90/118/4 13/119/4 88/112/4 
f 38/117/8 70/120/12 91/103/12 
f 90/118/4 28/26/3 82/99/3 
f 38/117/8 91/103/12 39/38/12 
f 111/121/12 33/115/8 70/120/12 
f 89/122/7 5/123/7 112/124/7 
f 113/125/12 37/124/12 63/122/12 
f 38/2/23 114/1/23 111/3/23 
f 111/2/25 113/1/25 62/3/25 
f 90/2/11 112/1/11 4/3/11 
f 90/118/4 4/110/3 28/26/3 
f 6/2/25 115/1/25 88/3/25 
f 1/1/1 45/20/12 2/2/1 
f 4/2/2 112/20/2 5/1/2 
f 7/4/1 55/19/12 8/5/1 
f 10/7/3 58/92/17 11/8/3 
f 13/10/4 92/126/4 14/11/4 
f 8/13/5 43/59/5 11/14/5 
f 17/16/6 1/55/6 3/17/6 
f 19/19/7 47/4/17 20/20/7 
f 22/21/1 53/9/1 23/8/8 
f 36/2/11 63/20/11 37/1/11 
f 45/53/13 54/127/13 46/54/13 
f 23/17/13 10/58/13 12/56/13 
f 47/55/6 7/54/6 9/58/6 
f 3/62/5 2/94/5 29/63/5 
f 20/67/14 42/75/5 48/68/5 
f 29/63/5 50/74/5 49/72/5 
f 46/70/5 18/95/5 33/73/5 
f 49/79/15 116/91/15 52/16/15 
f 53/80/5 58/128/5 10/81/5 
f 1/83/5 17/109/5 54/84/5 
f 7/83/5 47/109/5 19/84/5 
f 56/18/13 57/17/13 50/57/13 
f 54/3/7 17/2/3 18/87/3 
f 57/89/3 116/129/17 49/21/3 
f 55/79/13 19/18/13 21/86/13 
f 58/90/6 53/130/6 22/16/6 
f 51/7/8 52/6/8 56/5/8 
f 52/80/5 116/128/5 57/81/5 
f 22/65/5 24/60/5 25/93/5 
f 59/2/1 98/20/1 60/1/1 
f 62/2/16 113/20/16 63/1/16 
f 64/6/8 72/5/12 65/19/8 
f 67/8/3 109/92/3 68/7/3 
f 70/96/12 33/131/8 32/97/8 
f 67/14/18 95/59/18 72/13/18 
f 61/17/19 60/55/19 74/16/19 
f 76/20/3 100/4/3 77/19/3 
f 79/21/1 99/22/12 80/8/1 
f 88/2/23 115/20/23 89/1/23 
f 97/54/11 106/127/11 98/53/11 
f 69/56/11 68/58/11 80/17/11 
f 64/58/19 66/54/19 100/55/19 
f 84/63/18 59/94/21 61/62/21 
f 101/68/18 94/75/18 76/67/18 
f 102/72/18 103/74/18 84/63/18 
f 70/73/18 75/95/18 97/70/18 
f 104/18/25 110/16/25 105/91/25 
f 68/81/21 109/128/21 81/80/21 
f 106/84/21 74/109/21 60/83/21 
f 77/84/21 100/109/21 66/83/21 
f 101/86/11 103/57/11 107/17/11 
f 75/87/7 74/2/7 106/3/3 
f 102/21/3 105/129/3 107/89/7 
f 72/89/11 78/86/11 77/18/11 
f 79/16/19 81/130/19 109/90/19 
f 104/7/1 101/92/12 108/5/1 
f 107/85/18 105/83/18 110/109/18 
f 82/93/21 99/60/21 79/65/18 
f 4/110/3 6/113/3 15/111/4 
f 88/112/4 13/119/4 15/111/4 
f 36/114/12 40/40/12 33/115/8 
f 90/118/4 82/99/3 13/119/4 
f 38/117/8 111/121/12 70/120/12 
f 111/121/12 62/116/8 33/115/8 
f 89/122/7 115/125/3 5/123/7 
f 113/125/12 114/123/8 37/124/12 
f 38/2/23 37/20/23 114/1/23 
f 111/2/25 114/20/25 113/1/25 
f 90/2/11 89/20/11 112/1/11 
f 6/2/25 5/20/25 115/1/25 
# 0 polygons - 224 triangles

