# 3ds Max Wavefront OBJ Exporter v0.97b - (c)2007 guruware
# File Created: 18.02.2021 00:50:17

#
# object R_Pavillon_1_LOD1
#

v  -630.5636 931.8378 -2856.7964
v  -702.8684 931.8378 -2856.7964
v  -702.8684 616.2635 -2856.7964
v  -630.5636 616.2635 -2856.7964
v  -2239.7778 0.0001 -3225.0193
v  -2239.7778 12.9949 -3225.0193
v  -595.7042 12.4406 -3225.0193
v  -595.7042 0.0001 -3225.0193
v  -812.4691 534.9953 -2293.3376
v  -595.7042 580.9501 -2293.3376
v  -1239.1379 580.9501 -2293.3376
v  -955.0153 534.9953 -2293.3376
v  -1501.6321 336.4298 -2293.3376
v  -1501.6321 534.9953 -2293.3376
v  -1647.1682 534.9953 -2293.3376
v  -1647.1682 336.4298 -2293.3376
v  -2268.8687 580.9502 -3269.3674
v  -2268.8687 580.9500 -2248.9895
v  -1964.7211 905.1945 -2759.1782
v  -566.6133 580.9500 -2248.9893
v  -870.7608 905.1945 -2759.1782
v  -566.6133 580.9502 -3269.3674
v  -1000.2333 863.5985 -2353.3569
v  -917.9065 791.2155 -2271.9817
v  -917.9065 791.2155 -2661.8049
v  -1000.2333 863.5986 -2719.5112
v  -2239.7778 0.0000 -2759.1785
v  -2239.7776 13.9005 -2759.1785
v  -2126.4031 262.8983 -2293.3376
v  -2126.4031 235.3215 -2293.3376
v  -1951.7397 235.3215 -2293.3376
v  -1951.7397 262.8983 -2293.3376
v  -2239.7778 290.4750 -2293.3376
v  -1186.2964 245.8775 -2293.3770
v  -1186.2964 277.4700 -2293.3794
v  -1291.9794 277.4700 -2293.3794
v  -1291.9794 245.8775 -2293.3770
v  -1058.4056 262.8983 -2293.3376
v  -1171.7803 290.4750 -2293.3806
v  -1058.4056 235.3215 -2293.3376
v  -1600.2903 235.3215 -2293.3376
v  -1600.2903 262.8983 -2293.3376
v  -1685.3782 292.7727 -2293.3376
v  -1663.7017 580.9501 -2293.3376
v  -1485.0986 580.9501 -2293.3376
v  -1465.1606 55.1535 -2293.3376
v  -1663.7017 14.5380 -2293.3376
v  -1306.4956 14.5380 -2293.3577
v  -1306.4956 290.4750 -2293.3806
v  -1485.0986 290.4750 -2293.3376
v  -1465.1606 262.8982 -2293.3376
v  -1181.3928 9.7620 -2293.3574
v  -1171.7803 -0.0000 -2293.3564
v  -1171.7803 14.5380 -2293.3577
v  -1190.2598 225.5900 -2293.3752
v  -1181.3928 232.8725 -2293.3757
v  -1296.8831 232.8725 -2293.3757
v  -1288.0160 225.5900 -2293.3752
v  -1501.6321 313.4524 -2293.3376
v  -1647.1682 313.4524 -2293.3376
v  -1663.7017 -0.0000 -2293.3376
v  -2239.7778 14.5380 -2293.3376
v  -2239.7778 -0.0000 -2293.3376
v  -1323.0291 313.4524 -2293.3376
v  -1323.0291 336.4298 -2293.3376
v  -1468.5652 336.4298 -2293.3376
v  -1468.5652 313.4524 -2293.3376
v  -1069.7762 591.4028 -2289.2744
v  -1069.7762 775.5016 -2289.2744
v  -1069.7762 775.5015 -2661.6348
v  -1069.7762 591.4028 -2661.6348
v  -595.7042 12.4405 -2759.1785
v  -595.7042 0.0000 -2759.1785
v  -955.0153 336.4298 -2293.3376
v  -1100.5072 534.9953 -2293.3376
v  -1100.5072 336.4298 -2293.3376
v  -666.9773 313.4524 -2293.3376
v  -595.7042 290.4750 -2293.3376
v  -666.9773 336.4298 -2293.3376
v  -666.9773 534.9953 -2293.3376
v  -1951.7397 580.9501 -2293.3376
v  -2023.0127 336.4298 -2293.3376
v  -1880.4667 534.9953 -2293.3376
v  -1734.9747 534.9953 -2293.3376
v  -1465.1606 235.3215 -2293.3376
v  -2023.0127 313.4524 -2293.3376
v  -2239.7778 580.9501 -2293.3376
v  -2023.0127 534.9953 -2293.3376
v  -1734.9747 336.4298 -2293.3376
v  -812.4691 313.4524 -2293.3376
v  -812.4691 336.4298 -2293.3376
v  -955.0153 313.4524 -2293.3376
v  -1600.2903 55.1535 -2293.3376
v  -1777.0763 235.3215 -2293.3376
v  -1951.7397 55.1535 -2293.3376
v  -1777.0763 55.1535 -2293.3376
v  -883.7422 55.1535 -2293.3376
v  -883.7422 235.3215 -2293.3376
v  -1058.4056 55.1535 -2293.3376
v  -1734.9747 313.4524 -2293.3376
v  -1880.4667 336.4298 -2293.3376
v  -1880.4667 313.4524 -2293.3376
v  -2126.4031 55.1535 -2293.3376
v  -2168.5046 534.9953 -2293.3376
v  -2168.5046 336.4298 -2293.3376
v  -2239.7778 290.4751 -2759.1785
v  -2239.7778 238.8227 -2870.5000
v  -2239.7778 51.6523 -2870.5000
v  -1468.5652 534.9953 -2293.3376
v  -1323.0291 534.9953 -2293.3376
v  -1288.0160 17.0445 -2293.3579
v  -1190.2598 17.0445 -2293.3579
v  -1783.3176 775.5016 -2661.6350
v  -1783.3176 775.5016 -2289.2744
v  -1783.3176 591.4029 -2289.2744
v  -1783.3176 591.4029 -2661.6350
v  -1296.8831 9.7620 -2293.3574
v  -2239.7778 342.1273 -2870.5000
v  -2239.7778 342.1273 -2974.6807
v  -2239.7778 290.4751 -3225.0193
v  -2239.7778 529.2979 -2974.6807
v  -2239.7778 580.9502 -3225.0193
v  -2239.7778 51.6524 -2974.6809
v  -2239.7778 238.8228 -2974.6807
v  -955.1533 618.8796 -2289.2744
v  -955.1533 755.6923 -2289.2744
v  -1045.3132 755.6921 -2289.2744
v  -1045.3132 618.8796 -2289.2744
v  -595.7042 290.4751 -3225.0193
v  -1777.0763 262.8983 -2293.3376
v  -883.7422 262.8983 -2293.3376
v  -709.0788 235.3215 -2293.3376
v  -709.0788 262.8983 -2293.3376
v  -1100.5072 313.4524 -2293.3376
v  -2168.5046 313.4524 -2293.3376
v  -709.0788 55.1535 -2293.3376
v  -595.7042 -0.0000 -2293.3376
v  -595.7042 14.5380 -2293.3376
v  -1770.5341 775.5016 -2271.9814
v  -1935.1875 775.5016 -2271.9817
v  -1922.4037 775.5016 -2289.2744
v  -2239.7778 580.9501 -2759.1785
v  -2239.7778 529.2979 -2870.5000
v  -1082.5598 775.5015 -2271.9814
v  -917.9065 775.5016 -2271.9817
v  -1082.5598 791.2155 -2271.9814
v  -702.8684 931.8378 -2903.4863
v  -702.8684 616.2635 -2903.4863
v  -1306.4956 -0.0000 -2293.3564
v  -595.7042 580.9502 -3225.0193
v  -2212.0679 931.8379 -2856.7964
v  -2212.0679 931.8379 -2903.4863
v  -2212.0679 616.2637 -2903.4863
v  -2212.0679 616.2637 -2856.7964
v  -630.5636 931.8378 -2903.4863
v  -630.5636 616.2635 -2903.4863
v  -2139.7634 931.8379 -2903.4863
v  -2139.7634 616.2637 -2903.4863
v  -2139.7634 931.8379 -2856.7964
v  -2139.7634 616.2637 -2856.7964
v  -1801.7593 1101.8984 -2718.4832
v  -1801.7593 1101.8983 -2660.2776
v  -1711.6212 1101.8983 -2660.2776
v  -1711.6212 1101.8984 -2718.4832
v  -1770.5341 791.2156 -2271.9814
v  -1770.5341 775.5016 -2661.8049
v  -1770.5341 791.2156 -2661.8049
v  -1801.7593 708.4908 -2718.4832
v  -1801.7593 708.4908 -2660.2776
v  -1711.6212 708.4908 -2718.4832
v  -1711.6212 708.4908 -2660.2776
v  -1807.7806 755.6923 -2289.2744
v  -1897.9406 755.6923 -2289.2744
v  -1897.9406 618.8798 -2289.2744
v  -1807.7806 618.8798 -2289.2744
v  -1935.1875 775.5016 -2661.8049
v  -930.6903 775.5016 -2289.2744
v  -1082.5598 775.5015 -2661.8049
v  -1082.5598 791.2155 -2661.8049
v  -1935.1875 791.2156 -2271.9817
v  -1852.8606 863.5986 -2353.3569
v  -1852.8606 863.5986 -2719.5112
v  -1922.4037 591.4029 -2661.6350
v  -1922.4037 591.4029 -2289.2744
v  -1922.4037 775.5016 -2661.6350
v  -930.6903 591.4028 -2289.2744
v  -917.9065 775.5016 -2661.8049
v  -1935.1875 791.2156 -2661.8049
v  -930.6903 591.4028 -2661.6348
v  -930.6903 775.5016 -2661.6348
v  -514.6820 209.0838 -2367.5757
v  -514.6821 -0.0000 -2367.5759
v  -333.6030 -0.0000 -2367.5759
v  -333.6029 209.0838 -2367.5759
v  -70.5955 290.4751 -2759.1785
v  -70.5955 0.0000 -2759.1785
v  -595.7042 290.4751 -2759.1785
v  -152.5238 209.0837 -2293.3376
v  -152.5239 -0.0000 -2293.3376
v  -70.5955 -0.0000 -2293.3376
v  -70.5955 290.4750 -2293.3376
v  -514.6821 -0.0000 -2293.3376
v  -514.6821 209.0838 -2293.3376
v  -152.5238 209.0838 -2367.5759
v  -152.5239 -0.0000 -2367.5759
# 205 vertices

vn 0.0000 0.0000 1.0000
vn 0.0000 -0.0000 -1.0000
vn 0.0000 0.0000 -1.0000
vn -0.7282 0.6854 -0.0000
vn 0.0000 0.8439 0.5366
vn 0.0000 0.8432 0.5377
vn 0.7282 0.6854 -0.0000
vn 0.6598 0.7514 -0.0000
vn -1.0000 0.0000 -0.0000
vn 0.0000 0.0001 1.0000
vn 0.0000 -0.0000 1.0000
vn 0.0008 0.0000 1.0000
vn 1.0000 0.0000 -0.0000
vn 0.0000 0.8432 -0.5377
vn 0.0000 -1.0000 -0.0000
vn 0.0000 -0.0004 1.0000
vn 0.0000 1.0000 -0.0000
vn 0.0000 0.7457 0.6663
vn 0.0000 0.7461 0.6658
vn -0.6598 0.7514 -0.0000
# 20 vertex normals

vt -0.9491 -0.9831 0.0000
vt -0.2695 -0.9831 0.0000
vt -0.2695 1.9831 0.0000
vt -0.9491 1.9831 0.0000
vt -3.6544 0.0000 0.0000
vt -3.6544 0.0771 0.0000
vt -13.4061 0.0738 0.0000
vt -13.4061 0.0000 0.0000
vt 10.3379 3.1755 0.0000
vt 11.6236 3.4484 0.0000
vt 7.8070 3.4474 0.0000
vt 9.4923 3.1753 0.0000
vt 0.1207 0.0335 0.0000
vt 0.1186 0.2432 0.0000
vt 0.0097 0.2432 0.0000
vt 0.0118 0.0335 0.0000
vt 0.4487 0.8355 0.0000
vt 0.4283 0.8355 0.0000
vt 0.4382 0.8283 0.0000
vt 0.4283 0.7952 0.0000
vt 0.4382 0.8024 0.0000
vt 0.4487 0.7952 0.0000
vt 0.4317 0.8086 0.0000
vt 0.4203 0.8012 0.0000
vt 0.4220 0.8385 0.0000
vt 0.4331 0.8437 0.0000
vt -0.8912 0.0000 0.0000
vt -0.8912 0.0825 0.0000
vt -1.7457 -2.4310 0.0000
vt -1.4594 -2.4310 0.0000
vt -1.4594 -0.6180 0.0000
vt -1.7457 -0.6180 0.0000
vt 2.5445 1.5596 0.0000
vt 1.8720 1.7230 0.0000
vt 2.5445 1.3960 0.0000
vt 0.6119 0.6634 0.0000
vt 0.6119 0.7329 0.0000
vt 0.4155 0.7329 0.0000
vt 0.4155 0.6634 0.0000
vt 8.8795 1.5611 0.0000
vt 8.2069 1.7245 0.0000
vt 8.8795 1.3976 0.0000
vt 5.6652 1.3968 0.0000
vt 5.6652 1.5603 0.0000
vt 5.1604 1.7374 0.0000
vt 5.2886 3.4468 0.0000
vt 5.3867 3.1743 0.0000
vt 6.2500 3.1745 0.0000
vt 6.3480 3.4471 0.0000
vt 6.4670 0.3283 0.0000
vt 5.2894 0.0871 0.0000
vt 7.4082 0.0876 0.0000
vt 7.4078 1.7243 0.0000
vt 6.3484 1.7241 0.0000
vt 6.4667 1.5605 0.0000
vt 8.1473 0.0594 0.0000
vt 8.2073 0.0015 0.0000
vt 8.2073 0.0878 0.0000
vt 0.0757 0.7617 0.0000
vt 0.0763 0.7621 0.0000
vt 0.0695 0.7621 0.0000
vt 0.0700 0.7617 0.0000
vt 0.3914 1.1436 0.0000
vt 0.5821 1.1511 0.0000
vt 0.5350 2.6586 0.0000
vt 0.3439 2.6511 0.0000
vt 5.2894 0.0008 0.0000
vt 1.8720 0.0862 0.0000
vt 1.8720 0.0000 0.0000
vt 0.6300 0.8301 0.0000
vt 0.8209 0.8290 0.0000
vt 0.8268 2.3388 0.0000
vt 0.6366 2.3395 0.0000
vt -0.0196 -1.7351 0.0000
vt -1.3277 -1.7351 0.0000
vt -1.3277 0.9106 0.0000
vt -0.0196 0.9106 0.0000
vt -16.1693 0.0731 0.0000
vt -16.1693 -0.0007 0.0000
vt 0.4120 0.2697 0.0000
vt 0.4120 0.4795 0.0000
vt 0.3031 0.4816 0.0000
vt 0.3031 0.2718 0.0000
vt 11.2012 1.8616 0.0000
vt 11.6240 1.7254 0.0000
vt 11.2012 1.9979 0.0000
vt 11.2009 3.1757 0.0000
vt 3.5801 3.4464 0.0000
vt 3.1577 1.9959 0.0000
vt 3.5805 1.5598 0.0000
vt 4.0029 3.1739 0.0000
vt 8.6296 1.9972 0.0000
vt 8.6293 3.1750 0.0000
vt 4.8659 3.1741 0.0000
vt 6.4668 1.3970 0.0000
vt 3.1577 1.8596 0.0000
vt 1.8720 3.4460 0.0000
vt 3.1574 3.1737 0.0000
vt 4.8662 1.9963 0.0000
vt 10.3382 1.8614 0.0000
vt 10.3382 1.9976 0.0000
vt 9.4926 1.9974 0.0000
vt 9.4927 1.8611 0.0000
vt 7.3097 1.8606 0.0000
vt 6.4465 1.8604 0.0000
vt 0.1207 0.2454 0.0000
vt 0.0097 0.2454 0.0000
vt 0.0097 0.0335 0.0000
vt 0.8475 0.4838 0.0000
vt 0.6368 0.4838 0.0000
vt 0.6368 0.2665 0.0000
vt 0.8475 0.2665 0.0000
vt 0.4262 0.4838 0.0000
vt 0.4262 0.2665 0.0000
vt 2.7193 0.9388 0.0000
vt 2.5334 0.9388 0.0000
vt 2.4809 -0.5608 0.0000
vt 2.6665 -0.5608 0.0000
vt 0.1207 0.2432 0.0000
vt 0.0118 0.2453 0.0000
vt 0.0118 0.0356 0.0000
vt 7.3097 1.9969 0.0000
vt -0.8912 1.7230 0.0000
vt -1.5516 1.4166 0.0000
vt -1.5516 0.3064 0.0000
vt 6.4462 3.1745 0.0000
vt 6.2503 1.9966 0.0000
vt 7.3094 3.1747 0.0000
vt 0.1790 0.6778 0.0000
vt 0.1790 0.5673 0.0000
vt 0.2331 0.5673 0.0000
vt 0.2331 0.6778 0.0000
vt 0.9601 -2.3869 0.0000
vt 1.0767 -2.5168 0.0000
vt 1.0782 -1.1461 0.0000
vt 0.9601 -1.2763 0.0000
vt 0.0700 0.7498 0.0000
vt 0.0695 0.7494 0.0000
vt 0.0763 0.7494 0.0000
vt 0.0757 0.7498 0.0000
vt 0.6163 -2.3869 0.0000
vt 0.4945 -2.4253 0.0000
vt 0.4951 -1.2384 0.0000
vt 0.6163 -1.2763 0.0000
vt -1.5516 2.0294 0.0000
vt -2.1695 2.0294 0.0000
vt -3.6544 1.7230 0.0000
vt -2.1695 3.1396 0.0000
vt -3.6544 3.4460 0.0000
vt -2.1695 0.3064 0.0000
vt -2.1695 1.4166 0.0000
vt 4.6169 0.3278 0.0000
vt 0.0089 0.0356 0.0000
vt 0.0089 0.2440 0.0000
vt 0.1235 0.2440 0.0000
vt 0.1235 0.0356 0.0000
vt -13.4065 1.7230 0.0000
vt -18.9329 1.7216 0.0000
vt 0.4042 0.7952 0.0000
vt 0.4042 0.8355 0.0000
vt 4.6166 1.5601 0.0000
vt -1.1731 -0.6180 0.0000
vt -1.1731 -2.4310 0.0000
vt 4.6166 1.3965 0.0000
vt -1.4594 1.1951 0.0000
vt -1.7457 1.1951 0.0000
vt 9.9155 1.5614 0.0000
vt 8.6297 1.8609 0.0000
vt 10.9515 1.5616 0.0000
vt 10.9516 1.3981 0.0000
vt 2.5448 0.3273 0.0000
vt 0.1051 0.7489 0.0000
vt 0.1051 0.7591 0.0000
vt 0.0411 0.7591 0.0000
vt 0.0411 0.7489 0.0000
vt 2.2947 1.8594 0.0000
vt 2.2947 1.9957 0.0000
vt 11.6244 0.0024 0.0000
vt 11.6244 0.0886 0.0000
vt 4.0032 1.9961 0.0000
vt 4.0032 1.8598 0.0000
vt 6.2503 1.8604 0.0000
vt 5.3871 1.8601 0.0000
vt 5.3870 1.9964 0.0000
vt 1.2884 -1.7351 0.0000
vt 2.4583 -1.7351 0.0000
vt 2.3675 -1.6122 0.0000
vt 1.3793 -1.6122 0.0000
vt 6.4464 1.9967 0.0000
vt 2.2944 3.1735 0.0000
vt -0.8912 3.4460 0.0000
vt -1.5516 3.1396 0.0000
vt 8.8798 0.3289 0.0000
vt 4.8662 1.8600 0.0000
vt -1.1731 1.1951 0.0000
vt 0.1194 0.0343 0.0000
vt 0.1186 0.2453 0.0000
vt 0.0089 0.2445 0.0000
vt -1.9246 2.7054 0.0000
vt -2.1631 2.7054 0.0000
vt -2.1631 1.1951 0.0000
vt -1.9246 1.1951 0.0000
vt -0.2278 2.0805 0.0000
vt -0.2278 0.9106 0.0000
vt -0.3395 0.9106 0.0000
vt -0.3395 2.0805 0.0000
vt 5.6655 0.3281 0.0000
vt 0.4102 -0.9831 0.0000
vt 0.8490 -0.9831 0.0000
vt 0.8490 1.9831 0.0000
vt 0.4102 1.9831 0.0000
vt 7.4680 1.3827 0.0000
vt 7.4684 0.0593 0.0000
vt 7.4083 0.0014 0.0000
vt 9.9158 0.3291 0.0000
vt 3.5808 0.3276 0.0000
vt 10.9518 0.3294 0.0000
vt -13.4069 3.4460 0.0000
vt 0.1203 0.2461 0.0000
vt 0.0106 0.2461 0.0000
vt 0.0106 0.0342 0.0000
vt 0.1203 0.0342 0.0000
vt 1.7268 -0.3035 0.0000
vt 1.2879 -0.3035 0.0000
vt 1.2879 -0.9831 0.0000
vt 1.7268 -0.9831 0.0000
vt 2.5700 1.0347 0.0000
vt 2.4583 1.0347 0.0000
vt 2.5700 -1.7351 0.0000
vt 0.2574 0.2455 0.0000
vt 0.1412 0.2455 0.0000
vt 0.1412 0.0341 0.0000
vt 0.2574 0.0341 0.0000
vt -0.3395 2.2186 0.0000
vt -1.3277 2.2186 0.0000
vt -1.1539 2.0779 0.0000
vt -0.5133 2.0779 0.0000
vt -0.5133 1.1058 0.0000
vt 1.2884 1.0347 0.0000
vt 1.3793 1.0335 0.0000
vt 1.2879 1.9831 0.0000
vt 0.4331 0.8005 0.0000
vt 0.4441 0.8351 0.0000
vt 0.4336 0.8429 0.0000
vt 0.4336 0.8056 0.0000
vt 0.4441 0.8000 0.0000
vt 1.2884 0.9106 0.0000
vt -0.1294 0.4824 0.0000
vt -0.1294 1.8851 0.0000
vt -0.4156 1.8851 0.0000
vt -0.4157 0.4824 0.0000
vt -1.1539 1.1058 0.0000
vt 2.6816 -1.7351 0.0000
vt 2.6816 1.0347 0.0000
vt 0.4331 0.8006 0.0000
vt 0.4221 0.8385 0.0000
vt 2.3675 1.0335 0.0000
vt 2.7194 2.4597 0.0000
vt 2.4809 2.4597 0.0000
vt 2.4809 0.9494 0.0000
vt 2.7194 0.9494 0.0000
vt 0.4175 0.6561 0.0000
vt 0.4175 0.4956 0.0000
vt 0.5619 0.4958 0.0000
vt 0.5616 0.6561 0.0000
vt 0.0000 0.0000 0.0000
vt 1.0101 3.1721 0.0000
vt 2.3398 3.1721 0.0000
vt 2.3398 3.6931 0.0000
vt 0.4925 3.6931 0.0000
vt 2.3398 0.8690 0.0000
vt 1.0101 0.8690 0.0000
vt 0.4925 0.3538 0.0000
vt 2.3398 0.3538 0.0000
vt 0.3215 1.9758 0.0000
vt -0.1506 1.9758 0.0000
vt -0.1506 0.6462 0.0000
vt 0.3215 0.6462 0.0000
vt -0.6227 0.6462 0.0000
vt -0.6227 1.9758 0.0000
vt 0.4161 0.6555 0.0000
vt 0.4161 0.4932 0.0000
vt 0.5566 0.4932 0.0000
vt 0.5566 0.6555 0.0000
vt -2.4699 0.6462 0.0000
vt -2.4699 -2.6931 0.0000
vt 0.4925 -2.6931 0.0000
vt 0.4925 0.6462 0.0000
vt -18.9333 3.4446 0.0000
vt -0.6227 3.6086 0.0000
vt -2.4699 3.6086 0.0000
vt 8.1469 1.3828 0.0000
# 292 texture coords

g R_Pavillon_1_LOD1
s off
f 1/1/1 2/2/1 3/3/1 4/4/1 
f 5/5/2 6/6/3 7/7/3 8/8/2 
f 9/9/1 10/10/1 11/11/1 12/12/1 
f 13/13/1 14/14/1 15/15/1 16/16/1 
f 17/17/4 18/18/4 19/19/4 
f 20/20/5 21/21/6 19/19/6 18/18/5 
f 22/22/7 21/21/7 20/20/7 
f 23/23/8 24/24/8 25/25/8 26/26/8 
f 27/27/9 28/28/9 6/6/9 5/5/9 
f 29/29/1 30/30/1 31/31/1 32/32/1 
f 29/33/1 33/34/1 30/35/1 
f 34/36/1 35/37/1 36/38/1 37/39/1 
f 38/40/1 39/41/1 40/42/1 
f 41/43/1 42/44/1 43/45/1 
f 44/46/1 15/47/1 14/48/1 45/49/1 
f 46/50/1 47/51/1 48/52/10 
f 49/53/1 50/54/1 51/55/1 
f 52/56/10 53/57/10 54/58/1 
f 55/59/1 56/60/1 57/61/1 58/62/1 
f 59/63/1 13/64/1 16/65/1 60/66/1 
f 61/67/1 47/51/1 62/68/1 63/69/11 
f 64/70/12 65/71/12 66/72/1 67/73/1 
f 68/74/9 69/75/9 70/76/9 71/77/9 
f 8/8/13 7/7/13 72/78/13 73/79/13 
f 74/80/1 12/81/1 75/82/1 76/83/1 
f 77/84/1 78/85/1 79/86/1 
f 10/10/1 9/9/1 80/87/1 
f 81/88/1 82/89/1 32/90/1 83/91/1 
f 39/41/1 76/92/1 75/93/1 11/11/1 
f 81/88/1 84/94/1 44/46/1 
f 85/95/1 46/50/1 48/52/10 49/53/1 
f 86/96/1 32/90/1 82/89/1 
f 87/97/1 88/98/1 81/88/1 
f 44/46/1 84/94/1 89/99/1 43/45/1 
f 90/100/1 91/101/1 74/102/1 92/103/1 
f 49/53/1 64/104/12 67/105/1 50/54/1 
f 46/13/1 85/106/1 41/107/1 93/108/1 
f 94/109/1 31/110/1 95/111/1 96/112/1 
f 97/111/1 98/110/1 40/113/1 99/114/1 
f 100/115/1 89/116/1 101/117/1 102/118/1 
f 89/13/1 84/119/1 83/120/1 101/121/1 
f 31/110/1 30/113/1 103/114/1 95/111/1 
f 82/80/1 88/81/1 104/82/1 105/83/1 
f 49/53/1 11/11/1 65/122/12 
f 28/28/9 106/123/9 107/124/9 108/125/9 
f 45/49/1 50/54/1 109/126/1 
f 50/54/1 45/49/1 13/127/1 
f 45/49/1 109/126/1 110/128/1 11/11/1 
f 44/46/1 43/45/1 15/47/1 
f 58/129/1 111/130/1 112/131/1 55/132/1 
f 113/76/13 114/75/13 115/74/13 116/77/13 
f 35/133/1 39/134/1 49/135/1 36/136/1 
f 111/137/1 117/138/10 52/139/10 112/140/1 
f 34/141/1 56/142/1 39/134/1 35/133/1 
f 36/136/1 49/135/1 57/143/1 37/144/1 
f 106/123/9 118/145/9 119/146/9 120/147/9 
f 120/147/9 119/146/9 121/148/9 122/149/9 
f 6/6/9 123/150/9 124/151/9 120/147/9 
f 28/28/9 108/125/9 123/150/9 6/6/9 
f 21/21/14 22/22/14 17/17/14 19/19/14 
f 106/123/9 120/147/9 124/151/9 107/124/9 
f 41/43/1 43/45/1 96/152/1 47/51/1 
f 125/153/1 126/154/1 127/155/1 128/156/1 
f 7/7/13 129/157/13 78/158/13 72/78/13 
f 22/159/15 20/20/15 18/18/15 17/160/15 
f 32/90/1 130/161/1 43/45/1 
f 131/162/1 98/31/1 132/30/1 133/163/1 
f 43/45/1 130/161/1 94/164/1 
f 96/152/1 43/45/1 94/164/1 
f 32/32/1 31/31/1 94/165/1 130/166/1 
f 131/167/1 92/103/1 134/168/1 38/40/1 
f 78/85/1 133/169/1 132/170/1 
f 62/68/1 103/171/1 30/35/1 33/34/1 
f 86/172/1 82/173/1 105/174/1 135/175/1 
f 97/111/1 136/112/1 132/109/1 98/110/1 
f 33/34/1 135/176/1 105/177/1 
f 32/90/1 135/176/1 33/34/1 
f 137/178/1 138/179/1 54/58/1 53/57/10 
f 83/91/1 32/90/1 101/180/1 
f 43/45/1 102/181/1 32/90/1 
f 59/182/1 50/54/1 13/127/1 
f 32/90/1 102/181/1 101/180/1 
f 43/45/1 60/183/1 16/184/1 
f 139/185/15 140/186/15 141/187/15 114/188/15 
f 109/126/1 50/54/1 66/189/1 
f 64/104/12 49/53/1 65/122/12 
f 50/54/1 67/105/1 66/189/1 
f 50/54/1 59/182/1 60/183/1 43/45/1 
f 92/103/1 131/167/1 90/100/1 
f 38/40/1 134/168/1 39/41/1 
f 33/34/1 105/177/1 104/190/1 87/97/1 
f 133/169/1 77/84/1 90/100/1 131/167/1 
f 12/12/1 74/102/1 91/101/1 9/9/1 
f 142/191/9 143/192/9 118/145/9 106/123/9 
f 54/58/1 99/193/16 40/42/1 39/41/1 
f 39/41/1 134/168/1 76/92/1 
f 11/11/1 110/128/1 65/122/12 
f 45/49/1 14/48/1 13/127/1 
f 15/47/1 43/45/1 16/184/1 
f 100/194/1 43/45/1 89/99/1 
f 38/195/1 40/165/1 98/31/1 131/162/1 
f 65/196/12 110/197/1 109/198/1 66/108/1 
f 77/199/1 79/200/1 91/201/1 90/202/1 
f 144/203/1 145/204/1 24/205/1 146/206/1 
f 41/43/1 47/51/1 93/207/1 
f 42/44/1 50/54/1 43/45/1 
f 85/95/1 49/53/1 51/55/1 
f 33/34/9 87/97/9 142/191/9 106/123/9 
f 2/208/9 147/209/9 148/210/9 3/211/9 
f 57/212/1 49/53/1 48/52/10 117/213/10 
f 52/56/10 117/213/10 149/214/10 53/57/10 
f 112/140/1 52/139/10 56/60/1 55/59/1 
f 6/6/3 120/147/3 129/157/3 7/7/3 
f 99/193/16 54/58/1 97/215/16 
f 103/171/1 62/68/1 95/216/1 
f 138/179/1 136/217/1 97/215/16 
f 37/144/1 57/143/1 56/142/1 34/141/1 
f 149/214/10 117/213/10 48/52/10 
f 62/68/1 47/51/1 95/216/1 
f 47/51/1 96/152/1 95/216/1 
f 120/147/3 122/149/3 150/218/3 129/157/3 
f 54/58/1 138/179/1 97/215/16 
f 138/179/1 78/85/1 132/170/1 136/217/1 
f 63/69/9 62/68/9 28/28/9 27/27/9 
f 62/68/9 33/34/9 106/123/9 28/28/9 
f 47/51/1 61/67/1 149/214/10 48/52/10 
f 151/208/9 152/209/9 153/210/9 154/211/9 
f 147/2/3 155/208/3 156/211/3 148/3/3 
f 107/219/9 124/220/9 123/221/9 108/222/9 
f 152/2/3 157/208/3 158/211/3 153/3/3 
f 159/1/1 151/2/1 154/3/1 160/4/1 
f 161/223/17 162/224/17 163/225/17 164/226/17 
f 165/227/13 139/228/13 166/186/13 167/229/13 
f 162/208/9 161/209/9 168/210/9 169/211/9 
f 161/2/3 164/208/3 170/211/3 168/3/3 
f 163/1/1 162/2/1 169/3/1 171/4/1 
f 172/230/1 173/231/1 174/232/1 175/233/1 
f 114/234/1 141/235/1 173/236/1 172/237/1 
f 142/191/9 122/149/9 121/148/9 143/192/9 
f 175/238/1 115/205/1 114/234/1 172/237/1 
f 166/239/15 114/188/15 113/240/15 
f 176/228/15 141/187/15 140/186/15 
f 157/241/13 159/210/13 160/209/13 158/225/13 
f 144/185/15 69/188/15 177/187/15 145/186/15 
f 178/186/9 144/228/9 146/227/9 179/229/9 
f 118/222/9 143/219/9 121/220/9 119/221/9 
f 180/24/18 165/242/18 181/23/19 
f 181/243/8 165/244/8 167/245/8 182/246/8 
f 183/185/9 184/247/9 141/77/9 185/74/9 
f 180/205/1 140/204/1 139/203/1 165/206/1 
f 41/248/1 85/249/1 51/250/1 42/251/1 
f 126/236/1 177/235/1 69/234/1 127/237/1 
f 125/252/1 186/76/1 177/235/1 126/236/1 
f 68/205/1 186/76/1 125/252/1 128/238/1 
f 178/239/15 69/188/15 144/185/15 
f 177/187/15 187/228/15 145/186/15 
f 155/241/13 1/210/13 4/209/13 156/225/13 
f 111/137/1 58/62/1 57/61/1 117/138/10 
f 188/229/9 176/253/9 140/254/9 180/227/9 
f 164/241/13 163/210/13 171/209/13 170/225/13 
f 24/24/18 23/23/19 146/255/18 
f 181/23/20 182/26/20 188/256/20 180/24/20 
f 179/245/20 146/244/20 23/243/20 26/246/20 
f 10/10/1 80/87/1 79/86/1 78/85/1 
f 145/254/13 187/253/13 25/229/13 24/227/13 
f 177/77/13 186/247/13 189/185/13 190/74/13 
f 39/41/1 11/11/1 49/53/1 
f 174/252/1 184/76/1 115/205/1 175/238/1 
f 46/50/1 93/207/1 47/51/1 
f 81/88/1 83/91/1 84/94/1 
f 87/97/1 104/190/1 88/98/1 
f 11/11/1 75/93/1 12/12/1 
f 79/13/1 80/106/1 9/107/1 91/108/1 
f 32/90/1 33/34/1 29/33/1 
f 78/85/1 77/84/1 133/169/1 
f 81/88/1 88/98/1 82/89/1 
f 32/90/1 86/96/1 135/176/1 
f 43/45/1 100/194/1 102/181/1 
f 42/44/1 51/55/1 50/54/1 
f 2/224/17 1/225/17 155/226/17 147/223/17 
f 166/239/15 139/185/15 114/188/15 
f 176/228/15 185/257/15 141/187/15 
f 178/239/15 70/240/15 69/188/15 
f 177/187/15 190/257/15 187/228/15 
f 92/258/1 74/259/1 76/260/1 134/261/1 
f 159/225/17 157/226/17 152/223/17 151/224/17 
f 69/234/1 68/205/1 128/238/1 127/237/1 
f 174/252/1 173/236/1 141/235/1 184/76/1 
f 191/262/1 192/263/11 193/264/11 194/265/1 
f 195/266/3 196/266/2 73/266/2 197/266/3 
f 198/267/1 199/268/11 200/269/11 201/270/1 
f 202/271/11 203/272/1 78/273/1 137/274/11 
f 78/273/1 203/272/1 198/267/1 201/270/1 
f 202/275/13 192/276/13 191/277/13 203/278/13 
f 198/279/9 204/277/9 205/276/9 199/280/9 
f 198/266/15 191/266/15 204/266/15 
f 194/281/1 193/282/11 205/283/11 204/284/1 
f 78/285/17 201/286/17 195/287/17 197/288/17 
f 150/218/13 10/289/13 78/158/13 129/157/13 
f 198/266/15 203/266/15 191/266/15 
f 196/285/13 195/279/13 201/290/13 200/291/13 
f 56/292/1 52/56/10 54/58/1 39/41/1 
# 131 polygons - 71 triangles

