<?xml version="1.0" encoding="utf-8"?>
<!-- Generator: Adobe Illustrator 16.0.3, SVG Export Plug-In . SVG Version: 6.00 Build 0)  -->
<svg version="1.1"
	 id="France_road_signs_B14" xmlns="http://www.w3.org/2000/svg" xmlns:xlink="http://www.w3.org/1999/xlink" x="0px" y="0px" width="581px" height="581px"
	 viewBox="1.56 1.561 581 581" enable-background="new 1.56 1.561 581 581" xml:space="preserve">
<circle fill="#FFFFFF" stroke="#000000" stroke-width="0.9931" stroke-linecap="round" stroke-linejoin="round" cx="291.56" cy="291.561" r="285"/>
<circle fill="#FF0000" stroke="#FF0000" stroke-width="0.1752" stroke-linecap="round" stroke-linejoin="round" cx="291.56" cy="291.561" r="272.101"/>
<circle fill="#FFFFFF" stroke="#FF0000" stroke-width="0.1752" stroke-linecap="round" stroke-linejoin="round" cx="291.56" cy="291.562" r="191.118"/>
<path d="M191.366,213.621v162.824h-30.924l0.111-114.941h-0.443c-0.222,0.961-2.882,3.067-7.98,6.318l-9.643,5.099l-8.646,3.325
	c-3.474,0.74-5.358,1.294-5.653,1.663v-34.36l6.872-3.214c11.453-7.315,19.691-16.219,24.717-26.712H191.366z M308.204,213.621
	v162.824H277.28l0.111-114.941h-0.443c-0.222,0.961-2.882,3.067-7.98,6.318l-9.643,5.099l-8.646,3.325
	c-3.474,0.74-5.358,1.294-5.653,1.663v-34.36l6.872-3.214c11.453-7.315,19.691-16.219,24.717-26.712H308.204z M336.815,312.379
	c-0.222-4.137-0.332-8.201-0.332-12.191c0-1.996,0.035-3.99,0.11-5.986c0.222-7.831,0.849-15.442,1.884-22.833v-0.776l0.443-0.998
	l0.776-7.648l0.554-1.108l1.109-6.207l0.443-0.665c1.107-5.32,3.508-11.306,7.204-17.956l3.214-4.877l6.207-6.318
	c6.576-5.32,15.111-9.125,25.604-11.417c3.325-0.59,6.761-0.887,10.308-0.887h0.887c5.543,0.149,11.343,1.072,17.402,2.771
	c2.512,0.296,6.539,1.959,12.082,4.988c5.689,3.547,10.861,8.387,15.518,14.52l3.547,5.431l2.881,6.096l1.22,4.434l0.333,0.333
	v1.108c0.737,1.552,1.181,2.771,1.33,3.658l0.443,0.554l1.884,9.865l0.333,0.222l-0.223,1.441l0.443,0.887l1.109,11.86l0.443,1.108
	l-0.333,0.111l0.776,6.982l-0.223,0.223c0.295,0.739,0.295,1.183,0,1.33l0.333,1.107l-0.222,0.333l0.555,7.538l-0.223,0.221
	l0.333,3.215l-0.11,0.221v4.434c-0.074,2.734-0.297,6.023-0.666,9.865l-0.554,4.102l0.222,0.221l-0.555,1.109
	c-0.221,2.734-0.85,5.984-1.884,9.754l-0.665,2.105l-0.111,1.219l-2.881,8.203l-0.555,0.443c0,0.738-0.961,2.992-2.882,6.762
	l-5.32,7.646c-5.838,6.725-12.304,11.639-19.397,14.742c-4.654,1.848-9.348,3.064-14.076,3.658L397,377.887l-1.994-0.111
	c-16.848-0.443-30.445-5.912-40.789-16.404c-5.1-5.689-8.941-12.303-11.527-19.84c-2.957-7.686-4.767-15.777-5.432-24.275
	L336.815,312.379z M392.013,345.854c4.581,0.295,7.427,0.221,8.534-0.223l0.111,0.223l6.096-1.33
	c4.877-1.625,8.607-5.135,11.195-10.529c1.995-5.395,3.473-11.822,4.434-19.287l0.555-25.05l-0.333-11.749l-1.108-8.756
	l-0.443-0.443l-1.441-6.207l-0.443-0.222c-1.107-4.434-3.214-8.535-6.317-12.303c-2.366-1.92-4.25-3.176-5.653-3.769l-6.428-1.552
	l-6.762-0.333c-3.031-0.073-6.393,0.554-10.086,1.884c-3.4,1.626-6.246,4.544-8.535,8.756c-1.626,3.917-3.104,8.831-4.434,14.742
	l0.222,0.665c-0.443,0.371-0.703,1.59-0.776,3.658c-1.035,8.646-1.146,21.319-0.332,38.018l1.773,12.082l2.328,8.535
	c1.699,4.434,4.026,7.646,6.982,9.643C383.811,344.008,387.43,345.188,392.013,345.854z"/>
</svg>
