# 3ds Max Wavefront OBJ Exporter v0.97b - (c)2007 guruware
# File Created: 18.02.2021 00:51:32

#
# object Bench
#

v  -64.7023 44.0771 71.0059
v  -88.5110 44.0772 -109.0071
v  -64.7091 44.0772 -109.0098
v  -90.5079 44.0771 71.0087
v  -114.3165 44.0772 -109.0043
v  -90.5147 44.0772 -109.0069
v  -42.0841 93.6097 -109.0106
v  -47.5911 73.8163 71.0051
v  -47.5979 73.8164 -109.0106
v  -54.0399 41.4764 45.6245
v  -40.7874 87.0684 36.5896
v  -40.7869 87.0684 45.6245
v  -54.0424 41.4765 -74.5995
v  -40.7898 87.0685 -83.6344
v  -40.7894 87.0685 -74.5995
v  -71.2017 41.4764 36.5958
v  -71.2017 41.4764 45.6307
v  -48.1356 71.8862 -109.0106
v  -53.6426 52.0928 71.0051
v  -53.6495 52.0929 -109.0106
v  -88.5110 46.4671 -109.0071
v  -64.7023 46.4669 71.0059
v  -64.7091 46.4671 -109.0098
v  -114.3165 46.4671 -109.0043
v  -90.5079 46.4669 71.0087
v  -90.5147 46.4671 -109.0069
v  -44.3863 94.2510 -109.0105
v  -49.8933 74.4576 71.0052
v  -44.3795 94.2508 71.0052
v  -50.4378 72.5275 -109.0105
v  -55.9448 52.7341 71.0052
v  -50.4310 72.5274 71.0052
v  -88.5041 46.4669 71.0085
v  -88.5041 44.0771 71.0085
v  -114.3097 44.0771 71.0113
v  -42.0772 93.6095 71.0051
v  -48.1288 71.8860 71.0051
v  -49.9001 74.4577 -109.0105
v  -55.9517 52.7343 -109.0105
v  -114.3097 46.4669 71.0113
v  -55.8850 44.2165 45.6246
v  -43.7261 87.8871 36.5898
v  -55.8856 44.2165 36.5897
v  -55.8875 44.2165 -74.5994
v  -43.7286 87.8871 -83.6342
v  -55.8881 44.2165 -83.6343
v  -71.2017 44.2165 36.5959
v  -104.0640 44.2165 -83.6219
v  -71.2042 44.2165 -74.5932
v  -71.2042 44.2165 -83.6281
v  -104.0635 0.0000 -74.5870
v  -104.0640 0.0000 -83.6219
v  -43.7282 87.8871 -74.5993
v  -71.2017 44.2165 45.6308
v  -43.7257 87.8870 45.6247
v  -71.2042 41.4765 -83.6281
v  -104.0610 -0.0000 45.6369
v  -104.0615 44.2165 36.6021
v  -104.0615 -0.0000 36.6020
v  -71.2042 41.4765 -74.5933
v  -54.0404 41.4764 36.5896
v  -104.0610 44.2165 45.6370
v  -71.2042 0.0000 -74.5933
v  -104.0635 44.2165 -74.5870
v  -54.0429 41.4765 -83.6344
v  -71.2042 0.0000 -83.6282
v  -71.2017 -0.0000 45.6307
v  -71.2017 -0.0000 36.5958
# 68 vertices

vn 0.0000 -1.0000 -0.0000
vn 0.9633 -0.2684 -0.0000
vn 0.9633 -0.2683 -0.0000
vn 0.9603 -0.2791 -0.0000
vn 0.0000 -1.0000 0.0000
vn 0.0000 1.0000 -0.0000
vn -0.0000 1.0000 -0.0000
vn -0.9633 0.2683 0.0000
vn -0.9633 0.2684 0.0000
vn 0.0001 0.0000 1.0000
vn -0.0000 0.0000 -1.0000
vn 0.0000 -0.0000 1.0000
vn 1.0000 0.0000 -0.0000
vn -1.0000 0.0000 0.0000
vn 0.2684 0.9633 -0.0000
vn -0.0001 0.0000 -1.0000
vn -0.2684 -0.9633 0.0000
vn -0.2684 -0.9633 -0.0000
vn -0.9634 0.2682 0.0001
vn -0.9634 0.2682 0.0000
vn 0.0000 1.0000 0.0000
vn -1.0000 -0.0000 0.0000
vn -1.0000 -0.0000 0.0001
vn -0.0002 -0.0001 -1.0000
vn 0.0003 -0.0000 1.0000
vn 0.0002 0.0001 1.0000
vn -0.0003 0.0000 -1.0000
vn -0.0002 0.0000 -1.0000
vn 0.0003 0.0000 1.0000
vn -0.0003 -0.0000 -1.0000
vn -0.0002 -0.0000 -1.0000
vn 0.0002 -0.0000 1.0000
vn 0.0002 0.0000 1.0000
vn -0.2683 -0.9633 0.0000
# 34 vertex normals

vt 0.2190 0.0396 0.0000
vt 0.2176 0.0287 0.0000
vt 0.2190 0.0287 0.0000
vt 0.2043 0.0457 0.0000
vt 0.2028 0.0348 0.0000
vt 0.2043 0.0348 0.0000
vt 0.2056 0.0348 0.0000
vt 0.2044 0.0457 0.0000
vt 0.2044 0.0348 0.0000
vt 0.1020 0.0339 0.0000
vt 0.0998 0.0221 0.0000
vt 0.1020 0.0221 0.0000
vt 0.1043 0.0339 0.0000
vt 0.0917 0.0400 0.0000
vt 0.0940 0.0358 0.0000
vt 0.0940 0.0400 0.0000
vt 0.2122 0.0457 0.0000
vt 0.2134 0.0348 0.0000
vt 0.2134 0.0457 0.0000
vt 0.2161 0.0287 0.0000
vt 0.2147 0.0396 0.0000
vt 0.2147 0.0287 0.0000
vt 0.2161 0.0396 0.0000
vt 0.2058 0.0348 0.0000
vt 0.2070 0.0457 0.0000
vt 0.2058 0.0457 0.0000
vt 0.2147 0.0457 0.0000
vt 0.2073 0.0348 0.0000
vt 0.2074 0.0362 0.0000
vt 0.2073 0.0362 0.0000
vt 0.2120 0.0360 0.0000
vt 0.2119 0.0348 0.0000
vt 0.2120 0.0348 0.0000
vt 0.2119 0.0361 0.0000
vt 0.2117 0.0373 0.0000
vt 0.2117 0.0361 0.0000
vt 0.2198 0.0396 0.0000
vt 0.2197 0.0287 0.0000
vt 0.2198 0.0287 0.0000
vt 0.2117 0.0348 0.0000
vt 0.2119 0.0360 0.0000
vt 0.2117 0.0360 0.0000
vt 0.2087 0.0348 0.0000
vt 0.2089 0.0457 0.0000
vt 0.2087 0.0457 0.0000
vt 0.2120 0.0373 0.0000
vt 0.2120 0.0361 0.0000
vt 0.2195 0.0396 0.0000
vt 0.2193 0.0287 0.0000
vt 0.2195 0.0287 0.0000
vt 0.2193 0.0396 0.0000
vt 0.2192 0.0287 0.0000
vt 0.2074 0.0377 0.0000
vt 0.2073 0.0363 0.0000
vt 0.2074 0.0363 0.0000
vt 0.2192 0.0396 0.0000
vt 0.2076 0.0362 0.0000
vt 0.2075 0.0348 0.0000
vt 0.2076 0.0348 0.0000
vt 0.2196 0.0396 0.0000
vt 0.2076 0.0377 0.0000
vt 0.2075 0.0363 0.0000
vt 0.2076 0.0363 0.0000
vt 0.2072 0.0457 0.0000
vt 0.2070 0.0348 0.0000
vt 0.2072 0.0348 0.0000
vt 0.1043 0.0333 0.0000
vt 0.1066 0.0221 0.0000
vt 0.1066 0.0333 0.0000
vt 0.1043 0.0446 0.0000
vt 0.1066 0.0446 0.0000
vt 0.0963 0.0396 0.0000
vt 0.0963 0.0358 0.0000
vt 0.2466 0.9204 0.0000
vt 0.1492 0.5692 0.0000
vt 0.2466 0.5691 0.0000
vt 0.8763 0.4054 0.0000
vt 0.7787 0.8773 0.0000
vt 0.7787 0.4054 0.0000
vt 0.0990 0.0357 0.0000
vt 0.0965 0.0247 0.0000
vt 0.0997 0.0355 0.0000
vt 0.0860 0.0358 0.0000
vt 0.0837 0.0365 0.0000
vt 0.0837 0.0358 0.0000
vt 0.0914 0.0357 0.0000
vt 0.0885 0.0331 0.0000
vt 0.0917 0.0352 0.0000
vt 0.0910 0.0221 0.0000
vt 0.0877 0.0335 0.0000
vt 0.0894 0.0358 0.0000
vt 0.0887 0.0380 0.0000
vt 0.0887 0.0358 0.0000
vt 0.1695 -0.1225 0.0000
vt -0.1780 -0.0524 0.0000
vt 0.1613 -0.1507 0.0000
vt 0.7787 1.3517 0.0000
vt 0.8763 0.8799 0.0000
vt 0.8763 1.3517 0.0000
vt 0.0950 0.0357 0.0000
vt 0.0925 0.0247 0.0000
vt 0.0957 0.0355 0.0000
vt 0.0870 0.0221 0.0000
vt 0.0845 0.0331 0.0000
vt 0.0837 0.0335 0.0000
vt 0.0873 0.0357 0.0000
vt 0.0877 0.0352 0.0000
vt -0.3578 -0.1225 0.0000
vt -0.7053 -0.0524 0.0000
vt -0.3660 -0.1507 0.0000
vt 0.0954 0.0221 0.0000
vt 0.0917 0.0244 0.0000
vt 1.2242 -0.1576 0.0000
vt 0.8767 -0.2277 0.0000
vt 1.0094 -0.6829 0.0000
vt 0.3467 0.9204 0.0000
vt 0.2493 0.5692 0.0000
vt 0.3467 0.5691 0.0000
vt 0.6969 -0.1576 0.0000
vt 0.4821 -0.6829 0.0000
vt 0.8214 -0.5846 0.0000
vt 0.3494 -0.2277 0.0000
vt 0.0994 0.0221 0.0000
vt 0.0957 0.0244 0.0000
vt 0.0986 0.0396 0.0000
vt 0.0986 0.0358 0.0000
vt 0.0895 0.0400 0.0000
vt 0.0917 0.0358 0.0000
vt 0.4779 1.3569 0.0000
vt 0.5755 0.9144 0.0000
vt 0.5755 1.3569 0.0000
vt 1.3487 -0.5846 0.0000
vt -0.5726 0.4028 0.0000
vt -0.2333 0.3044 0.0000
vt 0.5782 1.3343 0.0000
vt 0.6758 0.8918 0.0000
vt 0.6758 1.3343 0.0000
vt -0.0453 0.4028 0.0000
vt 0.2940 0.3044 0.0000
vt 0.2176 0.0396 0.0000
vt 0.2028 0.0457 0.0000
vt 0.2056 0.0457 0.0000
vt 0.0998 0.0339 0.0000
vt 0.1043 0.0221 0.0000
vt 0.2122 0.0348 0.0000
vt 0.2147 0.0348 0.0000
vt 0.2074 0.0348 0.0000
vt 0.2119 0.0373 0.0000
vt 0.2197 0.0396 0.0000
vt 0.2089 0.0348 0.0000
vt 0.2073 0.0377 0.0000
vt 0.2075 0.0362 0.0000
vt 0.2196 0.0287 0.0000
vt 0.2075 0.0377 0.0000
vt 0.0940 0.0396 0.0000
vt 0.1492 0.9204 0.0000
vt 0.8763 0.8773 0.0000
vt 0.0860 0.0365 0.0000
vt 0.0917 0.0223 0.0000
vt 0.0894 0.0380 0.0000
vt 0.7787 0.8799 0.0000
vt 0.0877 0.0223 0.0000
vt 0.0957 0.0227 0.0000
vt 1.2160 -0.1294 0.0000
vt 0.2493 0.9204 0.0000
vt 0.6887 -0.1294 0.0000
vt 0.0997 0.0227 0.0000
vt 0.0895 0.0358 0.0000
vt 0.4779 0.9144 0.0000
vt 0.5782 0.8918 0.0000
# 170 texture coords

g Bench
s off
f 1/1/1 2/2/1 3/3/1 
f 4/4/1 5/5/1 6/6/1 
f 7/7/2 8/8/3 9/9/3 
f 10/10/4 11/11/4 12/12/4 
f 13/12/4 14/13/4 15/10/4 
f 16/14/5 10/15/5 17/16/5 
f 18/17/2 19/18/3 20/19/2 
f 21/20/6 22/21/6 23/22/6 
f 24/2/6 25/23/7 26/20/7 
f 27/24/8 28/25/9 29/26/9 
f 30/18/8 31/27/9 32/19/8 
f 1/28/10 33/29/10 34/30/10 
f 20/31/11 30/32/11 18/33/11 
f 19/34/12 32/35/12 31/36/12 
f 3/37/13 22/38/13 1/39/13 
f 9/40/11 27/41/11 7/42/11 
f 35/43/14 24/44/14 5/45/14 
f 36/46/12 28/34/12 8/47/12 
f 18/48/15 32/49/15 37/50/15 
f 7/51/15 29/52/15 36/49/15 
f 5/53/16 26/54/16 6/55/16 
f 8/8/17 38/6/17 9/9/17 
f 20/1/18 31/52/18 39/56/18 
f 4/57/10 40/58/10 35/59/10 
f 6/50/13 25/60/13 4/48/13 
f 2/61/16 23/62/16 3/63/16 
f 34/64/14 21/65/14 2/66/14 
f 41/67/19 42/68/20 43/69/19 
f 44/70/19 45/69/20 46/71/19 
f 47/72/6 41/15/6 43/73/21 
f 48/74/6 49/75/6 50/76/6 
f 51/77/22 48/78/14 52/79/23 
f 14/80/11 46/81/24 45/82/11 
f 14/83/15 53/84/15 15/85/15 
f 17/86/25 41/87/26 54/88/25 
f 12/89/12 41/87/26 10/90/26 
f 12/91/15 42/92/15 55/93/15 
f 56/94/27 48/95/28 50/96/27 
f 57/97/14 58/98/14 59/99/14 
f 11/100/11 43/101/24 42/102/11 
f 15/103/12 44/104/26 13/105/26 
f 60/106/29 44/104/26 49/107/25 
f 16/108/30 58/109/31 47/110/27 
f 16/111/30 43/101/24 61/112/24 
f 17/113/25 62/114/32 57/115/32 
f 58/116/6 54/117/6 47/118/6 
f 60/119/29 51/120/32 63/121/32 
f 60/119/29 64/122/33 51/120/32 
f 56/123/27 46/81/24 65/124/24 
f 50/125/6 44/73/6 46/126/6 
f 13/127/1 56/128/5 65/14/5 
f 60/129/13 66/130/13 56/131/13 
f 17/113/25 57/115/32 67/132/32 
f 59/133/28 16/108/30 68/134/28 
f 17/135/13 68/136/13 16/137/13 
f 52/138/28 56/94/27 66/139/28 
f 1/1/1 34/140/1 2/2/1 
f 4/4/1 35/141/1 5/5/1 
f 7/7/2 36/142/3 8/8/3 
f 10/10/4 61/143/4 11/11/4 
f 13/12/4 65/144/4 14/13/4 
f 16/14/5 61/128/1 10/15/5 
f 18/17/2 37/145/2 19/18/3 
f 21/20/6 33/23/6 22/21/6 
f 24/2/6 40/140/6 25/23/7 
f 27/24/8 38/65/9 28/25/9 
f 30/18/8 39/146/9 31/27/9 
f 1/28/10 22/147/10 33/29/10 
f 20/31/11 39/41/11 30/32/11 
f 19/34/12 37/148/12 32/35/12 
f 3/37/13 23/149/13 22/38/13 
f 9/40/11 38/32/11 27/41/11 
f 35/43/14 40/150/14 24/44/14 
f 36/46/12 29/148/12 28/34/12 
f 18/48/15 30/51/15 32/49/15 
f 7/51/15 27/56/15 29/52/15 
f 5/53/16 24/151/16 26/54/16 
f 8/8/17 28/4/34 38/6/17 
f 20/1/18 19/3/17 31/52/18 
f 4/57/10 25/152/10 40/58/10 
f 6/50/13 26/153/13 25/60/13 
f 2/61/16 21/154/16 23/62/16 
f 34/64/14 33/25/14 21/65/14 
f 41/67/19 55/144/20 42/68/20 
f 44/70/19 53/67/20 45/69/20 
f 47/72/6 54/155/6 41/15/6 
f 48/74/6 64/156/6 49/75/6 
f 51/77/22 64/157/14 48/78/14 
f 14/80/11 65/124/24 46/81/24 
f 14/83/15 45/158/15 53/84/15 
f 17/86/25 10/90/26 41/87/26 
f 12/89/12 55/159/12 41/87/26 
f 12/91/15 11/160/15 42/92/15 
f 56/94/27 52/138/28 48/95/28 
f 57/97/14 62/161/14 58/98/14 
f 11/100/11 61/112/24 43/101/24 
f 15/103/12 53/162/12 44/104/26 
f 60/106/29 13/105/26 44/104/26 
f 16/108/30 59/133/28 58/109/31 
f 16/111/30 47/163/27 43/101/24 
f 17/113/25 54/164/25 62/114/32 
f 58/116/6 62/165/6 54/117/6 
f 60/119/29 49/166/25 64/122/33 
f 56/123/27 50/167/27 46/81/24 
f 50/125/6 49/72/6 44/73/6 
f 13/127/1 60/168/1 56/128/5 
f 60/129/13 63/169/13 66/130/13 
f 17/135/13 67/170/13 68/136/13 
# 0 polygons - 108 triangles

