# 3ds Max Wavefront OBJ Exporter v0.97b - (c)2007 guruware
# File Created: 03.02.2021 21:55:46

#
# object G_Grass_x1Quad
#

v  1286.3058 0.0001 -637.2583
v  386.4355 0.0001 -637.2583
v  386.4355 -0.0001 262.6120
v  1286.3058 -0.0001 262.6120
# 4 vertices

vn 0.0000 1.0000 0.0000
# 1 vertex normals

vt 2.0218 1.9841 0.0000
vt 0.0222 1.9841 0.0000
vt 0.0222 -0.0155 0.0000
vt 2.0218 -0.0155 0.0000
# 4 texture coords

g G_Grass_x1Quad
s off
f 1/1/1 2/2/1 3/3/1 4/4/1 
# 1 polygons

