# 3ds Max Wavefront OBJ Exporter v0.97b - (c)2007 guruware
# File Created: 03.02.2021 23:42:53

#
# object Road_TILE_Gray1
#

v  -1514.2332 -8.4018 -2048.1172
v  -1514.2332 -8.4019 -1148.2620
v  -1514.2332 8.1451 -1148.2620
v  -1514.2332 8.1452 -2048.1172
v  -2413.9097 8.1451 -1148.2621
v  -2413.9097 -8.4019 -1148.2621
v  -2413.9097 -8.4018 -2048.1172
v  -2413.9097 8.1452 -2048.1172
v  -2428.2568 8.1452 -2048.1172
v  -2878.1846 8.1452 -2048.1172
v  -2878.1846 8.1451 -1148.2621
v  -2428.2568 8.1451 -1148.2621
v  -1499.8860 8.1451 -1148.2620
v  -1499.8860 8.1452 -2048.1172
v  -1049.9583 8.1451 -1148.2620
v  -1049.9583 8.1452 -2048.1172
# 16 vertices

vn -1.0000 -0.0000 -0.0000
vn 1.0000 -0.0000 -0.0000
vn 0.0000 1.0000 0.0000
# 3 vertex normals

vt 1.1242 0.5079 0.0000
vt 1.1241 2.4570 0.0000
vt 1.0859 2.4711 0.0000
vt 1.0860 0.5079 0.0000
vt 1.1622 -0.4778 0.0000
vt 1.2004 -0.4653 0.0000
vt 1.2004 1.4836 0.0000
vt 1.1622 1.4852 0.0000
vt 0.0028 0.9968 0.0000
vt 0.0028 0.0023 0.0000
vt 0.9972 0.0023 0.0000
vt 0.9972 0.9968 0.0000
vt 0.0001 0.9999 0.0000
vt 0.9999 0.9999 0.0000
vt 0.9999 -0.9997 0.0000
vt 0.0001 -0.9997 0.0000
vt 1.5317 0.9942 0.0000
vt 1.5293 -0.9478 0.0000
vt 1.5611 -0.9478 0.0000
vt 1.5641 0.9950 0.0000
vt 1.3766 -0.4603 0.0000
vt 1.4076 1.4792 0.0000
vt 1.3766 1.4792 0.0000
# 23 texture coords

g Road_TILE_Gray1
s off
f 1/1/1 2/2/1 3/3/1 4/4/1 
f 5/5/2 6/6/2 7/7/2 8/8/2 
f 7/9/3 6/10/3 2/11/3 1/12/3 
f 9/13/3 10/14/3 11/15/3 12/16/3 
f 4/17/3 3/18/3 13/19/3 14/20/3 
f 14/13/3 13/16/3 15/15/3 16/14/3 
f 12/21/3 5/22/3 8/22/3 9/23/3 
# 7 polygons

