# 3ds Max Wavefront OBJ Exporter v0.97b - (c)2007 guruware
# File Created: 03.02.2021 23:40:06

#
# object RoadGray_PAV3_
#

v  -897.4548 0.0001 -574.5956
v  2.4158 -0.0001 325.2596
v  2.4158 0.0001 -574.5957
v  -897.4548 -0.0001 325.2596
# 4 vertices

vn -0.0000 1.0000 0.0000
# 1 vertex normals

vt -0.9997 1.9997 0.0000
vt 0.9999 0.0001 0.0000
vt 0.9999 1.9997 0.0000
vt -0.9997 0.0001 0.0000
# 4 texture coords

g RoadGray_PAV3_
s off
f 1/1/1 2/2/1 3/3/1 
f 1/1/1 4/4/1 2/2/1 
# 0 polygons - 2 triangles

