# 3ds Max Wavefront OBJ Exporter v0.97b - (c)2007 guruware
# File Created: 03.02.2021 19:50:01

#
# object Bat_Blocking3_LOD0
#

v  -4880.6787 5216.9551 778.2577
v  -6561.1230 4886.1206 778.2577
v  -6561.1230 5216.9551 778.2577
v  -6561.1230 5216.9551 2610.4783
v  -6561.1230 4886.1206 2610.4783
v  -4880.6787 4665.5645 778.2577
v  -6561.1230 4334.7305 778.2574
v  -6561.1230 4665.5645 778.2577
v  -6561.1230 4334.7305 2610.4783
v  -6561.1230 4665.5645 2610.4783
v  -6561.1230 5216.9546 4442.6978
v  -6561.1230 4886.1201 4442.6978
v  -6561.1230 4665.5640 4442.6978
v  -6561.1230 4334.7300 4442.6978
v  -4880.6787 5216.9546 4442.6978
v  -4880.6787 4665.5640 4442.6978
v  -4880.6787 4334.7305 778.2574
v  -6561.1230 4003.8965 778.2574
v  -6561.1230 4003.8962 2610.4783
v  -6561.1230 4003.8958 4442.6978
v  -4880.6787 4334.7300 4442.6978
v  -4880.6787 3673.0615 4442.6978
v  -4880.6787 4003.8958 4442.6978
v  -6561.1230 3673.0618 2610.4780
v  -6561.1230 3673.0615 4442.6978
v  -4880.6787 3673.0623 778.2574
v  -6561.1230 3673.0623 778.2574
v  -3134.7322 4665.5645 712.7555
v  -6626.6250 4886.1206 712.7555
v  -3134.7322 4886.1206 712.7555
v  -6626.6250 4665.5640 4508.2002
v  -6626.6250 4665.5645 712.7555
v  -3134.7310 4665.5640 4508.2002
v  -6626.6250 4886.1201 4508.2002
v  -6626.6250 3673.0623 712.7554
v  -6626.6250 3490.7021 4508.1997
v  -6626.6250 3673.0615 4508.1997
v  -3134.7322 5216.9551 712.7555
v  -3134.7310 5327.2324 4508.2002
v  -3134.7310 5216.9546 4508.2002
v  -6626.6250 5327.2324 4508.2002
v  -6626.6250 5216.9546 4508.2002
v  -4880.6787 6871.1265 778.2578
v  -6561.1230 6540.2925 778.2578
v  -6561.1230 6871.1265 778.2578
v  -6561.1230 6871.1265 2610.4785
v  -6561.1230 6540.2920 2610.4785
v  -6561.1230 6319.7363 778.2579
v  -4880.6787 5988.9019 778.2577
v  -6561.1230 5988.9019 778.2577
v  -6561.1230 5988.9014 2610.4783
v  -6561.1230 6319.7358 2610.4785
v  -6561.1230 7163.7642 2610.4785
v  -6561.1230 6981.4048 778.2579
v  -6561.1230 6981.4043 2610.4785
v  -6561.1230 7163.7646 778.2578
v  -4880.6787 6981.4048 778.2579
v  -6561.1230 6871.1260 4442.6982
v  -6561.1230 6540.2915 4442.6982
v  -6561.1230 6319.7358 4442.6982
v  -6561.1230 5988.9009 4442.6978
v  -6561.1230 7163.7642 4442.6982
v  -6561.1230 6981.4043 4442.6982
v  -4880.6787 6871.1255 4442.6982
v  -4880.6787 5988.9009 4442.6978
v  -4880.6787 6319.7358 4442.6982
v  -4880.6787 6981.4043 4442.6982
v  -6561.1230 5658.0679 778.2577
v  -6561.1230 5658.0674 2610.4783
v  -6561.1230 5658.0669 4442.6978
v  -6561.1230 5327.2324 4442.6978
v  -4880.6787 5658.0669 4442.6978
v  -6561.1230 5327.2329 2610.4783
v  -4880.6787 5658.0679 778.2577
v  -6561.1230 5327.2334 778.2577
v  -3134.7310 6319.7358 4508.2002
v  -6626.6250 6540.2915 4508.2002
v  -6626.6250 6319.7358 4508.2002
v  -3134.7322 6319.7363 712.7557
v  -6626.6250 6540.2920 712.7556
v  -3134.7322 6540.2920 712.7556
v  -3134.7322 7163.7646 712.7556
v  -6626.6250 7346.1240 712.7557
v  -3134.7324 7346.1240 712.7557
v  -6626.6250 6319.7363 712.7557
v  -6626.6250 7163.7642 4508.2002
v  -6626.6250 7346.1235 4508.2002
v  -6626.6250 5327.2334 712.7555
v  -6626.6250 5216.9551 712.7555
v  -3134.7322 6981.4048 712.7557
v  -3134.7310 6871.1255 4508.2002
v  -3134.7322 6871.1260 712.7556
v  -3134.7310 7163.7642 4508.2002
v  -6626.6250 6981.4043 4508.2002
v  -6626.6250 6871.1255 4508.2002
v  -4880.6787 1543.8932 778.2572
v  -6561.1230 1213.0590 778.2572
v  -6561.1230 1543.8932 778.2572
v  -6561.1230 1543.8931 2610.4778
v  -6561.1230 1213.0587 2610.4778
v  -4880.6787 992.5027 778.2572
v  -6561.1230 661.6687 778.2570
v  -6561.1230 992.5027 778.2572
v  -6561.1230 661.6685 2610.4778
v  -6561.1230 992.5025 2610.4778
v  -6561.1230 1543.8928 4442.6973
v  -6561.1230 1213.0586 4442.6973
v  -6561.1230 992.5023 4442.6973
v  -6561.1230 661.6683 4442.6973
v  -4880.6787 1543.8928 4442.6973
v  -4880.6787 992.5023 4442.6973
v  -4880.6787 661.6687 778.2570
v  -6561.1230 330.8345 778.2570
v  -6561.1230 330.8345 2610.4778
v  -6561.1230 330.8343 4442.6973
v  -4880.6787 661.6683 4442.6973
v  -4880.6787 -0.0002 4442.6973
v  -4880.6777 330.8343 4442.6973
v  -6561.1230 0.0000 2610.4778
v  -6561.1230 -0.0002 4442.6973
v  -4880.6787 0.0002 778.2571
v  -6561.1230 0.0002 778.2571
v  -6626.6250 992.5023 4508.1992
v  -6626.6250 1213.0590 712.7550
v  -6626.6250 992.5027 712.7550
v  -3134.7310 1543.8928 4508.1997
v  -6626.6250 1654.1711 4508.1997
v  -6626.6250 1543.8928 4508.1997
v  -3134.7310 992.5023 4508.1992
v  -6626.6250 1213.0586 4508.1997
v  -3134.7322 1543.8932 712.7550
v  -3134.7310 1654.1711 4508.1997
v  -3134.7322 992.5027 712.7550
v  -3134.7310 1213.0586 4508.1997
v  -4880.6787 3198.0645 778.2574
v  -6561.1230 2867.2305 778.2574
v  -6561.1230 3198.0645 778.2574
v  -6561.1230 3198.0647 2610.4780
v  -6561.1230 2867.2300 2610.4780
v  -6561.1230 2646.6743 778.2573
v  -4880.6787 2315.8398 778.2573
v  -6561.1230 2315.8398 778.2573
v  -6561.1230 2315.8396 2610.4780
v  -6561.1230 2646.6741 2610.4780
v  -6561.1230 3490.7024 2610.4780
v  -6561.1230 3308.3430 778.2574
v  -6561.1230 3308.3425 2610.4780
v  -6561.1230 3490.7029 778.2574
v  -4880.6787 3308.3430 778.2574
v  -6561.1230 3198.0642 4442.6978
v  -6561.1230 2867.2297 4442.6978
v  -6561.1230 2646.6738 4442.6973
v  -6561.1230 2315.8394 4442.6973
v  -6561.1230 3490.7021 4442.6978
v  -6561.1230 3308.3423 4442.6978
v  -4880.6787 3198.0637 4442.6978
v  -4880.6787 2315.8394 4442.6973
v  -4880.6787 2646.6738 4442.6973
v  -4880.6787 3308.3423 4442.6978
v  -6561.1230 1985.0056 778.2573
v  -6561.1230 1985.0056 2610.4780
v  -6561.1230 1985.0054 4442.6973
v  -4880.6787 1654.1711 4442.6973
v  -4880.6777 1985.0054 4442.6973
v  -6561.1230 1654.1713 2610.4778
v  -6561.1230 1654.1711 4442.6973
v  -4880.6787 1654.1715 778.2573
v  -6561.1230 1654.1715 778.2573
v  -3134.7310 3490.7021 4508.1997
v  -6626.6250 3308.3423 4508.1997
v  -6626.6250 3198.0645 712.7552
v  -6626.6250 3198.0637 4508.1997
v  -6626.6250 2867.2297 4508.1997
v  -6626.6250 2646.6743 712.7551
v  -6626.6250 2646.6738 4508.1997
v  -3134.7310 3198.0637 4508.1997
v  -3134.7310 2646.6738 4508.1997
v  -6626.6250 1654.1715 712.7551
v  -6626.6250 1543.8932 712.7550
v  -3134.7310 3673.0615 4508.1997
v  -3134.7322 3490.7029 712.7554
v  -3134.7324 3673.0623 712.7554
v  -3134.7322 3308.3430 712.7552
v  -3134.7322 3198.0645 712.7552
v  -3134.7322 2867.2305 712.7552
v  -3134.7322 2646.6743 712.7551
v  -3200.2334 4886.1201 4442.6978
v  -3200.2334 5216.9546 4442.6978
v  -3200.2339 5216.9551 2610.4773
v  -3200.2339 4886.1206 2610.4771
v  -3200.2334 4334.7300 4442.6978
v  -3200.2334 4665.5640 4442.6978
v  -3200.2339 4334.7305 2610.4771
v  -3200.2339 4665.5645 2610.4771
v  -3200.2346 5216.9551 778.2577
v  -3200.2344 4886.1206 778.2577
v  -3200.2344 4665.5645 778.2577
v  -3200.2344 4334.7305 778.2574
v  -4880.6787 4886.1206 778.2577
v  -3200.2334 4003.8958 4442.6978
v  -3200.2339 4003.8962 2610.4771
v  -3200.2344 4003.8965 778.2574
v  -3200.2344 3673.0623 778.2574
v  -4880.6787 4003.8965 778.2574
v  -3200.2339 3673.0618 2610.4771
v  -3200.2334 3673.0615 4442.6978
v  -3134.7310 4886.1201 4508.2002
v  -3134.7322 5327.2334 712.7555
v  -3200.2334 6540.2915 4442.6982
v  -3200.2334 6871.1255 4442.6982
v  -3200.2339 6871.1265 2610.4773
v  -3200.2339 6540.2920 2610.4773
v  -3200.2334 5988.9009 4442.6978
v  -3200.2334 6319.7358 4442.6982
v  -3200.2339 5988.9014 2610.4773
v  -3200.2339 6319.7358 2610.4773
v  -3200.2339 7163.7642 2610.4775
v  -3200.2334 6981.4043 4442.6982
v  -3200.2339 6981.4043 2610.4775
v  -3200.2334 7163.7642 4442.6982
v  -3200.2346 6871.1270 778.2578
v  -3200.2344 6540.2925 778.2578
v  -3200.2344 6319.7363 778.2579
v  -3200.2344 5988.9019 778.2577
v  -3200.2346 7163.7646 778.2578
v  -3200.2346 6981.4048 778.2579
v  -4880.6787 6319.7363 778.2579
v  -3200.2334 5658.0669 4442.6978
v  -3200.2339 5658.0674 2610.4773
v  -3200.2344 5658.0679 778.2577
v  -3200.2344 5327.2334 778.2577
v  -3200.2339 5327.2329 2610.4773
v  -3200.2334 5327.2324 4442.6978
v  -6626.6250 6981.4048 712.7557
v  -3134.7310 7346.1235 4508.2002
v  -3200.2334 1213.0586 4442.6973
v  -3200.2334 1543.8928 4442.6973
v  -3200.2339 1543.8931 2610.4768
v  -3200.2339 1213.0587 2610.4768
v  -3200.2334 661.6683 4442.6973
v  -3200.2334 992.5023 4442.6973
v  -3200.2339 661.6685 2610.4766
v  -3200.2339 992.5025 2610.4768
v  -3200.2346 1543.8932 778.2572
v  -3200.2344 1213.0590 778.2572
v  -3200.2344 992.5027 778.2572
v  -3200.2344 661.6687 778.2570
v  -3200.2334 330.8340 4442.6973
v  -3200.2339 330.8345 2610.4766
v  -3200.2344 330.8347 778.2570
v  -3200.2344 0.0002 778.2571
v  -4880.6787 330.8347 778.2570
v  -3200.2339 0.0000 2610.4766
v  -3200.2334 -0.0002 4442.6973
v  -3134.7322 1654.1715 712.7551
v  -3134.7322 1213.0590 712.7550
v  -3200.2334 3198.0637 4442.6978
v  -4880.6777 2867.2297 4442.6978
v  -3200.2334 2867.2297 4442.6978
v  -3200.2339 3198.0647 2610.4771
v  -3200.2339 2867.2300 2610.4771
v  -3200.2334 2315.8394 4442.6973
v  -3200.2334 2646.6738 4442.6973
v  -3200.2339 2315.8396 2610.4768
v  -3200.2339 2646.6741 2610.4768
v  -3200.2339 3490.7024 2610.4771
v  -3200.2334 3308.3423 4442.6978
v  -3200.2339 3308.3425 2610.4771
v  -3200.2334 3490.7021 4442.6978
v  -3200.2346 3198.0649 778.2574
v  -3200.2344 2867.2305 778.2574
v  -3200.2344 2646.6743 778.2573
v  -3200.2344 2315.8398 778.2573
v  -3200.2346 3490.7029 778.2574
v  -3200.2346 3308.3430 778.2574
v  -4880.6787 2646.6743 778.2573
v  -3200.2334 1985.0052 4442.6973
v  -3200.2339 1985.0056 2610.4768
v  -3200.2344 1985.0057 778.2573
v  -3200.2344 1654.1715 778.2573
v  -4880.6787 1985.0057 778.2573
v  -3200.2339 1654.1713 2610.4768
v  -3200.2334 1654.1711 4442.6973
v  -6626.6250 3308.3430 712.7552
v  -6626.6250 2867.2305 712.7552
v  -6626.6250 6871.1260 712.7556
v  -4880.6787 4886.1201 4442.6978
v  -6626.6250 3490.7029 712.7554
v  -4880.6787 6540.2925 778.2578
v  -4880.6787 7163.7642 778.2578
v  -4880.6787 6540.2915 4442.6982
v  -4880.6787 7163.7637 4442.6982
v  -4880.6787 5327.2324 4442.6978
v  -4880.6787 5327.2334 778.2577
v  -3134.7310 6540.2915 4508.2002
v  -6626.6250 7163.7646 712.7556
v  -3134.7310 6981.4043 4508.2002
v  -4880.6787 1213.0590 778.2572
v  -4880.6787 1213.0586 4442.6973
v  -4880.6787 2867.2305 778.2574
v  -4880.6787 3490.7024 778.2574
v  -4880.6787 3490.7017 4442.6978
v  -3134.7310 3308.3423 4508.1997
v  -3134.7310 2867.2297 4508.1997
# 304 vertices

vn 0.0000 0.0000 -1.0000
vn -1.0000 0.0000 -0.0000
vn -1.0000 -0.0000 -0.0000
vn -1.0000 0.0000 0.0000
vn 0.0000 -0.0000 1.0000
vn -1.0000 -0.0000 0.0000
vn 1.0000 0.0000 -0.0000
vn 1.0000 -0.0000 -0.0000
vn -0.0000 0.0000 -1.0000
vn -0.0000 -0.0000 1.0000
vn 0.0000 -1.0000 -0.0000
vn 0.0000 -1.0000 0.0000
# 12 vertex normals

vt 0.4882 0.8931 0.0000
vt 0.9916 0.8022 0.0000
vt 0.9916 0.8931 0.0000
vt 0.4882 0.8022 0.0000
vt 0.4882 0.9926 0.0000
vt 0.9916 0.9017 0.0000
vt 0.9916 0.9926 0.0000
vt 0.4882 0.9017 0.0000
vt 2.8899 1.8060 0.0000
vt -0.0602 1.9804 0.0000
vt 2.8899 1.9804 0.0000
vt -0.0602 1.8060 0.0000
vt -0.0603 2.6113 0.0000
vt 2.8898 2.4671 0.0000
vt 2.8898 2.6113 0.0000
vt 2.8899 2.2110 0.0000
vt -0.0602 2.2982 0.0000
vt -0.0602 2.2110 0.0000
vt 2.8899 2.2982 0.0000
vt 0.9916 0.7949 0.0000
vt 0.4882 0.7448 0.0000
vt 0.9916 0.7448 0.0000
vt 2.8899 2.4671 0.0000
vt 2.8899 2.6113 0.0000
vt -0.0603 2.4671 0.0000
vt 2.5210 2.3194 0.0000
vt -1.5210 -1.3993 0.0000
vt -1.5210 2.3194 0.0000
vt 2.5210 -1.3993 0.0000
vt 0.4882 0.7949 0.0000
# 30 texture coords

g Bat_Blocking3_LOD0
s off
f 1/1/1 2/2/1 3/3/1 
f 4/3/2 2/4/2 5/2/2 
f 6/5/1 7/6/1 8/7/1 
f 8/5/3 9/6/3 10/7/3 
f 11/3/2 5/4/2 12/2/2 
f 13/7/4 9/8/4 14/6/4 
f 12/2/5 15/1/5 11/3/5 
f 14/6/5 16/5/5 13/7/5 
f 17/1/1 18/2/1 7/3/1 
f 9/3/6 18/4/6 19/2/6 
f 14/3/6 19/4/6 20/2/6 
f 20/2/5 21/1/5 14/3/5 
f 20/7/5 22/8/5 23/5/5 
f 20/7/4 24/8/4 25/6/4 
f 18/5/3 24/6/3 19/7/3 
f 18/7/1 26/8/1 27/6/1 
f 28/9/1 29/10/1 30/11/1 
f 31/9/4 29/10/4 32/12/4 
f 33/12/5 34/11/5 31/9/5 
f 35/13/4 36/14/4 37/15/4 
f 38/16/7 39/17/7 40/18/7 
f 40/18/5 41/19/5 42/16/5 
f 43/1/1 44/2/1 45/3/1 
f 46/3/2 44/4/2 47/2/2 
f 48/7/1 49/8/1 50/6/1 
f 48/5/3 51/6/3 52/7/3 
f 53/20/2 54/21/2 55/22/2 
f 56/20/1 57/21/1 54/22/1 
f 58/3/2 47/4/2 59/2/2 
f 60/7/4 51/8/4 61/6/4 
f 62/20/2 55/21/2 63/22/2 
f 59/2/5 64/1/5 58/3/5 
f 60/7/5 65/8/5 66/5/5 
f 67/21/5 62/20/5 63/22/5 
f 49/1/1 68/2/1 50/3/1 
f 51/3/6 68/4/6 69/2/6 
f 61/3/6 69/4/6 70/2/6 
f 70/2/5 65/1/5 61/3/5 
f 71/6/5 72/5/5 70/7/5 
f 70/7/4 73/8/4 71/6/4 
f 68/5/3 73/6/3 69/7/3 
f 74/5/1 75/6/1 68/7/1 
f 76/12/5 77/11/5 78/9/5 
f 79/9/1 80/10/1 81/11/1 
f 82/23/1 83/13/1 84/24/1 
f 77/11/2 85/12/2 78/9/2 
f 83/13/4 86/14/4 87/15/4 
f 42/16/3 88/17/3 89/18/3 
f 90/19/7 91/18/7 92/16/7 
f 93/25/5 87/24/5 86/23/5 
f 91/18/5 94/19/5 95/16/5 
f 96/1/1 97/2/1 98/3/1 
f 99/3/2 97/4/2 100/2/2 
f 101/5/1 102/6/1 103/7/1 
f 103/5/3 104/6/3 105/7/3 
f 106/3/2 100/4/2 107/2/2 
f 108/7/4 104/8/4 109/6/4 
f 107/2/5 110/1/5 106/3/5 
f 109/6/5 111/5/5 108/7/5 
f 112/1/1 113/2/1 102/3/1 
f 104/3/6 113/4/6 114/2/6 
f 109/3/6 114/4/6 115/2/6 
f 115/2/5 116/1/5 109/3/5 
f 115/7/5 117/8/5 118/5/5 
f 115/7/4 119/8/4 120/6/4 
f 113/5/3 119/6/3 114/7/3 
f 113/7/1 121/8/1 122/6/1 
f 123/9/4 124/10/4 125/12/4 
f 126/18/5 127/19/5 128/16/5 
f 129/12/5 130/11/5 123/9/5 
f 131/16/7 132/17/7 126/18/7 
f 133/9/8 134/10/8 129/12/8 
f 135/1/1 136/2/1 137/3/1 
f 138/3/2 136/4/2 139/2/2 
f 140/7/1 141/8/1 142/6/1 
f 140/5/3 143/6/3 144/7/3 
f 145/20/2 146/21/2 147/22/2 
f 148/20/1 149/21/1 146/22/1 
f 150/3/2 139/4/2 151/2/2 
f 152/7/4 143/8/4 153/6/4 
f 154/20/2 147/21/2 155/22/2 
f 151/2/5 156/1/5 150/3/5 
f 152/7/5 157/8/5 158/5/5 
f 159/21/5 154/20/5 155/22/5 
f 141/1/1 160/2/1 142/3/1 
f 161/2/4 142/1/4 160/4/4 
f 153/3/6 161/4/6 162/2/6 
f 162/2/5 157/1/5 153/3/5 
f 162/7/5 163/8/5 164/5/5 
f 162/7/4 165/8/4 166/6/4 
f 160/5/3 165/6/3 161/7/3 
f 160/7/1 167/8/1 168/6/1 
f 169/25/5 37/24/5 36/23/5 
f 170/19/4 171/18/4 172/16/4 
f 173/11/2 174/12/2 175/9/2 
f 176/18/5 170/19/5 172/16/5 
f 177/12/5 173/11/5 175/9/5 
f 128/16/3 178/17/3 179/18/3 
f 180/13/7 181/14/7 182/15/7 
f 183/19/7 176/18/7 184/16/7 
f 185/11/7 177/12/7 186/9/7 
f 15/1/5 187/2/5 188/3/5 
f 189/3/7 187/4/7 190/2/7 
f 16/5/5 191/6/5 192/7/5 
f 192/5/7 193/6/7 194/7/7 
f 195/3/7 190/4/7 196/2/7 
f 197/7/7 193/8/7 198/6/7 
f 195/3/1 199/4/1 1/1/1 
f 198/6/1 6/5/1 197/7/1 
f 21/1/5 200/2/5 191/3/5 
f 193/3/7 200/4/7 201/2/7 
f 198/3/7 201/4/7 202/2/7 
f 202/2/9 17/1/9 198/3/9 
f 203/6/1 204/5/1 202/7/1 
f 202/7/7 205/8/7 203/6/7 
f 200/5/8 205/6/8 201/7/8 
f 23/5/5 206/6/5 200/7/5 
f 28/9/8 207/10/8 33/12/8 
f 38/16/1 88/17/1 208/19/1 
f 64/1/5 209/2/5 210/3/5 
f 211/3/7 209/4/7 212/2/7 
f 66/5/5 213/6/5 214/7/5 
f 214/5/7 215/6/7 216/7/7 
f 217/20/7 218/21/7 219/22/7 
f 220/20/5 67/21/5 218/22/5 
f 221/3/7 212/4/7 222/2/7 
f 223/7/7 215/8/7 224/6/7 
f 225/20/7 219/21/7 226/22/7 
f 222/2/1 43/1/1 221/3/1 
f 224/6/1 227/5/1 223/7/1 
f 57/21/1 225/20/1 226/22/1 
f 213/3/5 72/4/5 228/2/5 
f 215/3/7 228/4/7 229/2/7 
f 224/3/7 229/4/7 230/2/7 
f 230/2/1 49/1/1 224/3/1 
f 231/6/1 74/5/1 230/7/1 
f 230/7/7 232/8/7 231/6/7 
f 228/5/8 232/6/8 229/7/8 
f 72/5/5 233/6/5 228/7/5 
f 92/16/1 234/17/1 90/19/1 
f 81/11/7 76/12/7 79/9/7 
f 235/13/7 82/14/7 84/15/7 
f 110/1/5 236/2/5 237/3/5 
f 238/3/7 236/4/7 239/2/7 
f 111/5/5 240/6/5 241/7/5 
f 241/5/7 242/6/7 243/7/7 
f 244/3/7 239/4/7 245/2/7 
f 246/7/7 242/8/7 247/6/7 
f 245/2/1 96/1/1 244/3/1 
f 247/6/1 101/5/1 246/7/1 
f 240/3/5 118/4/5 248/2/5 
f 242/3/7 248/4/7 249/2/7 
f 247/3/7 249/4/7 250/2/7 
f 250/2/1 112/1/1 247/3/1 
f 251/6/1 252/5/1 250/7/1 
f 250/7/7 253/8/7 251/6/7 
f 248/5/8 253/6/8 249/7/8 
f 118/5/5 254/6/5 248/7/5 
f 131/16/1 178/17/1 255/19/1 
f 133/9/1 124/10/1 256/11/1 
f 257/3/5 258/4/5 259/2/5 
f 260/3/7 259/4/7 261/2/7 
f 158/5/5 262/6/5 263/7/5 
f 263/5/8 264/6/8 265/7/8 
f 266/20/7 267/21/7 268/22/7 
f 269/20/5 159/21/5 267/22/5 
f 270/3/7 261/4/7 271/2/7 
f 272/7/7 264/8/7 273/6/7 
f 274/20/7 268/21/7 275/22/7 
f 271/2/1 135/1/1 270/3/1 
f 273/6/1 276/5/1 272/7/1 
f 149/21/1 274/20/1 275/22/1 
f 262/3/10 164/4/10 277/2/10 
f 264/3/7 277/4/7 278/2/7 
f 273/3/7 278/4/7 279/2/7 
f 279/2/1 141/1/1 273/3/1 
f 280/6/1 281/5/1 279/7/1 
f 279/7/7 282/8/7 280/6/7 
f 277/5/8 282/6/8 278/7/8 
f 164/5/5 283/6/5 277/7/5 
f 181/23/1 35/13/1 182/24/1 
f 184/16/1 284/17/1 183/19/1 
f 186/9/1 285/10/1 185/11/1 
f 125/26/11 129/27/11 123/28/11 
f 94/19/4 286/18/4 95/16/4 
f 128/28/11 131/29/11 126/27/11 
f 174/26/11 177/27/11 175/28/11 
f 172/28/11 184/29/11 176/27/11 
f 36/28/11 181/29/11 169/27/11 
f 32/26/11 33/27/11 31/28/11 
f 42/28/11 38/29/11 40/27/11 
f 85/26/11 76/27/11 78/28/11 
f 95/28/12 92/29/12 91/27/12 
f 86/28/12 82/29/12 93/27/12 
f 1/1/1 199/4/1 2/2/1 
f 4/3/3 3/1/3 2/4/3 
f 6/5/9 17/8/9 7/6/9 
f 8/5/4 7/8/4 9/6/4 
f 11/3/3 4/1/3 5/4/3 
f 13/7/4 10/5/4 9/8/4 
f 12/2/5 287/4/5 15/1/5 
f 14/6/5 21/8/5 16/5/5 
f 17/1/1 204/4/1 18/2/1 
f 9/3/3 7/1/3 18/4/3 
f 14/3/3 9/1/3 19/4/3 
f 20/2/5 23/4/5 21/1/5 
f 20/7/5 25/6/5 22/8/5 
f 20/7/3 19/5/3 24/8/3 
f 18/5/4 27/8/4 24/6/4 
f 18/7/1 204/5/1 26/8/1 
f 28/9/1 32/12/1 29/10/1 
f 31/9/6 34/11/6 29/10/6 
f 33/12/5 207/10/5 34/11/5 
f 35/13/2 288/25/2 36/14/2 
f 38/16/8 208/19/8 39/17/8 
f 40/18/5 39/17/5 41/19/5 
f 43/1/1 289/4/1 44/2/1 
f 46/3/3 45/1/3 44/4/3 
f 48/7/1 227/5/1 49/8/1 
f 48/5/4 50/8/4 51/6/4 
f 53/20/3 56/30/3 54/21/3 
f 56/20/1 290/30/1 57/21/1 
f 58/3/3 46/1/3 47/4/3 
f 60/7/4 52/5/4 51/8/4 
f 62/20/3 53/30/3 55/21/3 
f 59/2/5 291/4/5 64/1/5 
f 60/7/5 61/6/5 65/8/5 
f 67/21/5 292/30/5 62/20/5 
f 49/1/1 74/4/1 68/2/1 
f 51/3/3 50/1/3 68/4/3 
f 61/3/3 51/1/3 69/4/3 
f 70/2/5 72/4/5 65/1/5 
f 71/6/5 293/8/5 72/5/5 
f 70/7/3 69/5/3 73/8/3 
f 68/5/4 75/8/4 73/6/4 
f 74/5/1 294/8/1 75/6/1 
f 76/12/5 295/10/5 77/11/5 
f 79/9/1 85/12/1 80/10/1 
f 82/23/1 296/25/1 83/13/1 
f 77/11/4 80/10/4 85/12/4 
f 83/13/2 296/25/2 86/14/2 
f 42/16/4 41/19/4 88/17/4 
f 90/19/8 297/17/8 91/18/8 
f 93/25/5 235/13/5 87/24/5 
f 91/18/5 297/17/5 94/19/5 
f 96/1/1 298/4/1 97/2/1 
f 99/3/3 98/1/3 97/4/3 
f 101/5/1 112/8/1 102/6/1 
f 103/5/4 102/8/4 104/6/4 
f 106/3/3 99/1/3 100/4/3 
f 108/7/4 105/5/4 104/8/4 
f 107/2/5 299/4/5 110/1/5 
f 109/6/5 116/8/5 111/5/5 
f 112/1/1 252/4/1 113/2/1 
f 104/3/3 102/1/3 113/4/3 
f 109/3/3 104/1/3 114/4/3 
f 115/2/5 118/4/5 116/1/5 
f 115/7/5 120/6/5 117/8/5 
f 115/7/3 114/5/3 119/8/3 
f 113/5/4 122/8/4 119/6/4 
f 113/7/1 252/5/1 121/8/1 
f 123/9/6 130/11/6 124/10/6 
f 126/18/5 132/17/5 127/19/5 
f 129/12/5 134/10/5 130/11/5 
f 131/16/8 255/19/8 132/17/8 
f 133/9/7 256/11/7 134/10/7 
f 135/1/1 300/4/1 136/2/1 
f 138/3/3 137/1/3 136/4/3 
f 140/7/1 276/5/1 141/8/1 
f 140/5/4 142/8/4 143/6/4 
f 145/20/3 148/30/3 146/21/3 
f 148/20/1 301/30/1 149/21/1 
f 150/3/3 138/1/3 139/4/3 
f 152/7/3 144/5/3 143/8/3 
f 154/20/3 145/30/3 147/21/3 
f 151/2/5 258/4/5 156/1/5 
f 152/7/5 153/6/5 157/8/5 
f 159/21/10 302/30/10 154/20/10 
f 141/1/9 281/4/9 160/2/9 
f 161/2/3 143/3/3 142/1/3 
f 153/3/3 143/1/3 161/4/3 
f 162/2/5 164/4/5 157/1/5 
f 162/7/5 166/6/5 163/8/5 
f 162/7/3 161/5/3 165/8/3 
f 160/5/4 168/8/4 165/6/4 
f 160/7/1 281/5/1 167/8/1 
f 169/25/5 180/13/5 37/24/5 
f 170/19/3 284/17/3 171/18/3 
f 173/11/6 285/10/6 174/12/6 
f 176/18/5 303/17/5 170/19/5 
f 177/12/5 304/10/5 173/11/5 
f 128/16/4 127/19/4 178/17/4 
f 180/13/7 169/25/7 181/14/7 
f 183/19/8 303/17/8 176/18/8 
f 185/11/8 304/10/8 177/12/8 
f 15/1/5 287/4/5 187/2/5 
f 189/3/7 188/1/7 187/4/7 
f 16/5/5 21/8/5 191/6/5 
f 192/5/7 191/8/7 193/6/7 
f 195/3/7 189/1/7 190/4/7 
f 197/7/8 194/5/8 193/8/8 
f 195/3/1 196/2/1 199/4/1 
f 198/6/1 17/8/1 6/5/1 
f 21/1/5 23/4/5 200/2/5 
f 193/3/7 191/1/7 200/4/7 
f 198/3/8 193/1/8 201/4/8 
f 202/2/1 204/4/1 17/1/1 
f 203/6/1 26/8/1 204/5/1 
f 202/7/8 201/5/8 205/8/8 
f 200/5/7 206/8/7 205/6/7 
f 23/5/5 22/8/5 206/6/5 
f 28/9/7 30/11/7 207/10/7 
f 38/16/1 89/18/1 88/17/1 
f 64/1/5 291/4/5 209/2/5 
f 211/3/7 210/1/7 209/4/7 
f 66/5/5 65/8/5 213/6/5 
f 214/5/7 213/8/7 215/6/7 
f 217/20/7 220/30/7 218/21/7 
f 220/20/5 292/30/5 67/21/5 
f 221/3/7 211/1/7 212/4/7 
f 223/7/8 216/5/8 215/8/8 
f 225/20/7 217/30/7 219/21/7 
f 222/2/1 289/4/1 43/1/1 
f 224/6/1 49/8/1 227/5/1 
f 57/21/9 290/30/9 225/20/9 
f 213/3/5 65/1/5 72/4/5 
f 215/3/7 213/1/7 228/4/7 
f 224/3/8 215/1/8 229/4/8 
f 230/2/1 74/4/1 49/1/1 
f 231/6/1 294/8/1 74/5/1 
f 230/7/8 229/5/8 232/8/8 
f 228/5/7 233/8/7 232/6/7 
f 72/5/5 293/8/5 233/6/5 
f 92/16/1 286/18/1 234/17/1 
f 81/11/8 295/10/8 76/12/8 
f 235/13/7 93/25/7 82/14/7 
f 110/1/5 299/4/5 236/2/5 
f 238/3/7 237/1/7 236/4/7 
f 111/5/5 116/8/5 240/6/5 
f 241/5/7 240/8/7 242/6/7 
f 244/3/7 238/1/7 239/4/7 
f 246/7/8 243/5/8 242/8/8 
f 245/2/1 298/4/1 96/1/1 
f 247/6/1 112/8/1 101/5/1 
f 240/3/5 116/1/5 118/4/5 
f 242/3/7 240/1/7 248/4/7 
f 247/3/8 242/1/8 249/4/8 
f 250/2/1 252/4/1 112/1/1 
f 251/6/1 121/8/1 252/5/1 
f 250/7/8 249/5/8 253/8/8 
f 248/5/7 254/8/7 253/6/7 
f 118/5/5 117/8/5 254/6/5 
f 131/16/1 179/18/1 178/17/1 
f 133/9/1 125/12/1 124/10/1 
f 257/3/5 156/1/5 258/4/5 
f 260/3/7 257/1/7 259/4/7 
f 158/5/5 157/8/5 262/6/5 
f 263/5/7 262/8/7 264/6/7 
f 266/20/7 269/30/7 267/21/7 
f 269/20/5 302/30/5 159/21/5 
f 270/3/7 260/1/7 261/4/7 
f 272/7/8 265/5/8 264/8/8 
f 274/20/7 266/30/7 268/21/7 
f 271/2/1 300/4/1 135/1/1 
f 273/6/1 141/8/1 276/5/1 
f 149/21/9 301/30/9 274/20/9 
f 262/3/5 157/1/5 164/4/5 
f 264/3/7 262/1/7 277/4/7 
f 273/3/8 264/1/8 278/4/8 
f 279/2/1 281/4/1 141/1/1 
f 280/6/1 167/8/1 281/5/1 
f 279/7/8 278/5/8 282/8/8 
f 277/5/7 283/8/7 282/6/7 
f 164/5/5 163/8/5 283/6/5 
f 181/23/1 288/25/1 35/13/1 
f 184/16/1 171/18/1 284/17/1 
f 186/9/1 174/12/1 285/10/1 
f 125/26/11 133/29/11 129/27/11 
f 94/19/3 234/17/3 286/18/3 
f 128/28/11 179/26/11 131/29/11 
f 174/26/11 186/29/11 177/27/11 
f 172/28/11 171/26/11 184/29/11 
f 36/28/11 288/26/11 181/29/11 
f 32/26/11 28/29/11 33/27/11 
f 42/28/11 89/26/11 38/29/11 
f 85/26/11 79/29/11 76/27/11 
f 95/28/11 286/26/11 92/29/11 
f 86/28/11 296/26/11 82/29/11 
# 0 polygons - 388 triangles

