# 3ds Max Wavefront OBJ Exporter v0.97b - (c)2007 guruware
# File Created: 18.02.2021 00:52:18

#
# object Sign_Yield
#

v  -87.8206 303.4407 -211.2148
v  0.6697 303.7450 -213.0327
v  -87.8245 303.4429 -212.8172
v  -91.7113 296.6542 -211.2148
v  -47.2627 220.1365 -213.0327
v  -47.2588 220.1342 -211.4304
v  -39.4475 220.1588 -213.0518
v  -91.7152 296.6564 -212.8172
v  -39.4436 220.1566 -211.4494
v  -45.4600 218.0636 -211.4377
v  -43.3471 217.3430 -213.0462
v  -43.3432 217.3408 -211.4439
v  -41.2344 218.0780 -213.0503
v  -41.2305 218.0758 -211.4480
v  4.5991 296.9894 -213.0518
v  5.4959 299.5807 -211.4480
v  4.6030 296.9872 -211.4494
v  5.4920 299.5829 -213.0503
v  5.0627 301.7751 -211.4438
v  5.0588 301.7774 -213.0462
v  3.3693 303.2367 -211.4377
v  0.6736 303.7427 -211.4304
v  -90.5134 302.9159 -211.2090
v  -90.5173 302.9182 -212.8113
v  -92.1984 301.4420 -211.2069
v  -92.6229 299.2453 -212.8113
v  -92.6190 299.2430 -211.2090
v  3.3654 303.2389 -213.0400
v  -45.4639 218.0658 -213.0400
v  -92.2022 301.4442 -212.8093
v  -43.7210 296.2875 -223.9813
v  -38.4226 0.1744 -218.6830
v  -43.7210 0.1744 -223.9814
v  -49.0193 296.2875 -218.6830
v  -38.4226 296.2875 -218.6830
v  -43.7210 0.1744 -213.3846
v  -43.7210 296.2874 -213.3846
v  -49.0193 0.1744 -218.6830
v  -73.1575 189.9578 -213.0492
v  -14.3804 188.5437 -211.2232
v  -73.1575 188.5437 -211.2232
v  -10.5874 193.7938 -213.0492
v  -10.5874 212.2933 -211.2231
v  -10.5874 192.8104 -211.2231
v  -14.3804 215.1458 -213.0492
v  -73.1575 216.5600 -211.2231
v  -14.3804 216.5600 -211.2231
v  -76.9505 211.3099 -213.0492
v  -73.1575 215.1458 -213.0492
v  -14.3804 189.9578 -213.0492
v  -11.6984 189.7933 -211.2232
v  -11.6984 191.0813 -213.0492
v  -75.8395 189.7933 -211.2232
v  -75.8395 191.0813 -213.0492
v  -76.9505 192.8104 -211.2231
v  -76.9505 193.7938 -213.0492
v  -10.5874 211.3099 -213.0492
v  -11.6984 215.3103 -211.2231
v  -11.6984 214.0223 -213.0492
v  -75.8395 215.3103 -211.2231
v  -75.8395 214.0223 -213.0492
v  -76.9505 212.2933 -211.2231
# 62 vertices

vn -0.0978 0.9952 0.0016
vn 0.0910 0.9959 0.0012
vn -0.9082 -0.4185 0.0016
vn -0.8134 -0.5817 0.0012
vn -0.0024 0.0014 -1.0000
vn 0.0024 -0.0014 1.0000
vn -0.5583 -0.8297 0.0002
vn 0.0029 -1.0000 -0.0014
vn 0.5630 -0.8264 -0.0025
vn 0.8167 -0.5770 -0.0028
vn 0.9106 -0.4133 -0.0028
vn 0.9977 -0.0683 -0.0025
vn 0.8644 0.5028 -0.0014
vn 0.4339 0.9010 0.0002
vn -0.4400 0.8980 0.0023
vn -0.8675 0.4973 0.0028
vn -0.9973 -0.0740 0.0023
vn 0.7071 0.0000 -0.7071
vn 0.0000 1.0000 0.0000
vn 0.0000 1.0000 -0.0000
vn 0.7071 0.0000 0.7071
vn -0.7071 0.0000 0.7071
vn -0.7071 0.0000 -0.7071
vn 0.0000 -0.7906 -0.6123
vn 1.0000 0.0000 -0.0000
vn 0.0000 0.7906 -0.6123
vn 0.0000 0.0000 1.0000
vn 0.0000 0.0000 -1.0000
vn 0.3369 -0.7548 -0.5628
vn 0.3330 -0.7603 -0.5577
vn 0.3457 -0.7419 -0.5746
vn 0.9102 -0.3482 -0.2240
vn 0.9088 -0.3583 -0.2137
vn 0.9117 -0.3357 -0.2368
vn -0.3369 -0.7548 -0.5628
vn -0.3330 -0.7603 -0.5577
vn -0.3239 -0.7731 -0.5453
vn -0.9102 -0.3482 -0.2240
vn -0.9088 -0.3583 -0.2137
vn -0.9067 -0.3713 -0.2000
vn 0.9123 0.3502 -0.2121
vn 0.9068 0.3553 -0.2267
vn 0.9226 0.3397 -0.1830
vn 0.3383 0.7584 -0.5571
vn 0.3321 0.7564 -0.5635
vn 0.3558 0.7637 -0.5387
vn -0.9123 0.3502 -0.2121
vn -0.9068 0.3553 -0.2267
vn -0.8940 0.3662 -0.2583
vn -0.3383 0.7584 -0.5571
vn -0.3321 0.7564 -0.5635
vn -0.3144 0.7505 -0.5812
vn -1.0000 0.0000 -0.0000
vn 0.3239 -0.7731 -0.5453
vn 0.9067 -0.3713 -0.2000
vn -0.3457 -0.7419 -0.5746
vn -0.9117 -0.3357 -0.2368
vn 0.8940 0.3662 -0.2583
vn 0.3144 0.7505 -0.5812
vn -0.9226 0.3397 -0.1830
vn -0.3558 0.7637 -0.5387
# 61 vertex normals

vt 0.2435 0.7660 0.0000
vt 0.2437 0.7560 0.0000
vt 0.2437 0.7660 0.0000
vt 0.2437 0.7561 0.0000
vt 0.2439 0.7650 0.0000
vt 0.2437 0.7650 0.0000
vt 0.2340 0.7606 0.0000
vt 0.2434 0.7661 0.0000
vt 0.2340 0.7615 0.0000
vt 0.4407 0.7646 0.0000
vt 0.6955 0.7645 0.0000
vt 0.6852 0.7824 0.0000
vt 0.2437 0.7656 0.0000
vt 0.2439 0.7653 0.0000
vt 0.2439 0.7656 0.0000
vt 0.2435 0.7665 0.0000
vt 0.2434 0.7663 0.0000
vt 0.2435 0.7663 0.0000
vt 0.2434 0.7660 0.0000
vt 0.2434 0.7560 0.0000
vt 0.2435 0.7557 0.0000
vt 0.2435 0.7560 0.0000
vt 0.2434 0.7557 0.0000
vt 0.2435 0.7555 0.0000
vt 0.2437 0.7555 0.0000
vt 0.2437 0.7663 0.0000
vt 0.2439 0.7558 0.0000
vt 0.2437 0.7558 0.0000
vt 0.2439 0.7561 0.0000
vt 0.2426 0.7556 0.0000
vt 0.2434 0.7561 0.0000
vt 0.2429 0.7555 0.0000
vt 0.2431 0.7556 0.0000
vt 0.2433 0.7558 0.0000
vt 0.2433 0.7664 0.0000
vt 0.2426 0.7665 0.0000
vt 0.2431 0.7666 0.0000
vt 0.2429 0.7666 0.0000
vt 0.2337 0.7613 0.0000
vt 0.2337 0.7608 0.0000
vt 0.2336 0.7611 0.0000
vt 0.5579 0.5617 0.0000
vt 0.5626 0.5562 0.0000
vt 0.5786 0.5617 0.0000
vt 0.5682 0.5543 0.0000
vt 0.5738 0.5562 0.0000
vt 0.6979 0.7714 0.0000
vt 0.6923 0.7811 0.0000
vt 0.6968 0.7772 0.0000
vt 0.4511 0.7825 0.0000
vt 0.4440 0.7811 0.0000
vt 0.4384 0.7715 0.0000
vt 0.4395 0.7773 0.0000
vt 0.2437 0.7653 0.0000
vt 0.2434 0.7665 0.0000
vt 0.2434 0.7555 0.0000
vt 0.2437 0.7557 0.0000
vt 0.2437 0.7665 0.0000
vt 0.2439 0.7555 0.0000
vt 0.2404 0.7469 0.0000
vt 0.2411 0.7759 0.0000
vt 0.2404 0.7759 0.0000
vt 0.2411 0.7476 0.0000
vt 0.2418 0.7469 0.0000
vt 0.2418 0.7476 0.0000
vt 0.2389 0.7759 0.0000
vt 0.2382 0.7469 0.0000
vt 0.2389 0.7469 0.0000
vt 0.2396 0.7469 0.0000
vt 0.2396 0.7759 0.0000
vt 0.2411 0.7469 0.0000
vt 0.2382 0.7759 0.0000
vt 0.2536 0.7655 0.0000
vt 0.2538 0.7599 0.0000
vt 0.2538 0.7655 0.0000
vt 0.2543 0.7599 0.0000
vt 0.2541 0.7616 0.0000
vt 0.2541 0.7599 0.0000
vt 0.2539 0.7599 0.0000
vt 0.6980 0.3480 0.0000
vt 0.7091 0.3606 0.0000
vt 0.6980 0.4305 0.0000
vt 0.2382 0.7554 0.0000
vt 0.2438 0.7544 0.0000
vt 0.2449 0.7554 0.0000
vt 0.2536 0.7599 0.0000
vt 0.2538 0.7595 0.0000
vt 0.2543 0.7595 0.0000
vt 0.2541 0.7595 0.0000
vt 0.2538 0.7659 0.0000
vt 0.2536 0.7659 0.0000
vt 0.2541 0.7619 0.0000
vt 0.2539 0.7616 0.0000
vt 0.2543 0.7616 0.0000
vt 0.2539 0.7595 0.0000
vt 0.2539 0.7659 0.0000
vt 0.2539 0.7655 0.0000
vt 0.5139 0.4179 0.0000
vt 0.5139 0.3606 0.0000
vt 0.5251 0.3480 0.0000
vt 0.5172 0.3517 0.0000
vt 0.5251 0.4305 0.0000
vt 0.7059 0.3517 0.0000
vt 0.7091 0.4179 0.0000
vt 0.7059 0.4268 0.0000
vt 0.5172 0.4268 0.0000
vt 0.2382 0.7712 0.0000
vt 0.2385 0.7547 0.0000
vt 0.2392 0.7544 0.0000
vt 0.2446 0.7547 0.0000
vt 0.2449 0.7712 0.0000
vt 0.2446 0.7719 0.0000
vt 0.2438 0.7722 0.0000
vt 0.2392 0.7722 0.0000
vt 0.2385 0.7719 0.0000
vt 0.2536 0.7595 0.0000
vt 0.2539 0.7619 0.0000
vt 0.2543 0.7619 0.0000
# 118 texture coords

g Sign_Yield
s off
f 1/1/1 2/2/2 3/3/1 
f 4/4/3 5/5/4 6/6/4 
f 3/7/5 7/8/5 8/9/5 
f 9/10/6 1/11/6 4/12/6 
f 5/13/4 10/14/7 6/15/4 
f 10/14/7 11/6/8 12/5/8 
f 12/16/8 13/17/9 14/18/9 
f 14/18/9 7/19/10 9/1/10 
f 15/20/11 16/21/12 17/22/11 
f 18/23/12 19/24/13 16/21/12 
f 20/25/13 21/21/14 19/24/13 
f 21/21/14 2/2/2 22/22/2 
f 3/3/1 23/18/15 1/1/1 
f 24/26/15 25/16/16 23/18/15 
f 25/25/16 26/27/17 27/28/17 
f 27/28/17 8/29/3 4/4/3 
f 9/1/10 15/20/11 17/22/11 
f 1/1/1 22/22/2 2/2/2 
f 4/4/3 8/29/3 5/5/4 
f 3/7/5 2/30/5 15/31/5 
f 2/30/5 28/32/5 15/31/5 
f 3/7/5 15/31/5 7/8/5 
f 28/32/5 20/33/5 18/34/5 
f 18/34/5 15/31/5 28/32/5 
f 7/8/5 13/35/5 5/36/5 
f 13/35/5 11/37/5 29/38/5 
f 5/36/5 13/35/5 29/38/5 
f 5/36/5 8/9/5 7/8/5 
f 8/9/5 26/39/5 24/40/5 
f 26/39/5 30/41/5 24/40/5 
f 24/40/5 3/7/5 8/9/5 
f 9/10/6 17/42/6 1/11/6 
f 17/42/6 16/43/6 22/44/6 
f 1/11/6 17/42/6 22/44/6 
f 16/43/6 19/45/6 21/46/6 
f 21/46/6 22/44/6 16/43/6 
f 1/11/6 23/47/6 27/48/6 
f 23/47/6 25/49/6 27/48/6 
f 27/48/6 4/12/6 1/11/6 
f 4/12/6 6/50/6 9/10/6 
f 6/50/6 10/51/6 14/52/6 
f 10/51/6 12/53/6 14/52/6 
f 14/52/6 9/10/6 6/50/6 
f 5/13/4 29/54/7 10/14/7 
f 10/14/7 29/54/7 11/6/8 
f 12/16/8 11/55/8 13/17/9 
f 14/18/9 13/17/9 7/19/10 
f 15/20/11 18/23/12 16/21/12 
f 18/23/12 20/56/13 19/24/13 
f 20/25/13 28/57/14 21/21/14 
f 21/21/14 28/57/14 2/2/2 
f 3/3/1 24/26/15 23/18/15 
f 24/26/15 30/58/16 25/16/16 
f 25/25/16 30/59/16 26/27/17 
f 27/28/17 26/27/17 8/29/3 
f 9/1/10 7/19/10 15/20/11 
f 31/60/18 32/61/18 33/62/18 
f 34/63/19 35/64/19 31/65/20 
f 35/66/21 36/67/21 32/68/21 
f 37/69/22 38/62/22 36/70/22 
f 34/68/23 33/70/23 38/66/23 
f 31/60/18 35/71/18 32/61/18 
f 34/63/19 37/71/19 35/64/19 
f 35/66/21 37/72/21 36/67/21 
f 37/69/22 34/60/22 38/62/22 
f 34/68/23 31/69/23 33/70/23 
f 39/73/24 40/74/24 41/75/24 
f 42/76/25 43/77/25 44/78/25 
f 45/79/26 46/75/26 47/74/26 
f 40/80/27 44/81/27 47/82/27 
f 39/83/28 48/84/28 49/85/28 
f 50/86/29 51/87/30 40/74/31 
f 52/88/32 44/78/33 51/89/34 
f 39/73/35 53/90/36 54/91/37 
f 54/92/38 55/93/39 56/77/40 
f 57/94/41 58/92/42 43/77/43 
f 59/95/44 47/74/45 58/87/46 
f 48/78/47 60/95/48 61/89/49 
f 61/96/50 46/75/51 49/97/52 
f 62/79/53 56/77/53 55/93/53 
f 39/73/24 50/86/24 40/74/24 
f 42/76/25 57/94/25 43/77/25 
f 45/79/26 49/97/26 46/75/26 
f 62/98/27 55/99/27 41/100/27 
f 55/99/27 53/101/27 41/100/27 
f 41/100/27 40/80/27 46/102/27 
f 62/98/27 41/100/27 46/102/27 
f 40/80/27 51/103/27 44/81/27 
f 44/81/27 43/104/27 47/82/27 
f 43/104/27 58/105/27 47/82/27 
f 47/82/27 46/102/27 40/80/27 
f 46/102/27 60/106/27 62/98/27 
f 50/107/28 39/83/28 49/85/28 
f 39/83/28 54/108/28 56/109/28 
f 48/84/28 39/83/28 56/109/28 
f 48/84/28 61/110/28 49/85/28 
f 49/85/28 45/111/28 50/107/28 
f 45/111/28 59/112/28 57/113/28 
f 50/107/28 45/111/28 42/114/28 
f 57/113/28 42/114/28 45/111/28 
f 42/114/28 52/115/28 50/107/28 
f 50/86/29 52/116/54 51/87/30 
f 52/88/32 42/76/55 44/78/33 
f 39/73/35 41/75/56 53/90/36 
f 54/92/38 53/117/57 55/93/39 
f 57/94/41 59/118/58 58/92/42 
f 59/95/44 45/79/59 47/74/45 
f 48/78/47 62/79/60 60/95/48 
f 61/96/50 60/90/61 46/75/51 
f 62/79/53 48/78/53 56/77/53 
# 0 polygons - 110 triangles

