# 3ds Max Wavefront OBJ Exporter v0.97b - (c)2007 guruware
# File Created: 18.02.2021 00:51:46

#
# object Sign_SpeedLimit_Zone_30
#

v  283.2147 212.2475 -213.3306
v  279.7462 207.8340 -213.3306
v  204.1117 212.2475 -213.3306
v  204.1117 304.0777 -209.5676
v  283.2147 304.0777 -209.5676
v  207.5801 308.4912 -209.5676
v  205.1275 307.1985 -213.3306
v  205.1275 307.1985 -209.5676
v  204.1117 304.0777 -213.3306
v  204.1117 212.2475 -209.5676
v  283.2147 304.0777 -213.3306
v  282.1988 307.1985 -209.5676
v  282.1988 209.1267 -209.5676
v  279.7462 207.8340 -209.5676
v  205.1275 209.1267 -213.3306
v  205.1275 209.1267 -209.5676
v  282.1988 307.1985 -213.3306
v  279.7462 308.4912 -209.5676
v  282.1988 209.1267 -213.3306
v  283.2147 212.2475 -209.5676
v  207.5801 207.8340 -213.3306
v  207.5801 207.8340 -209.5676
v  279.7462 308.4912 -213.3306
v  207.5801 308.4912 -213.3306
v  243.7112 295.3107 -223.6786
v  249.0095 -0.8023 -218.3803
v  243.7112 -0.8023 -223.6786
v  243.7112 295.3107 -213.0819
v  238.4128 -0.8023 -218.3803
v  243.7112 -0.8023 -213.0819
v  238.4128 295.3107 -218.3802
v  249.0095 295.3107 -218.3802
# 32 vertices

vn 0.0000 0.0000 -1.0000
vn 0.0000 0.0000 1.0000
vn -0.2402 0.9707 0.0000
vn -0.7647 0.6444 0.0000
vn -0.9876 0.1567 0.0000
vn -0.9876 -0.1567 -0.0000
vn 0.9876 0.1567 0.0000
vn 0.7647 0.6444 0.0000
vn 0.2402 -0.9707 -0.0000
vn 0.7647 -0.6444 -0.0000
vn -0.7647 -0.6444 -0.0000
vn 0.2402 0.9707 0.0000
vn 0.9876 -0.1567 -0.0000
vn -0.2402 -0.9707 -0.0000
vn 0.7071 0.0000 -0.7071
vn -0.7071 0.0000 0.7071
vn -0.0000 1.0000 -0.0000
vn 0.7071 0.0000 0.7071
vn -0.7071 0.0000 -0.7071
vn 0.0000 1.0000 -0.0000
# 20 vertex normals

vt 0.0236 0.9805 0.0000
vt 0.0234 0.9805 0.0000
vt 0.7351 0.6113 0.0000
vt 0.9928 0.6113 0.0000
vt 0.7464 0.6257 0.0000
vt 0.0237 0.9804 0.0000
vt 0.0237 0.9803 0.0000
vt 0.0237 0.9802 0.0000
vt 0.0237 0.9805 0.0000
vt 0.0234 0.9803 0.0000
vt 0.0234 0.9802 0.0000
vt 0.0236 0.9802 0.0000
vt 0.0236 0.9803 0.0000
vt 0.7351 0.3121 0.0000
vt 0.7464 0.2977 0.0000
vt 0.7384 0.3019 0.0000
vt 0.9815 0.2977 0.0000
vt 0.9895 0.3019 0.0000
vt 0.9928 0.3121 0.0000
vt 0.9895 0.6215 0.0000
vt 0.9815 0.6257 0.0000
vt 0.7384 0.6215 0.0000
vt 0.0237 0.9809 0.0000
vt 0.0236 0.9809 0.0000
vt 0.0235 0.9805 0.0000
# 25 texture coords

g Sign_SpeedLimit_Zone_30
s off
f 1/1/1 2/1/1 3/2/1 
f 4/3/2 5/4/2 6/5/2 
f 6/6/3 7/6/4 8/6/4 
f 9/7/5 10/6/6 4/7/5 
f 11/7/7 12/8/8 5/7/7 
f 2/7/9 13/8/10 14/7/9 
f 8/8/4 9/7/5 4/7/5 
f 10/6/6 15/9/11 16/9/11 
f 17/8/8 18/7/12 12/8/8 
f 19/9/10 20/6/13 13/9/10 
f 16/6/11 21/6/14 22/6/14 
f 23/7/12 6/6/3 18/7/12 
f 1/6/13 5/7/7 20/6/13 
f 21/6/14 14/7/9 22/6/14 
f 15/2/1 3/2/1 21/2/1 
f 3/2/1 9/10/1 24/11/1 
f 9/10/1 7/10/1 24/11/1 
f 24/11/1 23/12/1 11/13/1 
f 23/12/1 17/13/1 11/13/1 
f 11/13/1 1/1/1 24/11/1 
f 1/1/1 19/1/1 2/1/1 
f 2/1/1 21/2/1 3/2/1 
f 3/2/1 24/11/1 1/1/1 
f 4/3/2 10/14/2 22/15/2 
f 10/14/2 16/16/2 22/15/2 
f 22/15/2 14/17/2 4/3/2 
f 14/17/2 13/18/2 20/19/2 
f 20/19/2 5/4/2 14/17/2 
f 5/4/2 12/20/2 18/21/2 
f 14/17/2 5/4/2 4/3/2 
f 18/21/2 6/5/2 5/4/2 
f 6/5/2 8/22/2 4/3/2 
f 6/6/3 24/6/3 7/6/4 
f 9/7/5 3/6/6 10/6/6 
f 11/7/7 17/8/8 12/8/8 
f 2/7/9 19/8/10 13/8/10 
f 8/8/4 7/8/4 9/7/5 
f 10/6/6 3/6/6 15/9/11 
f 17/8/8 23/7/12 18/7/12 
f 19/9/10 1/6/13 20/6/13 
f 16/6/11 15/6/11 21/6/14 
f 23/7/12 24/6/3 6/6/3 
f 1/6/13 11/7/7 5/7/7 
f 21/6/14 2/7/9 14/7/9 
f 25/23/15 26/8/15 27/8/15 
f 28/12/16 29/24/16 30/24/16 
f 28/2/17 25/25/17 31/2/17 
f 32/12/18 30/23/18 26/24/18 
f 31/24/19 27/12/19 29/12/19 
f 25/23/15 32/23/15 26/8/15 
f 28/12/16 31/12/16 29/24/16 
f 28/2/17 32/25/20 25/25/17 
f 32/12/18 28/8/18 30/23/18 
f 31/24/19 25/24/19 27/12/19 
# 0 polygons - 54 triangles

