# Blender v2.90.1 OBJ File: 'pannels.blend'
# www.blender.org
mtllib 110Limit.mtl
o Sign_SpeedLimit_110
v 0.000000 4.328491 -0.008751
v 0.108956 4.317759 -0.008751
v 0.213725 4.285978 -0.008751
v 0.310281 4.234368 -0.008751
v 0.394913 4.164912 -0.008751
v 0.464368 4.080280 -0.008751
v 0.515978 3.983725 -0.008751
v 0.547760 3.878955 -0.008751
v 0.558491 3.769999 -0.008751
v 0.547760 3.661043 -0.008751
v 0.515978 3.556274 -0.008751
v 0.464368 3.459718 -0.008751
v 0.394913 3.375087 -0.008751
v 0.310281 3.305631 -0.008751
v 0.213725 3.254021 -0.008751
v 0.108956 3.222239 -0.008751
v 0.000000 3.211508 -0.008751
v -0.108957 3.222240 -0.008751
v -0.213725 3.254021 -0.008751
v -0.310281 3.305631 -0.008751
v -0.394913 3.375087 -0.008751
v -0.464368 3.459718 -0.008751
v -0.515979 3.556274 -0.008751
v -0.547760 3.661043 -0.008751
v -0.558491 3.770000 -0.008751
v -0.547760 3.878956 -0.008751
v -0.515978 3.983725 -0.008751
v -0.464368 4.080281 -0.008751
v -0.394913 4.164913 -0.008751
v -0.310281 4.234368 -0.008751
v -0.213725 4.285978 -0.008751
v -0.108955 4.317759 -0.008751
v 0.108956 4.317759 0.008751
v 0.000000 4.328490 0.008751
v 0.213725 4.285977 0.008751
v 0.310281 4.234367 0.008751
v 0.394913 4.164912 0.008751
v 0.464368 4.080280 0.008751
v 0.515978 3.983724 0.008751
v 0.547760 3.878955 0.008751
v 0.558491 3.769999 0.008751
v 0.547760 3.661043 0.008751
v 0.515978 3.556274 0.008751
v 0.464368 3.459718 0.008751
v 0.394913 3.375086 0.008751
v 0.310281 3.305631 0.008751
v 0.213725 3.254021 0.008751
v 0.108956 3.222239 0.008751
v 0.000000 3.211508 0.008751
v -0.108957 3.222239 0.008751
v -0.213725 3.254021 0.008751
v -0.310281 3.305631 0.008751
v -0.394913 3.375087 0.008751
v -0.464368 3.459718 0.008751
v -0.515979 3.556274 0.008751
v -0.547760 3.661043 0.008751
v -0.558491 3.770000 0.008751
v -0.547760 3.878955 0.008751
v -0.515978 3.983725 0.008751
v -0.464368 4.080280 0.008751
v -0.394913 4.164912 0.008751
v -0.310281 4.234368 0.008751
v -0.213725 4.285978 0.008751
v -0.108955 4.317759 0.008751
v -0.052475 4.429416 -0.155448
v -0.052475 4.429417 -0.043053
v 0.059920 4.429417 -0.043053
v 0.059920 4.429416 -0.155448
v -0.052475 -0.012280 -0.155449
v -0.052475 -0.012279 -0.043053
v 0.059920 -0.012279 -0.043053
v 0.059920 -0.012280 -0.155449
vt 0.444960 0.341404
vt 0.444960 0.342111
vt 0.445802 0.342111
vt 0.444960 0.344941
vt 0.444960 0.345649
vt 0.445802 0.345649
vt 0.444960 0.335744
vt 0.444960 0.336451
vt 0.445802 0.336451
vt 0.444960 0.334329
vt 0.444960 0.335036
vt 0.445802 0.335036
vt 0.444960 0.337866
vt 0.444960 0.338574
vt 0.445802 0.338574
vt 0.444960 0.352017
vt 0.445802 0.352017
vt 0.445802 0.351309
vt 0.445802 0.334329
vt 0.445802 0.333621
vt 0.445802 0.352724
vt 0.444960 0.352724
vt 0.444960 0.353432
vt 0.445802 0.335744
vt 0.444960 0.340696
vt 0.445802 0.341404
vt 0.444960 0.354139
vt 0.445802 0.354139
vt 0.445802 0.353432
vt 0.444960 0.343526
vt 0.444960 0.344234
vt 0.445802 0.344234
vt 0.444960 0.351309
vt 0.445802 0.350602
vt 0.444960 0.339281
vt 0.444960 0.339989
vt 0.445802 0.339989
vt 0.444960 0.333621
vt 0.445802 0.332913
vt 0.444960 0.332913
vt 0.445802 0.332206
vt 0.444960 0.342819
vt 0.445802 0.343526
vt 0.444960 0.332206
vt 0.445802 0.331498
vt 0.444960 0.347771
vt 0.445802 0.347771
vt 0.445802 0.347064
vt 0.444960 0.349894
vt 0.445802 0.349894
vt 0.445802 0.349187
vt 0.444960 0.348479
vt 0.445802 0.348479
vt 0.444960 0.350602
vt 0.444960 0.337159
vt 0.445802 0.337866
vt 0.445802 0.337159
vt 0.445802 0.339281
vt 0.444960 0.346356
vt 0.445802 0.346356
vt 0.011843 0.987975
vt 0.011583 0.985335
vt 0.009792 0.986292
vt 0.445802 0.340696
vt 0.444960 0.347064
vt 0.444960 0.349187
vt 0.445802 0.344941
vt 0.010749 0.988083
vt 0.010255 0.987819
vt 0.010489 0.987975
vt 0.009900 0.987386
vt 0.010056 0.987620
vt 0.009792 0.987126
vt 0.009737 0.986850
vt 0.009737 0.986568
vt 0.010056 0.985798
vt 0.009900 0.986032
vt 0.010255 0.985599
vt 0.010489 0.985443
vt 0.010749 0.985335
vt 0.011025 0.985280
vt 0.011307 0.985280
vt 0.012432 0.986032
vt 0.011843 0.985443
vt 0.012077 0.985599
vt 0.012276 0.985798
vt 0.012595 0.986568
vt 0.012540 0.986292
vt 0.012540 0.987126
vt 0.012595 0.986850
vt 0.012276 0.987620
vt 0.012432 0.987386
vt 0.012077 0.987819
vt 0.011307 0.988138
vt 0.011583 0.988083
vt 0.016765 0.986773
vt 0.016207 0.986718
vt 0.016483 0.986773
vt 0.701183 0.256224
vt 0.616381 0.220306
vt 0.677728 0.253726
vt 0.655209 0.246699
vt 0.634495 0.235415
vt 0.590608 0.181062
vt 0.601561 0.201953
vt 0.581814 0.134943
vt 0.583940 0.158435
vt 0.591339 0.088969
vt 0.584313 0.111487
vt 0.617733 0.050140
vt 0.602624 0.068255
vt 0.656977 0.024367
vt 0.636086 0.035321
vt 0.703096 0.015573
vt 0.679603 0.017699
vt 0.749070 0.025099
vt 0.726552 0.018072
vt 0.769784 0.036383
vt 0.787899 0.051492
vt 0.822465 0.136855
vt 0.802718 0.069845
vt 0.813672 0.090736
vt 0.820340 0.113362
vt 0.812940 0.182829
vt 0.819967 0.160311
vt 0.786547 0.221658
vt 0.801656 0.203543
vt 0.768194 0.236477
vt 0.747303 0.247431
vt 0.724676 0.254099
vt 0.445802 0.342819
vt 0.016505 0.975312
vt 0.016505 0.892798
vt 0.014417 0.892798
vt 0.018593 0.892798
vt 0.018593 0.975312
vt 0.020681 0.975312
vt 0.016505 0.975312
vt 0.018593 0.975312
vt 0.018593 0.892798
vt 0.014417 0.892798
vt 0.012329 0.892798
vt 0.012329 0.975312
vt 0.002860 0.985575
vt 0.002753 0.985833
vt 0.003011 0.985940
vt 0.444960 0.331498
vt 0.014417 0.975312
vt 0.020681 0.892798
vt 0.016505 0.892798
vt 0.014417 0.975312
vt 0.003118 0.985682
vn 0.8819 0.4714 0.0000
vn 0.0980 0.9952 0.0000
vn 0.4714 -0.8819 -0.0000
vn 0.0980 -0.9952 0.0000
vn 0.8819 -0.4714 -0.0000
vn -0.9952 -0.0980 -0.0000
vn -0.0980 -0.9952 -0.0000
vn -0.8819 -0.4714 0.0000
vn 0.2903 -0.9569 -0.0000
vn -0.9569 -0.2903 0.0000
vn 0.9569 0.2903 0.0000
vn -0.7730 -0.6344 0.0000
vn 0.4714 0.8819 0.0001
vn 0.4714 0.8819 0.0000
vn -0.9952 0.0980 0.0000
vn 0.9952 -0.0980 -0.0000
vn -0.2903 -0.9569 -0.0000
vn -0.4714 -0.8819 -0.0000
vn 0.6344 0.7730 0.0000
vn -0.6344 -0.7730 -0.0000
vn -0.4714 0.8819 0.0000
vn -0.8819 0.4714 0.0000
vn -0.6344 0.7730 0.0000
vn -0.9569 0.2903 0.0000
vn 0.7730 -0.6344 -0.0000
vn 0.6344 -0.7730 -0.0000
vn 0.9569 -0.2903 -0.0000
vn -0.0980 0.9952 0.0000
vn 0.0000 0.0000 -1.0000
vn 0.9952 0.0980 0.0000
vn -0.2903 0.9569 0.0000
vn -0.7730 0.6344 0.0000
vn 0.2903 0.9569 0.0000
vn 0.0000 0.0000 1.0000
vn 0.7730 0.6344 0.0000
vn -1.0000 0.0000 -0.0000
vn 1.0000 0.0000 -0.0000
vn 0.0000 1.0000 -0.0000
usemtl Material.019
s 1
f 7/1/1 6/2/1 38/3/1
f 2/4/2 1/5/2 34/6/2
f 15/7/3 14/8/3 46/9/3
f 17/10/4 16/11/4 48/12/4
f 12/13/5 11/14/5 43/15/5
f 24/16/6 56/17/6 57/18/6
f 17/10/7 49/19/7 50/20/7
f 55/21/8 23/22/8 22/23/8
f 16/11/9 15/7/9 47/24/9
f 23/22/10 55/21/10 56/17/10
f 8/25/11 7/1/11 39/26/11
f 21/27/12 53/28/12 54/29/12
f 4/30/13 3/31/14 35/32/14
f 25/33/15 57/18/15 58/34/15
f 10/35/16 9/36/16 41/37/16
f 18/38/17 50/20/17 51/39/17
f 19/40/18 51/39/18 52/41/18
f 5/42/19 4/30/19 36/43/19
f 20/44/20 52/41/20 53/45/20
f 30/46/21 62/47/21 63/48/21
f 27/49/22 59/50/22 60/51/22
f 29/52/23 61/53/23 62/47/23
f 26/54/24 58/34/24 59/50/24
f 13/55/25 12/13/25 44/56/25
f 14/8/26 13/55/26 45/57/26
f 11/14/27 10/35/27 42/58/27
f 32/59/28 64/60/28 34/6/28
f 7/61/29 19/62/29 27/63/29
f 9/36/30 8/25/30 40/64/30
f 31/65/31 63/48/31 64/60/31
f 28/66/32 60/51/32 61/53/32
f 3/31/33 2/4/33 33/67/33
f 3/68/29 1/69/29 2/70/29
f 1/69/29 31/71/29 32/72/29
f 31/71/29 27/63/29 30/73/29
f 30/73/29 27/63/29 29/74/29
f 29/74/29 27/63/29 28/75/29
f 27/63/29 25/76/29 26/77/29
f 25/76/29 27/63/29 24/78/29
f 24/78/29 27/63/29 23/79/29
f 23/79/29 19/62/29 22/80/29
f 22/80/29 19/62/29 21/81/29
f 21/81/29 19/62/29 20/82/29
f 19/62/29 15/83/29 18/84/29
f 18/84/29 15/83/29 17/85/29
f 17/85/29 15/83/29 16/86/29
f 15/83/29 13/87/29 14/88/29
f 13/87/29 11/89/29 12/90/29
f 11/89/29 9/91/29 10/92/29
f 9/91/29 7/61/29 8/93/29
f 7/61/29 5/94/29 6/95/29
f 5/96/29 3/97/29 4/98/29
f 3/68/29 27/63/29 1/69/29
f 1/69/29 27/63/29 31/71/29
f 15/83/29 19/62/29 13/87/29
f 13/87/29 19/62/29 11/89/29
f 11/89/29 7/61/29 9/91/29
f 7/61/29 3/68/29 5/94/29
f 27/63/29 19/62/29 23/79/29
f 11/89/29 19/62/29 7/61/29
f 34/99/34 37/100/34 33/101/34
f 33/101/34 37/100/34 35/102/34
f 35/102/34 37/100/34 36/103/34
f 37/100/34 39/104/34 38/105/34
f 39/104/34 41/106/34 40/107/34
f 41/106/34 43/108/34 42/109/34
f 43/108/34 45/110/34 44/111/34
f 45/110/34 47/112/34 46/113/34
f 47/112/34 49/114/34 48/115/34
f 49/114/34 51/116/34 50/117/34
f 51/116/34 49/114/34 52/118/34
f 52/118/34 49/114/34 53/119/34
f 53/119/34 57/120/34 54/121/34
f 54/121/34 57/120/34 55/122/34
f 55/122/34 57/120/34 56/123/34
f 57/120/34 59/124/34 58/125/34
f 59/124/34 61/126/34 60/127/34
f 61/126/34 34/99/34 62/128/34
f 62/128/34 34/99/34 63/129/34
f 63/129/34 34/99/34 64/130/34
f 37/100/34 34/99/34 39/104/34
f 39/104/34 34/99/34 41/106/34
f 41/106/34 45/110/34 43/108/34
f 45/110/34 49/114/34 47/112/34
f 57/120/34 34/99/34 59/124/34
f 59/124/34 34/99/34 61/126/34
f 41/106/34 49/114/34 45/110/34
f 49/114/34 57/120/34 53/119/34
f 6/2/35 5/42/35 37/131/35
f 71/132/34 67/133/34 66/134/34
f 70/135/36 66/136/36 65/137/36
f 72/138/29 69/139/29 65/140/29
f 34/99/34 57/120/34 49/114/34
f 68/141/37 67/142/37 71/143/37
f 67/144/38 68/145/38 65/146/38
f 7/1/1 38/3/1 39/26/1
f 2/4/2 34/6/2 33/67/2
f 15/7/3 46/9/3 47/24/3
f 17/10/4 48/12/4 49/19/4
f 12/13/5 43/15/5 44/56/5
f 24/16/6 57/18/6 25/33/6
f 17/10/7 50/20/7 18/38/7
f 55/21/8 22/23/8 54/29/8
f 16/11/9 47/24/9 48/12/9
f 23/22/10 56/17/10 24/16/10
f 8/25/11 39/26/11 40/64/11
f 21/27/12 54/29/12 22/23/12
f 4/30/13 35/32/14 36/43/13
f 25/33/15 58/34/15 26/54/15
f 10/35/16 41/37/16 42/58/16
f 18/38/17 51/39/17 19/40/17
f 19/40/18 52/41/18 20/44/18
f 5/42/19 36/43/19 37/131/19
f 20/44/20 53/45/20 21/147/20
f 30/46/21 63/48/21 31/65/21
f 27/49/22 60/51/22 28/66/22
f 29/52/23 62/47/23 30/46/23
f 26/54/24 59/50/24 27/49/24
f 13/55/25 44/56/25 45/57/25
f 14/8/26 45/57/26 46/9/26
f 11/14/27 42/58/27 43/15/27
f 32/59/28 34/6/28 1/5/28
f 7/61/29 27/63/29 3/68/29
f 9/36/30 40/64/30 41/37/30
f 31/65/31 64/60/31 32/59/31
f 28/66/32 61/53/32 29/52/32
f 3/31/33 33/67/33 35/32/33
f 6/2/35 37/131/35 38/3/35
f 71/132/34 66/134/34 70/148/34
f 70/135/36 65/137/36 69/149/36
f 72/138/29 65/140/29 68/150/29
f 34/99/34 49/114/34 41/106/34
f 68/141/37 71/143/37 72/151/37
f 67/144/38 65/146/38 66/152/38
