# Blender v2.90.1 OBJ File: 'pannels.blend'
# www.blender.org
mtllib EndBikeLane.mtl
o Sign_EndBicycleLane_Sign_EndCyclePath
v 0.004029 4.465034 -0.174928
v -0.075446 4.465034 -0.095453
v 0.004029 4.465034 -0.015977
v 0.083504 4.465034 -0.095453
v 0.004029 0.023338 -0.174928
v -0.075446 0.023339 -0.095453
v 0.004029 0.023339 -0.015978
v 0.083504 0.023339 -0.095453
v 0.000307 4.364109 -0.025306
v 0.109263 4.353377 -0.025306
v 0.214032 4.321596 -0.025306
v 0.310588 4.269985 -0.025306
v 0.395220 4.200530 -0.025306
v 0.464675 4.115898 -0.025306
v 0.516285 4.019342 -0.025306
v 0.548067 3.914573 -0.025306
v 0.558798 3.805617 -0.025306
v 0.548067 3.696661 -0.025306
v 0.516285 3.591892 -0.025306
v 0.464675 3.495336 -0.025306
v 0.395220 3.410705 -0.025306
v 0.310588 3.341249 -0.025306
v 0.214032 3.289639 -0.025306
v 0.109263 3.257857 -0.025306
v 0.000307 3.247126 -0.025306
v -0.108650 3.257857 -0.025306
v -0.213419 3.289639 -0.025306
v -0.309974 3.341249 -0.025306
v -0.394607 3.410705 -0.025306
v -0.464061 3.495336 -0.025306
v -0.515672 3.591892 -0.025306
v -0.547453 3.696661 -0.025306
v -0.558185 3.805617 -0.025306
v -0.547453 3.914574 -0.025306
v -0.515671 4.019343 -0.025306
v -0.464061 4.115899 -0.025306
v -0.394606 4.200531 -0.025306
v -0.309974 4.269986 -0.025306
v -0.213418 4.321596 -0.025306
v -0.108648 4.353377 -0.025306
v 0.109263 4.353376 0.010726
v 0.000307 4.364108 0.010726
v 0.214032 4.321595 0.010726
v 0.310588 4.269985 0.010726
v 0.395220 4.200530 0.010726
v 0.464675 4.115898 0.010726
v 0.516285 4.019342 0.010726
v 0.548067 3.914573 0.010726
v 0.558798 3.805617 0.010726
v 0.548067 3.696661 0.010726
v 0.516285 3.591892 0.010726
v 0.464675 3.495336 0.010726
v 0.395220 3.410704 0.010726
v 0.310588 3.341249 0.010726
v 0.214032 3.289639 0.010726
v 0.109263 3.257857 0.010726
v 0.000307 3.247126 0.010726
v -0.108650 3.257857 0.010726
v -0.213419 3.289639 0.010726
v -0.309974 3.341249 0.010726
v -0.394607 3.410705 0.010726
v -0.464061 3.495336 0.010726
v -0.515672 3.591892 0.010726
v -0.547453 3.696661 0.010726
v -0.558185 3.805617 0.010726
v -0.547453 3.914573 0.010726
v -0.515671 4.019342 0.010726
v -0.464061 4.115898 0.010726
v -0.394606 4.200530 0.010726
v -0.309974 4.269986 0.010726
v -0.213418 4.321596 0.010726
v -0.108648 4.353376 0.010726
vt 0.018021 0.960909
vt 0.018021 0.901000
vt 0.016505 0.901000
vt 0.019537 0.960909
vt 0.019537 0.901000
vt 0.018021 0.901000
vt 0.016505 0.960909
vt 0.016505 0.901000
vt 0.014989 0.901000
vt 0.014989 0.960909
vt 0.014989 0.901000
vt 0.013473 0.901000
vt 0.003011 0.985940
vt 0.003118 0.985682
vt 0.002860 0.985575
vt 0.002753 0.985833
vt 0.444960 0.342111
vt 0.444960 0.342819
vt 0.445802 0.342819
vt 0.888085 0.654050
vt 0.988033 0.553827
vt 0.887811 0.453879
vt 0.444960 0.334329
vt 0.445802 0.334329
vt 0.445802 0.333621
vt 0.444960 0.332913
vt 0.445802 0.332913
vt 0.445802 0.332206
vt 0.444960 0.344941
vt 0.444960 0.345649
vt 0.445802 0.345649
vt 0.444960 0.332206
vt 0.445802 0.331498
vt 0.444960 0.339989
vt 0.444960 0.340696
vt 0.445802 0.340696
vt 0.444960 0.343526
vt 0.444960 0.344234
vt 0.445802 0.344234
vt 0.444960 0.341404
vt 0.445802 0.342111
vt 0.445802 0.344941
vt 0.444960 0.335744
vt 0.444960 0.336451
vt 0.445802 0.336451
vt 0.445802 0.352724
vt 0.444960 0.352724
vt 0.444960 0.353432
vt 0.444960 0.337866
vt 0.444960 0.338574
vt 0.445802 0.338574
vt 0.444960 0.333621
vt 0.444960 0.349894
vt 0.445802 0.349894
vt 0.445802 0.349187
vt 0.444960 0.352017
vt 0.445802 0.352017
vt 0.445802 0.351309
vt 0.445802 0.341404
vt 0.444960 0.347771
vt 0.445802 0.347771
vt 0.445802 0.347064
vt 0.444960 0.339281
vt 0.445802 0.339281
vt 0.445802 0.343526
vt 0.445802 0.339989
vt 0.444960 0.354139
vt 0.445802 0.354139
vt 0.445802 0.353432
vt 0.444960 0.337159
vt 0.445802 0.337159
vt 0.444960 0.349187
vt 0.445802 0.348479
vt 0.011843 0.987975
vt 0.011583 0.985335
vt 0.009792 0.986292
vt 0.444960 0.348479
vt 0.444960 0.351309
vt 0.445802 0.350602
vt 0.444960 0.335036
vt 0.445802 0.335036
vt 0.444960 0.350602
vt 0.444960 0.347064
vt 0.445802 0.346356
vt 0.445802 0.335744
vt 0.445802 0.337866
vt 0.444960 0.346356
vt 0.010749 0.988083
vt 0.010255 0.987819
vt 0.010489 0.987975
vt 0.009900 0.987386
vt 0.010056 0.987620
vt 0.009792 0.987126
vt 0.009737 0.986850
vt 0.009737 0.986568
vt 0.010056 0.985798
vt 0.009900 0.986032
vt 0.010255 0.985599
vt 0.010489 0.985443
vt 0.010749 0.985335
vt 0.011025 0.985280
vt 0.011307 0.985280
vt 0.012432 0.986032
vt 0.011843 0.985443
vt 0.012077 0.985599
vt 0.012276 0.985798
vt 0.012595 0.986568
vt 0.012540 0.986292
vt 0.012540 0.987126
vt 0.012595 0.986850
vt 0.012276 0.987620
vt 0.012432 0.987386
vt 0.012077 0.987819
vt 0.011307 0.988138
vt 0.011583 0.988083
vt 0.016765 0.986773
vt 0.016207 0.986718
vt 0.016483 0.986773
vt 0.817273 0.624832
vt 0.868556 0.652154
vt 0.849773 0.646484
vt 0.832457 0.637258
vt 0.795533 0.592392
vt 0.804805 0.609683
vt 0.787862 0.554101
vt 0.789812 0.573624
vt 0.795428 0.515790
vt 0.789758 0.534573
vt 0.817080 0.483290
vt 0.804653 0.498473
vt 0.849520 0.461550
vt 0.832229 0.470822
vt 0.868288 0.455828
vt 0.926122 0.461445
vt 0.907357 0.455825
vt 0.943438 0.470670
vt 0.958622 0.483096
vt 0.971090 0.498246
vt 0.980363 0.515537
vt 0.986084 0.534304
vt 0.980467 0.592139
vt 0.986137 0.573356
vt 0.958816 0.624639
vt 0.971242 0.609455
vt 0.943666 0.637107
vt 0.926375 0.646379
vt 0.907607 0.652100
vt 0.444960 0.331498
vt 0.016505 0.960909
vt 0.018021 0.960909
vt 0.014989 0.960909
vt 0.013473 0.960909
vn 0.7071 -0.0000 -0.7071
vn -0.7071 0.0000 -0.7071
vn -0.7071 -0.0000 0.7071
vn 0.7071 -0.0000 0.7071
vn 0.0000 1.0000 -0.0000
vn 0.7730 0.6344 0.0000
vn -0.0000 0.0000 1.0000
vn -0.0980 -0.9952 -0.0000
vn -0.4714 -0.8819 -0.0000
vn 0.0980 0.9952 0.0000
vn -0.6344 -0.7730 -0.0000
vn 0.9952 0.0980 0.0000
vn 0.4714 0.8819 0.0000
vn 0.8819 0.4714 0.0000
vn 0.2903 0.9569 0.0000
vn 0.4714 -0.8819 -0.0000
vn -0.8819 -0.4714 -0.0000
vn 0.8819 -0.4714 -0.0000
vn -0.2903 -0.9569 -0.0000
vn -0.8819 0.4714 0.0000
vn -0.9952 -0.0980 -0.0000
vn 0.9569 0.2903 0.0000
vn -0.4714 0.8819 0.0000
vn 0.9569 -0.2903 -0.0000
vn 0.6344 0.7730 0.0000
vn 0.9952 -0.0980 -0.0000
vn -0.7730 -0.6344 -0.0000
vn 0.6344 -0.7730 -0.0000
vn -0.7730 0.6344 0.0000
vn 0.0000 -0.0000 -1.0000
vn -0.6344 0.7730 0.0000
vn -0.9952 0.0980 0.0000
vn -0.9569 -0.2903 -0.0000
vn 0.0980 -0.9952 -0.0000
vn -0.9569 0.2903 0.0000
vn -0.2903 0.9569 0.0000
vn 0.2903 -0.9569 -0.0000
vn 0.7730 -0.6344 -0.0000
vn -0.0980 0.9952 0.0000
usemtl Material.006
s 1
f 5/1/1 1/2/1 4/3/1
f 1/4/2 5/5/2 6/6/2
f 2/7/3 6/8/3 7/9/3
f 8/10/4 4/11/4 3/12/4
f 1/13/5 2/14/5 3/15/5 4/16/5
f 14/17/6 13/18/6 45/19/6
f 42/20/7 65/21/7 57/22/7
f 25/23/8 57/24/8 58/25/8
f 27/26/9 59/27/9 60/28/9
f 10/29/10 9/30/10 42/31/10
f 28/32/11 60/28/11 61/33/11
f 17/34/12 16/35/12 48/36/12
f 12/37/13 11/38/13 43/39/13
f 15/40/14 14/17/14 46/41/14
f 11/38/15 10/29/15 41/42/15
f 23/43/16 22/44/16 54/45/16
f 63/46/17 31/47/17 30/48/17
f 20/49/18 19/50/18 51/51/18
f 26/52/19 58/25/19 59/27/19
f 35/53/20 67/54/20 68/55/20
f 32/56/21 64/57/21 65/58/21
f 16/35/22 15/40/22 47/59/22
f 38/60/23 70/61/23 71/62/23
f 19/50/24 18/63/24 50/64/24
f 13/18/25 12/37/25 44/65/25
f 18/63/26 17/34/26 49/66/26
f 29/67/27 61/68/27 62/69/27
f 22/44/28 21/70/28 53/71/28
f 36/72/29 68/55/29 69/73/29
f 15/74/30 27/75/30 35/76/30
f 37/77/31 69/73/31 70/61/31
f 33/78/32 65/58/32 66/79/32
f 31/47/33 63/46/33 64/57/33
f 25/23/34 24/80/34 56/81/34
f 34/82/35 66/79/35 67/54/35
f 39/83/36 71/62/36 72/84/36
f 24/80/37 23/43/37 55/85/37
f 21/70/38 20/49/38 52/86/38
f 40/87/39 72/84/39 42/31/39
f 11/88/30 9/89/30 10/90/30
f 9/89/30 39/91/30 40/92/30
f 39/91/30 35/76/30 38/93/30
f 38/93/30 35/76/30 37/94/30
f 37/94/30 35/76/30 36/95/30
f 35/76/30 33/96/30 34/97/30
f 33/96/30 35/76/30 32/98/30
f 32/98/30 35/76/30 31/99/30
f 31/99/30 27/75/30 30/100/30
f 30/100/30 27/75/30 29/101/30
f 29/101/30 27/75/30 28/102/30
f 27/75/30 23/103/30 26/104/30
f 26/104/30 23/103/30 25/105/30
f 25/105/30 23/103/30 24/106/30
f 23/103/30 21/107/30 22/108/30
f 21/107/30 19/109/30 20/110/30
f 19/109/30 17/111/30 18/112/30
f 17/111/30 15/74/30 16/113/30
f 15/74/30 13/114/30 14/115/30
f 13/116/30 11/117/30 12/118/30
f 11/88/30 35/76/30 9/89/30
f 9/89/30 35/76/30 39/91/30
f 23/103/30 27/75/30 21/107/30
f 21/107/30 27/75/30 19/109/30
f 19/109/30 15/74/30 17/111/30
f 15/74/30 11/88/30 13/114/30
f 35/76/30 27/75/30 31/99/30
f 19/109/30 27/75/30 15/74/30
f 42/20/7 45/119/7 41/120/7
f 41/120/7 45/119/7 43/121/7
f 43/121/7 45/119/7 44/122/7
f 45/119/7 47/123/7 46/124/7
f 47/123/7 49/125/7 48/126/7
f 49/125/7 51/127/7 50/128/7
f 51/127/7 53/129/7 52/130/7
f 53/129/7 55/131/7 54/132/7
f 55/131/7 57/22/7 56/133/7
f 57/22/7 59/134/7 58/135/7
f 59/134/7 57/22/7 60/136/7
f 60/136/7 57/22/7 61/137/7
f 61/137/7 65/21/7 62/138/7
f 62/138/7 65/21/7 63/139/7
f 63/139/7 65/21/7 64/140/7
f 65/21/7 67/141/7 66/142/7
f 67/141/7 69/143/7 68/144/7
f 69/143/7 42/20/7 70/145/7
f 70/145/7 42/20/7 71/146/7
f 71/146/7 42/20/7 72/147/7
f 45/119/7 42/20/7 47/123/7
f 47/123/7 42/20/7 49/125/7
f 49/125/7 53/129/7 51/127/7
f 53/129/7 57/22/7 55/131/7
f 65/21/7 42/20/7 67/141/7
f 67/141/7 42/20/7 69/143/7
f 49/125/7 57/22/7 53/129/7
f 57/22/7 65/21/7 61/137/7
f 14/17/6 45/19/6 46/41/6
f 42/20/7 57/22/7 49/125/7
f 25/23/8 58/25/8 26/52/8
f 27/26/9 60/28/9 28/32/9
f 10/29/10 42/31/10 41/42/10
f 28/32/11 61/33/11 29/148/11
f 17/34/12 48/36/12 49/66/12
f 12/37/13 43/39/13 44/65/13
f 15/40/14 46/41/14 47/59/14
f 11/38/15 41/42/15 43/39/15
f 23/43/16 54/45/16 55/85/16
f 63/46/17 30/48/17 62/69/17
f 20/49/18 51/51/18 52/86/18
f 26/52/19 59/27/19 27/26/19
f 35/53/20 68/55/20 36/72/20
f 32/56/21 65/58/21 33/78/21
f 16/35/22 47/59/22 48/36/22
f 38/60/23 71/62/23 39/83/23
f 19/50/24 50/64/24 51/51/24
f 13/18/25 44/65/25 45/19/25
f 18/63/26 49/66/26 50/64/26
f 29/67/27 62/69/27 30/48/27
f 22/44/28 53/71/28 54/45/28
f 36/72/29 69/73/29 37/77/29
f 15/74/30 35/76/30 11/88/30
f 37/77/31 70/61/31 38/60/31
f 33/78/32 66/79/32 34/82/32
f 31/47/33 64/57/33 32/56/33
f 25/23/34 56/81/34 57/24/34
f 34/82/35 67/54/35 35/53/35
f 39/83/36 72/84/36 40/87/36
f 24/80/37 55/85/37 56/81/37
f 21/70/38 52/86/38 53/71/38
f 40/87/39 42/31/39 9/30/39
f 5/1/1 4/3/1 8/149/1
f 1/4/2 6/6/2 2/150/2
f 2/7/3 7/9/3 3/151/3
f 8/10/4 3/12/4 7/152/4
