# Blender v2.90.1 OBJ File: 'pannels.blend'
# www.blender.org
mtllib EndInterdiction.mtl
o Sign_EndInterdiction
v -0.009417 4.304108 -0.004735
v 0.099539 4.293376 -0.004735
v 0.204308 4.261595 -0.004735
v 0.300864 4.209985 -0.004735
v 0.385496 4.140530 -0.004735
v 0.454951 4.055898 -0.004735
v 0.506561 3.959342 -0.004735
v 0.538343 3.854573 -0.004735
v 0.549074 3.745617 -0.004735
v 0.538343 3.636660 -0.004735
v 0.506561 3.531892 -0.004735
v 0.454951 3.435336 -0.004735
v 0.385496 3.350704 -0.004735
v 0.300864 3.281249 -0.004735
v 0.204308 3.229638 -0.004735
v 0.099539 3.197857 -0.004735
v -0.009417 3.187126 -0.004735
v -0.118374 3.197857 -0.004735
v -0.223142 3.229639 -0.004735
v -0.319698 3.281249 -0.004735
v -0.404330 3.350705 -0.004735
v -0.473785 3.435336 -0.004735
v -0.525396 3.531892 -0.004735
v -0.557177 3.636661 -0.004735
v -0.567909 3.745617 -0.004735
v -0.557177 3.854573 -0.004735
v -0.525395 3.959343 -0.004735
v -0.473785 4.055898 -0.004735
v -0.404330 4.140531 -0.004735
v -0.319698 4.209985 -0.004735
v -0.223142 4.261596 -0.004735
v -0.118372 4.293376 -0.004735
v 0.099539 4.293376 0.012768
v -0.009417 4.304108 0.012768
v 0.204308 4.261595 0.012768
v 0.300864 4.209985 0.012768
v 0.385496 4.140529 0.012768
v 0.454951 4.055897 0.012768
v 0.506561 3.959342 0.012768
v 0.538343 3.854573 0.012768
v 0.549074 3.745616 0.012768
v 0.538343 3.636660 0.012768
v 0.506561 3.531891 0.012768
v 0.454951 3.435336 0.012768
v 0.385496 3.350703 0.012768
v 0.300864 3.281248 0.012768
v 0.204308 3.229638 0.012768
v 0.099539 3.197856 0.012768
v -0.009417 3.187126 0.012768
v -0.118374 3.197857 0.012768
v -0.223142 3.229638 0.012768
v -0.319698 3.281249 0.012768
v -0.404330 3.350704 0.012768
v -0.473785 3.435336 0.012768
v -0.525396 3.531892 0.012768
v -0.557177 3.636660 0.012768
v -0.567909 3.745617 0.012768
v -0.557177 3.854573 0.012768
v -0.525395 3.959342 0.012768
v -0.473785 4.055898 0.012768
v -0.404330 4.140530 0.012768
v -0.319698 4.209985 0.012768
v -0.223142 4.261595 0.012768
v -0.118372 4.293376 0.012768
v -0.061893 4.405034 -0.151432
v -0.061893 4.405034 -0.039037
v 0.050503 4.405034 -0.039037
v 0.050503 4.405034 -0.151432
v -0.061893 -0.036662 -0.151432
v -0.061893 -0.036661 -0.039037
v 0.050503 -0.036661 -0.039037
v 0.050503 -0.036662 -0.151432
vt 0.444960 0.341404
vt 0.444960 0.342111
vt 0.445802 0.342111
vt 0.444960 0.344941
vt 0.444960 0.345649
vt 0.445802 0.345649
vt 0.444960 0.335744
vt 0.444960 0.336451
vt 0.445802 0.336451
vt 0.444960 0.334329
vt 0.444960 0.335036
vt 0.445802 0.335036
vt 0.444960 0.337866
vt 0.444960 0.338574
vt 0.445802 0.338574
vt 0.444960 0.352017
vt 0.445802 0.352017
vt 0.445802 0.351309
vt 0.445802 0.334329
vt 0.445802 0.333621
vt 0.445802 0.352724
vt 0.444960 0.352724
vt 0.444960 0.353432
vt 0.445802 0.335744
vt 0.444960 0.340696
vt 0.445802 0.341404
vt 0.444960 0.354139
vt 0.445802 0.354139
vt 0.445802 0.353432
vt 0.444960 0.343526
vt 0.444960 0.344234
vt 0.445802 0.344234
vt 0.444960 0.351309
vt 0.445802 0.350602
vt 0.444960 0.339281
vt 0.444960 0.339989
vt 0.445802 0.339989
vt 0.444960 0.333621
vt 0.445802 0.332913
vt 0.444960 0.332913
vt 0.445802 0.332206
vt 0.444960 0.342819
vt 0.445802 0.343526
vt 0.444960 0.332206
vt 0.445802 0.331498
vt 0.444960 0.347771
vt 0.445802 0.347771
vt 0.445802 0.347064
vt 0.444960 0.349894
vt 0.445802 0.349894
vt 0.445802 0.349187
vt 0.444960 0.348479
vt 0.445802 0.348479
vt 0.444960 0.350602
vt 0.444960 0.337159
vt 0.445802 0.337866
vt 0.445802 0.337159
vt 0.445802 0.339281
vt 0.444960 0.346356
vt 0.445802 0.346356
vt 0.011843 0.987975
vt 0.011583 0.985335
vt 0.009792 0.986292
vt 0.445802 0.340696
vt 0.444960 0.347064
vt 0.444960 0.349187
vt 0.445802 0.344941
vt 0.010749 0.988083
vt 0.010255 0.987819
vt 0.010489 0.987975
vt 0.009900 0.987386
vt 0.010056 0.987620
vt 0.009792 0.987126
vt 0.009737 0.986850
vt 0.009737 0.986568
vt 0.010056 0.985798
vt 0.009900 0.986032
vt 0.010255 0.985599
vt 0.010489 0.985443
vt 0.010749 0.985335
vt 0.011025 0.985280
vt 0.011307 0.985280
vt 0.012432 0.986032
vt 0.011843 0.985443
vt 0.012077 0.985599
vt 0.012276 0.985798
vt 0.012595 0.986568
vt 0.012540 0.986292
vt 0.012540 0.987126
vt 0.012595 0.986850
vt 0.012276 0.987620
vt 0.012432 0.987386
vt 0.012077 0.987819
vt 0.011307 0.988138
vt 0.011583 0.988083
vt 0.016765 0.986773
vt 0.016207 0.986718
vt 0.016483 0.986773
vt 0.410931 0.719065
vt 0.325071 0.682699
vt 0.387183 0.716536
vt 0.364384 0.709421
vt 0.343411 0.697996
vt 0.298976 0.642966
vt 0.310067 0.664117
vt 0.290073 0.596271
vt 0.292225 0.620057
vt 0.299717 0.549724
vt 0.292603 0.572523
vt 0.326440 0.510411
vt 0.311142 0.528751
vt 0.366173 0.484316
vt 0.345021 0.495407
vt 0.412868 0.475413
vt 0.389082 0.477565
vt 0.459415 0.485057
vt 0.436616 0.477943
vt 0.480387 0.496483
vt 0.498728 0.511780
vt 0.533726 0.598208
vt 0.513732 0.530361
vt 0.524823 0.551513
vt 0.531573 0.574422
vt 0.524081 0.644755
vt 0.531196 0.621956
vt 0.497359 0.684068
vt 0.512656 0.665727
vt 0.478777 0.699072
vt 0.457625 0.710163
vt 0.434716 0.716913
vt 0.445802 0.342819
vt 0.016505 0.975312
vt 0.016505 0.892798
vt 0.014417 0.892798
vt 0.018593 0.892798
vt 0.018593 0.975312
vt 0.020681 0.975312
vt 0.016505 0.975312
vt 0.018593 0.975312
vt 0.018593 0.892798
vt 0.014417 0.892798
vt 0.012329 0.892798
vt 0.012329 0.975312
vt 0.002860 0.985575
vt 0.002753 0.985833
vt 0.003011 0.985940
vt 0.444960 0.331498
vt 0.014417 0.975312
vt 0.020681 0.892798
vt 0.016505 0.892798
vt 0.014417 0.975312
vt 0.003118 0.985682
vn 0.8819 0.4714 0.0000
vn 0.0980 0.9952 0.0000
vn 0.4714 -0.8819 -0.0000
vn 0.0980 -0.9952 0.0000
vn 0.8819 -0.4714 -0.0000
vn -0.9952 -0.0980 -0.0000
vn -0.0980 -0.9952 -0.0000
vn -0.0980 -0.9952 -0.0001
vn -0.8819 -0.4714 0.0000
vn 0.2903 -0.9569 -0.0000
vn -0.9569 -0.2903 0.0000
vn 0.9569 0.2903 0.0000
vn -0.7730 -0.6344 0.0000
vn 0.4714 0.8819 0.0000
vn 0.4714 0.8819 0.0001
vn -0.9952 0.0980 0.0000
vn 0.9952 -0.0980 -0.0000
vn -0.2903 -0.9569 -0.0000
vn -0.4714 -0.8819 0.0000
vn 0.6344 0.7730 0.0000
vn -0.6344 -0.7730 0.0000
vn -0.4714 0.8819 0.0000
vn -0.8819 0.4714 0.0000
vn -0.6344 0.7730 0.0000
vn -0.9569 0.2903 0.0000
vn 0.7730 -0.6344 -0.0000
vn 0.6344 -0.7730 -0.0000
vn 0.6344 -0.7730 -0.0001
vn 0.9569 -0.2903 -0.0000
vn -0.0980 0.9952 0.0000
vn 0.0000 0.0000 -1.0000
vn 0.9952 0.0980 0.0000
vn -0.2903 0.9569 0.0000
vn -0.7730 0.6344 0.0000
vn 0.2903 0.9569 0.0000
vn 0.0000 0.0000 1.0000
vn 0.7730 0.6344 0.0000
vn -1.0000 0.0000 0.0000
vn 1.0000 0.0000 -0.0000
vn 0.0000 1.0000 -0.0000
usemtl Material.017
s 1
f 7/1/1 6/2/1 38/3/1
f 2/4/2 1/5/2 34/6/2
f 15/7/3 14/8/3 46/9/3
f 17/10/4 16/11/4 48/12/4
f 12/13/5 11/14/5 43/15/5
f 24/16/6 56/17/6 57/18/6
f 17/10/7 49/19/7 50/20/8
f 55/21/9 23/22/9 22/23/9
f 16/11/10 15/7/10 47/24/10
f 23/22/11 55/21/11 56/17/11
f 8/25/12 7/1/12 39/26/12
f 21/27/13 53/28/13 54/29/13
f 4/30/14 3/31/15 35/32/15
f 25/33/16 57/18/16 58/34/16
f 10/35/17 9/36/17 41/37/17
f 18/38/18 50/20/18 51/39/18
f 19/40/19 51/39/19 52/41/19
f 5/42/20 4/30/20 36/43/20
f 20/44/21 52/41/21 53/45/21
f 30/46/22 62/47/22 63/48/22
f 27/49/23 59/50/23 60/51/23
f 29/52/24 61/53/24 62/47/24
f 26/54/25 58/34/25 59/50/25
f 13/55/26 12/13/26 44/56/26
f 14/8/27 13/55/28 45/57/28
f 11/14/29 10/35/29 42/58/29
f 32/59/30 64/60/30 34/6/30
f 7/61/31 19/62/31 27/63/31
f 9/36/32 8/25/32 40/64/32
f 31/65/33 63/48/33 64/60/33
f 28/66/34 60/51/34 61/53/34
f 3/31/35 2/4/35 33/67/35
f 3/68/31 1/69/31 2/70/31
f 1/69/31 31/71/31 32/72/31
f 31/71/31 27/63/31 30/73/31
f 30/73/31 27/63/31 29/74/31
f 29/74/31 27/63/31 28/75/31
f 27/63/31 25/76/31 26/77/31
f 25/76/31 27/63/31 24/78/31
f 24/78/31 27/63/31 23/79/31
f 23/79/31 19/62/31 22/80/31
f 22/80/31 19/62/31 21/81/31
f 21/81/31 19/62/31 20/82/31
f 19/62/31 15/83/31 18/84/31
f 18/84/31 15/83/31 17/85/31
f 17/85/31 15/83/31 16/86/31
f 15/83/31 13/87/31 14/88/31
f 13/87/31 11/89/31 12/90/31
f 11/89/31 9/91/31 10/92/31
f 9/91/31 7/61/31 8/93/31
f 7/61/31 5/94/31 6/95/31
f 5/96/31 3/97/31 4/98/31
f 3/68/31 27/63/31 1/69/31
f 1/69/31 27/63/31 31/71/31
f 15/83/31 19/62/31 13/87/31
f 13/87/31 19/62/31 11/89/31
f 11/89/31 7/61/31 9/91/31
f 7/61/31 3/68/31 5/94/31
f 27/63/31 19/62/31 23/79/31
f 11/89/31 19/62/31 7/61/31
f 34/99/36 37/100/36 33/101/36
f 33/101/36 37/100/36 35/102/36
f 35/102/36 37/100/36 36/103/36
f 37/100/36 39/104/36 38/105/36
f 39/104/36 41/106/36 40/107/36
f 41/106/36 43/108/36 42/109/36
f 43/108/36 45/110/36 44/111/36
f 45/110/36 47/112/36 46/113/36
f 47/112/36 49/114/36 48/115/36
f 49/114/36 51/116/36 50/117/36
f 51/116/36 49/114/36 52/118/36
f 52/118/36 49/114/36 53/119/36
f 53/119/36 57/120/36 54/121/36
f 54/121/36 57/120/36 55/122/36
f 55/122/36 57/120/36 56/123/36
f 57/120/36 59/124/36 58/125/36
f 59/124/36 61/126/36 60/127/36
f 61/126/36 34/99/36 62/128/36
f 62/128/36 34/99/36 63/129/36
f 63/129/36 34/99/36 64/130/36
f 37/100/36 34/99/36 39/104/36
f 39/104/36 34/99/36 41/106/36
f 41/106/36 45/110/36 43/108/36
f 45/110/36 49/114/36 47/112/36
f 57/120/36 34/99/36 59/124/36
f 59/124/36 34/99/36 61/126/36
f 41/106/36 49/114/36 45/110/36
f 49/114/36 57/120/36 53/119/36
f 6/2/37 5/42/37 37/131/37
f 71/132/36 67/133/36 66/134/36
f 70/135/38 66/136/38 65/137/38
f 72/138/31 69/139/31 65/140/31
f 34/99/36 57/120/36 49/114/36
f 68/141/39 67/142/39 71/143/39
f 67/144/40 68/145/40 65/146/40
f 7/1/1 38/3/1 39/26/1
f 2/4/2 34/6/2 33/67/2
f 15/7/3 46/9/3 47/24/3
f 17/10/4 48/12/4 49/19/4
f 12/13/5 43/15/5 44/56/5
f 24/16/6 57/18/6 25/33/6
f 17/10/7 50/20/8 18/38/8
f 55/21/9 22/23/9 54/29/9
f 16/11/10 47/24/10 48/12/10
f 23/22/11 56/17/11 24/16/11
f 8/25/12 39/26/12 40/64/12
f 21/27/13 54/29/13 22/23/13
f 4/30/14 35/32/15 36/43/14
f 25/33/16 58/34/16 26/54/16
f 10/35/17 41/37/17 42/58/17
f 18/38/18 51/39/18 19/40/18
f 19/40/19 52/41/19 20/44/19
f 5/42/20 36/43/20 37/131/20
f 20/44/21 53/45/21 21/147/21
f 30/46/22 63/48/22 31/65/22
f 27/49/23 60/51/23 28/66/23
f 29/52/24 62/47/24 30/46/24
f 26/54/25 59/50/25 27/49/25
f 13/55/26 44/56/26 45/57/26
f 14/8/27 45/57/28 46/9/27
f 11/14/29 42/58/29 43/15/29
f 32/59/30 34/6/30 1/5/30
f 7/61/31 27/63/31 3/68/31
f 9/36/32 40/64/32 41/37/32
f 31/65/33 64/60/33 32/59/33
f 28/66/34 61/53/34 29/52/34
f 3/31/35 33/67/35 35/32/35
f 6/2/37 37/131/37 38/3/37
f 71/132/36 66/134/36 70/148/36
f 70/135/38 65/137/38 69/149/38
f 72/138/31 65/140/31 68/150/31
f 34/99/36 49/114/36 41/106/36
f 68/141/39 71/143/39 72/151/39
f 67/144/40 65/146/40 66/152/40
