# Blender v2.90.1 OBJ File: ''
# www.blender.org
mtllib LanesMerging.mtl
o Sign_LanesMerging
v -0.948525 3.017286 -0.001081
v -0.934234 3.017286 -0.028051
v -0.934234 2.998055 -0.001081
v -0.944339 3.017286 -0.020152
v -0.942485 3.006183 -0.016652
v -0.934234 3.003688 -0.020152
v -0.944339 3.003688 -0.001081
v 0.934235 2.998055 -0.001081
v 0.934235 3.017286 -0.028052
v 0.948525 3.017286 -0.001081
v 0.934235 3.003688 -0.020152
v 0.942485 3.006183 -0.016653
v 0.944340 3.017286 -0.020152
v 0.944340 3.003688 -0.001081
v -0.948525 4.942133 -0.001081
v -0.934235 4.961364 -0.001081
v -0.934235 4.942132 -0.028051
v -0.944340 4.955731 -0.001081
v -0.942485 4.953236 -0.016652
v -0.934235 4.955731 -0.020152
v -0.944340 4.942133 -0.020152
v 0.948525 4.942133 -0.001081
v 0.934235 4.942132 -0.028051
v 0.934235 4.961364 -0.001081
v 0.944339 4.942133 -0.020152
v 0.942485 4.953236 -0.016652
v 0.934235 4.955731 -0.020152
v 0.944339 4.955731 -0.001081
v -0.948525 4.942133 0.001082
v -0.934235 4.942133 0.028052
v -0.934235 4.961364 0.001082
v -0.944340 4.942133 0.020153
v -0.942485 4.953236 0.016653
v -0.934235 4.955731 0.020153
v -0.944340 4.955731 0.001082
v -0.948525 3.017286 0.001082
v -0.934234 2.998055 0.001082
v -0.934234 3.017286 0.028052
v -0.944339 3.003688 0.001082
v -0.942485 3.006183 0.016653
v -0.934234 3.003688 0.020153
v -0.944339 3.017286 0.020153
v 0.934235 2.998055 0.001082
v 0.948525 3.017286 0.001082
v 0.934235 3.017286 0.028052
v 0.944340 3.003688 0.001082
v 0.942485 3.006183 0.016653
v 0.944340 3.017286 0.020152
v 0.934235 3.003688 0.020152
v 0.948525 4.942133 0.001082
v 0.934235 4.961364 0.001082
v 0.934235 4.942133 0.028052
v 0.944339 4.955731 0.001082
v 0.942485 4.953236 0.016653
v 0.934235 4.955731 0.020153
v 0.944339 4.942133 0.020153
v -0.658974 4.410641 -0.145339
v -0.546579 4.410640 -0.145339
v -0.546579 4.410641 -0.032944
v -0.658974 4.410640 -0.032944
v -0.658974 -0.031055 -0.145339
v -0.546579 -0.031055 -0.145339
v -0.546579 -0.031055 -0.032944
v -0.658974 -0.031055 -0.032944
v 0.507657 4.410641 -0.145339
v 0.620053 4.410640 -0.145339
v 0.620053 4.410641 -0.032944
v 0.507657 4.410640 -0.032944
v 0.507658 -0.031055 -0.145339
v 0.620053 -0.031055 -0.145339
v 0.620053 -0.031055 -0.032944
v 0.507658 -0.031055 -0.032944
vt 0.248112 0.761093
vt 0.248108 0.755648
vt 0.248112 0.755648
vt 0.237241 0.766506
vt 0.237238 0.761154
vt 0.237241 0.761154
vt 0.242620 0.761093
vt 0.237175 0.755648
vt 0.242620 0.755648
vt 0.977597 0.699786
vt 0.719454 0.961992
vt 0.977597 0.961992
vt 0.248046 0.755648
vt 0.248050 0.761093
vt 0.248046 0.761093
vt 0.237179 0.766506
vt 0.237203 0.766527
vt 0.237179 0.766533
vt 0.242650 0.761093
vt 0.242620 0.761122
vt 0.248136 0.755624
vt 0.248141 0.755648
vt 0.248136 0.761117
vt 0.248112 0.761122
vt 0.242620 0.755619
vt 0.242650 0.755648
vt 0.248022 0.761117
vt 0.248017 0.761093
vt 0.237179 0.761154
vt 0.237203 0.761127
vt 0.237208 0.761151
vt 0.237265 0.766527
vt 0.237241 0.766533
vt 0.237175 0.761122
vt 0.237146 0.761093
vt 0.237175 0.761093
vt 0.248022 0.755624
vt 0.248046 0.755619
vt 0.237146 0.755648
vt 0.237175 0.755619
vt 0.237265 0.761127
vt 0.237270 0.761151
vt 0.237175 0.761154
vt 0.237151 0.761127
vt 0.237175 0.761122
vt 0.242678 0.761122
vt 0.242650 0.761093
vt 0.242676 0.761093
vt 0.237238 0.766506
vt 0.237214 0.766527
vt 0.237208 0.766504
vt 0.237175 0.766506
vt 0.237151 0.766527
vt 0.237146 0.766504
vt 0.248084 0.755624
vt 0.248108 0.755619
vt 0.242650 0.755648
vt 0.242678 0.755619
vt 0.242676 0.755648
vt 0.248108 0.761093
vt 0.248084 0.761117
vt 0.248079 0.761093
vt 0.248050 0.761122
vt 0.247988 0.755619
vt 0.248017 0.755648
vt 0.247985 0.755648
vt 0.248050 0.755648
vt 0.248074 0.755624
vt 0.248079 0.755648
vt 0.237214 0.761127
vt 0.237238 0.761122
vt 0.248017 0.761093
vt 0.247988 0.761122
vt 0.247985 0.761093
vt 0.237208 0.766504
vt 0.248141 0.761093
vt 0.248017 0.755648
vt 0.237270 0.766504
vt 0.237146 0.761151
vt 0.248079 0.755648
vt 0.248079 0.761093
vt 0.237208 0.761151
vt 0.237241 0.761122
vt 0.248108 0.761122
vt 0.248046 0.761122
vt 0.248112 0.755619
vt 0.237175 0.766533
vt 0.237238 0.766533
vt 0.237179 0.761122
vt 0.719454 0.699786
vt 0.242644 0.761117
vt 0.242644 0.755624
vt 0.237151 0.755624
vt 0.242656 0.761117
vt 0.242656 0.755624
vt 0.248013 0.755624
vt 0.248050 0.755619
vt 0.248013 0.761117
vt 0.239091 0.772634
vt 0.238482 0.748586
vt 0.239091 0.748586
vt 0.239091 0.748586
vt 0.239699 0.772634
vt 0.239091 0.772634
vt 0.237874 0.748586
vt 0.238482 0.772634
vt 0.237874 0.772634
vt 0.242742 0.749195
vt 0.243351 0.749803
vt 0.242742 0.749803
vt 0.242134 0.748586
vt 0.242742 0.772634
vt 0.242134 0.772634
vt 0.241525 0.772634
vt 0.242134 0.748586
vt 0.242134 0.772634
vt 0.240916 0.748586
vt 0.241525 0.772634
vt 0.240916 0.772634
vt 0.240308 0.772634
vt 0.240916 0.748586
vt 0.240916 0.772634
vt 0.243351 0.749195
vt 0.242742 0.748586
vt 0.243351 0.748586
vt 0.239699 0.748586
vt 0.240308 0.772634
vt 0.239699 0.772634
vt 0.238482 0.772634
vt 0.239699 0.748586
vt 0.238482 0.748586
vt 0.243351 0.749195
vt 0.242742 0.748586
vt 0.241525 0.748586
vt 0.241525 0.748586
vt 0.240308 0.748586
vt 0.242742 0.749195
vt 0.240308 0.748586
vn 0.0000 -1.0000 0.0000
vn 0.0000 1.0000 0.0000
vn -0.0000 0.0000 -1.0000
vn 0.0000 -0.0000 1.0000
vn 1.0000 -0.0000 0.0000
vn -0.9436 -0.2905 -0.1589
vn -0.5600 -0.4162 -0.7164
vn -0.3795 -0.8873 -0.2621
vn 0.4776 -0.8568 -0.1941
vn 0.5600 -0.4162 -0.7164
vn 0.9518 -0.2248 -0.2089
vn -0.9518 0.2248 -0.2089
vn -0.4776 0.8568 -0.1942
vn -0.5600 0.4161 -0.7164
vn 0.9436 0.2904 -0.1589
vn 0.5600 0.4161 -0.7164
vn 0.3796 0.8873 -0.2620
vn -0.9436 0.2904 0.1589
vn -0.5600 0.4161 0.7164
vn -0.3795 0.8873 0.2621
vn -0.9518 -0.2248 0.2089
vn -0.4776 -0.8568 0.1941
vn -0.5600 -0.4162 0.7164
vn 0.3795 -0.8873 0.2621
vn 0.9436 -0.2904 0.1589
vn 0.5600 -0.4162 0.7164
vn 0.9518 0.2248 0.2089
vn 0.4776 0.8568 0.1941
vn 0.5600 0.4161 0.7164
vn -0.6159 -0.0000 -0.7878
vn -0.9768 -0.0000 -0.2144
vn -0.0000 -0.5023 -0.8647
vn -0.0000 -0.9590 -0.2833
vn -0.0000 -0.9590 -0.2832
vn 0.6159 0.0000 -0.7878
vn 0.9768 -0.0000 -0.2144
vn -0.0000 0.5023 -0.8647
vn -0.0000 0.9590 -0.2833
vn -0.0000 0.9591 -0.2832
vn -0.9768 -0.0000 0.2144
vn -0.6159 -0.0000 0.7878
vn 0.0000 -0.9590 0.2832
vn 0.0000 -0.9590 0.2833
vn 0.0000 -0.5023 0.8647
vn 0.9768 0.0000 0.2144
vn 0.6159 -0.0000 0.7878
vn 0.0000 0.9591 0.2832
vn 0.0000 0.9590 0.2833
vn 0.0000 0.5023 0.8647
vn 0.4869 0.8735 0.0000
vn 0.9558 0.2942 0.0000
vn 0.9557 0.2942 0.0000
vn 0.4869 -0.8735 0.0000
vn 0.9557 -0.2942 0.0000
vn 0.9558 -0.2942 0.0001
vn -0.4869 -0.8735 0.0000
vn -0.9557 -0.2942 0.0000
vn -0.9557 -0.2942 0.0001
vn -0.4869 0.8735 0.0000
vn -0.9558 0.2941 0.0000
vn -0.9558 0.2942 0.0000
vn -1.0000 0.0000 0.0000
vn -0.9518 -0.2248 -0.2089
vn -0.4521 -0.3359 -0.8263
vn -0.4776 -0.8568 -0.1941
vn 0.3795 -0.8873 -0.2621
vn 0.4521 -0.3359 -0.8263
vn 0.9436 -0.2904 -0.1589
vn -0.9436 0.2904 -0.1589
vn -0.3796 0.8873 -0.2620
vn -0.4521 0.3360 -0.8263
vn 0.9518 0.2248 -0.2089
vn 0.4521 0.3359 -0.8263
vn 0.4776 0.8568 -0.1942
vn -0.9518 0.2248 0.2089
vn -0.4521 0.3359 0.8263
vn -0.4776 0.8569 0.1941
vn -0.9436 -0.2905 0.1589
vn -0.3795 -0.8873 0.2621
vn -0.4521 -0.3359 0.8263
vn 0.4776 -0.8568 0.1941
vn 0.9518 -0.2248 0.2089
vn 0.4521 -0.3359 0.8263
vn 0.9436 0.2904 0.1589
vn 0.3795 0.8873 0.2621
vn 0.4521 0.3359 0.8263
usemtl Material.009
s 1
f 8/1/1 37/2/1 3/3/1
f 16/4/2 51/5/2 24/6/2
f 2/7/3 23/8/3 9/9/3
f 38/10/4 52/11/4 30/12/4
f 22/13/5 44/14/5 10/15/5
f 1/16/6 5/17/6 7/18/6
f 6/19/7 4/20/7 2/7/7
f 3/3/8 5/21/8 6/22/8
f 8/1/9 12/23/9 14/24/9
f 13/25/10 11/26/10 9/9/10
f 10/15/11 12/27/11 13/28/11
f 15/29/12 19/30/12 21/31/12
f 16/4/13 19/32/13 18/33/13
f 21/34/14 20/35/14 17/36/14
f 22/13/15 26/37/15 28/38/15
f 27/39/16 25/40/16 23/8/16
f 24/6/17 26/41/17 27/42/17
f 29/43/18 33/44/18 35/45/18
f 34/46/19 32/47/19 30/48/19
f 31/49/20 33/50/20 34/51/20
f 36/52/21 40/53/21 42/54/21
f 37/2/22 40/55/22 39/56/22
f 42/57/23 41/58/23 38/59/23
f 43/60/24 47/61/24 49/62/24
f 44/14/25 47/61/25 46/63/25
f 49/64/26 48/65/26 45/66/26
f 50/67/27 54/68/27 56/69/27
f 51/5/28 54/70/28 53/71/28
f 56/72/29 55/73/29 52/74/29
f 2/7/30 21/34/30 17/36/30
f 4/75/31 15/29/31 21/31/31
f 9/9/32 6/19/32 2/7/32
f 11/76/33 3/3/34 6/22/34
f 23/8/35 13/25/35 9/9/35
f 25/77/36 10/15/36 13/28/36
f 17/36/37 27/39/37 23/8/37
f 20/78/38 24/6/39 27/42/39
f 29/43/40 42/54/40 32/79/40
f 42/57/41 30/48/41 32/47/41
f 43/60/42 41/80/43 37/2/43
f 49/64/44 38/59/44 41/58/44
f 50/67/45 48/81/45 44/14/45
f 48/65/46 52/74/46 45/66/46
f 31/49/47 55/82/48 51/5/48
f 34/46/49 52/74/49 55/73/49
f 51/5/50 28/83/50 24/6/50
f 28/38/51 50/67/52 22/13/52
f 8/1/53 46/84/53 43/60/53
f 14/85/54 44/14/55 46/63/54
f 37/2/56 7/86/56 3/3/56
f 39/87/57 1/16/58 7/18/57
f 16/4/59 35/88/59 31/49/59
f 18/89/60 29/43/61 35/45/60
f 1/16/62 29/43/62 15/29/62
f 8/1/1 43/60/1 37/2/1
f 16/4/2 31/49/2 51/5/2
f 2/7/3 17/36/3 23/8/3
f 38/10/4 45/90/4 52/11/4
f 22/13/5 50/67/5 44/14/5
f 1/16/63 4/75/63 5/17/63
f 6/19/64 5/91/64 4/20/64
f 3/3/65 7/86/65 5/21/65
f 8/1/66 11/76/66 12/23/66
f 13/25/67 12/92/67 11/26/67
f 10/15/68 14/85/68 12/27/68
f 15/29/69 18/89/69 19/30/69
f 16/4/70 20/78/70 19/32/70
f 21/34/71 19/30/71 20/35/71
f 22/13/72 25/77/72 26/37/72
f 27/39/73 26/93/73 25/40/73
f 24/6/74 28/83/74 26/41/74
f 29/43/75 32/79/75 33/44/75
f 34/46/76 33/94/76 32/47/76
f 31/49/77 35/88/77 33/50/77
f 36/52/78 39/87/78 40/53/78
f 37/2/79 41/80/79 40/55/79
f 42/57/80 40/95/80 41/58/80
f 43/60/81 46/84/81 47/61/81
f 44/14/82 48/81/82 47/61/82
f 49/64/83 47/96/83 48/65/83
f 50/67/84 53/97/84 54/68/84
f 51/5/85 55/82/85 54/70/85
f 56/72/86 54/98/86 55/73/86
f 2/7/30 4/20/30 21/34/30
f 4/75/31 1/16/31 15/29/31
f 9/9/32 11/26/32 6/19/32
f 11/76/33 8/1/33 3/3/34
f 23/8/35 25/40/35 13/25/35
f 25/77/36 22/13/36 10/15/36
f 17/36/37 20/35/37 27/39/37
f 20/78/38 16/4/38 24/6/39
f 29/43/40 36/52/40 42/54/40
f 42/57/41 38/59/41 30/48/41
f 43/60/42 49/62/42 41/80/43
f 49/64/44 45/66/44 38/59/44
f 50/67/45 56/69/45 48/81/45
f 48/65/46 56/72/46 52/74/46
f 31/49/47 34/51/47 55/82/48
f 34/46/49 30/48/49 52/74/49
f 51/5/50 53/71/50 28/83/50
f 28/38/51 53/97/51 50/67/52
f 8/1/53 14/24/53 46/84/53
f 14/85/54 10/15/55 44/14/55
f 37/2/56 39/56/56 7/86/56
f 39/87/57 36/52/58 1/16/58
f 16/4/59 18/33/59 35/88/59
f 18/89/60 15/29/61 29/43/61
f 1/16/62 36/52/62 29/43/62
f 67/99/4 72/100/4 71/101/4
f 65/102/3 70/103/3 69/104/3
f 60/105/62 61/106/62 64/107/62
f 65/108/2 67/109/2 66/110/2
f 66/111/5 71/112/5 70/113/5
f 62/114/5 59/115/5 63/116/5
f 68/117/62 69/118/62 72/119/62
f 61/120/3 58/121/3 62/122/3
f 57/123/2 59/124/2 58/125/2
f 59/126/4 64/127/4 63/128/4
f 67/99/4 68/129/4 72/100/4
f 65/102/3 66/130/3 70/103/3
f 60/105/62 57/131/62 61/106/62
f 65/108/2 68/132/2 67/109/2
f 66/111/5 67/133/5 71/112/5
f 62/114/5 58/134/5 59/115/5
f 68/117/62 65/135/62 69/118/62
f 61/120/3 57/136/3 58/121/3
f 57/123/2 60/137/2 59/124/2
f 59/126/4 60/138/4 64/127/4
