# Blender v2.90.1 OBJ File: 'pannels.blend'
# www.blender.org
mtllib LowBranches.mtl
o Sign_LowBranch
v -0.033245 4.582868 -0.009762
v -0.001503 4.593826 -0.009732
v 0.030258 4.582924 -0.009762
v -0.060136 4.551719 -0.009850
v 0.057204 4.551821 -0.009850
v -0.704998 3.308014 -0.013347
v -0.730342 3.330002 -0.013285
v -0.736757 3.362935 -0.013193
v -0.664581 3.300321 -0.013369
v -0.723266 3.401802 -0.013083
v 0.735900 3.364220 -0.013193
v 0.729542 3.331276 -0.013286
v 0.704236 3.309244 -0.013347
v 0.722340 3.403064 -0.013084
v 0.663833 3.301480 -0.013369
v 0.030259 4.582857 0.014273
v -0.001503 4.593760 0.014304
v -0.033245 4.582801 0.014273
v 0.057204 4.551754 0.014185
v -0.060136 4.551651 0.014185
v -0.736758 3.362868 0.010843
v -0.730342 3.329934 0.010750
v -0.704998 3.307947 0.010688
v -0.723266 3.401735 0.010952
v -0.664581 3.300254 0.010666
v 0.704236 3.309178 0.010688
v 0.729542 3.331208 0.010750
v 0.735900 3.364154 0.010842
v 0.663834 3.301413 0.010666
v 0.722340 3.402997 0.010952
v 0.719143 2.609033 0.029416
v 0.637319 2.495364 0.029416
v 0.695178 2.528657 0.029416
v -0.630634 2.495364 0.029416
v -0.712458 2.609033 0.029416
v -0.688492 2.528657 0.029416
v 0.637319 3.241740 0.029416
v 0.719143 3.128073 0.029416
v 0.695178 3.208448 0.029416
v -0.712458 3.128073 0.029416
v -0.630634 3.241740 0.029416
v -0.688492 3.208448 0.029416
v 0.719143 3.128073 -0.028686
v 0.637319 3.241740 -0.028686
v 0.695178 3.208448 -0.028686
v 0.637319 2.495364 -0.028686
v 0.719143 2.609033 -0.028686
v 0.695178 2.528657 -0.028686
v -0.712458 2.609033 -0.028686
v -0.630634 2.495364 -0.028686
v -0.688492 2.528657 -0.028686
v -0.630634 3.241740 -0.028686
v -0.712458 3.128073 -0.028686
v -0.688492 3.208448 -0.028686
v 0.002623 4.465561 -0.177313
v -0.076853 4.465561 -0.097837
v 0.002623 4.465560 -0.018362
v 0.082099 4.465561 -0.097837
v 0.002623 0.023866 -0.177313
v -0.076853 0.023865 -0.097837
v 0.002623 0.023865 -0.018362
v 0.082098 0.023865 -0.097837
vt 0.243550 0.766009
vt 0.243369 0.756017
vt 0.243369 0.766009
vt 0.243731 0.755766
vt 0.243911 0.756065
vt 0.243911 0.755766
vt 0.243731 0.755522
vt 0.243911 0.755522
vt 0.243731 0.766305
vt 0.243550 0.766496
vt 0.243731 0.766496
vt 0.243731 0.766001
vt 0.243550 0.766305
vt 0.243550 0.755713
vt 0.243731 0.756017
vt 0.243731 0.755713
vt 0.243731 0.755522
vt 0.243369 0.755713
vt 0.243550 0.755522
vt 0.243369 0.755522
vt 0.243550 0.755713
vt 0.243550 0.766313
vt 0.243369 0.766313
vt 0.243550 0.766503
vt 0.243369 0.766503
vt 0.243911 0.765290
vt 0.243731 0.765046
vt 0.243731 0.765290
vt 0.243731 0.765589
vt 0.286732 0.016005
vt 0.283431 0.033034
vt 0.294068 0.014602
vt 0.280975 0.025980
vt 0.282135 0.020001
vt 0.403993 0.241678
vt 0.408880 0.247328
vt 0.425294 0.241677
vt 0.420408 0.247328
vt 0.414644 0.249312
vt 0.548312 0.025980
vt 0.542555 0.016005
vt 0.545856 0.033034
vt 0.547152 0.020000
vt 0.535219 0.014602
vt 0.233726 0.760822
vt 0.233960 0.761502
vt 0.233960 0.760619
vt 0.233726 0.761300
vt 0.233644 0.761061
vt 0.242605 0.766497
vt 0.243369 0.766057
vt 0.242898 0.766599
vt 0.243311 0.766361
vt 0.243145 0.766551
vt 0.243311 0.755761
vt 0.242898 0.755522
vt 0.243369 0.756065
vt 0.243145 0.755570
vt 0.242605 0.755624
vt 0.243731 0.756065
vt 0.243911 0.765046
vt 0.243550 0.766001
vt 0.243550 0.756017
vt 0.243550 0.756017
vt 0.243911 0.765046
vt 0.243911 0.765589
vt 0.243731 0.765046
vt 0.242108 0.765974
vt 0.242451 0.765974
vt 0.242451 0.755565
vt 0.243481 0.755565
vt 0.243138 0.755565
vt 0.243138 0.758633
vt 0.242795 0.755565
vt 0.242451 0.755565
vt 0.242451 0.765974
vt 0.865717 0.031824
vt 0.865717 0.135877
vt 0.877125 0.047671
vt 0.238154 0.755406
vt 0.244857 0.755406
vt 0.243836 0.754385
vt 0.242108 0.755565
vt 0.242451 0.754894
vt 0.243481 0.754894
vt 0.243138 0.754894
vt 0.242108 0.766646
vt 0.242451 0.766646
vt 0.243138 0.759304
vt 0.243138 0.758633
vt 0.242795 0.758633
vt 0.243481 0.758633
vt 0.243138 0.759304
vt 0.242795 0.754894
vt 0.242451 0.754894
vt 0.243138 0.755565
vt 0.243138 0.754894
vt 0.242795 0.754894
vt 0.242795 0.766646
vt 0.242795 0.765974
vt 0.242795 0.755565
vt 0.677544 0.120030
vt 0.688951 0.031824
vt 0.677544 0.047671
vt 0.680885 0.036465
vt 0.688951 0.135877
vt 0.873784 0.036465
vt 0.877125 0.120030
vt 0.873784 0.131235
vt 0.680885 0.131235
vt 0.238154 0.771226
vt 0.239175 0.754385
vt 0.238453 0.754684
vt 0.244558 0.754684
vt 0.244857 0.771226
vt 0.243836 0.772247
vt 0.244558 0.771948
vt 0.239175 0.772247
vt 0.238453 0.771948
vt 0.242108 0.754894
vt 0.242795 0.759304
vt 0.243481 0.759304
vt 0.242451 0.766646
vt 0.242352 0.771676
vt 0.242908 0.771676
vt 0.242908 0.749730
vt 0.243463 0.750285
vt 0.244019 0.750285
vt 0.244019 0.749730
vt 0.243463 0.771676
vt 0.243463 0.749730
vt 0.241242 0.749730
vt 0.241242 0.771676
vt 0.241797 0.771676
vt 0.241797 0.749730
vt 0.242352 0.749730
vn 0.0952 -0.9955 -0.0028
vn -0.0935 -0.9956 -0.0028
vn 0.0952 -0.9955 -0.0027
vn 0.5595 0.8288 0.0023
vn 0.8142 0.5805 0.0016
vn -0.0009 1.0000 0.0028
vn -0.5609 0.8278 0.0023
vn -0.8153 0.5791 0.0016
vn -0.9975 0.0708 0.0002
vn -0.9095 0.4156 0.0012
vn -0.8657 -0.5006 -0.0014
vn -0.4362 -0.8999 -0.0025
vn 0.4377 -0.8991 -0.0025
vn 0.8665 -0.4991 -0.0014
vn 0.8666 -0.4991 -0.0014
vn 0.9974 0.0726 0.0002
vn 0.9974 0.0725 0.0002
vn 0.9088 0.4172 0.0012
vn 0.0000 -0.0028 1.0000
vn -0.0000 0.0028 -1.0000
vn 0.0000 -1.0000 0.0000
vn -1.0000 -0.0000 0.0000
vn 0.0000 1.0000 0.0000
vn -0.0000 -0.0000 1.0000
vn 0.0000 0.0000 -1.0000
vn -0.4987 -0.8668 0.0000
vn -0.4987 -0.8667 0.0000
vn -0.9583 -0.2857 0.0000
vn 0.4987 -0.8668 0.0000
vn 0.9583 -0.2857 0.0000
vn -0.9583 0.2857 0.0000
vn -0.4987 0.8668 0.0000
vn 0.9583 0.2857 0.0000
vn 0.4987 0.8668 0.0000
vn 1.0000 0.0000 0.0000
vn 0.4987 -0.8667 0.0000
vn -0.7071 -0.0000 -0.7071
vn -0.7071 -0.0000 0.7071
vn 0.7071 -0.0000 0.7071
vn 0.7071 -0.0000 -0.7071
usemtl Material.007
s 1
f 29/1/1 9/2/2 15/3/3
f 16/4/4 5/5/5 3/6/4
f 17/7/6 3/6/4 2/8/6
f 1/9/7 17/10/6 2/11/6
f 4/12/8 18/13/7 1/9/7
f 21/14/9 10/15/10 8/16/9
f 7/17/11 21/14/9 8/16/9
f 6/18/12 22/19/11 7/20/11
f 9/2/2 23/21/12 6/18/12
f 26/22/13 15/3/3 13/23/13
f 27/24/14 13/23/13 12/25/15
f 28/26/16 12/27/15 11/28/17
f 14/29/18 28/26/16 11/28/17
f 26/30/19 30/31/19 29/32/19
f 28/33/19 26/30/19 27/34/19
f 30/31/19 26/30/19 28/33/19
f 19/35/19 29/32/19 30/31/19
f 16/36/19 20/37/19 19/35/19
f 18/38/19 16/36/19 17/39/19
f 20/37/19 16/36/19 18/38/19
f 21/40/19 23/41/19 24/42/19
f 23/41/19 21/40/19 22/43/19
f 20/37/19 24/42/19 25/44/19
f 25/44/19 24/42/19 23/41/19
f 29/32/19 20/37/19 25/44/19
f 1/45/20 5/46/20 4/47/20
f 3/48/20 1/45/20 2/49/20
f 5/46/20 1/45/20 3/48/20
f 14/50/20 15/51/20 5/46/20
f 14/50/20 11/52/20 13/53/20
f 13/53/20 11/52/20 12/54/20
f 15/51/20 14/50/20 13/53/20
f 6/55/20 8/56/20 9/57/20
f 8/56/20 6/55/20 7/58/20
f 4/47/20 15/51/20 9/57/20
f 10/59/20 9/57/20 8/56/20
f 4/47/20 9/57/20 10/59/20
f 19/60/5 14/61/18 5/5/5
f 20/62/8 10/15/10 24/63/10
f 29/1/1 25/64/2 9/2/2
f 16/4/4 19/60/5 5/5/5
f 17/7/6 16/4/4 3/6/4
f 1/9/7 18/13/7 17/10/6
f 4/12/8 20/62/8 18/13/7
f 21/14/9 24/63/10 10/15/10
f 7/17/11 22/19/11 21/14/9
f 6/18/12 23/21/12 22/19/11
f 9/2/2 25/64/2 23/21/12
f 26/22/13 29/1/1 15/3/3
f 27/24/14 26/22/13 13/23/13
f 28/26/16 27/65/14 12/27/15
f 14/29/18 30/66/18 28/26/16
f 29/32/19 19/35/19 20/37/19
f 4/47/20 5/46/20 15/51/20
f 19/60/5 30/67/18 14/61/18
f 20/62/8 4/12/8 10/15/10
f 46/68/21 32/69/21 34/70/21
f 49/71/22 35/72/22 40/73/22
f 52/74/23 41/75/23 37/76/23
f 34/77/24 41/78/24 35/79/24
f 46/80/25 44/81/25 43/82/25
f 50/83/26 34/70/27 36/84/26
f 51/85/28 36/86/28 35/72/28
f 46/68/29 48/87/29 33/88/29
f 48/89/30 47/90/30 31/91/30
f 53/92/31 40/73/31 42/93/31
f 54/94/32 42/95/32 41/75/32
f 43/96/33 45/97/33 39/98/33
f 45/99/34 44/100/34 37/76/34
f 38/101/35 31/91/35 47/90/35
f 46/68/21 34/70/21 50/83/21
f 49/71/22 40/73/22 53/92/22
f 52/74/23 37/76/23 44/100/23
f 38/102/24 32/103/24 31/104/24
f 31/104/24 32/103/24 33/105/24
f 32/103/24 37/106/24 34/77/24
f 38/102/24 37/106/24 32/103/24
f 34/77/24 35/79/24 36/107/24
f 35/79/24 41/78/24 40/108/24
f 40/108/24 41/78/24 42/109/24
f 41/78/24 34/77/24 37/106/24
f 37/106/24 38/102/24 39/110/24
f 50/111/25 44/81/25 46/80/25
f 46/80/25 47/112/25 48/113/25
f 43/82/25 47/112/25 46/80/25
f 43/82/25 44/81/25 45/114/25
f 44/81/25 50/111/25 52/115/25
f 52/115/25 53/116/25 54/117/25
f 50/111/25 49/118/25 52/115/25
f 53/116/25 52/115/25 49/118/25
f 49/118/25 50/111/25 51/119/25
f 50/83/26 36/84/26 51/120/26
f 51/85/28 35/72/28 49/71/28
f 46/68/29 33/88/29 32/69/36
f 48/89/30 31/91/30 33/121/30
f 53/92/31 42/93/31 54/122/31
f 54/94/32 41/75/32 52/74/32
f 43/96/33 39/98/33 38/101/33
f 45/99/34 37/76/34 39/123/34
f 38/101/35 47/90/35 43/96/35
f 59/124/37 60/125/37 56/126/37
f 58/127/23 55/128/23 56/129/23
f 60/125/38 61/130/38 57/131/38
f 57/132/39 61/133/39 62/134/39
f 58/135/40 62/134/40 59/124/40
f 59/124/37 56/126/37 55/136/37
f 58/127/23 56/129/23 57/131/23
f 60/125/38 57/131/38 56/126/38
f 57/132/39 62/134/39 58/135/39
f 58/135/40 59/124/40 55/136/40
