# Blender v2.90.1 OBJ File: ''
# www.blender.org
mtllib OneWay.mtl
o Sign_OneWayTraffic
v -0.587915 4.208040 0.004567
v -0.545336 4.165462 0.004567
v 0.538471 4.165462 0.004567
v 0.581050 4.208040 0.004567
v -0.545336 5.334426 0.004567
v -0.587915 5.291847 0.004567
v 0.581050 5.291847 0.004567
v 0.538471 5.334426 0.004567
v -0.545336 4.165462 -0.032373
v -0.587915 4.208040 -0.032373
v 0.581050 4.208040 -0.032373
v 0.538471 4.165462 -0.032373
v -0.587915 5.291847 -0.032373
v -0.545336 5.334426 -0.032373
v 0.538471 5.334426 -0.032373
v 0.581050 5.291847 -0.032373
v -0.081731 4.778882 -0.097222
v -0.002256 4.778882 -0.176698
v 0.077220 4.778882 -0.097222
v -0.002256 4.778882 -0.017746
v -0.081731 0.021273 -0.097222
v -0.002256 0.021273 -0.176698
v 0.077220 0.021273 -0.097222
v -0.002256 0.021272 -0.017746
vt 0.245136 0.762689
vt 0.245120 0.762365
vt 0.245136 0.762365
vt 0.270558 0.444463
vt 0.469522 0.451984
vt 0.462001 0.650948
vt 0.245092 0.762841
vt 0.245081 0.762383
vt 0.245092 0.762383
vt 0.245105 0.762365
vt 0.245120 0.762689
vt 0.245105 0.762689
vt 0.244438 0.762841
vt 0.244438 0.762383
vt 0.244456 0.762365
vt 0.245120 0.762714
vt 0.245120 0.762689
vt 0.245093 0.762859
vt 0.245081 0.762841
vt 0.245105 0.762714
vt 0.245093 0.762365
vt 0.245120 0.762714
vt 0.245105 0.763038
vt 0.263037 0.643427
vt 0.263037 0.451984
vt 0.462001 0.444463
vt 0.469522 0.643426
vt 0.270558 0.650948
vt 0.244914 0.762365
vt 0.244914 0.762859
vt 0.244932 0.762383
vt 0.244932 0.762841
vt 0.244456 0.762859
vt 0.245136 0.762714
vt 0.245105 0.762859
vt 0.245120 0.763038
vt 0.245000 0.764243
vt 0.245000 0.762365
vt 0.245047 0.762365
vt 0.245047 0.764243
vt 0.244966 0.764243
vt 0.244966 0.762365
vt 0.244932 0.764243
vt 0.244932 0.762365
vt 0.245081 0.762365
vt 0.245081 0.763693
vt 0.245047 0.763716
vt 0.245047 0.762388
vt 0.244438 0.762859
vt 0.244477 0.762873
vt 0.244477 0.762914
vt 0.244438 0.762900
vn 0.0000 -1.0000 0.0000
vn 0.0000 -0.0000 1.0000
vn 1.0000 0.0000 0.0000
vn 0.0000 1.0000 -0.0000
vn -0.0000 0.0000 -1.0000
vn -0.7071 -0.7071 0.0000
vn 0.7071 -0.7071 0.0000
vn -0.7071 0.7071 -0.0000
vn 0.7071 0.7071 -0.0000
vn -1.0000 0.0000 0.0000
vn 0.7071 0.0000 -0.7071
vn -0.7071 0.0000 -0.7071
vn -0.7071 0.0000 0.7071
vn 0.7071 0.0000 0.7071
usemtl Material.004
s 1
f 2/1/1 12/2/1 3/3/1
f 2/4/2 4/5/2 8/6/2
f 4/7/3 16/8/3 7/9/3
f 8/10/4 14/11/4 5/12/4
f 16/13/5 11/14/5 12/15/5
f 2/1/6 10/16/6 9/17/6
f 4/7/7 12/18/7 11/19/7
f 14/11/8 6/20/8 5/12/8
f 15/21/9 7/9/9 16/8/9
f 13/22/10 1/23/10 6/20/10
f 2/1/1 9/17/1 12/2/1
f 6/24/2 1/25/2 2/4/2
f 2/4/2 3/26/2 4/5/2
f 4/5/2 7/27/2 8/6/2
f 8/6/2 5/28/2 6/24/2
f 6/24/2 2/4/2 8/6/2
f 4/7/3 11/19/3 16/8/3
f 8/10/4 15/21/4 14/11/4
f 12/15/5 9/29/5 14/30/5
f 9/29/5 10/31/5 14/30/5
f 10/31/5 13/32/5 14/30/5
f 14/30/5 15/33/5 12/15/5
f 15/33/5 16/13/5 12/15/5
f 2/1/6 1/34/6 10/16/6
f 4/7/7 3/35/7 12/18/7
f 14/11/8 13/22/8 6/20/8
f 15/21/9 8/10/9 7/9/9
f 13/22/10 10/36/10 1/23/10
f 22/37/11 18/38/11 19/39/11 23/40/11
f 21/41/12 17/42/12 18/38/12 22/37/12
f 24/43/13 20/44/13 17/42/13 21/41/13
f 23/45/14 19/46/14 20/47/14 24/48/14
f 17/49/4 20/50/4 19/51/4 18/52/4
