# Blender v2.90.1 OBJ File: 'limit50.blend'
# www.blender.org
mtllib PrioRoad.mtl
o Sign_PriorityToTheRight
v -0.064718 4.926122 0.001114
v -0.724269 3.774081 -0.035406
v -0.724211 3.774115 0.006791
v 0.727857 3.706512 0.000759
v 0.734088 3.739436 -0.041547
v 0.734146 3.739470 0.000650
v -0.665264 3.672656 -0.035406
v 0.662210 3.676581 0.001114
v -0.665207 3.672690 0.006791
v -0.006310 4.968360 -0.041438
v -0.037935 4.957352 0.000922
v -0.006251 4.968395 0.000760
v 0.662152 3.676546 -0.041084
v 0.702597 3.684428 0.000922
v 0.727799 3.706477 -0.041438
v 0.025508 4.957572 0.000651
v 0.025450 4.957538 -0.041546
v 0.720507 3.778285 0.000612
v -0.064777 4.926087 -0.041083
v 0.052450 4.926495 -0.041585
v -0.037993 4.957317 -0.041275
v 0.720449 3.778251 -0.041585
v 0.702539 3.684394 -0.041276
v -0.705705 3.680271 -0.035252
v -0.737638 3.735162 -0.035252
v -0.731119 3.702221 -0.035199
v 0.052509 4.926529 0.000613
v -0.737580 3.735197 0.006945
v -0.705647 3.680306 0.006945
v -0.731061 3.702255 0.006999
v -0.054249 0.025513 -0.172212
v 0.058147 4.467209 -0.172211
v 0.058147 0.025514 -0.172212
v -0.054249 0.025514 -0.059817
v 0.058147 4.467209 -0.059816
v -0.054249 4.467209 -0.059816
v 0.058147 0.025513 -0.059817
v -0.054249 4.467209 -0.172211
vt 0.147633 0.471297
vt 0.147452 0.471053
vt 0.147633 0.471053
vt 0.994553 0.084964
vt 0.005780 0.085433
vt 0.049662 0.004556
vt 0.017383 0.980847
vt 0.017675 0.980745
vt 0.018146 0.981287
vt 0.017923 0.980793
vt 0.018088 0.980983
vt 0.018088 0.991583
vt 0.017923 0.991774
vt 0.017675 0.991822
vt 0.008738 0.986725
vt 0.008504 0.986522
vt 0.008504 0.986044
vt 0.008421 0.986283
vt 0.542379 0.969632
vt 0.457933 0.969615
vt 0.523004 0.994407
vt 0.499229 0.997354
vt 0.477300 0.994399
vt 0.000909 0.057248
vt 0.023783 0.013476
vt 0.005528 0.031011
vt 0.952317 0.004168
vt 0.973338 0.013062
vt 0.996196 0.056786
vt 0.991589 0.030572
vt 0.147271 0.462024
vt 0.147452 0.472008
vt 0.147271 0.472008
vt 0.147271 0.472510
vt 0.147091 0.472320
vt 0.147271 0.472320
vt 0.147633 0.462072
vt 0.147452 0.471053
vt 0.147452 0.462072
vt 0.147452 0.461529
vt 0.147271 0.461720
vt 0.147271 0.461529
vt 0.147452 0.471596
vt 0.147633 0.471596
vt 0.147091 0.461529
vt 0.147271 0.461720
vt 0.147091 0.461720
vt 0.008738 0.985842
vt 0.018146 0.991279
vt 0.017383 0.991720
vt 0.019549 0.957310
vt 0.019807 0.946369
vt 0.019807 0.957310
vt 0.147091 0.472016
vt 0.147271 0.462024
vt 0.147271 0.472016
vt 0.147633 0.461773
vt 0.147452 0.461773
vt 0.147452 0.462024
vt 0.147452 0.472312
vt 0.147091 0.462024
vt 0.147271 0.472503
vt 0.147271 0.472312
vt 0.147633 0.461529
vt 0.147452 0.461529
vt 0.019549 0.957310
vt 0.019442 0.946369
vt 0.019549 0.946369
vt 0.019151 0.957310
vt 0.019011 0.946369
vt 0.019291 0.946369
vt 0.019914 0.950758
vt 0.020065 0.951123
vt 0.019807 0.951016
vt 0.018732 0.957310
vt 0.019011 0.946369
vt 0.019011 0.957310
vt 0.147091 0.472510
vt 0.147633 0.471053
vt 0.147452 0.461720
vt 0.147452 0.471297
vt 0.019700 0.946369
vt 0.147452 0.472503
vt 0.019291 0.957310
vt 0.019011 0.957310
vt 0.020172 0.950865
vt 0.018872 0.946369
vn 0.6582 -0.7529 -0.0003
vn 0.6582 -0.7528 -0.0003
vn 0.0043 0.0025 1.0000
vn -0.0043 -0.0025 -1.0000
vn -0.0042 -0.0025 -1.0000
vn -0.0042 -0.0024 -1.0000
vn 0.0043 0.0024 1.0000
vn -0.8172 0.5763 0.0007
vn -0.9108 0.4128 0.0009
vn -0.9109 0.4125 0.0009
vn 0.9823 -0.1874 -0.0012
vn -0.0913 -0.9958 0.0009
vn 0.0971 -0.9953 0.0007
vn -0.0916 -0.9958 0.0009
vn -0.3291 0.9443 -0.0003
vn 0.0975 -0.9952 0.0007
vn 0.1907 -0.9816 0.0005
vn 0.3225 0.9466 -0.0012
vn 0.3226 0.9466 -0.0012
vn -0.0000 0.0000 -1.0000
vn 0.9080 0.4191 -0.0016
vn 0.8131 0.5822 -0.0016
vn 0.9080 0.4190 -0.0016
vn -0.1851 -0.9827 0.0011
vn -0.7591 0.6510 0.0005
vn -0.8170 0.5766 0.0006
vn -0.9458 0.3249 0.0010
vn 0.8131 0.5821 -0.0016
vn 0.7545 0.6563 -0.0016
vn 0.9434 0.3315 -0.0016
vn -0.9810 -0.1941 0.0015
vn -0.6536 -0.7568 0.0015
vn 0.0000 -0.0000 1.0000
vn 1.0000 -0.0000 0.0000
vn 0.0000 1.0000 0.0000
vn -1.0000 0.0000 0.0000
vn -0.3291 0.9443 -0.0004
vn 0.3226 0.9465 -0.0013
usemtl Material.005
s 1
f 14/1/1 15/2/1 4/3/2
f 18/4/3 3/5/3 9/6/3
f 19/7/4 21/8/4 20/9/4
f 21/8/4 10/10/4 17/11/4
f 17/11/4 20/9/4 21/8/4
f 5/12/4 15/13/5 23/14/4
f 7/15/4 24/16/4 25/17/4
f 24/16/4 26/18/6 25/17/4
f 3/5/3 27/19/3 1/20/3
f 16/21/3 12/22/7 11/23/3
f 11/23/3 1/20/3 16/21/3
f 3/5/3 28/24/3 29/25/3
f 28/24/3 30/26/3 29/25/3
f 29/25/3 9/6/3 3/5/3
f 9/6/3 8/27/3 18/4/3
f 8/27/3 14/28/3 6/29/3
f 14/28/3 4/30/3 6/29/3
f 6/29/3 18/4/3 8/27/3
f 18/4/3 27/19/3 3/5/3
usemtl Material.006
f 1/31/8 2/32/9 3/33/10
f 4/34/11 5/35/11 6/36/11
f 7/37/12 8/38/13 9/39/14
f 10/40/15 11/41/15 12/42/15
f 13/43/16 14/1/17 8/44/13
f 10/45/18 16/46/19 17/47/18
f 2/48/4 19/7/4 20/9/4
f 22/49/4 5/12/4 13/50/4
f 13/50/4 5/12/4 23/14/4
f 13/50/4 7/15/4 22/49/4
f 25/17/4 2/48/4 7/15/4
f 27/19/3 16/21/3 1/20/3
f 31/51/20 32/52/20 33/53/20
f 22/54/21 27/55/22 18/56/23
f 24/57/24 9/39/14 29/58/24
f 11/41/25 19/59/26 1/31/8
f 25/60/27 3/33/10 2/32/9
f 20/61/28 16/46/29 27/55/22
f 5/35/30 18/56/23 6/36/30
f 20/9/4 7/15/4 2/48/4
f 25/60/31 30/62/31 28/63/31
f 26/64/32 29/58/32 30/65/32
f 34/66/33 35/67/33 36/68/33
f 32/69/34 37/70/34 33/71/34
f 32/72/35 36/73/35 35/74/35
f 34/75/36 38/76/36 31/77/36
f 1/31/8 19/59/26 2/32/9
f 4/34/11 15/78/11 5/35/11
f 7/37/12 13/79/16 8/38/13
f 10/40/15 21/80/37 11/41/15
f 13/43/16 23/81/17 14/1/17
f 14/1/1 23/81/1 15/2/1
f 10/45/18 12/42/38 16/46/19
f 31/51/20 38/82/20 32/52/20
f 22/54/21 20/61/28 27/55/22
f 24/57/24 7/37/12 9/39/14
f 11/41/25 21/80/25 19/59/26
f 25/60/27 28/63/27 3/33/10
f 20/61/28 17/47/29 16/46/29
f 5/35/30 22/54/21 18/56/23
f 20/9/4 22/49/4 7/15/4
f 25/60/31 26/83/31 30/62/31
f 26/64/32 24/57/32 29/58/32
f 34/66/33 37/84/33 35/67/33
f 32/69/34 35/85/34 37/70/34
f 32/72/35 38/86/35 36/73/35
f 34/75/36 36/87/36 38/76/36
