# Blender v2.90.1 OBJ File: ''
# www.blender.org
mtllib PriorityRoad.mtl
o Sign_PriorityRoad
v -0.677484 3.679776 0.017160
v -0.677484 3.648021 0.017160
v -0.015878 2.986414 0.017160
v 0.015877 2.986414 0.017160
v 0.015878 4.341382 0.017160
v -0.015877 4.341382 0.017160
v 0.677484 3.648021 0.017160
v 0.677484 3.679776 0.017160
v -0.677484 3.648021 -0.017159
v -0.677484 3.679776 -0.017159
v 0.015878 2.986414 -0.017159
v -0.015877 2.986415 -0.017159
v -0.015878 4.341382 -0.017159
v 0.015878 4.341382 -0.017159
v 0.677484 3.679776 -0.017159
v 0.677484 3.648021 -0.017159
v -0.043990 4.439105 -0.099401
v 0.040514 4.439105 -0.099401
v 0.040514 4.439104 -0.014898
v -0.043990 4.439105 -0.014898
v -0.043990 0.022234 -0.014898
v 0.040514 0.022234 -0.014898
v 0.040514 0.022234 -0.099401
v -0.043990 0.022234 -0.099401
vt 0.354593 0.969608
vt 0.349064 0.733675
vt 0.354593 0.733675
vt 0.016188 0.979866
vt 0.016307 0.979944
vt 0.016188 0.979944
vt 0.016426 0.979944
vt 0.016307 0.983186
vt 0.016307 0.979944
vt 0.016188 0.983186
vt 0.012868 0.979866
vt 0.016188 0.979944
vt 0.016110 0.983264
vt 0.016307 0.983186
vt 0.016188 0.983264
vt 0.016426 0.979866
vt 0.016545 0.983108
vt 0.016426 0.983108
vt 0.016545 0.983186
vt 0.016426 0.983186
vt 0.016426 0.979866
vt 0.016307 0.979866
vt 0.469795 0.848877
vt 0.469795 0.854406
vt 0.349064 0.969608
vt 0.233862 0.854406
vt 0.233862 0.848877
vt 0.012868 0.983264
vt 0.012790 0.983186
vt 0.012790 0.979944
vt 0.016110 0.979866
vt 0.016188 0.983186
vt 0.016545 0.983108
vt 0.016664 0.979866
vt 0.016664 0.983108
vt 0.016307 0.979866
vt 0.016426 0.983186
vt 0.016307 0.983264
vt 0.016545 0.979866
vt 0.016545 0.979866
vt 0.017525 0.978370
vt 0.017595 0.974755
vt 0.017595 0.978370
vt 0.017733 0.978188
vt 0.017664 0.974755
vt 0.017733 0.974755
vt 0.017456 0.978370
vt 0.017456 0.974755
vt 0.017525 0.974755
vt 0.017664 0.978188
vt 0.017525 0.974755
vt 0.017595 0.978210
vt 0.017664 0.974755
vt 0.017664 0.978210
vt 0.017595 0.974755
vt 0.016456 0.975885
vt 0.016525 0.975885
vt 0.016525 0.975955
vt 0.016456 0.975955
vt 0.017525 0.978370
vn 0.0000 -0.0000 1.0000
vn -1.0000 -0.0000 -0.0000
vn -0.7071 0.7071 -0.0000
vn -0.7071 -0.7071 -0.0000
vn -0.0000 0.0000 -1.0000
vn -0.0000 -1.0000 0.0000
vn 0.7071 -0.7071 0.0000
vn 1.0000 -0.0000 0.0000
vn -0.0000 1.0000 0.0000
vn 0.7071 0.7071 0.0000
usemtl Material.020
s 1
f 3/1/1 5/2/1 6/3/1
f 1/4/2 9/5/2 2/6/2
f 13/7/3 1/8/3 6/9/3
f 9/5/4 3/10/4 2/6/4
f 14/11/5 16/12/5 12/13/5
f 12/14/6 4/15/6 3/10/6
f 4/16/7 16/17/7 7/18/7
f 7/18/8 15/19/8 8/20/8
f 14/21/9 6/9/9 5/22/9
f 6/3/1 1/23/1 2/24/1
f 2/24/1 3/1/1 6/3/1
f 4/25/1 7/26/1 8/27/1
f 8/27/1 5/2/1 4/25/1
f 12/13/5 9/28/5 10/29/5
f 10/29/5 13/30/5 12/13/5
f 13/30/5 14/11/5 12/13/5
f 14/11/5 15/31/5 16/12/5
f 16/12/5 11/32/5 12/13/5
f 15/33/10 5/34/10 8/35/10
f 3/1/1 4/25/1 5/2/1
f 1/4/2 10/36/2 9/5/2
f 13/7/3 10/37/3 1/8/3
f 9/5/4 12/14/4 3/10/4
f 12/14/6 11/38/6 4/15/6
f 4/16/7 11/39/7 16/17/7
f 7/18/8 16/17/8 15/19/8
f 14/21/9 13/7/9 6/9/9
f 15/33/10 14/40/10 5/34/10
usemtl Material.012
f 18/41/5 24/42/5 17/43/5
f 20/44/2 24/45/2 21/46/2
f 22/47/1 19/48/1 20/49/1
f 20/44/2 17/50/2 24/45/2
f 18/41/5 23/51/5 24/42/5
f 19/52/8 23/53/8 18/54/8
f 19/52/8 22/55/8 23/53/8
f 20/56/9 19/57/9 18/58/9
f 20/56/9 18/58/9 17/59/9
f 22/47/1 20/49/1 21/60/1
