# Blender v2.90.1 OBJ File: 'limit50.blend'
# www.blender.org
mtllib Reminder50.mtl
o Sign_Yield
v -0.003396 4.441509 -0.177228
v -0.003396 -0.000186 -0.177229
v 0.076080 -0.000186 -0.097753
v -0.082871 4.441509 -0.097752
v 0.076080 4.441509 -0.097752
v -0.003396 -0.000187 -0.018278
v -0.003396 4.441509 -0.018277
v -0.082871 -0.000186 -0.097753
v -0.444943 2.846565 -0.013246
v -0.444943 2.825352 0.014144
v 0.436712 2.825352 0.014144
v 0.493608 2.904105 -0.013246
v 0.493608 2.889354 0.014144
v 0.493608 3.181597 0.014145
v 0.436712 3.224385 -0.013245
v 0.436712 3.245597 0.014145
v -0.444943 3.245597 0.014145
v -0.444943 3.224385 -0.013245
v -0.501839 3.166846 -0.013245
v 0.436712 2.846565 -0.013246
v 0.476943 2.844098 0.014144
v 0.476943 2.863417 -0.013246
v -0.485174 2.863417 -0.013246
v -0.485174 2.844098 0.014144
v -0.501839 2.904105 -0.013246
v -0.501839 2.889354 0.014144
v 0.493608 3.166846 -0.013245
v 0.476943 3.226851 0.014145
v 0.476943 3.207532 -0.013245
v -0.485174 3.207532 -0.013245
v -0.485174 3.226851 0.014145
v -0.501839 3.181597 0.014145
vt 0.240376 0.746908
vt 0.241110 0.775941
vt 0.240376 0.775941
vt 0.241110 0.747642
vt 0.241845 0.746908
vt 0.241845 0.747642
vt 0.238906 0.775941
vt 0.238172 0.746908
vt 0.238906 0.746908
vt 0.239641 0.746908
vt 0.240376 0.775941
vt 0.239641 0.775941
vt 0.238906 0.746908
vt 0.239641 0.775941
vt 0.238906 0.775941
vt 0.241110 0.746908
vt 0.241110 0.746908
vt 0.238172 0.775941
vt 0.240376 0.746908
vt 0.239641 0.746908
vt 0.253566 0.765520
vt 0.253751 0.759901
vt 0.253751 0.765520
vt 0.254307 0.759901
vt 0.254122 0.761557
vt 0.254122 0.759901
vt 0.253936 0.759901
vt 0.253751 0.765520
vt 0.253751 0.759901
vt 0.238154 0.755406
vt 0.243836 0.754385
vt 0.244857 0.755406
vt 0.253566 0.759901
vt 0.253751 0.759539
vt 0.254307 0.759539
vt 0.254122 0.759539
vt 0.253751 0.765883
vt 0.253566 0.765883
vt 0.254122 0.761919
vt 0.253936 0.761557
vt 0.254122 0.761557
vt 0.254307 0.761557
vt 0.254122 0.761919
vt 0.253936 0.759539
vt 0.253751 0.759539
vt 0.254122 0.759901
vt 0.253936 0.759539
vt 0.254122 0.759539
vt 0.253936 0.765883
vt 0.253936 0.765520
vt 0.253936 0.759901
vt 0.238154 0.771226
vt 0.238453 0.754684
vt 0.239175 0.754385
vt 0.244558 0.754684
vt 0.244857 0.771226
vt 0.244558 0.771948
vt 0.243836 0.772247
vt 0.239175 0.772247
vt 0.238453 0.771948
vt 0.253566 0.759539
vt 0.253936 0.761919
vt 0.254307 0.761919
vt 0.253751 0.765883
vt 0.927121 0.304110
vt 0.072348 0.301740
vt 0.032180 0.320320
vt 0.014929 0.366533
vt 0.016432 0.635443
vt 0.032207 0.682218
vt 0.071763 0.702158
vt 0.932805 0.691992
vt 0.972973 0.673413
vt 0.990223 0.627201
vt 0.982452 0.370827
vt 0.966678 0.324050
vn 0.7071 0.0000 -0.7071
vn 0.0000 1.0000 0.0000
vn 0.7071 -0.0000 0.7071
vn -0.7071 -0.0000 0.7071
vn -0.7071 0.0000 -0.7071
vn 0.0000 -0.7906 -0.6123
vn 1.0000 0.0000 0.0000
vn 0.0000 0.7906 -0.6123
vn 0.0000 0.0000 -1.0000
vn 0.3369 -0.7548 -0.5629
vn 0.3330 -0.7603 -0.5577
vn 0.3457 -0.7419 -0.5746
vn 0.9102 -0.3483 -0.2240
vn 0.9088 -0.3583 -0.2137
vn 0.9117 -0.3357 -0.2368
vn -0.3369 -0.7548 -0.5629
vn -0.3330 -0.7603 -0.5577
vn -0.3239 -0.7731 -0.5453
vn -0.9102 -0.3483 -0.2240
vn -0.9088 -0.3583 -0.2137
vn -0.9067 -0.3714 -0.2000
vn 0.9123 0.3502 -0.2121
vn 0.9068 0.3553 -0.2267
vn 0.9226 0.3397 -0.1830
vn 0.3383 0.7584 -0.5571
vn 0.3321 0.7564 -0.5635
vn 0.3558 0.7637 -0.5387
vn -0.9123 0.3502 -0.2121
vn -0.9068 0.3553 -0.2267
vn -0.8940 0.3662 -0.2583
vn -0.3383 0.7584 -0.5571
vn -0.3321 0.7564 -0.5635
vn -0.3144 0.7505 -0.5812
vn -1.0000 -0.0000 0.0000
vn 0.3239 -0.7731 -0.5453
vn 0.9067 -0.3714 -0.2000
vn -0.3457 -0.7419 -0.5746
vn -0.9117 -0.3357 -0.2368
vn 0.8940 0.3662 -0.2583
vn 0.3144 0.7505 -0.5812
vn -0.9226 0.3397 -0.1830
vn -0.3558 0.7637 -0.5387
vn 0.0000 -0.0000 1.0000
usemtl Material.003
s 1
f 1/1/1 3/2/1 2/3/1
f 4/4/2 5/5/2 1/6/2
f 5/7/3 6/8/3 3/9/3
f 7/10/4 8/11/4 6/12/4
f 4/13/5 2/14/5 8/15/5
f 1/1/1 5/16/1 3/2/1
f 4/4/2 7/17/2 5/5/2
f 5/7/3 7/18/3 6/8/3
f 7/10/4 4/19/4 8/11/4
f 4/13/5 1/20/5 2/14/5
f 9/21/6 11/22/6 10/23/6
f 12/24/7 14/25/7 13/26/7
f 15/27/8 17/28/8 16/29/8
f 9/30/9 19/31/9 18/32/9
f 20/33/10 21/34/11 11/22/12
f 22/35/13 13/26/14 21/36/15
f 9/21/16 24/37/17 23/38/18
f 23/39/19 26/40/20 25/41/21
f 27/42/22 28/43/23 14/25/24
f 29/44/25 16/29/26 28/45/27
f 19/46/28 31/47/29 30/48/30
f 30/49/31 17/28/32 18/50/33
f 32/51/34 25/41/34 26/40/34
f 9/21/6 20/33/6 11/22/6
f 12/24/7 27/42/7 14/25/7
f 15/27/8 18/50/8 17/28/8
f 20/52/9 9/30/9 18/32/9
f 9/30/9 23/53/9 25/54/9
f 19/31/9 9/30/9 25/54/9
f 19/31/9 30/55/9 18/32/9
f 18/32/9 15/56/9 20/52/9
f 15/56/9 29/57/9 27/58/9
f 20/52/9 15/56/9 12/59/9
f 27/58/9 12/59/9 15/56/9
f 12/59/9 22/60/9 20/52/9
f 20/33/10 22/61/35 21/34/11
f 22/35/13 12/24/36 13/26/14
f 9/21/16 10/23/37 24/37/17
f 23/39/19 24/62/38 26/40/20
f 27/42/22 29/63/39 28/43/23
f 29/44/25 15/27/40 16/29/26
f 19/46/28 32/51/41 31/47/29
f 30/49/31 31/64/42 17/28/32
f 32/51/34 19/46/34 25/41/34
usemtl Material.004
f 10/65/43 11/66/43 21/67/43 13/68/43 14/69/43 28/70/43 16/71/43 17/72/43 31/73/43 32/74/43 26/75/43 24/76/43
o Sign_PedestrianLane
v 0.515978 4.056212 -0.015233
v 0.464369 4.152767 -0.015233
v 0.464369 4.152767 0.002270
v -0.108955 4.390246 -0.015233
v -0.108955 4.390246 0.002270
v -0.000000 4.400977 0.002270
v 0.213726 3.326508 -0.015234
v 0.310281 3.378118 -0.015234
v 0.310281 3.378118 0.002269
v 0.213726 4.358465 -0.015233
v 0.108956 4.390246 -0.015233
v 0.108956 4.390246 0.002270
v -0.394913 3.447574 -0.015234
v -0.394913 3.447574 0.002269
v -0.464368 3.532205 0.002269
v 0.547760 3.733530 -0.015234
v 0.558491 3.842486 -0.015234
v 0.558491 3.842486 0.002270
v -0.000000 3.283995 -0.015234
v -0.000000 3.283995 0.002269
v -0.108956 3.294726 0.002269
v -0.515979 3.628761 0.002269
v -0.515979 3.628761 -0.015234
v -0.464368 3.532205 -0.015234
v 0.108956 3.294726 -0.015234
v 0.213726 3.326508 0.002269
v -0.547760 3.733530 0.002269
v 0.547760 3.951442 -0.015233
v 0.515978 4.056212 0.002270
v -0.515978 4.056212 -0.015233
v -0.515978 4.056212 0.002270
v -0.464368 4.152767 0.002270
v 0.310281 4.306855 -0.015233
v 0.213726 4.358465 0.002270
v -0.558491 3.842487 -0.015234
v -0.558491 3.842487 0.002270
v -0.547760 3.951442 0.002270
v 0.547760 3.951442 0.002270
v -0.108956 3.294727 -0.015234
v -0.213725 3.326508 0.002269
v -0.213725 3.326508 -0.015234
v -0.310281 3.378118 0.002269
v 0.394913 4.237399 -0.015233
v 0.310281 4.306854 0.002270
v -0.310281 3.378118 -0.015234
v -0.310280 4.306855 -0.015233
v -0.310280 4.306855 0.002270
v -0.213724 4.358465 0.002270
v 0.464369 3.532205 -0.015234
v 0.515978 3.628761 -0.015234
v 0.515978 3.628761 0.002269
v -0.394912 4.237400 -0.015233
v -0.394912 4.237399 0.002270
v -0.547760 3.951443 -0.015233
v 0.394913 3.447574 -0.015234
v 0.464369 3.532205 0.002269
v 0.394913 3.447573 0.002269
v 0.547760 3.733530 0.002269
v -0.000000 4.400978 -0.015233
v -0.547760 3.733530 -0.015234
v -0.213724 4.358465 -0.015233
v -0.464368 4.152768 -0.015233
v 0.108956 3.294726 0.002269
v 0.394913 4.237399 0.002270
vt 0.068770 1.955264
vt 0.068770 1.955675
vt 0.069260 1.955675
vt 0.068770 1.958134
vt 0.069260 1.958134
vt 0.069260 1.957723
vt 0.019431 0.978009
vt 0.019431 0.978108
vt 0.019549 0.978108
vt 0.068770 1.956904
vt 0.068770 1.957316
vt 0.069260 1.957316
vt 0.019431 0.980576
vt 0.019549 0.980576
vt 0.019549 0.980477
vt 0.019431 0.978503
vt 0.019431 0.978602
vt 0.019549 0.978602
vt 0.019431 0.977812
vt 0.019549 0.977812
vt 0.019549 0.977713
vt 0.019549 0.980378
vt 0.019431 0.980378
vt 0.019431 0.980477
vt 0.019431 0.977911
vt 0.019549 0.978009
vt 0.019549 0.980280
vt 0.068770 1.954852
vt 0.069260 1.955264
vt 0.068770 1.960186
vt 0.069260 1.960186
vt 0.069260 1.959775
vt 0.068770 1.956493
vt 0.069260 1.956904
vt 0.019431 0.980181
vt 0.019549 0.980181
vt 0.019549 0.980082
vt 0.019431 0.978700
vt 0.019549 0.978700
vt 0.019431 0.977713
vt 0.019549 0.977615
vt 0.019431 0.977615
vt 0.019549 0.977516
vt 0.068770 1.956086
vt 0.069260 1.956493
vt 0.019431 0.977516
vt 0.019549 0.977417
vt 0.068770 1.958952
vt 0.069260 1.958952
vt 0.069260 1.958545
vt 0.019431 0.978306
vt 0.019431 0.978404
vt 0.019549 0.978404
vt 0.068770 1.959364
vt 0.069260 1.959364
vt 0.068770 1.960593
vt 0.069260 1.960593
vt 0.019431 0.978207
vt 0.019549 0.978306
vt 0.019549 0.978207
vt 0.019549 0.978503
vt 0.068770 1.957723
vt 0.019431 0.980280
vt 0.068770 1.958545
vt 0.068770 1.959775
vt 0.019549 0.977911
vt 0.015949 0.983159
vt 0.015880 0.983122
vt 0.015913 0.983144
vt 0.015830 0.983062
vt 0.015852 0.983094
vt 0.015815 0.982909
vt 0.015815 0.983025
vt 0.015808 0.982987
vt 0.015808 0.982948
vt 0.015852 0.982840
vt 0.015830 0.982873
vt 0.015880 0.982812
vt 0.015913 0.982791
vt 0.016065 0.982776
vt 0.015949 0.982776
vt 0.015988 0.982768
vt 0.016027 0.982768
vt 0.016184 0.982873
vt 0.016102 0.982791
vt 0.016134 0.982812
vt 0.016162 0.982840
vt 0.016206 0.982948
vt 0.016199 0.982909
vt 0.016199 0.983025
vt 0.016206 0.982987
vt 0.016162 0.983094
vt 0.016184 0.983062
vt 0.016102 0.983144
vt 0.016134 0.983122
vt 0.016027 0.983167
vt 0.016065 0.983159
vt 0.057792 1.972614
vt 0.057468 1.972585
vt 0.057630 1.972614
vt 0.494961 0.995502
vt 0.145640 0.847548
vt 0.398343 0.985208
vt 0.305584 0.956264
vt 0.220260 0.909780
vt 0.039477 0.685892
vt 0.084601 0.771948
vt 0.003258 0.495920
vt 0.012011 0.592689
vt 0.042491 0.306543
vt 0.013548 0.399298
vt 0.151212 0.146599
vt 0.088975 0.221219
vt 0.312864 0.040437
vt 0.226811 0.085556
vt 0.502840 0.004213
vt 0.406070 0.012966
vt 0.509156 0.004213
vt 0.698533 0.043451
vt 0.605775 0.014507
vt 0.692217 0.043451
vt 0.777541 0.089934
vt 0.852160 0.152171
vt 0.994547 0.503799
vt 0.913204 0.227767
vt 0.958323 0.313823
vt 0.985789 0.407026
vt 0.955309 0.693172
vt 0.984253 0.600417
vt 0.846588 0.853116
vt 0.908825 0.778500
vt 0.770989 0.914159
vt 0.684937 0.959283
vt 0.591730 0.986749
vt 0.069260 1.956086
vt 0.068770 1.951982
vt 0.069260 1.952394
vt 0.069260 1.951982
vt 0.025817 0.999182
vt 0.025699 0.999281
vt 0.025817 0.999281
vt 0.069260 1.954852
vt 0.019431 0.980082
vt 0.019431 0.977417
vt 0.025699 0.997110
vt 0.025817 0.997208
vt 0.025817 0.997110
vn 0.8819 0.4714 0.0000
vn -0.0980 0.9952 0.0000
vn -0.0980 0.9952 0.0001
vn 0.4714 -0.8819 0.0000
vn 0.2903 0.9569 0.0000
vn -0.7730 -0.6344 0.0000
vn 0.9952 -0.0980 0.0000
vn -0.0980 -0.9952 -0.0000
vn -0.0980 -0.9952 -0.0001
vn -0.8819 -0.4714 0.0000
vn 0.2903 -0.9569 0.0000
vn -0.9569 -0.2903 0.0000
vn 0.9569 0.2903 0.0000
vn -0.8819 0.4714 0.0000
vn 0.4714 0.8819 0.0001
vn 0.4714 0.8819 0.0000
vn -0.9952 0.0980 0.0000
vn 0.9952 0.0980 0.0000
vn -0.2903 -0.9569 -0.0001
vn -0.2903 -0.9569 -0.0000
vn -0.4714 -0.8819 0.0000
vn 0.6344 0.7730 0.0000
vn 0.6344 0.7730 0.0001
vn -0.6344 -0.7730 0.0000
vn -0.4714 0.8819 0.0000
vn 0.8819 -0.4714 0.0000
vn -0.6344 0.7730 0.0000
vn -0.9569 0.2903 0.0000
vn 0.7730 -0.6344 -0.0000
vn 0.6344 -0.7730 -0.0000
vn 0.9569 -0.2903 0.0000
vn 0.0980 0.9952 0.0000
vn 0.0980 0.9952 0.0001
vn -0.9952 -0.0980 0.0000
vn -0.2903 0.9569 0.0000
vn -0.7730 0.6344 0.0001
vn -0.7730 0.6344 0.0000
vn 0.0980 -0.9952 0.0000
vn -0.0000 0.0000 -1.0000
vn -0.0000 -0.0000 1.0000
vn 0.7730 0.6344 0.0000
usemtl Material.002
s 1
f 33/77/44 34/78/44 35/79/44
f 36/80/45 37/81/45 38/82/46
f 39/83/47 40/84/47 41/85/47
f 42/86/48 43/87/48 44/88/48
f 45/89/49 46/90/49 47/91/49
f 48/92/50 49/93/50 50/94/50
f 51/95/51 52/96/51 53/97/52
f 54/98/53 55/99/53 56/100/53
f 57/101/54 39/83/54 58/102/54
f 55/99/55 54/98/55 59/103/55
f 60/104/56 33/77/56 61/105/56
f 62/106/57 63/107/57 64/108/57
f 65/109/58 42/86/59 66/110/59
f 67/111/60 68/112/60 69/113/60
f 49/93/61 60/114/61 70/115/61
f 71/116/62 53/97/62 72/117/63
f 73/118/64 72/117/64 74/119/64
f 75/120/65 65/109/66 76/121/66
f 77/122/67 74/119/67 46/123/67
f 78/124/68 79/125/68 80/126/68
f 81/127/69 82/128/69 83/129/69
f 84/130/70 85/131/70 79/125/70
f 86/132/71 69/133/71 63/107/71
f 87/134/72 81/127/72 88/135/72
f 40/84/73 87/134/73 89/136/73
f 82/128/74 48/92/74 90/137/74
f 43/87/75 91/138/76 38/82/76
f 92/139/77 59/103/77 68/112/77
f 93/140/78 80/126/78 37/81/78
f 94/141/79 64/108/79 85/131/80
f 51/95/81 57/101/81 95/142/81
f 42/143/82 91/144/82 43/145/82
f 91/144/82 93/146/82 36/147/82
f 93/146/82 62/148/82 78/149/82
f 78/149/82 62/148/82 84/150/82
f 84/150/82 62/148/82 94/151/82
f 62/148/82 67/152/82 86/153/82
f 67/152/82 62/148/82 92/154/82
f 92/154/82 62/148/82 55/155/82
f 55/155/82 73/156/82 56/157/82
f 56/157/82 73/156/82 45/158/82
f 45/158/82 73/156/82 77/159/82
f 73/156/82 39/160/82 71/161/82
f 71/161/82 39/160/82 51/162/82
f 51/162/82 39/160/82 57/163/82
f 39/160/82 87/164/82 40/165/82
f 87/164/82 82/166/82 81/167/82
f 82/166/82 49/168/82 48/169/82
f 49/168/82 33/170/82 60/171/82
f 33/170/82 75/172/82 34/173/82
f 75/174/82 42/175/82 65/176/82
f 42/143/82 62/148/82 91/144/82
f 91/144/82 62/148/82 93/146/82
f 39/160/82 73/156/82 87/164/82
f 87/164/82 73/156/82 82/166/82
f 82/166/82 33/170/82 49/168/82
f 33/170/82 42/143/82 75/172/82
f 62/148/82 73/156/82 55/155/82
f 82/166/82 73/156/82 33/170/82
f 38/177/83 96/178/83 44/179/83
f 44/179/83 96/178/83 66/180/83
f 66/180/83 96/178/83 76/181/83
f 96/178/83 61/182/83 35/183/83
f 61/182/83 50/184/83 70/185/83
f 50/184/83 83/186/83 90/187/83
f 83/186/83 89/188/83 88/189/83
f 89/188/83 58/190/83 41/191/83
f 58/190/83 52/192/83 95/193/83
f 52/194/83 72/195/83 53/196/83
f 72/197/83 52/192/83 74/198/83
f 74/198/83 52/192/83 46/199/83
f 46/199/83 68/200/83 47/201/83
f 47/201/83 68/200/83 54/202/83
f 54/202/83 68/200/83 59/203/83
f 68/200/83 63/204/83 69/205/83
f 63/204/83 85/206/83 64/207/83
f 85/206/83 38/177/83 79/208/83
f 79/208/83 38/177/83 80/209/83
f 80/209/83 38/177/83 37/210/83
f 96/178/83 38/177/83 61/182/83
f 61/182/83 38/177/83 50/184/83
f 50/184/83 89/188/83 83/186/83
f 89/188/83 52/192/83 58/190/83
f 68/200/83 38/177/83 63/204/83
f 63/204/83 38/177/83 85/206/83
f 50/184/83 52/192/83 89/188/83
f 52/192/83 68/200/83 46/199/83
f 33/170/82 73/156/82 62/148/82
f 34/78/84 75/120/84 96/211/84
f 38/177/83 68/200/83 52/192/83
f 33/77/44 35/79/44 61/105/44
f 36/80/45 38/82/46 91/138/46
f 39/212/47 41/213/47 58/214/47
f 42/86/48 44/88/48 66/110/48
f 45/89/49 47/91/49 56/100/49
f 48/92/50 50/94/50 90/137/50
f 51/95/51 53/97/52 71/116/52
f 54/215/53 56/216/53 47/217/53
f 57/101/54 58/102/54 95/142/54
f 55/99/55 59/103/55 92/139/55
f 60/104/56 61/105/56 70/218/56
f 62/106/57 64/108/57 94/141/57
f 65/109/58 66/110/59 76/121/58
f 67/111/60 69/113/60 86/219/60
f 49/93/61 70/115/61 50/94/61
f 71/116/62 72/117/63 73/118/63
f 73/118/64 74/119/64 77/122/64
f 75/120/65 76/121/66 96/211/65
f 77/122/67 46/123/67 45/220/67
f 78/124/68 80/126/68 93/140/68
f 81/221/69 83/222/69 88/223/69
f 84/130/70 79/125/70 78/124/70
f 86/132/71 63/107/71 62/106/71
f 87/134/72 88/135/72 89/136/72
f 40/84/73 89/136/73 41/85/73
f 82/128/74 90/137/74 83/129/74
f 43/87/75 38/82/76 44/88/75
f 92/139/77 68/112/77 67/111/77
f 93/140/78 37/81/78 36/80/78
f 94/141/79 85/131/80 84/130/80
f 51/95/81 95/142/81 52/96/81
f 33/170/82 62/148/82 42/143/82
f 34/78/84 96/211/84 35/79/84
f 38/177/83 52/192/83 50/184/83
