# Blender v2.90.1 OBJ File: ''
# www.blender.org
mtllib School.mtl
o Sign_PedestrianLane
v 0.018168 4.334636 0.038734
v -0.090788 4.323904 0.038734
v -0.195558 4.292123 0.038734
v -0.292113 4.240513 0.038734
v -0.376745 4.171057 0.038734
v -0.446201 4.086425 0.038734
v -0.497810 3.989870 0.038734
v -0.529592 3.885100 0.038734
v -0.540323 3.776144 0.038734
v -0.529592 3.667188 0.038734
v -0.497810 3.562419 0.038734
v -0.446201 3.465863 0.038734
v -0.376745 3.381232 0.038734
v -0.292113 3.311776 0.038734
v -0.195558 3.260166 0.038734
v -0.090788 3.228384 0.038734
v 0.018168 3.217653 0.038734
v 0.127124 3.228385 0.038734
v 0.231893 3.260166 0.038734
v 0.328449 3.311776 0.038734
v 0.413081 3.381232 0.038734
v 0.482536 3.465863 0.038734
v 0.534147 3.562419 0.038734
v 0.565928 3.667188 0.038734
v 0.576659 3.776145 0.038734
v 0.565928 3.885101 0.038734
v 0.534146 3.989870 0.038734
v 0.482536 4.086426 0.038734
v 0.413080 4.171058 0.038734
v 0.328448 4.240513 0.038734
v 0.231892 4.292123 0.038734
v 0.127123 4.323904 0.038734
v -0.090788 4.323904 0.056237
v 0.018168 4.334635 0.056237
v -0.195558 4.292123 0.056237
v -0.292113 4.240512 0.056237
v -0.376745 4.171057 0.056237
v -0.446201 4.086425 0.056237
v -0.497810 3.989870 0.056237
v -0.529592 3.885100 0.056237
v -0.540323 3.776144 0.056237
v -0.529592 3.667188 0.056237
v -0.497810 3.562419 0.056237
v -0.446201 3.465863 0.056237
v -0.376745 3.381231 0.056237
v -0.292113 3.311776 0.056237
v -0.195558 3.260166 0.056237
v -0.090788 3.228384 0.056237
v 0.018168 3.217653 0.056237
v 0.127124 3.228384 0.056237
v 0.231893 3.260166 0.056237
v 0.328449 3.311776 0.056237
v 0.413081 3.381232 0.056237
v 0.482536 3.465863 0.056237
v 0.534147 3.562419 0.056237
v 0.565928 3.667188 0.056237
v 0.576659 3.776145 0.056237
v 0.565928 3.885100 0.056237
v 0.534146 3.989870 0.056237
v 0.482536 4.086425 0.056237
v 0.413080 4.171057 0.056237
v 0.328448 4.240513 0.056237
v 0.231892 4.292123 0.056237
v 0.127123 4.323904 0.056237
v 0.014446 4.435561 -0.121965
v 0.093921 4.435561 -0.042490
v 0.014446 4.435561 0.036986
v -0.065030 4.435561 -0.042490
v 0.014446 -0.006135 -0.121965
v 0.093921 -0.006135 -0.042490
v 0.014446 -0.006134 0.036986
v -0.065030 -0.006135 -0.042490
vt 0.019431 0.978799
vt 0.019549 0.978898
vt 0.019431 0.978898
vt 0.019431 0.979490
vt 0.019549 0.979391
vt 0.019549 0.979490
vt 0.019431 0.978009
vt 0.019549 0.978108
vt 0.019431 0.978108
vt 0.019431 0.979194
vt 0.019549 0.979293
vt 0.019431 0.979293
vt 0.019431 0.980576
vt 0.019549 0.980477
vt 0.019549 0.980576
vt 0.019431 0.978503
vt 0.019549 0.978602
vt 0.019431 0.978602
vt 0.019431 0.977812
vt 0.019549 0.977713
vt 0.019549 0.977812
vt 0.019549 0.980378
vt 0.019431 0.980477
vt 0.019431 0.980378
vt 0.019431 0.977911
vt 0.019549 0.978009
vt 0.019549 0.980280
vt 0.019431 0.978700
vt 0.019549 0.978799
vt 0.019431 0.979984
vt 0.019549 0.979885
vt 0.019549 0.979984
vt 0.019431 0.979095
vt 0.019549 0.979194
vt 0.019431 0.980181
vt 0.019549 0.980082
vt 0.019549 0.980181
vt 0.019549 0.978700
vt 0.019431 0.977713
vt 0.019549 0.977615
vt 0.019431 0.977615
vt 0.019549 0.977516
vt 0.019431 0.978997
vt 0.019549 0.979095
vt 0.019431 0.977516
vt 0.019549 0.977417
vt 0.019431 0.979687
vt 0.019549 0.979589
vt 0.019549 0.979687
vt 0.019431 0.978306
vt 0.019549 0.978404
vt 0.019431 0.978404
vt 0.019431 0.979786
vt 0.019549 0.979786
vt 0.019431 0.980082
vt 0.019431 0.978207
vt 0.019549 0.978306
vt 0.019549 0.978207
vt 0.019549 0.978503
vt 0.019431 0.979391
vt 0.019431 0.980280
vt 0.019431 0.979589
vt 0.019431 0.979885
vt 0.019549 0.977911
vt 0.015949 0.983159
vt 0.015913 0.983144
vt 0.015880 0.983122
vt 0.015852 0.983094
vt 0.015830 0.983062
vt 0.015815 0.983025
vt 0.015815 0.982909
vt 0.015808 0.982987
vt 0.015808 0.982948
vt 0.015830 0.982873
vt 0.015852 0.982840
vt 0.015880 0.982812
vt 0.015913 0.982791
vt 0.015949 0.982776
vt 0.016065 0.982776
vt 0.015988 0.982768
vt 0.016027 0.982768
vt 0.016102 0.982791
vt 0.016184 0.982873
vt 0.016134 0.982812
vt 0.016162 0.982840
vt 0.016199 0.982909
vt 0.016206 0.982948
vt 0.016206 0.982987
vt 0.016199 0.983025
vt 0.016184 0.983062
vt 0.016162 0.983094
vt 0.016134 0.983122
vt 0.016102 0.983144
vt 0.016065 0.983159
vt 0.016027 0.983167
vt 0.016788 0.982976
vt 0.016749 0.982976
vt 0.016710 0.982969
vt 0.123915 0.741937
vt 0.100835 0.739478
vt 0.040470 0.706594
vt 0.078677 0.732564
vt 0.058295 0.721460
vt 0.025889 0.688535
vt 0.015110 0.667978
vt 0.008549 0.645714
vt 0.006458 0.622598
vt 0.008916 0.599517
vt 0.015830 0.577360
vt 0.026934 0.556978
vt 0.041801 0.539153
vt 0.059860 0.524571
vt 0.080416 0.513793
vt 0.102681 0.507231
vt 0.125797 0.505140
vt 0.148877 0.507599
vt 0.171035 0.514513
vt 0.191417 0.525617
vt 0.209242 0.540484
vt 0.223824 0.558542
vt 0.243255 0.624480
vt 0.234602 0.579099
vt 0.241163 0.601363
vt 0.240796 0.647560
vt 0.233882 0.669717
vt 0.222778 0.690100
vt 0.207911 0.707924
vt 0.189852 0.722506
vt 0.169296 0.733285
vt 0.147031 0.739846
vt 0.017232 0.980017
vt 0.016968 0.969586
vt 0.017232 0.969586
vt 0.019549 0.978997
vt 0.016176 0.969586
vt 0.016440 0.980017
vt 0.016176 0.980017
vt 0.016440 0.980017
vt 0.016704 0.969586
vt 0.016704 0.980017
vt 0.016704 0.980017
vt 0.016968 0.969586
vt 0.016968 0.980017
vt 0.014848 0.982809
vt 0.014869 0.982860
vt 0.014833 0.982845
vt 0.019431 0.977417
vt 0.016968 0.980017
vt 0.016440 0.969586
vt 0.016440 0.969586
vt 0.016704 0.969586
vt 0.014884 0.982824
vn -0.8819 0.4714 0.0000
vn 0.0980 0.9952 0.0000
vn 0.0980 0.9952 0.0001
vn -0.4714 -0.8819 -0.0000
vn -0.2903 0.9569 0.0000
vn 0.7730 -0.6344 0.0000
vn -0.9952 -0.0980 0.0000
vn 0.0980 -0.9952 -0.0000
vn 0.0980 -0.9952 -0.0001
vn 0.8819 -0.4714 0.0000
vn -0.2903 -0.9569 0.0000
vn 0.9569 -0.2903 0.0000
vn -0.9569 0.2903 0.0000
vn 0.8819 0.4714 0.0000
vn -0.4714 0.8819 0.0001
vn -0.4714 0.8819 0.0000
vn 0.9952 0.0980 0.0000
vn -0.9952 0.0980 0.0000
vn 0.2903 -0.9569 -0.0000
vn 0.4714 -0.8819 -0.0000
vn -0.6344 0.7730 0.0000
vn 0.6344 -0.7730 0.0000
vn 0.4714 0.8819 0.0000
vn -0.8819 -0.4714 -0.0000
vn 0.6344 0.7730 0.0001
vn 0.6344 0.7730 0.0000
vn 0.9569 0.2903 0.0000
vn -0.7730 -0.6344 -0.0000
vn -0.6344 -0.7730 -0.0000
vn -0.9569 -0.2903 -0.0000
vn -0.0980 0.9952 0.0000
vn 0.9952 -0.0980 0.0000
vn 0.2903 0.9569 0.0000
vn 0.7730 0.6344 0.0000
vn 0.7730 0.6344 0.0001
vn -0.0980 -0.9952 0.0000
vn -0.0000 0.0000 -1.0000
vn 0.0000 0.0000 1.0000
vn 0.7071 0.0000 -0.7071
vn -0.7730 0.6344 0.0000
vn 0.7071 -0.0000 0.7071
vn -0.7071 0.0000 -0.7071
vn -0.7071 -0.0000 0.7071
vn -0.0000 1.0000 0.0000
usemtl Material.008
s 1
f 7/1/1 38/2/1 6/3/1
f 32/4/2 34/5/3 64/6/2
f 15/7/4 46/8/4 14/9/4
f 3/10/5 33/11/5 2/12/5
f 21/13/6 54/14/6 53/15/6
f 10/16/7 41/17/7 9/18/7
f 17/19/8 50/20/9 49/21/8
f 55/22/10 22/23/10 23/24/10
f 16/25/11 47/26/11 15/7/11
f 23/24/12 56/27/12 55/22/12
f 8/28/13 39/29/13 7/1/13
f 27/30/14 60/31/14 59/32/14
f 4/33/15 35/34/16 3/10/16
f 25/35/17 58/36/17 57/37/17
f 9/18/18 40/38/18 8/28/18
f 18/39/19 51/40/19 50/20/19
f 19/41/20 52/42/20 51/40/20
f 5/43/21 36/44/21 4/33/21
f 20/45/22 53/46/22 52/42/22
f 30/47/23 63/48/23 62/49/23
f 12/50/24 43/51/24 11/52/24
f 29/53/25 62/49/26 61/54/25
f 26/55/27 59/32/27 58/36/27
f 13/56/28 44/57/28 12/50/28
f 14/9/29 45/58/29 13/56/29
f 11/52/30 42/59/30 10/16/30
f 2/12/31 34/5/31 1/60/31
f 24/61/32 57/37/32 56/27/32
f 31/62/33 64/6/33 63/48/33
f 28/63/34 61/54/35 60/31/34
f 17/19/36 48/64/36 16/25/36
f 3/65/37 2/66/37 1/67/37
f 1/67/37 32/68/37 31/69/37
f 31/69/37 30/70/37 27/71/37
f 30/70/37 29/72/37 27/71/37
f 29/72/37 28/73/37 27/71/37
f 27/71/37 26/74/37 25/75/37
f 25/75/37 24/76/37 27/71/37
f 24/76/37 23/77/37 27/71/37
f 23/77/37 22/78/37 19/79/37
f 22/78/37 21/80/37 19/79/37
f 21/80/37 20/81/37 19/79/37
f 19/79/37 18/82/37 15/83/37
f 18/82/37 17/84/37 15/83/37
f 17/84/37 16/85/37 15/83/37
f 15/83/37 14/86/37 13/87/37
f 13/87/37 12/88/37 11/89/37
f 11/89/37 10/90/37 9/91/37
f 9/91/37 8/92/37 7/93/37
f 7/93/37 6/94/37 5/95/37
f 5/96/37 4/97/37 3/98/37
f 3/65/37 1/67/37 27/71/37
f 1/67/37 31/69/37 27/71/37
f 15/83/37 13/87/37 19/79/37
f 13/87/37 11/89/37 19/79/37
f 11/89/37 9/91/37 7/93/37
f 7/93/37 5/95/37 3/65/37
f 27/71/37 23/77/37 19/79/37
f 11/89/37 7/93/37 19/79/37
f 34/99/38 33/100/38 37/101/38
f 33/100/38 35/102/38 37/101/38
f 35/102/38 36/103/38 37/101/38
f 37/101/38 38/104/38 39/105/38
f 39/105/38 40/106/38 41/107/38
f 41/107/38 42/108/38 43/109/38
f 43/109/38 44/110/38 45/111/38
f 45/111/38 46/112/38 47/113/38
f 47/113/38 48/114/38 49/115/38
f 49/115/38 50/116/38 51/117/38
f 51/117/38 52/118/38 49/115/38
f 52/118/38 53/119/38 49/115/38
f 53/119/38 54/120/38 57/121/38
f 54/120/38 55/122/38 57/121/38
f 55/122/38 56/123/38 57/121/38
f 57/121/38 58/124/38 59/125/38
f 59/125/38 60/126/38 61/127/38
f 61/127/38 62/128/38 34/99/38
f 62/128/38 63/129/38 34/99/38
f 63/129/38 64/130/38 34/99/38
f 37/101/38 39/105/38 34/99/38
f 39/105/38 41/107/38 34/99/38
f 41/107/38 43/109/38 45/111/38
f 45/111/38 47/113/38 49/115/38
f 57/121/38 59/125/38 34/99/38
f 59/125/38 61/127/38 34/99/38
f 41/107/38 45/111/38 49/115/38
f 49/115/38 53/119/38 57/121/38
f 7/93/37 27/71/37 19/79/37
f 70/131/39 65/132/39 66/133/39
f 6/3/40 37/134/40 5/43/40
f 34/99/38 49/115/38 57/121/38
f 71/135/41 66/136/41 67/137/41
f 72/138/42 65/139/42 69/140/42
f 68/141/43 71/142/43 67/143/43
f 67/144/44 65/145/44 68/146/44
f 7/1/1 39/29/1 38/2/1
f 32/4/2 1/60/3 34/5/3
f 15/7/4 47/26/4 46/8/4
f 3/10/5 35/34/5 33/11/5
f 21/13/6 22/23/6 54/14/6
f 10/16/7 42/59/7 41/17/7
f 17/19/8 18/39/9 50/20/9
f 55/22/10 54/14/10 22/23/10
f 16/25/11 48/64/11 47/26/11
f 23/24/12 24/61/12 56/27/12
f 8/28/13 40/38/13 39/29/13
f 27/30/14 28/63/14 60/31/14
f 4/33/15 36/44/15 35/34/16
f 25/35/17 26/55/17 58/36/17
f 9/18/18 41/17/18 40/38/18
f 18/39/19 19/41/19 51/40/19
f 19/41/20 20/45/20 52/42/20
f 5/43/21 37/134/21 36/44/21
f 20/45/22 21/147/22 53/46/22
f 30/47/23 31/62/23 63/48/23
f 12/50/24 44/57/24 43/51/24
f 29/53/25 30/47/26 62/49/26
f 26/55/27 27/30/27 59/32/27
f 13/56/28 45/58/28 44/57/28
f 14/9/29 46/8/29 45/58/29
f 11/52/30 43/51/30 42/59/30
f 2/12/31 33/11/31 34/5/31
f 24/61/32 25/35/32 57/37/32
f 31/62/33 32/4/33 64/6/33
f 28/63/34 29/53/35 61/54/35
f 17/19/36 49/21/36 48/64/36
f 7/93/37 3/65/37 27/71/37
f 70/131/39 69/148/39 65/132/39
f 6/3/40 38/2/40 37/134/40
f 34/99/38 41/107/38 49/115/38
f 71/135/41 70/149/41 66/136/41
f 72/138/42 68/150/42 65/139/42
f 68/141/43 72/151/43 71/142/43
f 67/144/44 66/152/44 65/145/44
