# Blender v2.90.1 OBJ File: 'pannels.blend'
# www.blender.org
mtllib Stop.mtl
o Sign_Stop
v -0.276253 4.346934 -0.017058
v -0.276253 4.346934 0.017058
v -0.666934 3.956253 -0.017058
v -0.666934 3.956253 0.017058
v -0.666934 3.403747 -0.017058
v -0.666934 3.403747 0.017058
v -0.276253 3.013066 -0.017058
v -0.276253 3.013066 0.017058
v 0.276253 3.013066 -0.017058
v 0.276253 3.013066 0.017058
v 0.666934 3.403747 -0.017058
v 0.666934 3.403747 0.017058
v 0.666934 3.956253 -0.017058
v 0.666934 3.956253 0.017058
v 0.276253 4.346934 -0.017058
v 0.276253 4.346934 0.017058
v 0.043990 4.424867 -0.093338
v -0.040514 4.424867 -0.093338
v -0.040514 4.424867 -0.008835
v 0.043990 4.424867 -0.008835
v 0.043990 0.007996 -0.008835
v -0.040514 0.007996 -0.008835
v -0.040514 0.007997 -0.093338
v 0.043990 0.007996 -0.093338
vt 0.482408 0.981045
vt 0.482567 0.981045
vt 0.482567 0.980401
vt 0.481977 0.981591
vt 0.482149 0.981591
vt 0.482149 0.981098
vt 0.481977 0.981098
vt 0.482149 0.980401
vt 0.482365 0.981591
vt 0.482365 0.981098
vt 0.482193 0.981098
vt 0.482365 0.980401
vt 0.481934 0.982134
vt 0.481934 0.981627
vt 0.481757 0.981627
vt 0.535588 0.789156
vt 0.664090 0.842384
vt 0.610862 0.789156
vt 0.481934 0.980909
vt 0.481934 0.980401
vt 0.481757 0.980401
vt 0.483355 0.979258
vt 0.484455 0.980358
vt 0.483811 0.978803
vt 0.482408 0.980401
vt 0.481977 0.980401
vt 0.482193 0.981591
vt 0.482193 0.980401
vt 0.481757 0.982134
vt 0.610862 0.970886
vt 0.664090 0.917658
vt 0.535588 0.970886
vt 0.482360 0.917658
vt 0.482360 0.842384
vt 0.481757 0.980909
vt 0.484910 0.979258
vt 0.484455 0.978803
vt 0.484910 0.979902
vt 0.483355 0.979902
vt 0.483811 0.980358
vt 0.017525 0.978370
vt 0.017595 0.978370
vt 0.017595 0.974755
vt 0.017733 0.978188
vt 0.017733 0.974755
vt 0.017664 0.974755
vt 0.017456 0.978370
vt 0.017525 0.974755
vt 0.017456 0.974755
vt 0.017664 0.978188
vt 0.017525 0.974755
vt 0.017595 0.978210
vt 0.017664 0.978210
vt 0.017664 0.974755
vt 0.017595 0.974755
vt 0.016456 0.975885
vt 0.016525 0.975955
vt 0.016525 0.975885
vt 0.016456 0.975955
vt 0.017525 0.978370
vn -0.7071 0.7071 0.0000
vn -1.0000 -0.0000 -0.0000
vn -0.7071 -0.7071 0.0000
vn 0.0000 -1.0000 0.0000
vn 0.7071 -0.7071 0.0000
vn 1.0000 0.0000 0.0000
vn 0.0000 -0.0000 1.0000
vn 0.7071 0.7071 -0.0000
vn 0.0000 1.0000 0.0000
vn -0.0000 0.0000 -1.0000
usemtl Material.021
s 1
f 2/1/1 1/2/1 3/3/1
f 4/4/2 3/5/2 5/6/2
f 6/7/3 5/6/3 7/8/3
f 7/9/4 9/10/4 10/11/4
f 10/11/5 9/10/5 11/12/5
f 11/13/6 13/14/6 14/15/6
f 10/16/7 6/17/7 8/18/7
f 14/15/8 13/14/8 15/19/8
f 15/19/9 1/20/9 2/21/9
f 13/22/10 7/23/10 15/24/10
f 2/1/1 3/3/1 4/25/1
f 4/4/2 5/6/2 6/7/2
f 6/7/3 7/8/3 8/26/3
f 7/9/4 10/11/4 8/27/4
f 10/11/5 11/12/5 12/28/5
f 11/13/6 14/15/6 12/29/6
f 6/17/7 2/30/7 4/31/7
f 2/30/7 6/17/7 16/32/7
f 16/32/7 6/17/7 14/33/7
f 14/33/7 6/17/7 12/34/7
f 12/34/7 6/17/7 10/16/7
f 14/15/8 15/19/8 16/35/8
f 15/19/9 2/21/9 16/35/9
f 15/24/10 3/36/10 1/37/10
f 3/36/10 15/24/10 5/38/10
f 5/38/10 15/24/10 7/23/10
f 7/23/10 11/39/10 9/40/10
f 11/39/10 7/23/10 13/22/10
usemtl Material.012
f 18/41/10 17/42/10 24/43/10
f 20/44/6 21/45/6 24/46/6
f 22/47/7 20/48/7 19/49/7
f 20/44/6 24/46/6 17/50/6
f 18/41/10 24/43/10 23/51/10
f 19/52/2 18/53/2 23/54/2
f 19/52/2 23/54/2 22/55/2
f 20/56/9 18/57/9 19/58/9
f 20/56/9 17/59/9 18/57/9
f 22/47/7 21/60/7 20/48/7
