# Blender v2.90.1 OBJ File: 'pannels.blend'
# www.blender.org
mtllib Yield50.mtl
o Sign_Yield_50m_Sign_Yield.002
v 0.056463 3.299211 0.011035
v -0.060764 3.299547 0.010750
v 0.029482 3.268152 0.010926
v -0.002271 3.257309 0.010833
v -0.033961 3.268334 0.010771
v -0.721464 4.452006 0.010750
v -0.662523 4.553339 0.011036
v -0.734857 4.490908 0.010772
v -0.728359 4.523825 0.010834
v -0.702959 4.545748 0.010926
v 0.664891 4.548808 0.014269
v 0.723251 4.447011 0.014269
v 0.705282 4.540936 0.014357
v 0.730557 4.518826 0.014387
v 0.736867 4.485844 0.014357
v -0.060706 3.299580 -0.013286
v 0.056521 3.299244 -0.013000
v -0.033903 3.268367 -0.013264
v -0.002212 3.257343 -0.013202
v 0.029540 3.268185 -0.013109
v -0.662465 4.553372 -0.013000
v -0.721406 4.452040 -0.013285
v -0.702900 4.545781 -0.013109
v -0.728300 4.523859 -0.013202
v -0.734799 4.490941 -0.013264
v 0.723309 4.447043 -0.009766
v 0.664949 4.548841 -0.009766
v 0.736925 4.485877 -0.009679
v 0.730615 4.518859 -0.009648
v 0.705341 4.540969 -0.009679
v 0.003396 4.441509 -0.177229
v -0.076080 4.441509 -0.097753
v 0.003396 4.441509 -0.018278
v 0.082871 4.441509 -0.097753
v 0.003396 -0.000186 -0.177229
v -0.076080 -0.000186 -0.097753
v 0.003396 -0.000187 -0.018278
v 0.082871 -0.000186 -0.097753
v 0.458986 2.893369 0.015813
v 0.403654 2.831126 0.015813
v 0.442780 2.849356 0.015813
v -0.395423 2.831126 0.015813
v -0.450755 2.893369 0.015813
v -0.434549 2.849356 0.015813
v 0.403654 3.239823 0.015813
v 0.458986 3.177581 0.015813
v 0.442780 3.221593 0.015813
v -0.450755 3.177581 0.015813
v -0.395423 3.239823 0.015813
v -0.434549 3.221593 0.015813
v 0.458986 3.176546 -0.014915
v 0.403654 3.238334 -0.014915
v 0.442780 3.220237 -0.014915
v 0.403654 2.832615 -0.014915
v 0.458986 2.894404 -0.014915
v 0.442780 2.850712 -0.014915
v -0.450755 2.894404 -0.014915
v -0.395423 2.832615 -0.014915
v -0.434549 2.850712 -0.014915
v -0.395423 3.238334 -0.014915
v -0.450755 3.176546 -0.014915
v -0.434549 3.220237 -0.014915
vt 0.243550 0.766001
vt 0.243731 0.766001
vt 0.243731 0.756017
vt 0.243731 0.756065
vt 0.243731 0.765046
vt 0.243911 0.765046
vt 0.233960 0.760619
vt 0.233960 0.761502
vt 0.243369 0.766057
vt 0.440740 0.764601
vt 0.685184 0.782418
vt 0.695531 0.764497
vt 0.243731 0.765589
vt 0.243911 0.765589
vt 0.243911 0.765290
vt 0.243911 0.765046
vt 0.243731 0.765046
vt 0.243550 0.766503
vt 0.243550 0.766313
vt 0.243369 0.766313
vt 0.243550 0.766009
vt 0.243369 0.766009
vt 0.243369 0.756017
vt 0.243550 0.756017
vt 0.243550 0.755713
vt 0.243369 0.755713
vt 0.243550 0.755522
vt 0.243731 0.755522
vt 0.243550 0.755713
vt 0.243550 0.756017
vt 0.243550 0.766305
vt 0.243731 0.766305
vt 0.243550 0.766496
vt 0.243731 0.755522
vt 0.243731 0.755766
vt 0.243911 0.755766
vt 0.243911 0.756065
vt 0.243369 0.756065
vt 0.242605 0.755624
vt 0.242898 0.755522
vt 0.243311 0.755761
vt 0.243145 0.755570
vt 0.242605 0.766497
vt 0.243311 0.766361
vt 0.242898 0.766599
vt 0.243145 0.766551
vt 0.233726 0.760822
vt 0.233726 0.761300
vt 0.233644 0.761061
vt 0.557879 0.561710
vt 0.578554 0.561714
vt 0.562623 0.556220
vt 0.573812 0.556222
vt 0.568218 0.554292
vt 0.692312 0.781052
vt 0.697912 0.771353
vt 0.696781 0.777166
vt 0.451080 0.782504
vt 0.438357 0.771455
vt 0.443953 0.781143
vt 0.439485 0.777263
vt 0.243731 0.765290
vt 0.243369 0.766503
vt 0.243369 0.755522
vt 0.243731 0.755713
vt 0.243731 0.766496
vt 0.243911 0.755522
vt 0.240376 0.746908
vt 0.240376 0.775941
vt 0.241110 0.775941
vt 0.241110 0.747642
vt 0.241845 0.747642
vt 0.241845 0.746908
vt 0.238906 0.775941
vt 0.238906 0.746908
vt 0.238172 0.746908
vt 0.239641 0.746908
vt 0.239641 0.775941
vt 0.240376 0.775941
vt 0.238906 0.746908
vt 0.238906 0.775941
vt 0.239641 0.775941
vt 0.241110 0.746908
vt 0.241110 0.746908
vt 0.238172 0.775941
vt 0.240376 0.746908
vt 0.239641 0.746908
vt 0.253566 0.765520
vt 0.253751 0.765520
vt 0.253751 0.759901
vt 0.254307 0.759901
vt 0.254122 0.759901
vt 0.254122 0.761557
vt 0.253936 0.759901
vt 0.253751 0.759901
vt 0.253751 0.765520
vt 0.684369 0.442354
vt 0.684369 0.512894
vt 0.693919 0.453097
vt 0.238154 0.755406
vt 0.244857 0.755406
vt 0.243836 0.754385
vt 0.253566 0.759901
vt 0.253751 0.759539
vt 0.254307 0.759539
vt 0.254122 0.759539
vt 0.253566 0.765883
vt 0.253751 0.765883
vt 0.254122 0.761919
vt 0.254122 0.761557
vt 0.253936 0.761557
vt 0.254307 0.761557
vt 0.254122 0.761919
vt 0.253936 0.759539
vt 0.253751 0.759539
vt 0.254122 0.759901
vt 0.254122 0.759539
vt 0.253936 0.759539
vt 0.253936 0.765883
vt 0.253936 0.765520
vt 0.253936 0.759901
vt 0.536900 0.502151
vt 0.546450 0.442354
vt 0.536900 0.453097
vt 0.539697 0.445500
vt 0.546450 0.512894
vt 0.691122 0.445500
vt 0.693919 0.502151
vt 0.691122 0.509747
vt 0.539697 0.509747
vt 0.238154 0.771226
vt 0.239175 0.754385
vt 0.238453 0.754684
vt 0.244558 0.754684
vt 0.244857 0.771226
vt 0.243836 0.772247
vt 0.244558 0.771948
vt 0.239175 0.772247
vt 0.238453 0.771948
vt 0.253566 0.759539
vt 0.253936 0.761919
vt 0.254307 0.761919
vt 0.253751 0.765883
vn 0.0978 0.9952 0.0016
vn -0.0910 0.9959 0.0012
vn 0.9082 -0.4185 0.0016
vn 0.8134 -0.5817 0.0012
vn 0.0024 0.0014 -1.0000
vn -0.0024 -0.0014 1.0000
vn 0.5583 -0.8297 0.0002
vn -0.0029 -1.0000 -0.0014
vn -0.5630 -0.8264 -0.0025
vn -0.8167 -0.5770 -0.0028
vn -0.9106 -0.4133 -0.0028
vn -0.9977 -0.0683 -0.0025
vn -0.8644 0.5028 -0.0014
vn -0.4339 0.9010 0.0002
vn 0.4400 0.8980 0.0023
vn 0.8675 0.4974 0.0028
vn 0.9973 -0.0740 0.0023
vn -0.7071 0.0000 -0.7071
vn 0.0000 1.0000 0.0000
vn -0.7071 0.0000 0.7071
vn 0.7071 -0.0000 0.7071
vn 0.7071 0.0000 -0.7071
vn 0.2169 -0.9751 -0.0465
vn 0.2147 -0.9755 -0.0473
vn -0.2147 -0.9755 -0.0473
vn -0.9849 -0.1730 -0.0058
vn -0.9837 -0.1799 -0.0068
vn -0.9838 0.1791 -0.0060
vn -0.2161 0.9752 -0.0473
vn -0.2139 0.9758 -0.0465
vn 0.2139 0.9758 -0.0465
vn -0.0000 -0.0000 1.0000
vn 0.0000 0.0000 -1.0000
vn -0.2169 -0.9751 -0.0464
vn -0.7297 -0.6831 -0.0310
vn -0.7397 -0.6723 -0.0289
vn 0.7397 -0.6723 -0.0289
vn 0.7297 -0.6831 -0.0310
vn 0.9849 -0.1730 -0.0058
vn 0.9837 -0.1799 -0.0068
vn -0.9850 0.1723 -0.0065
vn -0.7298 0.6830 -0.0294
vn -0.7397 0.6722 -0.0305
vn 0.9850 0.1723 -0.0065
vn 0.7397 0.6722 -0.0305
vn 0.7298 0.6830 -0.0294
vn 0.2161 0.9752 -0.0473
vn 0.9838 0.1791 -0.0060
usemtl Material.015
s 1
f 11/1/1 27/2/1 21/3/2
f 12/4/3 1/5/4 17/6/4
f 27/7/5 26/8/5 16/9/5
f 2/10/6 12/11/6 11/12/6
f 17/13/4 1/14/4 3/15/7
f 3/15/7 4/16/8 19/17/8
f 4/18/8 5/19/9 18/20/9
f 5/19/9 2/21/10 16/22/10
f 22/23/11 6/24/11 8/25/12
f 25/26/12 8/25/12 9/27/13
f 24/28/13 9/27/13 10/29/14
f 10/29/14 7/30/2 21/3/2
f 27/2/1 11/1/1 13/31/15
f 30/32/15 13/31/15 14/33/16
f 14/34/16 15/35/17 28/36/17
f 15/35/17 12/4/3 26/37/3
f 2/21/10 6/24/11 22/23/11
f 11/1/1 21/3/2 7/30/2
f 12/4/3 17/6/4 26/37/3
f 27/7/5 22/38/5 21/39/5
f 21/39/5 22/38/5 23/40/5
f 27/7/5 16/9/5 22/38/5
f 23/40/5 25/41/5 24/42/5
f 25/41/5 23/40/5 22/38/5
f 16/9/5 17/43/5 18/44/5
f 18/44/5 20/45/5 19/46/5
f 17/43/5 20/45/5 18/44/5
f 17/43/5 16/9/5 26/8/5
f 26/8/5 30/47/5 28/48/5
f 28/48/5 30/47/5 29/49/5
f 30/47/5 26/8/5 27/7/5
f 2/10/6 11/12/6 6/50/6
f 6/50/6 7/51/6 8/52/6
f 11/12/6 7/51/6 6/50/6
f 8/52/6 10/53/6 9/54/6
f 10/53/6 8/52/6 7/51/6
f 11/12/6 15/55/6 13/56/6
f 13/56/6 15/55/6 14/57/6
f 15/55/6 11/12/6 12/11/6
f 12/11/6 2/10/6 1/58/6
f 1/58/6 5/59/6 3/60/6
f 3/60/6 5/59/6 4/61/6
f 5/59/6 1/58/6 2/10/6
f 17/13/4 3/15/7 20/62/7
f 3/15/7 19/17/8 20/62/7
f 4/18/8 18/20/9 19/63/8
f 5/19/9 16/22/10 18/20/9
f 22/23/11 8/25/12 25/26/12
f 25/26/12 9/27/13 24/64/13
f 24/28/13 10/29/14 23/65/14
f 10/29/14 21/3/2 23/65/14
f 27/2/1 13/31/15 30/32/15
f 30/32/15 14/33/16 29/66/16
f 14/34/16 28/36/17 29/67/16
f 15/35/17 26/37/3 28/36/17
f 2/21/10 22/23/11 16/22/10
f 31/68/18 35/69/18 36/70/18
f 34/71/19 31/72/19 32/73/19
f 32/74/20 36/75/20 37/76/20
f 33/77/21 37/78/21 38/79/21
f 34/80/22 38/81/22 35/82/22
f 31/68/18 36/70/18 32/83/18
f 34/71/19 32/73/19 33/84/19
f 32/74/20 37/76/20 33/85/20
f 33/77/21 38/79/21 34/86/21
f 34/80/22 35/82/22 31/87/22
f 54/88/23 40/89/24 42/90/25
f 57/91/26 43/92/27 48/93/28
f 60/94/29 49/95/30 45/96/31
f 42/97/32 49/98/32 43/99/32
f 54/100/33 52/101/33 51/102/33
f 58/103/34 42/90/25 44/104/35
f 59/105/36 44/106/35 43/92/27
f 54/88/23 56/107/37 41/108/38
f 56/109/37 55/110/39 39/111/40
f 61/112/41 48/93/28 50/113/42
f 62/114/43 50/115/42 49/95/30
f 51/116/44 53/117/45 47/118/46
f 53/119/45 52/120/47 45/96/31
f 46/121/48 39/111/40 55/110/39
f 54/88/23 42/90/25 58/103/34
f 57/91/26 48/93/28 61/112/41
f 60/94/29 45/96/31 52/120/47
f 46/122/32 40/123/32 39/124/32
f 39/124/32 40/123/32 41/125/32
f 40/123/32 45/126/32 42/97/32
f 46/122/32 45/126/32 40/123/32
f 42/97/32 43/99/32 44/127/32
f 43/99/32 49/98/32 48/128/32
f 48/128/32 49/98/32 50/129/32
f 49/98/32 42/97/32 45/126/32
f 45/126/32 46/122/32 47/130/32
f 58/131/33 52/101/33 54/100/33
f 54/100/33 55/132/33 56/133/33
f 51/102/33 55/132/33 54/100/33
f 51/102/33 52/101/33 53/134/33
f 52/101/33 58/131/33 60/135/33
f 60/135/33 61/136/33 62/137/33
f 58/131/33 57/138/33 60/135/33
f 61/136/33 60/135/33 57/138/33
f 57/138/33 58/131/33 59/139/33
f 58/103/34 44/104/35 59/140/36
f 59/105/36 43/92/27 57/91/26
f 54/88/23 41/108/38 40/89/24
f 56/109/37 39/111/40 41/141/38
f 61/112/41 50/113/42 62/142/43
f 62/114/43 49/95/30 60/94/29
f 51/116/44 47/118/46 46/121/48
f 53/119/45 45/96/31 47/143/46
f 46/121/48 55/110/39 51/116/44
