# Blender v2.90.1 OBJ File: 'pannels.blend'
# www.blender.org
mtllib Zone30.mtl
o Sign_SpeedLimit_Zone_30_Sign_SpeedZone_30
v 0.541651 3.130750 0.003955
v 0.578439 3.150141 0.003955
v 0.593678 3.196953 0.003955
v 0.593678 4.574405 0.003955
v 0.541651 3.130749 0.060401
v 0.593678 3.196952 0.060401
v 0.578439 3.150140 0.060401
v -0.592868 3.196952 0.060401
v -0.540841 3.130749 0.060401
v -0.577629 3.150140 0.060401
v 0.541651 4.640608 0.060401
v 0.593678 4.574405 0.060401
v 0.578439 4.621217 0.060401
v -0.540841 4.640608 0.060401
v -0.592868 4.574405 0.060401
v -0.577629 4.621217 0.060401
v -0.540841 3.130750 0.003955
v -0.577629 3.150141 0.003955
v -0.592868 3.196953 0.003955
v -0.592868 4.574405 0.003955
v -0.577629 4.621217 0.003955
v -0.540841 4.640608 0.003955
v 0.541651 4.640608 0.003955
v 0.578439 4.621217 0.003955
v 0.079161 4.442900 -0.071789
v -0.000315 4.442900 -0.151265
v -0.079791 4.442900 -0.071789
v -0.000315 4.442901 0.007687
v 0.079161 0.001205 -0.071789
v -0.000315 0.001205 -0.151265
v -0.079791 0.001205 -0.071789
v -0.000315 0.001205 0.007686
vt 0.023607 0.980452
vt 0.023441 0.980452
vt 0.023600 0.980461
vt 0.735053 0.611317
vt 0.746355 0.625698
vt 0.992809 0.611317
vt 0.023694 0.980407
vt 0.023694 0.980412
vt 0.023702 0.980412
vt 0.023678 0.980256
vt 0.023670 0.980256
vt 0.023670 0.980449
vt 0.023678 0.980256
vt 0.023686 0.980256
vt 0.023686 0.980250
vt 0.023686 0.980255
vt 0.023694 0.980255
vt 0.023694 0.980250
vt 0.023670 0.980250
vt 0.023670 0.980456
vt 0.023678 0.980456
vt 0.023702 0.980250
vt 0.023694 0.980255
vt 0.023678 0.980456
vt 0.023686 0.980456
vt 0.023686 0.980449
vt 0.023694 0.980412
vt 0.023694 0.980407
vt 0.023686 0.980407
vt 0.023702 0.980255
vt 0.023678 0.980449
vt 0.023443 0.980458
vt 0.023448 0.980461
vt 0.023448 0.980250
vt 0.023441 0.980259
vt 0.023443 0.980252
vt 0.023607 0.980259
vt 0.023600 0.980250
vt 0.023605 0.980252
vt 0.023605 0.980458
vt 0.746354 0.297707
vt 0.735053 0.312088
vt 0.738363 0.301919
vt 0.981508 0.297707
vt 0.992809 0.312088
vt 0.989499 0.301919
vt 0.981507 0.625698
vt 0.989499 0.621486
vt 0.738363 0.621486
vt 0.023702 0.980407
vt 0.023678 0.980449
vt 0.023686 0.980250
vt 0.023678 0.980250
vt 0.023686 0.980412
vt 0.023670 0.980872
vt 0.023670 0.980250
vt 0.023654 0.980250
vt 0.023607 0.980250
vt 0.023607 0.980872
vt 0.023623 0.980872
vt 0.023441 0.980461
vt 0.023441 0.980477
vt 0.023457 0.980477
vt 0.023639 0.980250
vt 0.023639 0.980872
vt 0.023654 0.980872
vt 0.023639 0.980872
vt 0.023639 0.980250
vt 0.023623 0.980250
vt 0.023654 0.980872
vt 0.023623 0.980250
vt 0.023457 0.980461
vt 0.023654 0.980250
vt 0.023623 0.980872
vn 0.0000 0.0000 -1.0000
vn -0.0000 -0.0000 1.0000
vn 0.2402 0.9707 0.0000
vn 0.7647 0.6444 0.0000
vn 0.9876 0.1567 0.0000
vn 0.9876 -0.1567 0.0000
vn -0.9876 0.1567 0.0000
vn -0.7647 0.6444 0.0000
vn -0.2402 -0.9707 -0.0000
vn -0.7647 -0.6444 -0.0000
vn 0.7647 -0.6444 -0.0000
vn -0.2402 0.9707 0.0000
vn -0.9876 -0.1567 0.0000
vn 0.2402 -0.9707 -0.0000
vn -0.7071 -0.0000 -0.7071
vn 0.7071 -0.0000 0.7071
vn 0.0000 1.0000 -0.0000
vn -0.7071 -0.0000 0.7071
vn 0.7071 -0.0000 -0.7071
usemtl Material.001
s 1
f 19/1/1 3/2/1 17/3/1
f 12/4/2 11/5/2 15/6/2
f 11/7/3 13/8/4 24/9/4
f 4/10/5 12/11/5 6/12/6
f 20/13/7 15/14/7 16/15/8
f 17/16/9 9/17/9 10/18/10
f 13/19/4 12/11/5 4/10/5
f 6/12/6 7/20/11 2/21/11
f 21/22/8 16/15/8 14/23/12
f 18/24/10 10/25/10 8/26/13
f 7/27/11 5/28/14 1/29/14
f 22/30/12 14/23/12 11/7/3
f 19/31/13 8/26/13 15/14/7
f 1/29/14 5/28/14 9/17/9
f 2/32/1 1/33/1 3/2/1
f 3/2/1 23/34/1 4/35/1
f 4/35/1 23/34/1 24/36/1
f 23/34/1 20/37/1 22/38/1
f 22/38/1 20/37/1 21/39/1
f 20/37/1 23/34/1 19/1/1
f 19/1/1 17/3/1 18/40/1
f 17/3/1 3/2/1 1/33/1
f 3/2/1 19/1/1 23/34/1
f 12/4/2 5/41/2 6/42/2
f 6/42/2 5/41/2 7/43/2
f 5/41/2 12/4/2 9/44/2
f 9/44/2 8/45/2 10/46/2
f 8/45/2 9/44/2 15/6/2
f 15/6/2 14/47/2 16/48/2
f 9/44/2 12/4/2 15/6/2
f 14/47/2 15/6/2 11/5/2
f 11/5/2 12/4/2 13/49/2
f 11/7/3 24/9/4 23/50/3
f 4/10/5 6/12/6 3/51/6
f 20/13/7 16/15/8 21/22/8
f 17/16/9 10/18/10 18/52/10
f 13/19/4 4/10/5 24/53/4
f 6/12/6 2/21/11 3/51/6
f 21/22/8 14/23/12 22/30/12
f 18/24/10 8/26/13 19/31/13
f 7/27/11 1/29/14 2/54/11
f 22/30/12 11/7/3 23/50/3
f 19/31/13 15/14/7 20/13/7
f 1/29/14 9/17/9 17/16/9
f 26/55/15 30/56/15 31/57/15
f 28/58/16 32/59/16 29/60/16
f 28/61/17 25/62/17 26/63/17
f 27/64/18 31/65/18 32/66/18
f 25/67/19 29/68/19 30/69/19
f 26/55/15 31/57/15 27/70/15
f 28/58/16 29/60/16 25/71/16
f 28/61/17 26/63/17 27/72/17
f 27/64/18 32/66/18 28/73/18
f 25/67/19 30/69/19 26/74/19
