# 3ds Max Wavefront OBJ Exporter v0.97b - (c)2007 guruware
# File Created: 03.02.2021 23:10:24

#
# object GuideLineSimple
#

v  68.1947 0.0000 -89.4409
v  68.2565 0.0000 -389.8807
v  38.2304 0.0000 -389.8807
v  38.2427 0.0000 -89.4409
# 4 vertices

vn 0.0000 1.0000 0.0000
# 1 vertex normals

vt 0.4367 0.7975 0.0000
vt 0.4366 0.2025 0.0000
vt 0.4763 0.2025 0.0000
vt 0.4763 0.7975 0.0000
# 4 texture coords

g GuideLineSimple
s off
f 1/1/1 2/2/1 3/3/1 4/4/1 
# 1 polygons

