# 3ds Max Wavefront OBJ Exporter v0.97b - (c)2007 guruware
# File Created: 03.02.2021 23:38:04

#
# object Zebra_line1
#

v  97.0567 -0.0000 -2.2629
v  415.6036 -0.0000 -52.8926
v  412.3237 -0.0000 -56.9478
v  97.0567 0.0000 -327.5618
v  546.6082 -0.0000 -272.8769
v  546.6082 0.0000 -327.5619
v  97.0567 0.0001 -738.8306
v  546.6082 0.0000 -684.1456
v  546.6082 0.0001 -738.8306
v  379.9668 0.0000 -423.3369
v  198.2024 0.0000 -464.6514
v  368.2209 0.0000 -416.6081
v  97.0567 0.0000 -601.7410
v  546.6083 0.0000 -547.0560
v  546.6082 0.0000 -601.7410
v  321.9333 -0.0001 131.2018
v  97.0567 -0.0000 80.1418
v  296.3096 -0.0001 134.8268
v  97.0567 -0.0000 -139.3524
v  546.6082 -0.0000 -194.0374
v  97.0567 -0.0000 -194.0374
v  546.6082 -0.0000 80.1418
v  329.4218 -0.0001 125.6895
v  332.4894 -0.0001 134.8268
v  546.6082 -0.0000 -2.2629
v  546.6082 -0.0000 -56.9478
v  428.1764 -0.0000 -56.9168
v  97.0567 -0.0001 134.8268
v  97.0567 -0.0000 -56.9478
v  546.6083 0.0000 -464.6514
v  382.6354 0.0000 -409.9665
v  546.6083 0.0000 -409.9665
v  97.0567 -0.0000 -272.8769
v  190.6691 0.0000 -459.9994
v  178.2982 0.0000 -460.8745
v  97.0567 0.0000 -409.9664
v  166.5765 0.0000 -464.6514
v  97.0567 0.0000 -464.6514
v  97.0567 0.0000 -684.1456
v  340.7759 0.0000 -409.9664
v  347.3342 0.0000 -415.1813
v  97.0567 0.0000 -547.0560
v  546.6082 -0.0000 -139.3524
v  546.6082 -0.0001 134.8268
# 44 vertices

vn -0.0000 1.0000 0.0000
vn 0.0000 1.0000 0.0000
# 2 vertex normals

vt 0.1782 0.0000 0.0000
vt 0.0957 0.7086 0.0000
vt 0.0891 0.7013 0.0000
vt 0.2673 1.0000 0.0000
vt 0.2673 0.0000 0.0000
vt 0.5346 1.0000 0.0000
vt 0.4455 0.0000 0.0000
vt 0.5346 0.0000 0.0000
vt 0.4237 0.6293 0.0000
vt 0.3564 0.2250 0.0000
vt 0.4347 0.6032 0.0000
vt 0.0000 0.0000 0.0000
vt 0.0891 1.0000 0.0000
vt 0.0000 1.0000 0.0000
vt 0.6178 0.5002 0.0000
vt 0.6237 0.4432 0.0000
vt 0.3564 0.0000 0.0000
vt 0.6088 0.5169 0.0000
vt 0.6237 0.5237 0.0000
vt 0.1782 1.0000 0.0000
vt 0.0892 0.7366 0.0000
vt 0.6237 0.0000 0.0000
vt 0.0891 0.0000 0.0000
vt 0.3564 1.0000 0.0000
vt 0.4455 0.6353 0.0000
vt 0.4455 1.0000 0.0000
vt 0.3640 0.2082 0.0000
vt 0.3626 0.1807 0.0000
vt 0.3564 0.1546 0.0000
vt 0.4455 0.5421 0.0000
vt 0.4370 0.5567 0.0000
vt 0.6237 1.0000 0.0000
# 32 texture coords

g Zebra_line1
s off
f 1/1/1 2/2/1 3/3/1 
f 4/4/2 5/1/2 6/5/2 
f 7/6/2 8/7/2 9/8/2 
f 10/9/2 11/10/2 12/11/2 
f 13/12/2 14/13/2 15/14/2 
f 16/15/2 17/8/2 18/16/2 
f 19/17/1 20/4/1 21/5/1 
f 22/6/2 17/8/2 23/18/2 
f 24/19/1 22/6/1 23/18/1 
f 25/20/1 26/13/1 27/21/1 
f 17/8/2 28/22/2 18/16/2 
f 17/8/2 16/15/2 23/18/2 
f 2/2/2 25/20/2 27/21/2 
f 3/3/2 29/23/2 1/1/2 
f 1/1/2 25/20/2 2/2/2 
f 30/24/1 31/25/1 32/26/1 
f 4/4/1 33/20/1 5/1/1 
f 34/27/2 35/28/2 36/7/2 
f 36/7/1 37/29/1 38/17/1 
f 7/6/2 39/26/2 8/7/2 
f 10/9/2 30/24/2 11/10/2 
f 34/27/1 36/7/1 40/30/1 
f 11/10/1 34/27/1 40/30/1 
f 41/31/2 11/10/2 40/30/2 
f 13/12/2 42/23/2 14/13/2 
f 19/17/2 43/24/2 20/4/2 
f 24/19/2 44/32/2 22/6/2 
f 30/24/1 10/9/1 31/25/1 
f 36/7/1 35/28/1 37/29/1 
f 11/10/1 41/31/1 12/11/1 
# 0 polygons - 30 triangles

