# 3ds Max Wavefront OBJ Exporter v0.97b - (c)2007 guruware
# File Created: 03.02.2021 23:29:11

#
# object Alpha_tree1
#

v  6.6426 -0.0001 54.6064
v  6.6426 705.2264 -1566.7118
v  6.6426 705.2263 54.6064
v  6.6426 0.0001 -1566.7119
# 4 vertices

vn 1.0000 0.0000 0.0000
# 1 vertex normals

vt 0.0001 0.0001 0.0000
vt 0.9999 0.8680 0.0000
vt 0.0001 0.8680 0.0000
vt 0.9999 0.0001 0.0000
# 4 texture coords

g Alpha_tree1
s off
f 1/1/1 2/2/1 3/3/1 
f 1/1/1 4/4/1 2/2/1 
# 0 polygons - 2 triangles

