<svg width="30" height="30" viewBox="0 0 30 30" fill="none" xmlns="http://www.w3.org/2000/svg">
<g clip-path="url(#clip0)">
<path d="M16.7394 27.9353C23.7036 26.795 28.4248 20.2249 27.2844 13.2607C26.1441 6.29647 19.574 1.5753 12.6098 2.71566C5.64561 3.85601 0.924445 10.4261 2.0648 17.3903C3.20515 24.3545 9.77521 29.0757 16.7394 27.9353Z" fill="white"/>
<path d="M14.6729 0.827393C6.67078 0.827393 0.174469 7.3237 0.174469 15.3258C0.174469 23.3279 6.67078 29.8242 14.6729 29.8242C22.6749 29.8242 29.1712 23.3279 29.1712 15.3258C29.1497 7.3237 22.6749 0.827393 14.6729 0.827393ZM14.6729 25.651C8.95094 25.651 4.32608 21.0262 4.32608 15.3043C4.32608 9.58235 8.95094 4.9575 14.6729 4.9575C20.3948 4.9575 25.0196 9.58235 25.0196 15.3043C24.9981 21.0262 20.3733 25.651 14.6729 25.651Z" fill="#E30613"/>
<path d="M10.1341 16.3153C11.1451 16.3153 11.9625 16.9392 11.9625 17.692C11.9625 18.4664 11.1451 19.0688 10.1341 19.0688C9.3597 19.0688 8.69286 18.7031 8.41322 18.1868L6.54176 18.7246C7.03652 20.0798 8.45624 21.0693 10.1341 21.0693C12.2207 21.0693 13.92 19.5635 13.92 17.692C13.92 16.7456 13.4683 15.8851 12.7584 15.2613C13.2962 14.6805 13.6404 13.9276 13.6404 13.1102C13.6404 11.3248 12.0701 9.86206 10.1341 9.86206C8.5853 9.86206 7.27314 10.787 6.79989 12.0562L8.71437 12.7015C8.90797 12.2283 9.46725 11.9056 10.1126 11.9056C10.93 11.9056 11.5968 12.4434 11.5968 13.1102C11.5968 13.7771 10.93 14.3148 10.1126 14.3148V16.3153H10.1341Z" fill="black"/>
<path d="M15.1032 17.735C15.1032 19.5419 16.7165 21.0047 18.6955 21.0047C20.6745 21.0047 22.2878 19.5419 22.2878 17.735V12.9596C22.2018 11.2172 20.6315 9.81897 18.6955 9.81897C16.7595 9.81897 15.1892 11.2172 15.1032 12.9596V17.735ZM17.0176 13.0241C17.0607 12.2927 17.792 11.7334 18.6955 11.7334C19.599 11.7334 20.3303 12.3142 20.3733 13.0241V17.735C20.3733 18.4879 19.6205 19.0902 18.6955 19.0902C17.7705 19.0902 17.0176 18.4879 17.0176 17.735V13.0241Z" fill="black"/>
</g>
<defs>
<clipPath id="clip0">
<rect width="30" height="30" fill="white"/>
</clipPath>
</defs>
</svg>
