<?xml version="1.0" encoding="UTF-8" standalone="no"?>
<!-- Created with Inkscape (http://www.inkscape.org/) -->

<svg
   xmlns:dc="http://purl.org/dc/elements/1.1/"
   xmlns:cc="http://creativecommons.org/ns#"
   xmlns:rdf="http://www.w3.org/1999/02/22-rdf-syntax-ns#"
   xmlns:svg="http://www.w3.org/2000/svg"
   xmlns="http://www.w3.org/2000/svg"
   xmlns:sodipodi="http://sodipodi.sourceforge.net/DTD/sodipodi-0.dtd"
   xmlns:inkscape="http://www.inkscape.org/namespaces/inkscape"
   version="1.1"
   width="500"
   height="500"
   id="svg2"
   xml:space="preserve"
   inkscape:version="0.48.2 r9819"
   sodipodi:docname="Mauritius Road Signs - Regulatory Sign - Speed limit 50.svg"><sodipodi:namedview
     pagecolor="#ffffff"
     bordercolor="#666666"
     borderopacity="1"
     objecttolerance="10"
     gridtolerance="10"
     guidetolerance="10"
     inkscape:pageopacity="0"
     inkscape:pageshadow="2"
     inkscape:window-width="1024"
     inkscape:window-height="706"
     id="namedview11"
     showgrid="false"
     fit-margin-top="0"
     fit-margin-left="0"
     fit-margin-right="0"
     fit-margin-bottom="0"
     inkscape:zoom="0.69248829"
     inkscape:cx="170.39999"
     inkscape:cy="343.68567"
     inkscape:window-x="-8"
     inkscape:window-y="-8"
     inkscape:window-maximized="1"
     inkscape:current-layer="g10" /><defs
     id="defs12" /><metadata
     id="metadata8"><rdf:RDF><cc:Work
         rdf:about=""><dc:format>image/svg+xml</dc:format><dc:type
           rdf:resource="http://purl.org/dc/dcmitype/StillImage" /></cc:Work></rdf:RDF></metadata><g
     transform="matrix(2.200704,0,0,-2.2007041,-4.2913728,501.25435)"
     id="g10"><path
       d="m 115.55,227.76999 c 62.775,-0.025 113.64166,-50.88333 113.6,-113.6 C 229.19166,51.399995 178.325,0.53666316 115.55,0.56999649 52.842499,0.53550483 1.975,51.399995 1.95,114.16999 c 0.02775,62.71667 50.892499,113.575 113.6,113.6"
       inkscape:connector-curvature="0"
       id="path12"
       style="fill:#db0000;fill-opacity:1" /><path
       d="m 115.55,205.16999 c 50.28083,-0.0483 91.01666,-40.78166 91,-91 0.0167,-50.273328 -40.71667,-91.008327 -91,-90.999994 -50.211667,-0.0075 -90.941667,40.726666 -90.9,90.999994 -0.045,50.21834 40.688333,90.95 90.9,91"
       inkscape:connector-curvature="0"
       id="path14"
       style="fill:#ffffff" /><path
       d="m 64.949999,140.66999 -1.8,-11.9 c 5.1275,3.0025 8.3675,4.4425 13.3,4.4 17.7475,0.0425 28.907501,-12.4375 28.900001,-31 0.008,-19.716662 -11.752501,-31.956662 -31.400001,-31.999995 -16.591666,0.04333 -25.231666,6.643333 -30.599999,22.8 l 15.899999,5.1 c 1.588334,-3.976667 5.7875,-12.256667 14.8,-12.3 8.3875,0.04333 13.9075,7.243333 13.9,16.599995 0.0075,8.8825 -5.9925,15.1225 -14.5,15.1 -5.0525,0.0225 -8.6525,-2.0175 -12.7,-7.3 l -17.699999,2.9 6.6,43.1 h 52 v -15.5 H 64.949999"
       inkscape:connector-curvature="0"
       id="path16" /><path
       d="m 156.15,69.869995 c -23.74917,-0.01667 -35.74917,15.343333 -35.7,43.799995 -0.0492,29.86167 12.43083,44.38167 35.6,44.4 24.35,-0.0183 35.87,-15.73833 35.9,-44.3 -0.03,-28.316662 -11.79,-43.916662 -35.8,-43.899995"
       inkscape:connector-curvature="0"
       id="path18" /><path
       d="m 156.25,141.96999 c -12.56917,0.002 -18.08917,-9.2375 -18.1,-28.1 0.0108,-17.496662 5.89083,-27.936662 18.1,-27.899995 12.39,-0.03667 18.03,9.3225 18,27.899995 0.03,18.2625 -5.61,28.1025 -18,28.1"
       inkscape:connector-curvature="0"
       id="path20"
       style="fill:#ffffff" /></g></svg>