<svg width="33" height="74" viewBox="0 0 33 74" fill="none" xmlns="http://www.w3.org/2000/svg">
<g clip-path="url(#clip0)">
<path d="M16.4906 -0.000244141L9.47034 6.89551H14.4687H18.5314H23.5298L16.4906 -0.000244141Z" fill="white"/>
<path d="M23.778 11.9696C23.7654 11.9708 23.7538 11.972 23.7433 11.9731H8.90347C6.90376 11.9731 5.38037 12.3897 4.23752 13.0882C3.088 13.7909 2.39246 14.737 1.98579 15.6736C1.58434 16.5981 1.46635 17.5061 1.44407 18.1686C1.43283 18.503 1.44567 18.7836 1.46194 18.9849C1.47009 19.0857 1.47916 19.1673 1.48666 19.2266C1.48729 19.2316 1.48791 19.2364 1.48852 19.2411V19.252V19.2639V19.2766V19.2901V19.3044V19.3195V19.3354V19.3521V19.3695V19.3877V19.4067V19.4265V19.447V19.4683V19.4903V19.5132V19.5367V19.561V19.5861V19.6119V19.6385V19.6657V19.6938V19.7225V19.752V19.7822V19.8132V19.8448V19.8772V19.9103V19.9441V19.9786V20.0138V20.0497V20.0863V20.1236V20.1616V20.2003V20.2396V20.2797V20.3204V20.3618V20.4039V20.4466V20.49V20.5341V20.5789V20.6242V20.6703V20.717V20.7643V20.8123V20.861V20.9102V20.9602V21.0107V21.0619V21.1137V21.1661V21.2191V21.2728V21.327V21.3819V21.4374V21.4935V21.5502V21.6075V21.6654V21.7239V21.7829V21.8426V21.9028V21.9636V22.025V22.087V22.1495V22.2126V22.2763V22.3405V22.4053V22.4706V22.5365V22.6029V22.6699V22.7374V22.8055V22.8741V22.9432V23.0129V23.083V23.1537V23.225V23.2967V23.369V23.4417V23.515V23.5888V23.6631V23.7378V23.8131V23.8889V23.9651V24.0419V24.1191V24.1968V24.2749V24.3536V24.4327V24.5123V24.5923V24.6728V24.7538V24.8352V24.9171V24.9994V25.0822V25.1654V25.249V25.3331V25.4176V25.5026V25.5879V25.6737V25.7599V25.8466V25.9336V26.021V26.1089V26.1972V26.2858V26.3749V26.4643V26.5542V26.6444V26.7351V26.8261V26.9174V27.0092V27.1013V27.1938V27.2867V27.3799V27.4735V27.5675V27.6618V27.7564V27.8514V27.9468V28.0425V28.1385V28.2349V28.3316V28.4286V28.5259V28.6236V28.7216V28.8199V28.9185V29.0175V29.1167V29.2163V29.3161V29.4163V29.5167V29.6174V29.7184V29.8197V29.9213V30.0232V30.1253V30.2278V30.3305V30.4334V30.5366V30.6401V30.7438V30.8478V30.9521V31.0565V31.1613V31.2662V31.3715V31.4769V31.5826V31.6885V31.7946V31.901V32.0076V32.1144V32.2214V32.3286V32.436V32.5436V32.6515V32.7595V32.8677V32.9761V33.0848V33.1935V33.3025V33.4117V33.521V33.6305V33.7402V33.85V33.96V34.0702V34.1805V34.2909V34.4016V34.5123V34.6233V34.7343V34.8455V34.9568V35.0683V35.1799V35.2916V35.4035V35.5154V35.6275V35.7397V35.852V35.9644V36.0769V36.1895V36.3022V36.4151V36.528V36.6409V36.754V36.8672V36.9804V37.0937V37.2071V37.3206V37.4341V37.5477V37.6613V37.775V37.8888V38.0026V38.1164V38.2303V38.3443V38.4582V38.5723V38.6863V38.8004V38.9145V39.0286V39.1428V39.2569V39.3711V39.4853V39.5995V39.7137V39.8279V39.9421V40.0563V40.1704V40.2846V40.3988V40.5129V40.627V40.7411V40.8552V40.9692V41.0832V41.1972V41.3111V41.425V41.5388V41.6526V41.7664V41.8801V41.9937V42.1072V42.2207V42.3342V42.4475V42.5608V42.674V42.7872V42.9002V43.0132V43.126V43.2388V43.3515V43.4641V43.5765V43.6889V43.8012V43.9133V44.0254V44.1373V44.2491V44.3608V44.4723V44.5837V44.695V44.8062V44.9172V45.0281V45.1388V45.2494V45.3598V45.47V45.5802V45.6901V45.7999V45.9095V46.0189V46.1282V46.2373V46.3462V46.4549V46.5635V46.6718V46.78V46.888V46.9957V47.1033V47.2106V47.3178V47.4247V47.5314V47.638V47.7442V47.8503V47.9561V48.0617V48.1671V48.2722V48.3771V48.4818V48.5862V48.6903V48.7942V48.8979V49.0013V49.1044V49.2073V49.3099V49.4122V49.5142V49.616V49.7175V49.8187V49.9196V50.0203V50.1206V50.2207V50.3204V50.4199V50.519V50.6178V50.7164V50.8146V50.9124V51.01V51.1073V51.2042V51.3008V51.397V51.4929V51.5885V51.6837V51.7786V51.8731V51.9673V52.0612V52.1546V52.2477V52.3405V52.4329V52.5249V52.6165V52.7078V52.7986V52.8891V52.9792V53.069V53.1583V53.2472V53.3357V53.4239V53.5116V53.5989V53.6858V53.7723V53.8584V53.944V54.0292V54.114V54.1984V54.2823V54.3658V54.4489V54.5315V54.6137V54.6954V54.7767V54.8575V54.9378V55.0177V55.0971V55.1761V55.2546V55.3326V55.4102V55.4872V55.5638V55.6399V55.7155V55.7906V55.8652V55.9393V56.0129V56.086V56.1586V56.2307V56.3023V56.3733V56.4438V56.5138V56.5833V56.6523V56.7207V56.7886V56.8559V56.9227V56.989V57.0547V57.1198V57.1844V57.2484V57.3119V57.3748V57.4372V57.4989V57.5601V57.6208V57.6808V57.7402V57.7991V57.8574V57.9151V57.9722V58.0287V58.0846V58.1398V58.1945V58.2486V58.302V58.3549V58.4071V58.4587V58.5096V58.56V58.6097V58.6587V58.7071V58.7549V58.802V58.8485V58.8944V58.9395V58.9841V59.0279V59.0711V59.1136V59.1555V59.1967V59.2372V59.277V59.3161V59.3546V59.3923V59.4294V59.4658V59.5014V59.5364V59.5707V59.6042V59.6371V59.6692V59.7006V59.7313V59.7613V59.7905V59.819V59.8468V59.8739V59.9002V59.9257V59.9505V59.9746V59.9979C1.48852 62.1089 1.95925 63.555 2.48277 64.5039C2.74293 64.9755 3.01093 65.3147 3.22815 65.5454C3.31614 65.6389 3.39548 65.7143 3.46221 65.7733C3.4737 65.7914 3.48619 65.8108 3.49977 65.8318C3.59439 65.9775 3.74387 66.1976 3.97589 66.5175C4.43953 67.1567 5.24084 68.2059 6.60788 69.8737C8.13743 71.7397 9.94527 72.518 11.3735 72.8207C12.0832 72.9711 12.6982 73.0044 13.1413 72.9995C13.3634 72.9971 13.544 72.985 13.6738 72.9728C13.7283 72.9677 13.7739 72.9625 13.8101 72.958H13.8129H13.817H13.8212H13.8255H13.8299H13.8344H13.8391H13.8438H13.8487H13.8536H13.8587H13.8639H13.8692H13.8746H13.8801H13.8857H13.8915H13.8973H13.9032H13.9093H13.9155H13.9217H13.9281H13.9346H13.9412H13.9479H13.9547H13.9616H13.9686H13.9758H13.983H13.9903H13.9978H14.0053H14.013H14.0208H14.0286H14.0366H14.0447H14.0529H14.0612H14.0696H14.078H14.0866H14.0953H14.1042H14.1131H14.1221H14.1312H14.1404H14.1497H14.1592H14.1687H14.1783H14.188H14.1979H14.2078H14.2178H14.228H14.2382H14.2485H14.259H14.2695H14.2801H14.2909H14.3017H14.3126H14.3237H14.3348H14.346H14.3574H14.3688H14.3803H14.392H14.4037H14.4155H14.4274H14.4394H14.4516H14.4638H14.4761H14.4885H14.501H14.5136H14.5263H14.5391H14.5519H14.5649H14.578H14.5912H14.6044H14.6178H14.6313H14.6448H14.6585H14.6722H14.686H14.7H14.714H14.7281H14.7423H14.7566H14.771H14.7855H14.8H14.8147H14.8295H14.8443H14.8593H14.8743H14.8894H14.9047H14.92H14.9354H14.9509H14.9664H14.9821H14.9979H15.0137H15.0297H15.0457H15.0618H15.078H15.0943H15.1107H15.1272H15.1437H15.1604H15.1771H15.1939H15.2109H15.2279H15.2449H15.2621H15.2794H15.2967H15.3142H15.3317H15.3493H15.367H15.3848H15.4026H15.4206H15.4386H15.4567H15.4749H15.4932H15.5116H15.5301H15.5486H15.5672H15.5859H15.6047H15.6236H15.6425H15.6616H15.6807H15.6999H15.7192H15.7386H15.758H15.7776H15.7972H15.8169H15.8366H15.8565H15.8764H15.8965H15.9166H15.9367H15.957H15.9773H15.9978H16.0183H16.0388H16.0595H16.0802H16.1011H16.122H16.1429H16.164H16.1851H16.2063H16.2276H16.249H16.2704H16.2919H16.3135H16.3352H16.3569H16.3787H16.4006H16.4226H16.4447H16.4668H16.489H16.5113H16.5336H16.556H16.5785H16.6011H16.6238H16.6465H16.6693H16.6921H16.7151H16.7381H16.7612H16.7844H16.8076H16.8309H16.8543H16.8777H16.9013H16.9249H16.9485H16.9723H16.9961H17.02H17.0439H17.0679H17.092H17.1162H17.1404H17.1647H17.1891H17.2136H17.2381H17.2627H17.2873H17.312H17.3368H17.3617H17.3866H17.4116H17.4367H17.4618H17.487H17.5122H17.5376H17.563H17.5884H17.614H17.6396H17.6652H17.691H17.7168H17.7426H17.7685H17.7945H17.8206H17.8467H17.8729H17.8991H17.9255H17.9518H17.9783H18.0048H18.0314H18.058H18.0847H18.1115H18.1383H18.1652H18.1921H18.2191H18.2462H18.2733H18.3005H18.3278H18.3551H18.3825H18.4099H18.4374H18.465H18.4926H18.5203H18.548H18.5758H18.6037H18.6316H18.6596H18.6876H18.7157H18.7439H18.7721H18.8004H18.8287H18.8571H18.8856H18.9141H18.9426H18.9713H18.9999H19.0287H19.0575H19.0863H19.1152H19.1442H19.1732H19.2023H19.2314H19.2606H19.2898H19.3191H19.3484H19.3778H19.4073H19.4368H19.4664H19.496H19.5257H19.5554H19.5852H19.615H19.6449H19.6748H19.7048H19.7349H19.7649H19.7951H19.8253H19.8555H19.8858H19.9162H19.9466H19.9771H20.0076H20.0381H20.0687H20.0994H20.1301H20.1608H20.1916H20.2225H20.2534H20.2843H20.3153H20.3464H20.3775H20.4086H20.4398H20.4711H20.5024H20.5337H20.5651H20.5965H20.628H20.6595H20.6911H20.7227H20.7544H20.7861H20.8178H20.8496H20.8815H20.9134H20.9453H20.9773H21.0093H21.0414H21.0735H21.1057H21.1379H21.1701H21.2024H21.2348H21.2671H21.2996H21.332H21.3645H21.3971H21.4297H21.4623H21.495H21.5277H21.5604H21.5932H21.6261H21.659H21.6919H21.7248H21.7579H21.7909H21.824H21.8571H21.8903H21.9235H21.9567H21.99H22.0233H22.0567H22.0901H22.1235H22.157H22.1905H22.224H22.2576H22.2912H22.3249H22.3586H22.3923H22.4261H22.4599H22.4937H22.5276H22.5615H22.5955H22.6295H22.6635H22.6976H22.7316H22.7658H22.7999H22.8341H22.8684H22.9026H22.9369H22.9712H23.0056H23.04H23.0744H23.1089H23.1434H23.1779H23.2125H23.2471H23.2817H23.3164H23.3511H23.3858H23.4205H23.4553H23.4901H23.525H23.5598H23.5947H23.6297H23.6646H23.6996H23.7347H23.7697H23.8048H23.8399H23.875H23.9102H23.9454H23.9806H24.0159H24.0512H24.0865H24.1218H24.1572H24.1926H24.228H24.2634H24.2989H24.3344H24.3699H24.4055H24.441H24.4766H24.5123H24.5479H24.5836H24.6193H24.655H24.6908H24.7265H24.7623H24.7982H24.834H24.8699H24.9058H24.9417H24.9776H25.0136H25.0496C26.7531 72.958 28.073 72.5409 29.0717 71.8434C30.0668 71.1484 30.6678 70.2276 31.0256 69.343C31.3808 68.4649 31.5053 67.6035 31.5443 66.9743C31.5641 66.6567 31.5625 66.3901 31.5557 66.1992C31.5523 66.1035 31.5475 66.0263 31.5434 65.9705C31.5423 65.9563 31.5413 65.9435 31.5403 65.9321V65.9315V65.9218V65.9112V65.8997V65.8873V65.874V65.8599V65.8448V65.8288V65.812V65.7943V65.7758V65.7563V65.736V65.7148V65.6928V65.6699V65.6462V65.6216V65.5962V65.5699V65.5428V65.5148V65.486V65.4564V65.426V65.3947V65.3627V65.3298V65.2961V65.2616V65.2262V65.1901V65.1532V65.1155V65.077V65.0377V64.9976V64.9568V64.9151V64.8727V64.8295V64.7856V64.7409V64.6954V64.6492V64.6022V64.5544V64.506V64.4567V64.4068V64.3561V64.3046V64.2524V64.1995V64.1459V64.0916V64.0365V63.9807V63.9243V63.8671V63.8092V63.7506V63.6913V63.6313V63.5706V63.5093V63.4472V63.3845V63.3211V63.257V63.1923V63.1269V63.0608V62.9941V62.9267V62.8587V62.79V62.7207V62.6507V62.5801V62.5088V62.437V62.3644V62.2913V62.2176V62.1432V62.0682V61.9926V61.9164V61.8396V61.7621V61.6841V61.6055V61.5263V61.4465V61.3661V61.2852V61.2037V61.1215V61.0389V60.9556V60.8718V60.7874V60.7025V60.617V60.531V60.4444V60.3573V60.2696V60.1814V60.0927V60.0034V59.9136V59.8233V59.7324V59.6411V59.5492V59.4568V59.3639V59.2705V59.1766V59.0823V58.9874V58.892V58.7962V58.6998V58.603V58.5057V58.4079V58.3097V58.211V58.1118V58.0122V57.9121V57.8116V57.7106V57.6092V57.5073V57.405V57.3022V57.1991V57.0954V56.9914V56.887V56.7821V56.6768V56.5711V56.465V56.3585V56.2516V56.1442V56.0365V55.9284V55.82V55.7111V55.6018V55.4922V55.3822V55.2718V55.1611V55.05V54.9385V54.8267V54.7145V54.6019V54.4891V54.3758V54.2623V54.1484V54.0341V53.9196V53.8047V53.6895V53.5739V53.4581V53.3419V53.2254V53.1086V52.9915V52.8742V52.7565V52.6385V52.5202V52.4017V52.2828V52.1637V52.0443V51.9247V51.8047V51.6845V51.5641V51.4433V51.3224V51.2011V51.0797V50.9579V50.836V50.7138V50.5913V50.4686V50.3457V50.2226V50.0993V49.9757V49.8519V49.7279V49.6037V49.4793V49.3547V49.2299V49.1049V48.9797V48.8543V48.7287V48.603V48.477V48.3509V48.2247V48.0982V47.9716V47.8448V47.7179V47.5908V47.4636V47.3362V47.2087V47.0811V46.9533V46.8253V46.6973V46.5691V46.4408V46.3123V46.1838V46.0551V45.9263V45.7975V45.6685V45.5394V45.4102V45.2809V45.1516V45.0221V44.8926V44.763V44.6333V44.5035V44.3737V44.2438V44.1139V43.9838V43.8538V43.7236V43.5935V43.4632V43.333V43.2027V43.0723V42.942V42.8116V42.6811V42.5507V42.4202V42.2898V42.1593V42.0288V41.8983V41.7678V41.6372V41.5068V41.3763V41.2458V41.1153V40.9849V40.8545V40.7241V40.5937V40.4634V40.333V40.2028V40.0726V39.9424V39.8123V39.6822V39.5522V39.4222V39.2923V39.1625V39.0328V38.9031V38.7735V38.6439V38.5145V38.3851V38.2559V38.1267V37.9976V37.8686V37.7398V37.611V37.4823V37.3538V37.2254V37.0971V36.9689V36.8408V36.7129V36.5851V36.4575V36.33V36.2026V36.0754V35.9483V35.8214V35.6946V35.568V35.4416V35.3153V35.1892V35.0633V34.9376V34.812V34.6867V34.5615V34.4365V34.3117V34.1871V34.0627V33.9385V33.8145V33.6907V33.5672V33.4438V33.3207V33.1978V33.0752V32.9527V32.8305V32.7086V32.5869V32.4654V32.3442V32.2232V32.1025V31.9821V31.8619V31.742V31.6223V31.5029V31.3838V31.265V31.1465V31.0282V30.9103V30.7926V30.6752V30.5582V30.4414V30.3249V30.2088V30.093V29.9774V29.8622V29.7474V29.6328V29.5186V29.4047V29.2912V29.178V29.0651V28.9526V28.8404V28.7286V28.6172V28.5061V28.3954V28.285V28.175V28.0654V27.9562V27.8473V27.7389V27.6308V27.5231V27.4158V27.3089V27.2024V27.0963V26.9907V26.8854V26.7806V26.6761V26.5721V26.4685V26.3654V26.2627V26.1604V26.0585V25.9571V25.8562V25.7557V25.6556V25.556V25.4569V25.3582V25.26V25.1622V25.065V24.9682V24.8719V24.776V24.6807V24.5858V24.4915V24.3976V24.3043V24.2114V24.119V24.0272V23.9359V23.8451V23.7548V23.665V23.5758V23.4871V23.3989V23.3113V23.2242V23.1376V23.0516V22.9661V22.8812V22.7969V22.7131V22.6299V22.5473V22.4652V22.3837V22.3028V22.2224V22.1427V22.0635V21.9849V21.9069V21.8296V21.7528V21.6766V21.601V21.5261V21.4517V21.378V21.3049V21.2324V21.1606V21.0894V21.0188V20.9489V20.8796V20.8109V20.7429V20.6756V20.6089V20.5429V20.4775V20.4128V20.3488V20.2854V20.2227V20.1607V20.0994V20.0388V19.9788V19.9196V19.861V19.8032V19.746V19.6896V19.6339V19.5788V19.5245V19.471V19.4181V19.366V19.3146V19.2639V19.214V19.1648V19.1164V19.0687V19.0217V18.9755V18.9301V18.8854V18.8415V18.7984V18.756V18.7144V18.6736V18.6336V18.5943V18.5559V18.5182C31.5403 16.7309 31.067 15.358 30.2793 14.3353C29.4981 13.3211 28.4711 12.7329 27.4974 12.3953C26.5279 12.0591 25.5768 11.9584 24.882 11.9379C24.5314 11.9275 24.2375 11.9373 24.0279 11.9501C23.9229 11.9565 23.8385 11.9637 23.778 11.9696Z" fill="url(#paint0_linear)" stroke="black" stroke-width="2"/>
<path d="M30.5403 65.9779C30.5403 65.9779 30.5403 24.8788 30.5403 18.5182C30.5403 12.1033 23.7992 12.9731 23.7992 12.9731H8.90347C1.45561 12.9731 2.48852 19.1706 2.48852 19.1706C2.48852 19.1706 2.48852 56.0837 2.48852 59.9979C2.48852 63.9121 4.22817 65.1081 4.22817 65.1081C4.22817 65.1081 4.66308 65.9236 7.38128 69.2398C10.0995 72.556 13.7419 71.958 13.7419 71.958C13.7419 71.958 18.9064 71.958 25.0496 71.958C31.1927 71.958 30.5403 65.9779 30.5403 65.9779ZM9.22965 24.7157C10.6431 24.7157 11.7848 25.8574 11.7848 27.2708C11.7848 28.6843 10.6431 29.8259 9.22965 29.8259C7.81619 29.8259 6.67455 28.6843 6.67455 27.2708C6.67455 25.8574 7.81619 24.7157 9.22965 24.7157ZM9.50147 62.6074C8.08801 62.6074 6.94637 61.4657 6.94637 60.0523C6.94637 58.6388 8.08801 57.4972 9.50147 57.4972C10.9149 57.4972 12.0566 58.6388 12.0566 60.0523C12.0022 61.4657 10.8606 62.6074 9.50147 62.6074ZM9.50147 52.0064C8.08801 52.0064 6.94637 50.8648 6.94637 49.4513C6.94637 48.0378 8.08801 46.8962 9.50147 46.8962C10.9149 46.8962 12.0566 48.0378 12.0566 49.4513C12.0566 50.8648 10.8606 52.0064 9.50147 52.0064ZM9.50147 41.6229C8.08801 41.6229 6.94637 40.4813 6.94637 39.0678C6.94637 37.6543 8.08801 36.5127 9.50147 36.5127C10.9149 36.5127 12.0566 37.6543 12.0566 39.0678C12.0566 40.4813 10.8606 41.6229 9.50147 41.6229ZM16.7862 68.1525C15.3728 68.1525 14.2311 67.0109 14.2311 65.5974C14.2311 64.1839 15.3728 63.0423 16.7862 63.0423C18.1997 63.0423 19.3413 64.1839 19.3413 65.5974C19.3413 67.0109 18.1997 68.1525 16.7862 68.1525ZM16.7862 57.6059C15.3728 57.6059 14.2311 56.4643 14.2311 55.0508C14.2311 53.6373 15.3728 52.4957 16.7862 52.4957C18.1997 52.4957 19.3413 53.6373 19.3413 55.0508C19.3413 56.4643 18.1997 57.6059 16.7862 57.6059ZM16.7862 47.2224C15.3728 47.2224 14.2311 46.0807 14.2311 44.6673C14.2311 43.2538 15.3728 42.1122 16.7862 42.1122C18.1997 42.1122 19.3413 43.2538 19.3413 44.6673C19.3413 46.0807 18.1997 47.2224 16.7862 47.2224ZM16.8406 35.2623C15.4271 35.2623 14.2855 34.1207 14.2855 32.7072C14.2855 31.2937 15.4271 30.1521 16.8406 30.1521C18.2541 30.1521 19.3957 31.2937 19.3957 32.7072C19.3957 34.1207 18.2541 35.2623 16.8406 35.2623ZM16.8406 23.8459C15.4271 23.8459 14.2855 22.7042 14.2855 21.2908C14.2855 19.8773 15.4271 18.7357 16.8406 18.7357C18.2541 18.7357 19.3957 19.8773 19.3957 21.2908C19.3957 22.7042 18.2541 23.8459 16.8406 23.8459ZM24.2341 62.6074C22.8206 62.6074 21.679 61.4657 21.679 60.0523C21.679 58.6388 22.8206 57.4972 24.2341 57.4972C25.6476 57.4972 26.7892 58.6388 26.7892 60.0523C26.7892 61.4657 25.6476 62.6074 24.2341 62.6074ZM24.2341 52.0064C22.8206 52.0064 21.679 50.8648 21.679 49.4513C21.679 48.0378 22.8206 46.8962 24.2341 46.8962C25.6476 46.8962 26.7892 48.0378 26.7892 49.4513C26.7892 50.8648 25.6476 52.0064 24.2341 52.0064ZM24.2341 41.6229C22.8206 41.6229 21.679 40.4813 21.679 39.0678C21.679 37.6543 22.8206 36.5127 24.2341 36.5127C25.6476 36.5127 26.7892 37.6543 26.7892 39.0678C26.7892 40.4813 25.6476 41.6229 24.2341 41.6229ZM24.4516 29.8259C23.0381 29.8259 21.8964 28.6843 21.8964 27.2708C21.8964 25.8574 23.0381 24.7157 24.4516 24.7157C25.865 24.7157 27.0067 25.8574 27.0067 27.2708C27.0067 28.6843 25.865 29.8259 24.4516 29.8259Z" fill="url(#paint1_linear)"/>
</g>
<defs>
<linearGradient id="paint0_linear" x1="16.5001" y1="12.9335" x2="16.5001" y2="72" gradientUnits="userSpaceOnUse">
<stop stop-color="#1F2425"/>
<stop offset="1" stop-color="#555757"/>
</linearGradient>
<linearGradient id="paint1_linear" x1="16.5001" y1="12.9335" x2="16.5001" y2="72" gradientUnits="userSpaceOnUse">
<stop stop-color="#6A7376"/>
<stop offset="1" stop-color="#E8E6E7"/>
</linearGradient>
<clipPath id="clip0">
<rect width="33" height="74" fill="white"/>
</clipPath>
</defs>
</svg>
