<svg width="52" height="109" viewBox="0 0 52 109" fill="none" xmlns="http://www.w3.org/2000/svg">
<path d="M51.6 97.6C51.6 97.6 51.6 22 51.6 10.3C51.6 -1.39999 39.2 0.100011 39.2 0.100011H11.8C-1.79998 0.100011 0.100019 11.5 0.100019 11.5C0.100019 11.5 0.100019 79.4 0.100019 86.6C0.100019 93.8 3.30002 96 3.30002 96C3.30002 96 4.10002 97.5 9.10002 103.6C14.1 109.7 20.8 108.6 20.8 108.6C20.8 108.6 30.3 108.6 41.6 108.6C52.9 108.6 51.6 97.6 51.6 97.6ZM12.5 21.7C15.1 21.7 17.2 23.8 17.2 26.4C17.2 29 15.1 31.1 12.5 31.1C9.90002 31.1 7.80002 29 7.80002 26.4C7.80002 23.8 9.90002 21.7 12.5 21.7ZM12.9 91.4C10.3 91.4 8.20002 89.3 8.20002 86.7C8.20002 84.1 10.3 82 12.9 82C15.5 82 17.6 84.1 17.6 86.7C17.6 89.3 15.5 91.4 12.9 91.4ZM12.9 71.9C10.3 71.9 8.20002 69.8 8.20002 67.2C8.20002 64.6 10.3 62.5 12.9 62.5C15.5 62.5 17.6 64.6 17.6 67.2C17.6 69.8 15.5 71.9 12.9 71.9ZM12.9 52.8C10.3 52.8 8.20002 50.7 8.20002 48.1C8.20002 45.5 10.3 43.4 12.9 43.4C15.5 43.4 17.6 45.5 17.6 48.1C17.6 50.7 15.5 52.8 12.9 52.8ZM26.4 82.2C23.8 82.2 21.7 80.1 21.7 77.5C21.7 74.9 23.8 72.8 26.4 72.8C29 72.8 31.1 74.9 31.1 77.5C31.1 80.1 29 82.2 26.4 82.2ZM26.4 63.1C23.8 63.1 21.7 61 21.7 58.4C21.7 55.8 23.8 53.7 26.4 53.7C29 53.7 31.1 55.8 31.1 58.4C31.1 61 29 63.1 26.4 63.1ZM26.5 41.1C23.9 41.1 21.8 39 21.8 36.4C21.8 33.8 23.9 31.7 26.5 31.7C29.1 31.7 31.2 33.8 31.2 36.4C31.2 39 29.1 41.1 26.5 41.1ZM26.5 20.1C23.9 20.1 21.8 18 21.8 15.4C21.8 12.8 23.9 10.7 26.5 10.7C29.1 10.7 31.2 12.8 31.2 15.4C31.2 18 29.1 20.1 26.5 20.1ZM40 91.4C37.4 91.4 35.3 89.3 35.3 86.7C35.3 84.1 37.4 82 40 82C42.6 82 44.7 84.1 44.7 86.7C44.7 89.3 42.6 91.4 40 91.4ZM40 71.9C37.4 71.9 35.3 69.8 35.3 67.2C35.3 64.6 37.4 62.5 40 62.5C42.6 62.5 44.7 64.6 44.7 67.2C44.7 69.8 42.6 71.9 40 71.9ZM40 52.8C37.4 52.8 35.3 50.7 35.3 48.1C35.3 45.5 37.4 43.4 40 43.4C42.6 43.4 44.7 45.5 44.7 48.1C44.7 50.7 42.6 52.8 40 52.8ZM40.5 31.1C37.9 31.1 35.8 29 35.8 26.4C35.8 23.8 37.9 21.7 40.5 21.7C43.1 21.7 45.2 23.8 45.2 26.4C45.2 29 43.1 31.1 40.5 31.1Z" fill="#FFEC00"/>
</svg>
