<svg width="64" height="120" viewBox="0 0 64 120" fill="none" xmlns="http://www.w3.org/2000/svg">
<g clip-path="url(#clip0)">
<path d="M57.4 103.1C57.4 103.1 57.4 27.5 57.4 15.8C57.4 3.99998 45 5.59998 45 5.59998H17.6C3.89998 5.59998 5.79998 17 5.79998 17C5.79998 17 5.79998 84.9 5.79998 92.1C5.79998 99.3 8.99997 101.5 8.99997 101.5C8.99997 101.5 9.79998 103 14.8 109.1C19.8 115.2 26.5 114.1 26.5 114.1C26.5 114.1 36 114.1 47.3 114.1C58.6 114.1 57.4 103.1 57.4 103.1Z" fill="white"/>
<path d="M57.4 103.1C57.4 103.1 57.4 27.5 57.4 15.8C57.4 3.99998 45 5.59998 45 5.59998H17.6C3.89998 5.59998 5.79998 17 5.79998 17C5.79998 17 5.79998 84.9 5.79998 92.1C5.79998 99.3 8.99997 101.5 8.99997 101.5C8.99997 101.5 9.79998 103 14.8 109.1C19.8 115.2 26.5 114.1 26.5 114.1C26.5 114.1 36 114.1 47.3 114.1C58.6 114.1 57.4 103.1 57.4 103.1ZM18.2 27.2C20.8 27.2 22.9 29.3 22.9 31.9C22.9 34.5 20.8 36.6 18.2 36.6C15.6 36.6 13.5 34.5 13.5 31.9C13.5 29.3 15.6 27.2 18.2 27.2ZM18.7 96.9C16.1 96.9 14 94.8 14 92.2C14 89.6 16.1 87.5 18.7 87.5C21.3 87.5 23.4 89.6 23.4 92.2C23.3 94.8 21.2 96.9 18.7 96.9ZM18.7 77.4C16.1 77.4 14 75.3 14 72.7C14 70.1 16.1 68 18.7 68C21.3 68 23.4 70.1 23.4 72.7C23.4 75.3 21.2 77.4 18.7 77.4ZM18.7 58.3C16.1 58.3 14 56.2 14 53.6C14 51 16.1 48.9 18.7 48.9C21.3 48.9 23.4 51 23.4 53.6C23.4 56.2 21.2 58.3 18.7 58.3ZM32.1 107.1C29.5 107.1 27.4 105 27.4 102.4C27.4 99.8 29.5 97.7 32.1 97.7C34.7 97.7 36.8 99.8 36.8 102.4C36.8 105 34.7 107.1 32.1 107.1ZM32.1 87.7C29.5 87.7 27.4 85.6 27.4 83C27.4 80.4 29.5 78.3 32.1 78.3C34.7 78.3 36.8 80.4 36.8 83C36.8 85.6 34.7 87.7 32.1 87.7ZM32.1 68.6C29.5 68.6 27.4 66.5 27.4 63.9C27.4 61.3 29.5 59.2 32.1 59.2C34.7 59.2 36.8 61.3 36.8 63.9C36.8 66.5 34.7 68.6 32.1 68.6ZM32.2 46.6C29.6 46.6 27.5 44.5 27.5 41.9C27.5 39.3 29.6 37.2 32.2 37.2C34.8 37.2 36.9 39.3 36.9 41.9C36.9 44.5 34.8 46.6 32.2 46.6ZM32.2 25.6C29.6 25.6 27.5 23.5 27.5 20.9C27.5 18.3 29.6 16.2 32.2 16.2C34.8 16.2 36.9 18.3 36.9 20.9C36.9 23.5 34.8 25.6 32.2 25.6ZM45.8 96.9C43.2 96.9 41.1 94.8 41.1 92.2C41.1 89.6 43.2 87.5 45.8 87.5C48.4 87.5 50.5 89.6 50.5 92.2C50.5 94.8 48.4 96.9 45.8 96.9ZM45.8 77.4C43.2 77.4 41.1 75.3 41.1 72.7C41.1 70.1 43.2 68 45.8 68C48.4 68 50.5 70.1 50.5 72.7C50.5 75.3 48.4 77.4 45.8 77.4ZM45.8 58.3C43.2 58.3 41.1 56.2 41.1 53.6C41.1 51 43.2 48.9 45.8 48.9C48.4 48.9 50.5 51 50.5 53.6C50.5 56.2 48.4 58.3 45.8 58.3ZM46.2 36.6C43.6 36.6 41.5 34.5 41.5 31.9C41.5 29.3 43.6 27.2 46.2 27.2C48.8 27.2 50.9 29.3 50.9 31.9C50.9 34.5 48.8 36.6 46.2 36.6Z" fill="black"/>
<path opacity="0.5" d="M62.9 65C62.7 65 62.4 65.1 62.1 65.1H61C60.8 65.1 60.5 65.1 60.3 65V102.9C60.4 104.1 60.6 109.2 57.2 113C54.9 115.6 51.5 116.9 47.2 116.9H26.7C26.4 116.9 25.9 117 25.2 117C22.3 117 16.8 116.2 12.4 110.9C8.69999 106.4 7.19999 104.3 6.59999 103.4C5.39999 102.2 2.69999 98.9 2.69999 92.1V65C2.39999 65.1 2.09999 65.1 1.69999 65.1H0.799992C0.599992 65.1 0.499992 65.1 0.299992 65.1V92.1C0.299992 99.4 2.99999 103.3 4.69999 105C5.49999 106.2 7.09999 108.4 10.5 112.5C15.5 118.6 21.9 119.6 25.2 119.6C25.9 119.6 26.4 119.6 26.8 119.5H47.3C52.3 119.5 56.3 117.9 59.1 114.7C63 110.3 63 104.6 62.8 102.8V65H62.9Z" fill="#FFEC00"/>
<path opacity="0.5" d="M0.300017 54.4C0.500017 54.4 0.600017 54.4 0.800017 54.4H1.90001C2.20001 54.4 2.60001 54.4 2.90001 54.5V17.2C2.70001 15.9 2.40001 11 5.70001 7.2C8.30001 4.1 12.3 2.6 17.6 2.6H44.9C45.2 2.6 45.7 2.5 46.4 2.5C53.2 2.5 60.4 6 60.4 15.8V54.5C60.6 54.5 60.8 54.4 61.1 54.4H62.2C62.5 54.4 62.7 54.4 63 54.5V15.8C62.9 4.1 53.9 3.8147e-06 46.3 3.8147e-06C45.6 3.8147e-06 45.1 3.8147e-06 44.7 0.100004H17.6C11.5 0.100004 6.80001 1.9 3.80001 5.6C1.74046e-05 10 0.200017 15.5 0.300017 17.3V54.4Z" fill="#FFEC00"/>
<path opacity="0.5" d="M2.2 61.3C2.7 61.3 3.1 60.9 3.1 60.4V59C3.1 58.5 2.7 58.1 2.2 58.1H0.900004C0.400004 58.1 3.8147e-06 58.5 3.8147e-06 59V60.4C3.8147e-06 60.9 0.400004 61.3 0.900004 61.3H2.2Z" fill="#FFEC00"/>
<path opacity="0.5" d="M62.3 58.2H61C60.5 58.2 60.1 58.6 60.1 59.1V60.5C60.1 61 60.5 61.4 61 61.4H62.4C62.9 61.4 63.3 61 63.3 60.5V59.1C63.2 58.6 62.8 58.2 62.3 58.2Z" fill="#FFEC00"/>
</g>
<defs>
<clipPath id="clip0">
<rect width="64" height="120" fill="white"/>
</clipPath>
</defs>
</svg>
