<svg width="69" height="106" viewBox="0 0 69 106" fill="none" xmlns="http://www.w3.org/2000/svg">
<g clip-path="url(#clip0)">
<path d="M34.2001 81.7C33.5 81.7 32.8001 81.8 32.2001 82.1C31.6 82.3 31 82.7 30.6 83.1C30.1 83.5 29.8 84.1 29.5 84.6C29.2 85.2 29.1 85.8 29.1 86.5C29.1 87.2 29.2 87.8 29.5 88.4C29.8 89 30.1 89.5 30.6 90C31.1 90.5 31.6 90.8 32.2001 91.1C32.8001 91.4 33.5 91.5 34.2001 91.5C34.9001 91.5 35.6 91.4 36.2001 91.1C36.8001 90.8 37.4 90.5 37.8 90C38.3 89.6 38.6001 89 38.9001 88.4C39.2001 87.8 39.3 87.2 39.3 86.5C39.3 85.8 39.1001 85.2 38.9001 84.6C38.6001 84 38.3 83.5 37.8 83.1C37.3 82.7 36.8001 82.3 36.2001 82.1C35.6 81.9 34.9001 81.7 34.2001 81.7ZM19.9 71.5C19.2 71.5 18.6 71.6 18 71.9C17.4 72.1 16.8 72.5 16.4 72.9C15.9 73.3 15.5 73.8 15.3 74.4C15 75 14.9 75.6 14.8 76.2C14.8 76.8 14.9 77.5 15.1 78C15.3 78.6 15.7 79.1 16.1 79.5C16.5 79.9 17.1 80.3 17.7 80.5C18.3 80.7 19 80.9 19.7 80.9C20.4 80.9 21.1 80.8 21.7 80.5C22.3 80.3 22.9 79.9 23.3 79.5C23.8 79.1 24.2 78.6 24.4 78C24.7 77.4 24.8 76.8 24.8 76.2C24.8 75.6 24.7 74.9 24.4 74.4C24.2 73.8 23.8 73.3 23.4 72.9C23 72.5 22.4 72.1 21.8 71.9C21.2 71.6 20.6 71.5 19.9 71.5ZM48.7001 71.5C48 71.5 47.4 71.6 46.8 71.9C46.2 72.1 45.7001 72.5 45.2001 72.9C44.8001 73.3 44.4001 73.8 44.2001 74.4C44 75 43.8 75.6 43.8 76.2C43.8 76.8 44 77.5 44.2001 78C44.5 78.6 44.9 79.1 45.3 79.5C45.8 79.9 46.3001 80.3 46.9001 80.5C47.5 80.7 48.2001 80.9 48.9001 80.9C49.6001 80.9 50.3001 80.8 50.9001 80.5C51.5 80.3 52 79.9 52.5 79.5C52.9001 79.1 53.3 78.6 53.5 78C53.7001 77.4 53.8 76.8 53.8 76.2C53.8 75.6 53.6 74.9 53.3 74.4C53 73.8 52.6001 73.3 52.2001 72.9C51.7001 72.5 51.2 72.1 50.6 71.9C50.1 71.6 49.4001 71.5 48.7001 71.5ZM34.2001 62.7C33.5 62.7 32.9 62.8 32.3 63C31.7 63.2 31.2001 63.5 30.7 63.9C30.3 64.3 29.9 64.8 29.6 65.3C29.3 65.8 29.2 66.4 29.2 67C29.2 67.6 29.3 68.2 29.6 68.8C29.8 69.3 30.2 69.8 30.6 70.2C31 70.6 31.6 70.9 32.2001 71.2C32.8001 71.4 33.4 71.6 34.1 71.6C34.8 71.6 35.4 71.5 36 71.2C36.6 71 37.1 70.6 37.6 70.2C38 69.8 38.4 69.3 38.6 68.8C38.8 68.3 39 67.7 39 67C39 66.4 38.8 65.8 38.6 65.3C38.3 64.8 38 64.3 37.5 63.9C37.1 63.5 36.5001 63.2 35.9001 63C35.5001 62.8 34.9001 62.7 34.2001 62.7ZM20.4 53.3C19.7 53.3 19.1 53.4 18.5 53.6C17.9 53.8 17.4 54.1 16.9 54.5C16.5 54.9 16.1 55.3 15.8 55.8C15.5 56.3 15.4 56.9 15.4 57.5C15.4 58.1 15.5 58.7 15.7 59.2C15.9 59.7 16.3 60.2 16.7 60.6C17.1 61 17.6 61.3 18.2 61.5C18.8 61.7 19.4 61.8 20.1 61.8C20.8 61.8 21.4 61.7 22 61.5C22.6 61.3 23.1 61 23.6 60.6C24 60.2 24.4 59.7 24.7 59.2C25 58.7 25.1 58.1 25.1 57.5C25.1 56.9 25 56.3 24.8 55.8C24.6 55.3 24.2 54.8 23.8 54.5C23.4 54.1 22.9 53.8 22.3 53.6C21.7 53.4 21.1 53.3 20.4 53.3ZM48.1 53.3C47.4 53.3 46.8 53.4 46.3 53.6C45.7 53.8 45.2 54.1 44.8 54.5C44.4 54.9 44 55.3 43.8 55.8C43.6 56.3 43.4 56.9 43.5 57.5C43.5 58.1 43.7001 58.7 43.9001 59.2C44.2001 59.7 44.5 60.2 45 60.6C45.4 61 46 61.3 46.6 61.5C47.2 61.7 47.8 61.8 48.5 61.8C49.2001 61.8 49.8001 61.7 50.4001 61.5C51 61.3 51.5 61 51.9001 60.6C52.3001 60.2 52.7001 59.7 52.9001 59.2C53.1001 58.7 53.2001 58.1 53.2001 57.5C53.2001 56.9 53 56.3 52.7001 55.8C52.4001 55.3 52.1 54.8 51.6 54.5C51.2 54.1 50.6 53.8 50 53.6C49.4001 53.4 48.7 53.3 48.1 53.3ZM34.2001 45.5C33.6 45.5 32.9001 45.6 32.4001 45.8C31.8001 46 31.3 46.3 30.9 46.7C30.5 47.1 30.1 47.5 29.9 48C29.7 48.5 29.5 49 29.5 49.6C29.5 50.2 29.6 50.7 29.9 51.2C30.1 51.7 30.5 52.1 30.9 52.5C31.3 52.9 31.8001 53.2 32.4001 53.4C33.0001 53.6 33.6 53.7 34.3 53.7C35 53.7 35.6 53.6 36.2001 53.4C36.8001 53.2 37.3001 52.9 37.7001 52.5C38.1 52.1 38.5 51.7 38.7001 51.2C38.9001 50.7 39.1 50.2 39.1 49.6C39.1 49 39 48.5 38.7001 48C38.5 47.5 38.1 47.1 37.7001 46.7C37 46.3 36.5 46 36 45.8C35.4 45.6 34.8001 45.5 34.2001 45.5ZM21 36.8C20.4 36.8 19.8 36.9 19.2 37.1C18.6 37.3 18.1 37.6 17.7 37.9C17.3 38.3 16.9 38.7 16.7 39.1C16.4 39.6 16.3 40.1 16.3 40.6C16.3 41.1 16.4 41.7 16.6 42.1C16.8 42.6 17.1 43 17.5 43.4C17.9 43.8 18.4 44.1 18.9 44.3C19.5 44.5 20.1 44.6 20.7 44.6C21.3 44.6 22 44.5 22.5 44.3C23.1 44.1 23.6 43.8 24 43.4C24.4 43 24.8 42.6 25 42.1C25.2 41.6 25.4 41.1 25.4 40.6C25.4 40.1 25.3 39.5 25.1 39.1C24.9 38.6 24.5 38.2 24.1 37.9C23.7 37.5 23.2 37.3 22.7 37.1C22.2 36.9 21.6 36.8 21 36.8ZM47.5 36.8C46.9001 36.8 46.3001 36.9 45.7001 37.1C45.2001 37.3 44.7 37.6 44.3 37.9C43.9 38.3 43.6 38.7 43.3 39.1C43.1 39.6 43 40.1 43 40.6C43 41.1 43.2001 41.7 43.4001 42.1C43.6001 42.6 44.0001 43 44.4001 43.4C44.8001 43.8 45.3001 44.1 45.9001 44.3C46.5001 44.5 47.1001 44.6 47.7001 44.6C48.3 44.6 49 44.5 49.5 44.3C50.1 44.1 50.5 43.8 50.9001 43.4C51.3001 43 51.6 42.6 51.8 42.1C52 41.6 52.1 41.1 52.1 40.6C52.1 40.1 51.9001 39.5 51.7001 39.1C51.4001 38.6 51.1001 38.2 50.7001 37.9C50.3 37.5 49.8 37.3 49.2001 37.1C48.7001 36.9 48.1 36.8 47.5 36.8ZM34.2001 27.3C33.6 27.3 33 27.4 32.5 27.6C32 27.8 31.5 28.1 31.1 28.4C30.7 28.7 30.4 29.1 30.1 29.6C29.9 30 29.7 30.5 29.7 31.1C29.7 31.6 29.8 32.1 30 32.6C30.2 33.1 30.6 33.5 31 33.8C31.4 34.1 31.9001 34.4 32.4001 34.6C32.9001 34.8 33.5 34.9 34.2001 34.9C34.8001 34.9 35.4 34.8 36 34.6C36.5 34.4 37.0001 34.1 37.4001 33.8C37.8001 33.5 38.1001 33 38.4001 32.6C38.6001 32.1 38.7001 31.6 38.7001 31.1C38.7001 30.6 38.6 30.1 38.3 29.6C38.1 29.2 37.7 28.8 37.3 28.4C37 28 36.5 27.8 36 27.6C35.4 27.4 34.8001 27.3 34.2001 27.3ZM21.1 19.6C20.5 19.6 19.9 19.7 19.4 19.9C18.9 20.1 18.4 20.3 18 20.7C17.6 21 17.3 21.4 17 21.8C16.8 22.2 16.6 22.7 16.6 23.2C16.6 23.7 16.7 24.2 16.9 24.6C17.1 25 17.4 25.4 17.8 25.8C18.2 26.1 18.7 26.4 19.2 26.6C19.7 26.8 20.3 26.9 20.9 26.9C21.5 26.9 22.1 26.8 22.6 26.6C23.1 26.4 23.6 26.1 24 25.8C24.4 25.5 24.7 25.1 25 24.6C25.2 24.2 25.4 23.7 25.4 23.2C25.4 22.7 25.3 22.2 25.1 21.8C24.9 21.4 24.6 21 24.2 20.7C23.8 20.4 23.3 20.1 22.8 19.9C22.3 19.7 21.7 19.6 21.1 19.6ZM47.3 19.6C46.7 19.6 46.1 19.7 45.6 19.9C45.1 20.1 44.6 20.3 44.2001 20.7C43.8001 21 43.5 21.4 43.3 21.8C43.1 22.2 43 22.7 43 23.2C43 23.7 43.1001 24.2 43.4001 24.6C43.6001 25 44.0001 25.4 44.4001 25.8C44.8001 26.1 45.3 26.4 45.8 26.6C46.3 26.8 46.9001 26.9 47.5 26.9C48.1 26.9 48.7001 26.8 49.2001 26.6C49.7001 26.4 50.2 26.1 50.6 25.8C51 25.5 51.3 25.1 51.5 24.6C51.7001 24.2 51.8 23.7 51.8 23.2C51.8 22.7 51.6001 22.2 51.4001 21.8C51.2001 21.4 50.8001 21 50.4001 20.7C50 20.3 49.6 20 49 19.8C48.5 19.7 47.9 19.6 47.3 19.6ZM34.2001 11.4C33.6 11.4 33 11.5 32.5 11.7C32 11.9 31.5 12.1 31.1 12.4C30.7 12.7 30.4 13.1 30.2 13.5C30 13.9 29.9 14.4 29.8 14.8C29.8 15.3 29.9 15.7 30.1 16.2C30.3 16.6 30.6 17 31 17.3C31.4 17.6 31.9001 17.9 32.4001 18.1C32.9001 18.3 33.5 18.4 34.1 18.4C34.7 18.4 35.3 18.3 35.8 18.1C36.3 17.9 36.8001 17.7 37.2001 17.3C37.6 17 37.9 16.6 38.1 16.2C38.3 15.8 38.4001 15.3 38.4001 14.8C38.4001 14.3 38.3 13.9 38 13.5C37.8 13.1 37.5 12.7 37.1 12.4C36.7 12.1 36.2001 11.8 35.7001 11.7C35.4001 11.5 34.8001 11.4 34.2001 11.4Z" fill="black"/>
<path d="M34.2 91.5C33.5 91.5 32.8 91.4 32.2 91.1C31.6 90.8 31 90.5 30.6 90C30.1 89.6 29.8 89 29.5 88.4C29.2 87.8 29.1 87.2 29.1 86.5C29.1 85.8 29.3 85.2 29.5 84.6C29.8 84 30.1 83.5 30.6 83.1C31.1 82.7 31.6 82.3 32.2 82.1C32.8 81.9 33.5 81.7 34.2 81.7C34.9 81.7 35.6 81.8 36.2 82.1C36.8 82.3 37.4 82.7 37.8 83.1C38.3 83.5 38.6 84.1 38.9 84.6C39.2 85.2 39.3 85.8 39.3 86.5C39.3 87.2 39.2 87.8 38.9 88.4C38.6 89 38.3 89.5 37.8 90C37.3 90.5 36.8 90.8 36.2 91.1C35.6 91.4 34.9 91.5 34.2 91.5ZM19.6 80.8C18.9 80.8 18.2 80.7 17.6 80.4C17 80.2 16.5 79.8 16 79.4C15.6 79 15.2 78.5 15 77.9C14.8 77.3 14.7 76.7 14.7 76.1C14.7 75.5 14.9 74.8 15.2 74.3C15.5 73.7 15.9 73.2 16.3 72.8C16.8 72.4 17.3 72 17.9 71.8C18.5 71.6 19.2 71.4 19.8 71.4C20.5 71.4 21.1 71.5 21.7 71.8C22.3 72 22.8 72.4 23.3 72.8C23.7 73.2 24.1 73.7 24.3 74.3C24.5 74.9 24.7 75.5 24.7 76.1C24.7 76.7 24.5 77.4 24.3 77.9C24 78.5 23.7 79 23.2 79.4C22.7 79.8 22.2 80.2 21.6 80.4C21 80.7 20.3 80.8 19.6 80.8ZM49 80.8C48.3 80.8 47.6 80.7 47 80.4C46.4 80.2 45.8 79.8 45.4 79.4C44.9 79 44.5 78.5 44.3 77.9C44 77.3 43.9 76.7 43.9 76.1C43.9 75.5 44 74.8 44.3 74.3C44.5 73.7 44.9 73.2 45.3 72.8C45.7 72.4 46.3 72 46.9 71.8C47.5 71.6 48.1 71.4 48.8 71.4C49.5 71.4 50.1 71.5 50.8 71.8C51.4 72 52 72.4 52.4 72.8C52.9 73.2 53.3 73.7 53.5 74.3C53.8 74.9 53.9 75.5 54 76.1C54 76.7 53.9 77.4 53.7 77.9C53.5 78.5 53.1 79 52.7 79.4C52.3 79.8 51.7 80.2 51.1 80.4C50.4 80.7 49.7 80.8 49 80.8ZM34.2 71.7C33.5 71.7 32.9 71.6 32.3 71.3C31.7 71.1 31.2 70.7 30.7 70.3C30.3 69.9 29.9 69.4 29.7 68.9C29.5 68.4 29.3 67.8 29.3 67.1C29.3 66.5 29.4 65.9 29.7 65.4C30 64.9 30.3 64.4 30.8 64C31.2 63.6 31.8 63.3 32.4 63.1C33 62.9 33.6 62.8 34.3 62.8C35 62.8 35.6 62.9 36.2 63.1C36.8 63.3 37.3 63.6 37.8 64C38.2 64.4 38.6 64.9 38.9 65.4C39.2 65.9 39.3 66.5 39.3 67.1C39.3 67.7 39.2 68.3 38.9 68.9C38.7 69.4 38.3 69.9 37.9 70.3C37.5 70.7 36.9 71 36.3 71.3C35.5 71.5 34.9 71.7 34.2 71.7ZM20.2 61.8C19.5 61.8 18.9 61.7 18.3 61.5C17.7 61.3 17.2 61 16.8 60.6C16.4 60.2 16 59.7 15.8 59.2C15.6 58.7 15.5 58.1 15.5 57.5C15.5 56.9 15.7 56.3 15.9 55.8C16.2 55.3 16.5 54.8 17 54.5C17.4 54.1 18 53.8 18.6 53.6C19.2 53.4 19.8 53.3 20.5 53.3C21.2 53.3 21.8 53.4 22.3 53.6C22.9 53.8 23.4 54.1 23.8 54.5C24.2 54.9 24.6 55.3 24.8 55.8C25 56.3 25.2 56.9 25.1 57.5C25.1 58.1 24.9 58.7 24.7 59.2C24.4 59.7 24.1 60.2 23.6 60.6C23.2 61 22.6 61.3 22 61.5C21.5 61.7 20.8 61.8 20.2 61.8ZM48.4 61.8C47.7 61.8 47.1 61.7 46.5 61.5C45.9 61.3 45.4 61 44.9 60.6C44.5 60.2 44.1 59.7 43.8 59.2C43.5 58.7 43.4 58.1 43.4 57.5C43.4 56.9 43.5 56.3 43.7 55.8C43.9 55.3 44.3 54.8 44.7 54.5C45.1 54.1 45.6 53.8 46.2 53.6C46.8 53.4 47.4 53.3 48 53.3C48.7 53.3 49.3 53.4 49.9 53.6C50.5 53.8 51 54.1 51.5 54.5C51.9 54.9 52.3 55.3 52.6 55.8C52.9 56.3 53 56.9 53.1 57.5C53.1 58.1 53 58.7 52.8 59.2C52.6 59.7 52.2 60.2 51.8 60.6C51.4 61 50.9 61.3 50.3 61.5C49.7 61.7 49 61.8 48.4 61.8ZM34.2 53.7C33.5 53.7 32.9 53.6 32.3 53.4C31.7 53.2 31.2 52.9 30.8 52.5C30.4 52.1 30 51.7 29.8 51.2C29.6 50.7 29.4 50.2 29.4 49.6C29.4 49 29.5 48.5 29.8 48C30 47.5 30.4 47.1 30.8 46.7C31.2 46.3 31.7 46 32.3 45.8C32.9 45.6 33.5 45.5 34.1 45.5C34.7 45.5 35.4 45.6 35.9 45.8C36.5 46 37 46.3 37.4 46.7C37.8 47.1 38.2 47.5 38.4 48C38.6 48.5 38.8 49 38.8 49.6C38.8 50.2 38.7 50.7 38.4 51.2C38.2 51.7 37.8 52.1 37.4 52.5C37 52.9 36.5 53.2 35.9 53.4C35.5 53.6 34.8 53.7 34.2 53.7ZM20.7 44.7C20.1 44.7 19.4 44.6 18.9 44.4C18.3 44.2 17.9 43.9 17.5 43.5C17.1 43.1 16.8 42.7 16.6 42.2C16.4 41.7 16.3 41.2 16.3 40.7C16.3 40.2 16.5 39.6 16.7 39.2C17 38.7 17.3 38.3 17.7 38C18.1 37.6 18.6 37.4 19.2 37.2C19.8 37 20.4 36.9 21 36.9C21.6 36.9 22.2 37 22.8 37.2C23.3 37.4 23.8 37.7 24.2 38C24.6 38.4 24.9 38.8 25.2 39.2C25.4 39.7 25.5 40.2 25.5 40.7C25.5 41.2 25.3 41.8 25.1 42.2C24.9 42.7 24.5 43.1 24.1 43.5C23.7 43.9 23.2 44.2 22.6 44.4C22 44.6 21.4 44.7 20.7 44.7ZM47.8 44.7C47.2 44.7 46.5 44.6 46 44.4C45.4 44.2 44.9 43.9 44.5 43.5C44.1 43.1 43.7 42.7 43.5 42.2C43.3 41.7 43.1 41.2 43.1 40.7C43.1 40.2 43.2 39.6 43.4 39.2C43.6 38.7 43.9 38.3 44.4 38C44.8 37.6 45.3 37.4 45.8 37.2C46.3 37 46.9 36.9 47.6 36.9C48.2 36.9 48.8 37 49.4 37.2C50 37.4 50.5 37.7 50.9 38C51.3 38.4 51.7 38.8 51.9 39.2C52.2 39.7 52.3 40.2 52.3 40.7C52.3 41.2 52.2 41.8 52 42.2C51.8 42.7 51.5 43.1 51.1 43.5C50.7 43.9 50.2 44.2 49.7 44.4C49 44.6 48.4 44.7 47.8 44.7ZM34.2 34.8C33.6 34.8 33 34.7 32.4 34.5C31.9 34.3 31.4 34 31 33.7C30.6 33.4 30.3 32.9 30 32.5C29.8 32 29.7 31.5 29.7 31C29.7 30.5 29.8 30 30.1 29.5C30.3 29.1 30.7 28.7 31.1 28.3C31.5 28 32 27.7 32.5 27.5C33 27.3 33.6 27.2 34.2 27.2C34.8 27.2 35.4 27.3 35.9 27.5C36.4 27.7 36.9 28 37.3 28.3C37.7 28.6 38 29 38.3 29.5C38.5 29.9 38.7 30.4 38.7 31C38.7 31.5 38.6 32 38.4 32.5C38.2 33 37.8 33.4 37.4 33.7C37 34 36.5 34.3 36 34.5C35.5 34.7 34.9 34.8 34.2 34.8ZM20.9 26.8C20.3 26.8 19.7 26.7 19.2 26.5C18.7 26.3 18.2 26 17.8 25.7C17.4 25.4 17.1 25 16.9 24.5C16.7 24.1 16.6 23.6 16.6 23.1C16.6 22.6 16.8 22.1 17 21.7C17.2 21.3 17.6 20.9 18 20.6C18.4 20.3 18.9 20 19.4 19.8C19.9 19.6 20.5 19.5 21.1 19.5C21.7 19.5 22.3 19.6 22.8 19.8C23.3 20 23.8 20.2 24.2 20.6C24.6 20.9 24.9 21.3 25.1 21.7C25.3 22.1 25.4 22.6 25.4 23.1C25.4 23.6 25.3 24.1 25 24.5C24.8 24.9 24.4 25.3 24 25.7C23.6 26 23.1 26.3 22.6 26.5C22.1 26.7 21.5 26.8 20.9 26.8ZM47.6 26.8C47 26.8 46.4 26.7 45.9 26.5C45.4 26.3 44.9 26 44.5 25.7C44.1 25.4 43.8 25 43.5 24.5C43.3 24.1 43.1 23.6 43.1 23.1C43.1 22.6 43.2 22.1 43.4 21.7C43.6 21.3 43.9 20.9 44.3 20.6C44.7 20.3 45.2 20 45.7 19.8C46.2 19.6 46.8 19.5 47.4 19.5C48 19.5 48.6 19.6 49.1 19.8C49.6 20 50.1 20.2 50.5 20.6C50.9 20.9 51.3 21.3 51.5 21.7C51.7 22.1 51.9 22.6 51.9 23.1C51.9 23.6 51.8 24.1 51.6 24.5C51.4 24.9 51.1 25.3 50.7 25.7C50.3 26 49.8 26.3 49.3 26.5C48.8 26.7 48.2 26.8 47.6 26.8ZM34.2 18.3C33.6 18.3 33 18.2 32.5 18C32 17.8 31.5 17.6 31.1 17.2C30.7 16.9 30.4 16.5 30.2 16.1C30 15.7 29.9 15.2 29.9 14.7C29.9 14.2 30 13.8 30.3 13.4C30.5 13 30.8 12.6 31.2 12.3C31.6 12 32.1 11.7 32.6 11.6C33.1 11.4 33.7 11.3 34.3 11.3C34.9 11.3 35.5 11.4 36 11.6C36.5 11.8 37 12 37.4 12.3C37.8 12.6 38.1 13 38.3 13.4C38.5 13.8 38.7 14.3 38.7 14.7C38.7 15.2 38.6 15.6 38.4 16.1C38.2 16.5 37.9 16.9 37.5 17.2C37.1 17.5 36.6 17.8 36.1 18C35.4 18.2 34.8 18.3 34.2 18.3ZM46.8 3.8C46.6 3.8 46.4 3.8 46.3 3.8C46.2 3.8 46 3.8 45.9 3.8C45.8 3.8 45.7 3.8 45.7 3.8C45.6 3.8 45.6 3.8 45.6 3.8H21C17.9 3.8 15.7 4.3 14.1 5C12.5 5.8 11.5 6.8 10.9 7.8C10.3 8.8 10 9.8 10 10.6C9.90002 11.4 10 11.9 10 11.9C10 11.9 9.80002 15 9.50002 19.9C9.20002 24.9 8.80002 31.8 8.30002 39.1C7.80002 46.7 7.30002 54.8 6.90002 61.6C6.50002 68.6 6.10002 74.1 6.00002 75.8C5.90002 77.6 6.00002 79.1 6.30002 80.3C6.50002 81.5 6.90002 82.5 7.30002 83.3C7.60002 84.2 8.00002 84.7 8.30002 85C8.60002 85.3 8.80002 85.5 8.80002 85.5C8.80002 85.5 8.90002 85.6 9.00002 85.8C9.20002 86 9.40002 86.4 9.80002 87C10.2 87.6 10.8 88.4 11.6 89.4C12.4 90.5 13.4 91.8 14.8 93.4C15.8 94.6 16.8 95.5 17.9 96.3C19 97 20.1 97.6 21.1 98C22.1 98.4 23.2 98.6 24 98.8C25 99 25.8 99 26.4 99C26.6 99 26.8 99 27 99C27.2 99 27.3 99 27.5 99C27.6 99 27.7 99 27.8 99C27.9 99 27.9 99 27.9 99C27.9 99 28.6 99 29.8 99C31 99 32.7 99 34.9 99C37.1 99 39.6 99 42.4 99C45.2 99 48.3 99 51.5 99C54.7 99 57 98.2 58.6 97.1C60.2 96 61.1 94.5 61.6 93C62.1 91.5 62.3 90.1 62.2 89C62.2 87.9 62.1 87.2 62.1 87.2C62.1 87.2 61.8 82.3 61.3 74.9C60.9 67.8 60.3 58.6 59.7 49.4C59.1 40.7 58.5 32 58.1 25C57.7 18.3 57.4 13.2 57.2 11C57.1 9.3 56.6 8 55.8 7C55 6 54 5.3 52.9 4.8C51.8 4.3 50.7 4 49.6 3.9C48.5 3.8 47.6 3.8 46.8 3.8Z" fill="url(#paint0_linear)"/>
<path opacity="0.502" d="M4.59999 50.5C4.49999 50.5 4.39999 50.5 4.39999 50.5C4.29999 50.5 4.19999 50.5 4.19999 50.5C4.09999 50.5 3.99999 50.5 3.99999 50.5C3.89999 50.5 3.79999 50.5 3.69999 50.5H2.49999H2.39999H2.29999H2.19999H2.09999L0.0999872 75.9C-1.28075e-05 77.7 -1.28001e-05 79.4 0.199987 80.8C0.399987 82.3 0.699987 83.5 1.09999 84.6C1.49999 85.7 1.99999 86.6 2.49999 87.4C2.99999 88.2 3.49999 88.8 3.99999 89.2C4.19999 89.5 4.39999 89.9 4.79999 90.3C5.09999 90.8 5.49999 91.3 5.99999 92C6.49999 92.7 6.99999 93.4 7.69999 94.3C8.39999 95.2 9.09999 96.2 9.99999 97.3C11.3 99 12.8 100.3 14.3 101.4C15.8 102.5 17.3 103.2 18.8 103.8C20.3 104.4 21.7 104.7 23 104.9C24.3 105.1 25.5 105.2 26.4 105.2C26.6 105.2 26.8 105.2 27 105.2C27.2 105.2 27.3 105.2 27.5 105.2C27.7 105.2 27.8 105.2 27.9 105.2C28 105.2 28.2 105.2 28.3 105.2H51.7C53.1 105.2 54.5 105.1 55.8 104.9C57.1 104.7 58.3 104.3 59.4 103.9C60.5 103.5 61.5 102.9 62.4 102.2C63.3 101.5 64.2 100.8 64.9 99.9C65.9 98.7 66.7 97.4 67.2 96.1C67.7 94.8 68 93.5 68.2 92.4C68.4 91.2 68.4 90.1 68.4 89.2C68.4 88.3 68.3 87.6 68.2 87.1L65.4 50.7C65.3 50.7 65.3 50.7 65.2 50.7C65.1 50.7 65.1 50.7 65 50.7C64.9 50.7 64.9 50.7 64.8 50.7C64.7 50.7 64.7 50.7 64.6 50.7H63.5C63.4 50.7 63.4 50.7 63.3 50.7C63.2 50.7 63.2 50.7 63.1 50.7C63 50.7 63 50.7 62.9 50.7C62.8 50.7 62.8 50.7 62.7 50.7L65.3 87.2C65.4 87.5 65.4 88.1 65.5 88.8C65.5 89.5 65.5 90.5 65.4 91.5C65.3 92.5 65 93.6 64.6 94.8C64.2 95.9 63.5 97.1 62.6 98.1C62 98.8 61.3 99.4 60.5 100C59.7 100.5 58.9 101 58 101.4C57.1 101.8 56.1 102 55 102.2C53.9 102.4 52.8 102.5 51.6 102.5H28C27.9 102.5 27.8 102.5 27.7 102.5C27.6 102.5 27.5 102.5 27.3 102.5C27.2 102.5 27 102.5 26.8 102.5C26.6 102.5 26.5 102.5 26.3 102.5C25.5 102.5 24.5 102.4 23.3 102.3C22.2 102.1 20.9 101.8 19.7 101.3C18.4 100.8 17.1 100.2 15.8 99.2C14.5 98.3 13.3 97.1 12.1 95.7C11.1 94.5 10.3 93.4 9.59999 92.5C8.99999 91.5 8.39999 90.7 7.99999 90.1C7.49999 89.5 7.19999 88.9 6.89999 88.5C6.59999 88.1 6.39999 87.8 6.29999 87.5C5.99999 87.2 5.59999 86.7 5.09999 86.1C4.69999 85.5 4.19999 84.7 3.89999 83.8C3.49999 82.9 3.19999 81.7 2.99999 80.4C2.79999 79.1 2.69999 77.6 2.89999 75.9L4.59999 50.5Z" fill="#FEEB14"/>
<path opacity="0.502" d="M46.7 3.8147e-06C46.5 3.8147e-06 46.3999 3.8147e-06 46.2999 3.8147e-06C46.2 3.8147e-06 46 3.8147e-06 45.9 3.8147e-06C45.8 3.8147e-06 45.6999 3.8147e-06 45.5999 3.8147e-06C45.5 3.8147e-06 45.3999 3.8147e-06 45.2999 3.8147e-06H21.2C19.8 3.8147e-06 18.6 0.100004 17.4 0.200004C16.1 0.400004 15 0.700004 14 1C13 1.3 12 1.7 11.1 2.2C10.2 2.7 9.39995 3.2 8.69995 3.9C7.69995 4.6 6.99995 5.4 6.49995 6.3C5.99995 7.1 5.59995 7.9 5.39995 8.7C5.19995 9.5 4.99995 10.2 4.99995 10.8C4.89995 11.4 4.89995 11.9 4.99995 12.2L2.69995 41.4H2.79995H2.89995H2.99995H3.09995H4.19995C4.29995 41.4 4.39995 41.4 4.39995 41.4C4.49995 41.4 4.59995 41.4 4.59995 41.4C4.69995 41.4 4.79995 41.4 4.79995 41.4C4.89995 41.4 4.99995 41.4 4.99995 41.4L7.09995 12.1C7.09995 11.9 7.09995 11.5 7.09995 11C7.09995 10.5 7.19995 9.9 7.39995 9.2C7.69995 8.5 7.99995 7.8 8.49995 7.1C8.89995 6.4 9.49995 5.7 10.3 5C10.9 4.5 11.6 4 12.4 3.6C13.2 3.2 14 2.9 14.9 2.6C15.8 2.3 16.8 2.1 17.8 2C18.7999 1.9 20 1.8 21.2 1.8H45.5C45.5999 1.8 45.6 1.8 45.7 1.8C45.7999 1.8 45.9 1.8 46 1.8C46.0999 1.8 46.2 1.8 46.4 1.8C46.5 1.8 46.7 1.8 46.7999 1.8C48.2999 1.8 49.8999 1.9 51.2999 2.3C52.7999 2.6 54.2 3.1 55.4 3.9C56.6 4.6 57.7 5.6 58.5 6.8C59.2999 8 59.8 9.5 59.9 11.2L62 41.5C62.0999 41.5 62.1 41.5 62.2 41.5C62.2999 41.5 62.3 41.5 62.4 41.5C62.5 41.5 62.5 41.5 62.5999 41.5C62.6999 41.5 62.7 41.5 62.7999 41.5H63.7999C63.8999 41.5 63.9 41.5 64 41.5C64.0999 41.5 64.0999 41.5 64.1999 41.5C64.2999 41.5 64.3 41.5 64.4 41.5C64.5 41.5 64.5 41.5 64.5999 41.5L62.2999 11.2C62.0999 9.1 61.5 7.4 60.5 5.9C59.5 4.5 58.2 3.4 56.7999 2.5C55.2999 1.6 53.7 1 51.9 0.700004C50.2 0.200004 48.4 3.8147e-06 46.7 3.8147e-06Z" fill="#FEEB14"/>
<path opacity="0.502" d="M4.4 44.6H3C2.9 44.6 2.8 44.6 2.7 44.7C2.6 44.7 2.5 44.8 2.4 44.9C2.3 45 2.3 45 2.2 45.1C2.2 45.2 2.1 45.3 2.1 45.4L2 46.5C2 46.6 2 46.7 2 46.8C2 46.9 2.1 47 2.2 47C2.3 47.1 2.4 47.1 2.5 47.2C2.6 47.2 2.7 47.3 2.8 47.3H4.2C4.3 47.3 4.4 47.3 4.5 47.2C4.6 47.2 4.7 47.1 4.8 47C4.9 47 4.9 46.9 5 46.8C5 46.7 5.1 46.6 5.1 46.5L5.2 45.3C5.2 45.2 5.2 45.1 5.2 45C5.2 44.9 5.1 44.8 5 44.8C4.9 44.7 4.8 44.7 4.7 44.6C4.6 44.6 4.5 44.6 4.4 44.6Z" fill="#FEEB14"/>
<path opacity="0.502" d="M64.3 44.6H62.9C62.8 44.6 62.7 44.6 62.6 44.7C62.5 44.7 62.4 44.8 62.3 44.9C62.2 45 62.2 45 62.1 45.1C62.1 45.2 62 45.3 62.1 45.4L62.2 46.6C62.2 46.7 62.2 46.8 62.3 46.9C62.3 47 62.4 47.1 62.5 47.1C62.6 47.2 62.7 47.2 62.8 47.3C62.9 47.3 63 47.4 63.1 47.4H64.5C64.6 47.4 64.7 47.4 64.8 47.3C64.9 47.3 65 47.2 65.1 47.1C65.2 47 65.2 47 65.3 46.9C65.3 46.8 65.4 46.7 65.3 46.6L65.2 45.4C65.2 45.3 65.2 45.2 65.1 45.1C65.1 45 65 44.9 64.9 44.9C64.8 44.8 64.7 44.8 64.6 44.7C64.5 44.6 64.4 44.6 64.3 44.6Z" fill="#FEEB14"/>
</g>
<defs>
<linearGradient id="paint0_linear" x1="33.977" y1="-19.8839" x2="34.0925" y2="99" gradientUnits="userSpaceOnUse">
<stop stop-color="#B48F0F"/>
<stop offset="1" stop-color="#FFEC00"/>
</linearGradient>
<clipPath id="clip0">
<rect width="69" height="106" fill="white"/>
</clipPath>
</defs>
</svg>
