<svg id="Layer_5" enable-background="new 0 0 64 64" height="512" viewBox="0 0 64 64" width="512" xmlns="http://www.w3.org/2000/svg"><path d="m1 1v3c0 2.757 2.243 5 5 5h16v5c0 2.414 1.721 4.434 4 4.899v4.101h-2c-2.757 0-5 2.243-5 5v15.5l-2 1.5c-1.252.939-2 2.435-2 4v9c0 2.757 2.243 5 5 5h24c2.757 0 5-2.243 5-5v-30c0-2.757-2.243-5-5-5h-2v-4.101c2.279-.465 4-2.484 4-4.899v-5h12c2.757 0 5-2.243 5-5v-3zm46 55.307-4.337 1.625-5.337-2-5.333 2-5.329-2-5.332 2-4.332-1.625v-3.864l4.331 1.625 5.332-2 5.329 2 5.333-2 5.337 2 4.338-1.625zm0-12-4.337 1.625-5.337-2-5.333 2-5.329-2-5.332 2-1.493-.56 1.161-.872v-2.556l.331.124 5.332-2 5.329 2 5.333-2 5.337 2 4.338-1.625zm0-6-4.337 1.625-5.337-2-5.333 2-5.329-2-5.332 2-.332-.124v-3.864l.331.124 5.332-2 5.329 2 5.333-2 5.337 2 4.338-1.625zm0-6-4.337 1.625-5.337-2-5.333 2-5.329-2-5.332 2-.332-.124v-3.864l.331.124 5.332-2 5.329 2 5.333-2 5.337 2 4.338-1.625zm-29.021 14.503 3.352 1.258 5.332-2 5.329 2 5.333-2 5.337 2 4.338-1.625v3.864l-4.337 1.625-5.337-2-5.333 2-5.329-2-5.332 2-4.332-1.625v-1.307c0-.836.37-1.626.979-2.19zm26.021 14.19h-24c-1.497 0-2.73-1.105-2.953-2.54l4.284 1.607 5.332-2 5.329 2 5.333-2 5.337 2 4.291-1.608c-.223 1.436-1.456 2.541-2.953 2.541zm2.566-34.531-3.904 1.463-5.337-2-5.333 2-5.329-2-5.332 2-.312-.117c.097-1.567 1.39-2.815 2.981-2.815h20c1.093 0 2.042.594 2.566 1.469zm-18.566-3.469v-4h12v4zm16-9c0 1.654-1.346 3-3 3h-14c-1.654 0-3-1.346-3-3v-5h20zm17-10c0 1.654-1.346 3-3 3h-52c-1.654 0-3-1.346-3-3v-1h58z"/></svg>