<svg width="65" height="63" viewBox="0 0 65 63" fill="none" xmlns="http://www.w3.org/2000/svg">
<g clip-path="url(#clip0)">
<path d="M32.5 58.9999C47.6878 58.9999 60 46.9116 60 31.9999C60 17.0883 47.6878 4.99994 32.5 4.99994C17.3122 4.99994 5 17.0883 5 31.9999C5 46.9116 17.3122 58.9999 32.5 58.9999Z" fill="#030405"/>
<path d="M46 26.1041H34.6826V17.9999L19 31.9797L34.6826 45.9999V37.8957H46V26.1041Z" fill="#39D02C"/>
<path d="M64.0854 31.0297H63.1111C62.7632 31.0297 62.4848 31.3081 62.4848 31.656V32.6303C62.4848 32.9783 62.7632 33.2566 63.1111 33.2566H64.0854C64.4334 33.2566 64.7117 32.9783 64.7117 32.6303V31.656C64.7117 31.3081 64.4334 31.0297 64.0854 31.0297Z" fill="#39D02C"/>
<path d="M2.4281 31.0297H1.45383C1.10588 31.0297 0.827517 31.3081 0.827517 31.656V32.6303C0.827517 32.9783 1.10588 33.2566 1.45383 33.2566H2.4281C2.77605 33.2566 3.05442 32.9783 3.05442 32.6303V31.656C2.98482 31.3081 2.70646 31.0297 2.4281 31.0297Z" fill="#39D02C"/>
<path d="M63.1112 26.9934H64.0854C64.155 26.9934 64.155 26.9934 64.2246 26.9934C61.8585 12.101 48.4971 0.688171 32.7697 0.688171C16.9726 0.688171 3.61117 12.101 1.24509 27.063C1.31468 27.063 1.38427 27.063 1.45386 27.063H2.42813C2.70649 27.063 2.98485 27.063 3.26322 27.1326C5.6293 13.2841 18.0164 2.77589 32.7697 2.77589C47.4533 2.77589 59.91 13.2841 62.2761 27.1326C62.4849 27.063 62.8328 26.9934 63.1112 26.9934Z" fill="#39D02C"/>
<path d="M64.155 37.2233H63.1111C62.7632 37.2233 62.4152 37.1537 62.1369 37.0841C59.562 50.6543 47.1749 60.9537 32.7696 60.9537C18.3644 60.9537 5.97722 50.6543 3.40237 37.1537C3.12401 37.2233 2.77606 37.2233 2.49769 37.2233H1.38424H1.31465C2.49769 43.904 5.90763 50.0976 11.1269 54.7601C17.0421 60.049 24.6971 62.9718 32.7 62.9718C40.703 62.9718 48.3579 60.049 54.2731 54.7601C59.4924 50.0976 62.972 43.904 64.155 37.2233Z" fill="#39D02C"/>
</g>
<defs>
<clipPath id="clip0">
<rect width="65" height="63" fill="white"/>
</clipPath>
</defs>
</svg>
