<svg width="95" height="68" viewBox="0 0 95 68" fill="none" xmlns="http://www.w3.org/2000/svg">
<g clip-path="url(#clip0)">
<path opacity="0.5" d="M2.2 21.8H0.9C0.4 21.8 0 22.2 0 22.7V24C0 24.5 0.4 24.9 0.9 24.9H2.3C2.8 24.9 3.2 24.5 3.2 24V22.6C3.1 22.2 2.7 21.8 2.2 21.8Z" fill="#FFEC00"/>
<path opacity="0.5" d="M93.3 21.8H91.9C91.4 21.8 91 22.2 91 22.7V24C91 24.5 91.4 24.9 91.9 24.9H93.3C93.8 24.9 94.2 24.5 94.2 24V22.6C94.2 22.2 93.8 21.8 93.3 21.8Z" fill="#FFEC00"/>
<path d="M78 5.50003C66.3 5.50003 16.7 5.50003 16.7 5.50003C16.7 5.50003 5.8 4.30003 5.8 15.6C5.8 26.9 5.8 41.4 5.8 41.4C5.8 41.4 4.7 48.1 10.8 53.1C16.9 58.1 18.4 58.9 18.4 58.9C18.4 58.9 20.6 62.1 27.8 62.1C35 62.1 76.9 62.1 76.9 62.1C76.9 62.1 88.2 64 88.2 50.3V17.9C88.2 17.9 89.7 5.50003 78 5.50003Z" fill="white"/>
<path d="M78 5.50003C66.3 5.50003 16.7 5.50003 16.7 5.50003C16.7 5.50003 5.8 4.30003 5.8 15.6C5.8 26.9 5.8 41.4 5.8 41.4C5.8 41.4 4.7 48.1 10.8 53.1C16.9 58.1 18.4 58.9 18.4 58.9C18.4 58.9 20.6 62.1 27.8 62.1C35 62.1 76.9 62.1 76.9 62.1C76.9 62.1 88.2 64 88.2 50.3V17.9C88.2 17.9 89.7 5.50003 78 5.50003ZM18.9 24.4L28.9 14.4C29.7 13.6 30.9 13.6 31.7 14.4C32.5 15.2 32.5 16.4 31.7 17.2L21.7 27.2C21.3 27.6 20.8 27.8 20.3 27.8C19.8 27.8 19.3 27.6 18.9 27.2C18.1 26.5 18.1 25.2 18.9 24.4ZM19.7 43.3C19.3 43.7 18.8 43.9 18.3 43.9C17.8 43.9 17.3 43.7 16.9 43.3C16.1 42.5 16.1 41.3 16.9 40.5L42.9 14.5C43.7 13.7 44.9 13.7 45.7 14.5C46.5 15.3 46.5 16.5 45.7 17.3L19.7 43.3ZM34.3 43.9C33.8 43.9 33.3 43.7 32.9 43.3C32.1 42.5 32.1 41.3 32.9 40.5L58.9 14.5C59.7 13.7 60.9 13.7 61.7 14.5C62.5 15.3 62.5 16.5 61.7 17.3L35.7 43.3C35.4 43.7 34.8 43.9 34.3 43.9ZM76.7 33.3L66.7 43.3C66.3 43.7 65.8 43.9 65.3 43.9C64.8 43.9 64.3 43.7 63.9 43.3C63.1 42.5 63.1 41.3 63.9 40.5L73.9 30.5C74.7 29.7 75.9 29.7 76.7 30.5C77.5 31.3 77.5 32.5 76.7 33.3ZM77.7 17.3L51.7 43.3C51.3 43.7 50.8 43.9 50.3 43.9C49.8 43.9 49.3 43.7 48.9 43.3C48.1 42.5 48.1 41.3 48.9 40.5L74.9 14.5C75.7 13.7 76.9 13.7 77.7 14.5C78.5 15.3 78.5 16.5 77.7 17.3Z" fill="black"/>
<path opacity="0.5" d="M89.7 4.90001C86.9 1.70001 82.9 5.72205e-06 78 5.72205e-06H16.9C16.6 5.72205e-06 16.2 5.72205e-06 15.7 5.72205e-06C13.8 5.72205e-06 10.1 0.300006 6.80005 2.40001C3.80005 4.30001 0.300049 8.10001 0.300049 15.6V18.1H2.80005V15.6C2.80005 9.30001 5.70005 6.10001 8.20005 4.50001C11 2.70001 14.1 2.50001 15.8 2.50001C16.3 2.50001 16.6 2.50001 16.9 2.50001H78C82.2 2.50001 85.5 3.80001 87.9 6.50001C91.7001 10.8 91.3 16.7 91.2 18.1H93.7C93.9 16 94 9.70001 89.7 4.90001Z" fill="#FFEC00"/>
<path opacity="0.5" d="M91.2 50.3C91.2 61.2 84.5 65.1 78.2 65.1C77.5 65.1 76.9 65 76.6 65H27.7C20.8 65 17.5 62.4 16.4 61.1C15.5 60.5 13.4 59 8.90003 55.3C2.20003 50 2.60003 42.8 2.80003 41.2V28.6H0.300026V41C0.100026 43 -0.199974 51.2 7.30003 57.3C11.4 60.7 13.6 62.3 14.8 63.1C16.6 64.8 20.4 67.5 27.7 67.5H76.4C76.8 67.5 77.4 67.6 78.2 67.6C85.4 67.6 93.7 63.1 93.7 50.3V28.6H91.2V50.3Z" fill="#FFEC00"/>
</g>
<defs>
<clipPath id="clip0">
<rect width="95" height="68" fill="white"/>
</clipPath>
</defs>
</svg>
