<svg width="83" height="57" viewBox="0 0 83 57" fill="none" xmlns="http://www.w3.org/2000/svg">
<path d="M72.3001 2.24672e-05C60.6001 2.24672e-05 11.0001 2.24672e-05 11.0001 2.24672e-05C11.0001 2.24672e-05 0.100053 -1.19998 0.100053 10.1C0.100053 21.4 0.100053 35.9 0.100053 35.9C0.100053 35.9 -0.999947 42.6 5.00005 47.6C11.1001 52.6 12.6001 53.4 12.6001 53.4C12.6001 53.4 14.8001 56.6 22.0001 56.6C29.2001 56.6 71.1001 56.6 71.1001 56.6C71.1001 56.6 82.5001 58.5 82.5001 44.9V12.4C82.5001 12.4 84.0001 2.24672e-05 72.3001 2.24672e-05ZM13.2001 18.9L23.2001 8.90002C24.0001 8.10002 25.2001 8.10002 26.0001 8.90002C26.8001 9.70002 26.8001 10.9 26.0001 11.7L16.0001 21.7C15.6001 22.1 15.1001 22.3 14.6001 22.3C14.1001 22.3 13.6001 22.1 13.2001 21.7C12.4001 21 12.4001 19.7 13.2001 18.9ZM14.0001 37.8C13.6001 38.2 13.1001 38.4 12.6001 38.4C12.1001 38.4 11.6001 38.2 11.2001 37.8C10.4001 37 10.4001 35.8 11.2001 35L37.2001 9.00002C38.0001 8.20002 39.2001 8.20002 40.0001 9.00002C40.8001 9.80002 40.8001 11 40.0001 11.8L14.0001 37.8ZM28.6001 38.4C28.1001 38.4 27.6001 38.2 27.2001 37.8C26.4001 37 26.4001 35.8 27.2001 35L53.2001 9.00002C54.0001 8.20002 55.2001 8.20002 56.0001 9.00002C56.8001 9.80002 56.8001 11 56.0001 11.8L30.0001 37.8C29.6001 38.2 29.1001 38.4 28.6001 38.4ZM71.0001 27.8L61.0001 37.8C60.6001 38.2 60.1001 38.4 59.6001 38.4C59.1001 38.4 58.6001 38.2 58.2001 37.8C57.4001 37 57.4001 35.8 58.2001 35L68.2001 25C69.0001 24.2 70.2001 24.2 71.0001 25C71.8001 25.8 71.8001 27 71.0001 27.8ZM72.0001 11.8L46.0001 37.8C45.6001 38.2 45.1001 38.4 44.6001 38.4C44.1001 38.4 43.6001 38.2 43.2001 37.8C42.4001 37 42.4001 35.8 43.2001 35L69.2001 9.00002C70.0001 8.20002 71.2001 8.20002 72.0001 9.00002C72.8001 9.80002 72.8001 11 72.0001 11.8Z" fill="#FFEC00"/>
</svg>
