<svg width="45" height="43" viewBox="0 0 45 43" fill="none" xmlns="http://www.w3.org/2000/svg">
<g clip-path="url(#clip0)">
<path d="M1.44541 30.6755V30.6763C1.44135 30.7089 1.43669 30.75 1.43207 30.7991C1.42108 30.9158 1.41022 31.0784 1.408 31.2782C1.40359 31.6771 1.43357 32.2306 1.56894 32.8692C1.8414 34.1547 2.54182 35.7818 4.22125 37.1583C5.72227 38.3887 6.66652 39.1099 7.24185 39.5271C7.52977 39.7359 7.7278 39.8705 7.85901 39.9556C7.87784 39.9679 7.89537 39.9791 7.91164 39.9895C7.96472 40.0495 8.03255 40.1209 8.11668 40.2001C8.3244 40.3956 8.62967 40.6368 9.05406 40.8709C9.90804 41.3421 11.2096 41.7658 13.1095 41.7658H13.1303H13.1515H13.1732H13.1951H13.2175H13.2403H13.2634H13.2869H13.3108H13.3351H13.3597H13.3847H13.41H13.4358H13.4619H13.4883H13.5152H13.5424H13.5699H13.5978H13.6261H13.6547H13.6836H13.7129H13.7426H13.7726H13.803H13.8336H13.8647H13.8961H13.9278H13.9598H13.9922H14.0249H14.058H14.0914H14.1251H14.1591H14.1935H14.2281H14.2631H14.2985H14.3341H14.3701H14.4064H14.4429H14.4798H14.517H14.5546H14.5924H14.6305H14.669H14.7077H14.7467H14.786H14.8257H14.8656H14.9058H14.9463H14.9871H15.0282H15.0696H15.1112H15.1532H15.1954H15.2379H15.2807H15.3237H15.3671H15.4107H15.4545H15.4987H15.5431H15.5878H15.6327H15.6779H15.7234H15.7691H15.8151H15.8613H15.9078H15.9546H16.0016H16.0488H16.0963H16.144H16.192H16.2403H16.2887H16.3374H16.3864H16.4356H16.485H16.5346H16.5845H16.6346H16.685H16.7355H16.7863H16.8373H16.8886H16.94H16.9917H17.0436H17.0957H17.148H17.2005H17.2533H17.3062H17.3594H17.4127H17.4663H17.52H17.574H17.6281H17.6825H17.737H17.7917H17.8467H17.9018H17.9571H18.0126H18.0683H18.1241H18.1801H18.2364H18.2928H18.3493H18.4061H18.463H18.5201H18.5773H18.6347H18.6923H18.7501H18.808H18.8661H18.9243H18.9827H19.0413H19.1H19.1588H19.2178H19.277H19.3363H19.3957H19.4553H19.515H19.5749H19.6349H19.6951H19.7554H19.8158H19.8763H19.937H19.9978H20.0588H20.1198H20.181H20.2423H20.3038H20.3653H20.427H20.4888H20.5507H20.6127H20.6748H20.737H20.7993H20.8618H20.9243H20.987H21.0497H21.1126H21.1755H21.2385H21.3017H21.3649H21.4282H21.4916H21.5551H21.6187H21.6823H21.7461H21.8099H21.8738H21.9378H22.0018H22.0659H22.1301H22.1944H22.2587H22.3232H22.3876H22.4522H22.5167H22.5814H22.6461H22.7109H22.7757H22.8406H22.9055H22.9705H23.0355H23.1006H23.1657H23.2309H23.2961H23.3613H23.4266H23.4919H23.5573H23.6227H23.6881H23.7536H23.819H23.8845H23.9501H24.0156H24.0812H24.1468H24.2124H24.278H24.3437H24.4093H24.475H24.5407H24.6064H24.6721H24.7378H24.8035H24.8692H24.9349H25.0006H25.0663H25.132H25.1977H25.2634H25.329H25.3947H25.4603H25.526H25.5916H25.6572H25.7227H25.7883H25.8538H25.9193H25.9848H26.0503H26.1157H26.1811H26.2464H26.3117H26.377H26.4422H26.5074H26.5726H26.6377H26.7028H26.7678H26.8328H26.8977H26.9626H27.0274H27.0922H27.1569H27.2215H27.2861H27.3506H27.4151H27.4795H27.5438H27.6081H27.6722H27.7364H27.8004H27.8644H27.9283H27.9921H28.0558H28.1195H28.183H28.2465H28.3099H28.3732H28.4364H28.4995H28.5625H28.6255H28.6883H28.751H28.8137H28.8762H28.9386H29.001H29.0632H29.1253H29.1873H29.2491H29.3109H29.3726H29.4341H29.4955H29.5568H29.618H29.679H29.74H29.8008H29.8614H29.922H29.9824H30.0426H30.1028H30.1628H30.2226H30.2823H30.3419H30.4013H30.4606H30.5197H30.5787H30.6376H30.6963H30.7548H30.8132H30.8714H30.9294H30.9873H31.045H31.1026H31.16H31.2173H31.2743H31.3312H31.3879H31.4445H31.5009H31.557H31.6131H31.6689H31.7245H31.78H31.8353H31.8904H31.9453H32H32.0545H32.1088H32.163H32.2169H32.2706H32.3242H32.3775H32.4306H32.4835H32.5362H32.5887H32.641H32.6931H32.7449H32.7966H32.848H32.8992H32.9502H33.001H33.0515H33.1018H33.1519H33.2017H33.2514H33.3008H33.3499H33.3988H33.4475H33.496H33.5442H33.5921H33.6398H33.6873H33.7345H33.7815H33.8282H33.8746H33.9209H33.9668H34.0125H34.0579H34.1031H34.148H34.1927H34.237H34.2811H34.325H34.3685H34.4118H34.4549H34.4976H34.5401H34.5823H34.6242H34.6658H34.7071H34.7482H34.7889H34.8294H34.8696H34.9095H34.9491H34.9883H35.0273H35.066H35.1044H35.1425H35.1803H35.2178H35.255H35.2918H35.3284H35.3646H35.4005H35.4361H35.4714H35.5064H35.541H35.5753H35.6093H35.643H35.6763H35.7094H35.742H35.7744H35.8064H35.8381H35.8694H35.9004H35.931H35.9613H35.9913H36.0209H36.0502H36.0791H36.1077H36.1359H36.1637H36.1912H36.2184H36.2451H36.2716H36.2976H36.3233H36.3486H36.3736H36.3982H36.4224H36.4462H36.4697H36.4928H36.5155H36.5378H36.5597H36.5813H36.6025H36.6233H36.6437H36.6637H36.6833H36.7025H36.7213H36.7397H36.7578H36.7754H36.7926H36.8095H36.8259H36.8419H36.8575H36.8727H36.8875H36.9018H36.9158H36.9293H36.9424H36.9551H36.9674H36.9792H36.9906H37.0016H37.0122H37.0223H37.032H37.0413H37.0501H37.0585H37.0665H37.069C37.0729 41.7663 37.0769 41.7668 37.081 41.7673C37.134 41.7741 37.2071 41.7823 37.2973 41.7896C37.4774 41.8043 37.7284 41.8159 38.0273 41.8058C38.6197 41.7857 39.4317 41.6792 40.2584 41.3171C41.0962 40.9501 41.9408 40.3231 42.5676 39.2887C43.1904 38.2607 43.5617 36.8907 43.5617 35.0923V19.2868C43.5627 19.2764 43.5638 19.2647 43.565 19.2519C43.5698 19.1976 43.5757 19.1217 43.5808 19.0272C43.5909 18.8388 43.5978 18.5745 43.5864 18.2592C43.5637 17.6344 43.468 16.7795 43.1624 15.9084C42.8556 15.0338 42.3253 14.1109 41.4162 13.4085C40.4988 12.6998 39.2694 12.2728 37.6711 12.2728H37.6374H37.6032H37.5686H37.5336H37.4981H37.4623H37.426H37.3894H37.3523H37.3148H37.2769H37.2386H37.1999H37.1608H37.1213H37.0814H37.0411H37.0005H36.9594H36.9179H36.8761H36.8339H36.7913H36.7483H36.7049H36.6612H36.6171H36.5726H36.5277H36.4825H36.4369H36.3909H36.3446H36.2979H36.2509H36.2035H36.1557H36.1076H36.0591H36.0103H35.9611H35.9116H35.8618H35.8116H35.7611H35.7102H35.659H35.6074H35.5556H35.5033H35.4508H35.3979H35.3448H35.2913H35.2374H35.1833H35.1288H35.074H35.0189H34.9635H34.9078H34.8518H34.7954H34.7388H34.6819H34.6246H34.5671H34.5093H34.4511H34.3927H34.334H34.275H34.2157H34.1562H34.0963H34.0362H33.9758H33.9151H33.8541H33.7929H33.7314H33.6696H33.6076H33.5453H33.4827H33.4198H33.3567H33.2934H33.2298H33.1659H33.1018H33.0374H32.9728H32.908H32.8429H32.7775H32.7119H32.6461H32.58H32.5137H32.4472H32.3804H32.3134H32.2462H32.1788H32.1111H32.0432H31.9751H31.9068H31.8382H31.7695H31.7005H31.6313H31.562H31.4924H31.4226H31.3526H31.2824H31.212H31.1414H31.0706H30.9996H30.9284H30.857H30.7855H30.7138H30.6418H30.5697H30.4975H30.425H30.3524H30.2796H30.2066H30.1334H30.0601H29.9866H29.913H29.8392H29.7652H29.6911H29.6168H29.5424H29.4678H29.393H29.3181H29.2431H29.1679H29.0926H29.0171H28.9415H28.8658H28.7899H28.7139H28.6377H28.5615H28.4851H28.4085H28.3319H28.2551H28.1782H28.1012H28.0241H27.9468H27.8695H27.792H27.7144H27.6367H27.559H27.4811H27.4031H27.325H27.2468H27.1685H27.0901H27.0117H26.9331H26.8545H26.7757H26.6969H26.618H26.5391H26.46H26.3809H26.3017H26.2224H26.1431H26.0636H25.9842H25.9046H25.825H25.7453H25.6656H25.5858H25.506H25.4261H25.3462H25.2662H25.1861H25.106H25.0259H24.9457H24.8655H24.7853H24.705H24.6247H24.5443H24.4639H24.3835H24.3031H24.2226H24.1421H24.0616H23.9811H23.9006H23.82H23.7395H23.6589H23.5783H23.4977H23.4171H23.3365H23.2559H23.1753H23.0947H23.0141H22.9335H22.8529H22.7723H22.6918H22.6112H22.5307H22.4502H22.3697H22.2892H22.2088H22.1283H22.0479H21.9676H21.8872H21.8069H21.7267H21.6464H21.5662H21.4861H21.406H21.3259H21.2459H21.1659H21.086H21.0061H20.9263H20.8466H20.7669H20.6872H20.6076H20.5281H20.4487H20.3693H20.29H20.2107H20.1316H20.0525H19.9735H19.8945H19.8157H19.7369H19.6582H19.5796H19.5011H19.4227H19.3443H19.2661H19.1879H19.1099H19.032H18.9541H18.8764H18.7987H18.7212H18.6438H18.5665H18.4893H18.4122H18.3353H18.2584H18.1817H18.1051H18.0287H17.9523H17.8761H17.8H17.7241H17.6482H17.5726H17.497H17.4216H17.3464H17.2712H17.1963H17.1214H17.0468H16.9723H16.8979H16.8237H16.7496H16.6757H16.602H16.5284H16.455H16.3818H16.3087H16.2358H16.1631H16.0905H16.0181H15.9459H15.8739H15.8021H15.7304H15.659H15.5877H15.5166H15.4457H15.375H15.3045H15.2342H15.1641H15.0942H15.0245H14.955H14.8857H14.8166H14.7477H14.6791H14.6106H14.5424H14.4744H14.4066H14.339H14.2717H14.2046H14.1377H14.071H14.0046H13.9384H13.8725H13.8068H13.7413H13.676H13.6111H13.5463H13.4818H13.4176H13.3536H13.2898H13.2263H13.1631H13.1001H13.0374H12.9749H12.9128H12.8508H12.7892H12.7278H12.6667H12.6059H12.5453H12.485H12.425H12.3653H12.3059H12.2467H12.1878H12.1293H12.071H12.013H11.9553H11.8979H11.8408H11.784H11.7275H11.6713H11.6154H11.5599H11.5046H11.4496H11.395H11.3407H11.2867H11.233H11.1796H11.1266H11.0739H11.0215H10.9695H10.9177H10.8663H10.8153H10.7646H10.7142H10.6642H10.6145H10.5651H10.5161H10.4675H10.4192H10.3712H10.3236H10.2764H10.2295H10.183H10.1368H10.091H10.0456H10.0005H9.95583H9.91151H9.86757H9.824H9.78081H9.73799H9.69556H9.65351H9.61185H9.57058H9.52969H9.48919H9.44909H9.40938H9.37007H9.33116H9.29265H9.25453H9.21683H9.17953H9.14264H9.10615H9.07009H9.03443H8.99919H8.96437H8.92996H8.89598H8.86242H8.82929H8.79658H8.76431H8.73246H8.70105H8.67007H8.63953H8.60943H8.57977H8.55055H8.52177H8.49344H8.46556H8.43813H8.41116H8.38463H8.35857H8.33296H8.30781H8.28312H8.25889H8.23513H8.21184H8.18902H8.16667H8.14479H8.12339H8.10246H8.08201H8.06205H8.04256H8.02356H8.00505H7.98703H7.96949H7.95245H7.9359H7.91985H7.9043H7.88925H7.8747H7.86065H7.84711H7.83407H7.82155H7.80954H7.79804H7.78705H7.77658H7.76664H7.75721H7.7483H7.73992H7.73207H7.72475H7.72005C7.71002 12.2719 7.6988 12.271 7.68641 12.2701C7.63642 12.2663 7.56731 12.262 7.48177 12.2589C7.31106 12.2528 7.07277 12.2514 6.7889 12.2692C6.22662 12.3044 5.45662 12.4167 4.67179 12.7371C3.88078 13.06 3.05862 13.6019 2.43865 14.4977C1.81685 15.3962 1.44541 16.583 1.44541 18.1145V18.1469V18.1793V18.2118V18.2443V18.2769V18.3095V18.3421V18.3747V18.4074V18.4401V18.4729V18.5057V18.5385V18.5713V18.6042V18.6371V18.67V18.703V18.736V18.769V18.8021V18.8351V18.8682V18.9014V18.9345V18.9677V19.0009V19.0342V19.0674V19.1007V19.134V19.1673V19.2007V19.2341V19.2675V19.3009V19.3343V19.3678V19.4013V19.4348V19.4683V19.5019V19.5355V19.569V19.6027V19.6363V19.6699V19.7036V19.7373V19.771V19.8047V19.8384V19.8721V19.9059V19.9397V19.9735V20.0073V20.0411V20.0749V20.1087V20.1426V20.1765V20.2103V20.2442V20.2781V20.3121V20.346V20.3799V20.4138V20.4478V20.4818V20.5157V20.5497V20.5837V20.6177V20.6517V20.6857V20.7197V20.7537V20.7877V20.8218V20.8558V20.8898V20.9239V20.9579V20.9919V21.026V21.06V21.0941V21.1281V21.1622V21.1962V21.2303V21.2644V21.2984V21.3325V21.3665V21.4006V21.4346V21.4686V21.5027V21.5367V21.5708V21.6048V21.6388V21.6728V21.7069V21.7409V21.7749V21.8089V21.8429V21.8768V21.9108V21.9448V21.9788V22.0127V22.0467V22.0806V22.1145V22.1484V22.1823V22.2162V22.2501V22.284V22.3178V22.3517V22.3855V22.4193V22.4531V22.4869V22.5207V22.5544V22.5882V22.6219V22.6556V22.6893V22.723V22.7567V22.7903V22.8239V22.8576V22.8911V22.9247V22.9583V22.9918V23.0253V23.0588V23.0923V23.1257V23.1591V23.1926V23.2259V23.2593V23.2926V23.3259V23.3592V23.3925V23.4257V23.4589V23.4921V23.5253V23.5584V23.5915V23.6246V23.6577V23.6907V23.7237V23.7566V23.7896V23.8225V23.8554V23.8882V23.921V23.9538V23.9866V24.0193V24.052V24.0846V24.1173V24.1499V24.1824V24.2149V24.2474V24.2799V24.3123V24.3447V24.377V24.4093V24.4416V24.4738V24.506V24.5382V24.5703V24.6024V24.6344V24.6665V24.6984V24.7303V24.7622V24.7941V24.8259V24.8576V24.8893V24.921V24.9526V24.9842V25.0158V25.0473V25.0787V25.1101V25.1415V25.1728V25.2041V25.2353V25.2665V25.2976V25.3287V25.3597V25.3907V25.4216V25.4525V25.4833V25.5141V25.5449V25.5755V25.6062V25.6368V25.6673V25.6978V25.7282V25.7586V25.7889V25.8191V25.8494V25.8795V25.9096V25.9396V25.9696V25.9996V26.0294V26.0593V26.089V26.1187V26.1484V26.178V26.2075V26.2369V26.2664V26.2957V26.325V26.3542V26.3834V26.4125V26.4415V26.4705V26.4994V26.5283V26.5571V26.5858V26.6144V26.643V26.6716V26.7V26.7284V26.7568V26.785V26.8132V26.8413V26.8694V26.8974V26.9253V26.9532V26.981V27.0087V27.0363V27.0639V27.0914V27.1189V27.1462V27.1735V27.2007V27.2279V27.2549V27.2819V27.3089V27.3357V27.3625V27.3892V27.4158V27.4423V27.4688V27.4952V27.5215V27.5478V27.5739V27.6V27.626V27.6519V27.6778V27.7035V27.7292V27.7548V27.7804V27.8058V27.8312V27.8564V27.8816V27.9067V27.9318V27.9567V27.9816V28.0063V28.031V28.0556V28.0802V28.1046V28.1289V28.1532V28.1774V28.2015V28.2255V28.2494V28.2732V28.2969V28.3206V28.3441V28.3676V28.3909V28.4142V28.4374V28.4605V28.4835V28.5064V28.5292V28.552V28.5746V28.5971V28.6196V28.6419V28.6642V28.6863V28.7084V28.7303V28.7522V28.774V28.7956V28.8172V28.8387V28.8601V28.8813V28.9025V28.9236V28.9446V28.9654V28.9862V29.0069V29.0274V29.0479V29.0683V29.0885V29.1087V29.1288V29.1487V29.1685V29.1883V29.2079V29.2274V29.2469V29.2662V29.2854V29.3045V29.3235V29.3424V29.3612V29.3798V29.3984V29.4168V29.4352V29.4534V29.4715V29.4895V29.5074V29.5252V29.5429V29.5604V29.5779V29.5952V29.6124V29.6295V29.6465V29.6634V29.6801V29.6968V29.7133V29.7297V29.746V29.7622V29.7782V29.7941V29.81V29.8257V29.8412V29.8567V29.872V29.8873V29.9024V29.9173V29.9322V29.9469V29.9615V29.976V29.9904V30.0046V30.0187V30.0327V30.0466V30.0603V30.074V30.0875V30.1008V30.114V30.1272V30.1401V30.153V30.1657V30.1783V30.1908V30.2031V30.2153V30.2274V30.2394V30.2512V30.2629V30.2744V30.2858V30.2971V30.3083V30.3193V30.3302V30.341V30.3516V30.3621V30.3724V30.3826V30.3927V30.4026V30.4125V30.4221V30.4317V30.441V30.4503V30.4594V30.4684V30.4772V30.4859V30.4945V30.5029V30.5112V30.5193V30.5273V30.5351V30.5429V30.5504V30.5578V30.5651V30.5722V30.5792V30.5861V30.5928V30.5993V30.6057V30.612V30.6181V30.6241V30.6299V30.6356V30.6411V30.6464V30.6517V30.6567V30.6617V30.6664V30.6711V30.6755Z" fill="url(#paint0_linear)" stroke="black" stroke-width="1.8"/>
<path d="M37.6711 13.1728C31.9466 13.1728 7.67853 13.1728 7.67853 13.1728C7.67853 13.1728 2.34543 12.5856 2.34543 18.1145C2.34543 23.6433 2.34543 30.7378 2.34543 30.7378C2.34543 30.7378 1.80723 34.0159 4.79181 36.4623C7.77639 38.9087 8.5103 39.3001 8.5103 39.3001C8.5103 39.3001 9.58671 40.8658 13.1095 40.8658C16.6323 40.8658 37.1329 40.8658 37.1329 40.8658C37.1329 40.8658 42.6617 41.7954 42.6617 35.0923V19.2398C42.6617 19.2398 43.3956 13.1728 37.6711 13.1728ZM8.75494 22.4201L13.6477 17.5273C14.0391 17.1359 14.6262 17.1359 15.0177 17.5273C15.4091 17.9187 15.4091 18.5059 15.0177 18.8973L10.1249 23.7901C9.9292 23.9858 9.68456 24.0836 9.43992 24.0836C9.19529 24.0836 8.95065 23.9858 8.75494 23.7901C8.36352 23.4476 8.36352 22.8115 8.75494 22.4201ZM9.14636 31.6674C8.95065 31.8631 8.70601 31.961 8.46137 31.961C8.21673 31.961 7.9721 31.8631 7.77639 31.6674C7.38497 31.276 7.38497 30.6888 7.77639 30.2974L20.4975 17.5763C20.889 17.1848 21.4761 17.1848 21.8675 17.5763C22.2589 17.9677 22.2589 18.5548 21.8675 18.9462L9.14636 31.6674ZM16.2898 31.961C16.0451 31.961 15.8005 31.8631 15.6048 31.6674C15.2134 31.276 15.2134 30.6888 15.6048 30.2974L28.326 17.5763C28.7174 17.1848 29.3045 17.1848 29.6959 17.5763C30.0873 17.9677 30.0873 18.5548 29.6959 18.9462L16.9748 31.6674C16.828 31.8631 16.5344 31.961 16.2898 31.961ZM37.0351 26.7746L32.1423 31.6674C31.9466 31.8631 31.702 31.961 31.4573 31.961C31.2127 31.961 30.968 31.8631 30.7723 31.6674C30.3809 31.276 30.3809 30.6888 30.7723 30.2974L35.6651 25.4047C36.0565 25.0132 36.6436 25.0132 37.0351 25.4047C37.4265 25.7961 37.4265 26.3832 37.0351 26.7746ZM37.5243 18.9462L24.8032 31.6674C24.6075 31.8631 24.3628 31.961 24.1182 31.961C23.8735 31.961 23.6289 31.8631 23.4332 31.6674C23.0418 31.276 23.0418 30.6888 23.4332 30.2974L36.1544 17.5763C36.5458 17.1848 37.1329 17.1848 37.5243 17.5763C37.9158 17.9677 37.9158 18.5548 37.5243 18.9462Z" fill="url(#paint1_linear)"/>
<path d="M22.334 0.221028L15.3137 7.11677H20.3121H24.3748H29.3732L22.334 0.221028Z" fill="white"/>
</g>
<defs>
<linearGradient id="paint0_linear" x1="22.5" y1="13.1548" x2="22.5" y2="40.9096" gradientUnits="userSpaceOnUse">
<stop stop-color="#1F2425"/>
<stop offset="1" stop-color="#555757"/>
</linearGradient>
<linearGradient id="paint1_linear" x1="22.5" y1="13.1548" x2="22.5" y2="40.9096" gradientUnits="userSpaceOnUse">
<stop stop-color="#6A7376"/>
<stop offset="1" stop-color="#E8E6E7"/>
</linearGradient>
<clipPath id="clip0">
<rect width="45" height="43" fill="white"/>
</clipPath>
</defs>
</svg>
