<svg width="77" height="51" viewBox="0 0 77 51" fill="none" xmlns="http://www.w3.org/2000/svg">
<path d="M72.0977 0H13.5479H8.07467H5.57456H4.69615H3.61502C3.2096 2.02711 2.02711 3.24338 0 3.31095V25.9133L1.28384 25.9471L11.3856 50.6778H63.2797H64.5636L74.7667 25.9471H76.0505V3.37852C74.1586 3.2096 72.5031 2.02711 72.0977 0Z" fill="#4D4D4D"/>
<path d="M71.8274 0.67572H13.7506H8.34494H5.84484H4.96642H3.88529C3.51366 2.02713 2.33117 3.9191 0.337845 3.95289V26.0146H1.48654L11.6221 50.0021H63.077H64.3608L74.5978 26.0146H75.7127V3.98667C73.8545 3.85153 72.2328 2.02713 71.8274 0.67572Z" fill="url(#paint0_linear)"/>
<path d="M18.6494 44.7993C18.6494 45.8466 17.8048 46.6912 16.7575 46.6912C15.7101 46.6912 14.8655 45.8466 14.8655 44.7993C14.8655 43.7519 15.7101 42.9073 16.7575 42.9073C17.8048 42.9073 18.6494 43.7519 18.6494 44.7993Z" fill="#333333"/>
<path d="M57.2997 44.7993C57.2997 45.8466 58.1444 46.6912 59.1917 46.6912C60.2391 46.6912 61.0837 45.8466 61.0837 44.7993C61.0837 43.7519 60.2391 42.9073 59.1917 42.9073C58.1444 42.9073 57.2997 43.7519 57.2997 44.7993Z" fill="#333333"/>
<path d="M17.0615 46.3871C16.0142 46.3871 15.1696 45.5425 15.1696 44.4952C15.1696 44.056 15.3385 43.6505 15.575 43.3127C15.1358 43.6505 14.8655 44.1911 14.8655 44.7992C14.8655 45.8466 15.7101 46.6912 16.7575 46.6912C17.3656 46.6912 17.9062 46.4209 18.244 45.9817C17.9062 46.2182 17.5007 46.3871 17.0615 46.3871Z" fill="#B1B1B1"/>
<path d="M59.4958 46.3871C58.4484 46.3871 57.6038 45.5425 57.6038 44.4952C57.6038 44.056 57.7727 43.6505 58.0092 43.3127C57.57 43.6505 57.2997 44.1911 57.2997 44.7992C57.2997 45.8466 58.1444 46.6912 59.1917 46.6912C59.7998 46.6912 60.3404 46.4209 60.6783 45.9817C60.3742 46.2182 59.935 46.3871 59.4958 46.3871Z" fill="#B1B1B1"/>
<path d="M7.7706 5.00025C7.7706 5.70974 7.19625 6.28409 6.48676 6.28409C5.77727 6.28409 5.23671 5.70974 5.23671 5.00025C5.23671 4.29076 5.81106 3.7502 6.48676 3.7502C7.19625 3.71641 7.7706 4.29076 7.7706 5.00025Z" fill="#333333"/>
<path d="M68.1786 5.00025C68.1786 5.70974 68.7529 6.28409 69.4286 6.28409C70.1381 6.28409 70.7125 5.70974 70.7125 5.00025C70.7125 4.29076 70.1381 3.7502 69.4286 3.7502C68.7191 3.71641 68.1786 4.29076 68.1786 5.00025Z" fill="#333333"/>
<path d="M6.82462 5.94624C6.11513 5.94624 5.54078 5.37189 5.54078 4.69618C5.54078 4.4259 5.64213 4.18941 5.77727 3.98669C5.43942 4.22319 5.23671 4.59483 5.23671 5.03404C5.23671 5.74353 5.81106 6.31787 6.48676 6.31787C6.92597 6.31787 7.29761 6.11516 7.5341 5.77731C7.33139 5.84488 7.0949 5.94624 6.82462 5.94624Z" fill="#979797"/>
<path d="M69.7327 5.94624C69.0232 5.94624 68.4826 5.37189 68.4826 4.69618C68.4826 4.4259 68.584 4.18941 68.7191 3.98669C68.3813 4.22319 68.1786 4.59483 68.1786 5.03404C68.1786 5.74353 68.7529 6.31787 69.4286 6.31787C69.8678 6.31787 70.2395 6.11516 70.476 5.77731C70.2733 5.84488 70.003 5.94624 69.7327 5.94624Z" fill="#979797"/>
<path d="M10.2707 36.015C10.1356 36.015 10.0342 36.015 9.89907 35.9812C9.05444 35.7785 8.51387 34.9339 8.71659 34.0893L13.683 12.9059C13.8857 12.0613 14.7304 11.5207 15.575 11.7234C16.4196 11.9261 16.9602 12.7708 16.7575 13.6154L11.8248 34.7987C11.6559 35.5082 11.014 36.015 10.2707 36.015Z" fill="#262626"/>
<path d="M16.6561 39.9341C16.521 39.9341 16.4196 39.9341 16.2845 39.9003C15.4398 39.6976 14.8993 38.853 15.102 38.0083L20.9806 12.9059C21.1833 12.0613 22.028 11.5207 22.8726 11.7234C23.7172 11.9261 24.2578 12.7708 24.0551 13.6154L18.1764 38.7178C18.0075 39.4273 17.3656 39.9341 16.6561 39.9341Z" fill="#262626"/>
<path d="M22.501 45.9817C22.3658 45.9817 22.2645 45.9817 22.1293 45.9479C21.2847 45.7452 20.7441 44.9006 20.9468 44.0559L28.2444 12.8722C28.4472 12.0275 29.2918 11.487 30.1364 11.6897C30.9811 11.8924 31.5216 12.737 31.3189 13.5817L24.0213 44.7654C23.8862 45.5087 23.2442 45.9817 22.501 45.9817Z" fill="#262626"/>
<path d="M29.7986 45.9817C29.6634 45.9817 29.5621 45.9817 29.4269 45.9479C28.5823 45.7452 28.0417 44.9006 28.2444 44.0559L35.5421 12.8722C35.7448 12.0275 36.5894 11.487 37.434 11.6897C38.2787 11.8924 38.8192 12.737 38.6165 13.5817L31.3189 44.7654C31.1838 45.5087 30.5081 45.9817 29.7986 45.9817Z" fill="#262626"/>
<path d="M37.0962 45.9817C36.961 45.9817 36.8597 45.9817 36.7245 45.9479C35.8799 45.7452 35.3393 44.9006 35.5421 44.0559L42.8397 12.8722C43.0424 12.0275 43.887 11.487 44.7316 11.6897C45.5763 11.8924 46.1168 12.737 45.9141 13.5817L38.6165 44.7654C38.4476 45.5087 37.8057 45.9817 37.0962 45.9817Z" fill="#262626"/>
<path d="M44.36 45.9817C44.2248 45.9817 44.1235 45.9817 43.9883 45.9479C43.1437 45.7452 42.6032 44.9006 42.8059 44.0559L50.1035 12.8722C50.3062 12.0275 51.1508 11.487 51.9954 11.6897C52.8401 11.8924 53.3806 12.737 53.1779 13.5817L45.8803 44.7654C45.7452 45.5087 45.1033 45.9817 44.36 45.9817Z" fill="#262626"/>
<path d="M51.6576 45.9817C51.5225 45.9817 51.4211 45.9817 51.286 45.9479C50.4413 45.7452 49.9008 44.9006 50.1035 44.0559L57.4011 12.8722C57.6038 12.0275 58.4484 11.487 59.2931 11.6897C60.1377 11.8924 60.6783 12.737 60.4755 13.5817L53.1779 44.7654C53.009 45.5087 52.3671 45.9817 51.6576 45.9817Z" fill="#262626"/>
<path d="M60.3742 39.9341C60.239 39.9341 60.1377 39.9341 60.0026 39.9003C59.1579 39.6976 58.6174 38.853 58.8201 38.0083L64.6987 12.9059C64.9014 12.0613 65.746 11.5207 66.5907 11.7234C67.4353 11.9261 67.9759 12.7708 67.7732 13.6154L61.8945 38.7178C61.7256 39.4273 61.0837 39.9341 60.3742 39.9341Z" fill="#262626"/>
<path d="M10.2707 36.015C10.1356 36.015 10.0342 36.015 9.89907 35.9812C9.05444 35.7785 8.51387 34.9339 8.71659 34.0893L13.683 12.9059C13.8857 12.0613 14.7304 11.5207 15.575 11.7234C16.4196 11.9261 16.9602 12.7708 16.7575 13.6154L11.8248 34.7987C11.6559 35.5082 11.014 36.015 10.2707 36.015Z" fill="#333333"/>
<path d="M16.6561 39.9341C16.521 39.9341 16.4196 39.9341 16.2845 39.9003C15.4398 39.6976 14.8993 38.853 15.102 38.0083L20.9806 12.9059C21.1833 12.0613 22.028 11.5207 22.8726 11.7234C23.7172 11.9261 24.2578 12.7708 24.0551 13.6154L18.1764 38.7178C18.0075 39.4273 17.3656 39.9341 16.6561 39.9341Z" fill="#333333"/>
<path d="M22.501 45.9817C22.3658 45.9817 22.2645 45.9817 22.1293 45.9479C21.2847 45.7452 20.7441 44.9006 20.9468 44.0559L28.2444 12.8722C28.4472 12.0275 29.2918 11.487 30.1364 11.6897C30.9811 11.8924 31.5216 12.737 31.3189 13.5817L24.0213 44.7654C23.8862 45.5087 23.2442 45.9817 22.501 45.9817Z" fill="#333333"/>
<path d="M29.7986 45.9817C29.6634 45.9817 29.5621 45.9817 29.4269 45.9479C28.5823 45.7452 28.0417 44.9006 28.2444 44.0559L35.5421 12.8722C35.7448 12.0275 36.5894 11.487 37.434 11.6897C38.2787 11.8924 38.8192 12.737 38.6165 13.5817L31.3189 44.7654C31.1838 45.5087 30.5081 45.9817 29.7986 45.9817Z" fill="#333333"/>
<path d="M37.0962 45.9817C36.961 45.9817 36.8597 45.9817 36.7245 45.9479C35.8799 45.7452 35.3393 44.9006 35.5421 44.0559L42.8397 12.8722C43.0424 12.0275 43.887 11.487 44.7316 11.6897C45.5763 11.8924 46.1168 12.737 45.9141 13.5817L38.6165 44.7654C38.4476 45.5087 37.8057 45.9817 37.0962 45.9817Z" fill="#333333"/>
<path d="M44.36 45.9817C44.2248 45.9817 44.1235 45.9817 43.9883 45.9479C43.1437 45.7452 42.6032 44.9006 42.8059 44.0559L50.1035 12.8722C50.3062 12.0275 51.1508 11.487 51.9954 11.6897C52.8401 11.8924 53.3806 12.737 53.1779 13.5817L45.8803 44.7654C45.7452 45.5087 45.1033 45.9817 44.36 45.9817Z" fill="#333333"/>
<path d="M51.6576 45.9817C51.5225 45.9817 51.4211 45.9817 51.286 45.9479C50.4413 45.7452 49.9008 44.9006 50.1035 44.0559L57.4011 12.8722C57.6038 12.0275 58.4484 11.487 59.2931 11.6897C60.1377 11.8924 60.6783 12.737 60.4755 13.5817L53.1779 44.7654C53.009 45.5087 52.3671 45.9817 51.6576 45.9817Z" fill="#333333"/>
<path d="M60.3742 39.9341C60.239 39.9341 60.1377 39.9341 60.0026 39.9003C59.1579 39.6976 58.6174 38.853 58.8201 38.0083L64.6987 12.9059C64.9014 12.0613 65.746 11.5207 66.5907 11.7234C67.4353 11.9261 67.9759 12.7708 67.7732 13.6154L61.8945 38.7178C61.7256 39.4273 61.0837 39.9341 60.3742 39.9341Z" fill="#333333"/>
<defs>
<linearGradient id="paint0_linear" x1="38.0079" y1="50.0021" x2="38.0079" y2="0.67572" gradientUnits="userSpaceOnUse">
<stop stop-color="#4A494A"/>
<stop offset="0.0438831" stop-color="#615F61"/>
<stop offset="0.1027" stop-color="#7B787B"/>
<stop offset="0.1382" stop-color="#848184"/>
<stop offset="0.2112" stop-color="#B8B4B8"/>
<stop offset="0.2491" stop-color="#CECACE"/>
<stop offset="0.7439" stop-color="#CECECE"/>
<stop offset="0.8072" stop-color="#A8A7A8"/>
<stop offset="0.8997" stop-color="#737173"/>
<stop offset="0.9302" stop-color="#6F6D6F"/>
<stop offset="0.9631" stop-color="#626062"/>
<stop offset="0.997" stop-color="#4C4B4C"/>
<stop offset="1" stop-color="#4A494A"/>
</linearGradient>
</defs>
</svg>
