<svg width="97" height="59" viewBox="0 0 97 59" fill="none" xmlns="http://www.w3.org/2000/svg">
<g clip-path="url(#clip0)">
<path opacity="0.502" d="M4.13755 17.6H2.83755C2.73755 17.6 2.63755 17.6 2.53755 17.7C2.43755 17.7 2.33755 17.8 2.23755 17.9C2.13755 17.8 2.03755 17.9 2.03755 18C1.93755 18.1 1.93755 18.2 1.93755 18.3L1.73755 19.4C1.73755 19.5 1.73755 19.6 1.73755 19.7C1.73755 19.8 1.83755 19.9 1.93755 19.9C2.03755 20 2.13755 20 2.13755 20.1C2.23755 20.1 2.33755 20.2 2.43755 20.2H3.83755C3.93755 20.2 4.03755 20.2 4.13755 20.1C4.23755 20.1 4.33755 20 4.43755 19.9C4.53755 19.8 4.63755 19.8 4.63755 19.7C4.73755 19.6 4.73755 19.5 4.73755 19.4L4.83755 18.3C4.83755 18.2 4.83755 18.1 4.83755 18C4.83755 17.9 4.73755 17.8 4.63755 17.8C4.53755 17.7 4.43755 17.7 4.43755 17.6C4.33755 17.6 4.23755 17.6 4.13755 17.6Z" fill="#FEEB20"/>
<path opacity="0.502" d="M92.9375 17.6H91.5375C91.4375 17.6 91.3375 17.6 91.2375 17.7C91.1375 17.7 91.0375 17.8 91.0375 17.9C90.9375 18 90.9375 18 90.8375 18.1C90.8375 18.2 90.8375 18.3 90.8375 18.4L90.9375 19.5C90.9375 19.6 90.9375 19.7 91.0375 19.8C91.1375 19.9 91.1375 20 91.2375 20C91.3375 20.1 91.4375 20.1 91.5375 20.2C91.6375 20.2 91.7375 20.3 91.8375 20.3H93.2375C93.3375 20.3 93.4375 20.3 93.5375 20.2C93.6375 20.2 93.7375 20.1 93.7375 20C93.8375 19.9 93.8375 19.9 93.9375 19.8C93.9375 19.7 93.9375 19.6 93.9375 19.5L93.8375 18.4C93.8375 18.3 93.8375 18.2 93.7375 18.1C93.6375 18 93.6375 17.9 93.5375 17.9C93.4375 17.8 93.3375 17.8 93.2375 17.7C93.1375 17.6 93.0375 17.6 92.9375 17.6Z" fill="#FEEB20"/>
<path d="M75.9376 24.3C75.8376 24.3 75.6376 24.3 75.5376 24.3C75.4376 24.3 75.3376 24.4 75.1376 24.4C75.0376 24.4 74.9376 24.5 74.8376 24.6C74.7376 24.7 74.6376 24.7 74.5376 24.8L64.9376 33.5C64.7376 33.7 64.6376 33.9 64.5376 34.1C64.4376 34.3 64.4376 34.5 64.4376 34.8C64.4376 35 64.5376 35.3 64.6376 35.5C64.7376 35.7 64.9376 35.9 65.1376 36.1C65.2376 36.2 65.3376 36.3 65.4376 36.3C65.5376 36.4 65.6376 36.4 65.8376 36.5C65.9376 36.5 66.1376 36.6 66.2376 36.6C66.3376 36.6 66.5376 36.6 66.6376 36.6C66.7376 36.6 66.9376 36.6 67.0376 36.6C67.1376 36.6 67.3376 36.5 67.4376 36.5C67.5376 36.5 67.6376 36.4 67.7376 36.3C67.8376 36.2 67.9376 36.2 68.0376 36.1L77.6376 27.3C77.8376 27.1 77.9376 26.9 78.0376 26.7C78.1376 26.5 78.1376 26.3 78.1376 26.1C78.1376 25.9 78.0376 25.7 77.9376 25.5C77.8376 25.3 77.6376 25.1 77.4376 24.9C77.3376 24.8 77.2376 24.7 77.1376 24.7C77.0376 24.6 76.9376 24.6 76.7376 24.5C76.6376 24.5 76.5376 24.4 76.3376 24.4C76.1376 24.3 76.0376 24.3 75.9376 24.3ZM31.8376 11.1C31.7376 11.1 31.6376 11.1 31.4376 11.1C31.3376 11.1 31.2376 11.1 31.0376 11.2C30.9376 11.2 30.8376 11.3 30.7376 11.3C30.6376 11.4 30.5376 11.4 30.4376 11.5L20.2376 19.7C20.0376 19.9 19.8376 20.1 19.7376 20.3C19.6376 20.5 19.5376 20.7 19.5376 20.9C19.5376 21.1 19.5376 21.3 19.6376 21.5C19.7376 21.7 19.8376 21.9 20.0376 22.1C20.1376 22.2 20.2376 22.3 20.3376 22.3C20.4376 22.4 20.5376 22.4 20.6376 22.5C20.7376 22.5 20.8376 22.6 21.0376 22.6C21.1376 22.6 21.2376 22.6 21.4376 22.6C21.5376 22.6 21.7376 22.6 21.8376 22.6C21.9376 22.6 22.1376 22.5 22.2376 22.5C22.3376 22.5 22.4376 22.4 22.6376 22.3C22.7376 22.2 22.8376 22.2 22.9376 22.1L33.0376 13.9C33.2376 13.7 33.3376 13.6 33.4376 13.4C33.5376 13.2 33.6376 13 33.6376 12.8C33.6376 12.6 33.6376 12.4 33.5376 12.2C33.4376 12 33.3376 11.8 33.1376 11.7C33.0376 11.6 32.9376 11.6 32.8376 11.5C32.7376 11.4 32.6376 11.4 32.5376 11.4C32.4376 11.4 32.3376 11.3 32.1376 11.3C32.0376 11.1 31.9376 11.1 31.8376 11.1ZM45.2376 11.1C45.1376 11.1 45.0376 11.1 44.8376 11.1C44.7376 11.1 44.6376 11.1 44.4376 11.2C44.3376 11.2 44.2376 11.3 44.1376 11.3C44.0376 11.4 43.9376 11.4 43.8376 11.5L17.3376 33.5C17.1376 33.7 16.9376 33.9 16.8376 34.1C16.7376 34.3 16.6376 34.5 16.6376 34.8C16.6376 35 16.6376 35.3 16.7376 35.5C16.8376 35.7 16.9376 35.9 17.1376 36.1C17.2376 36.2 17.3376 36.3 17.4376 36.3C17.5376 36.4 17.6376 36.4 17.7376 36.5C17.8376 36.5 17.9376 36.6 18.1376 36.6C18.2376 36.6 18.4376 36.6 18.5376 36.6C18.6376 36.6 18.8376 36.6 18.9376 36.6C19.0376 36.6 19.2376 36.5 19.3376 36.5C19.4376 36.5 19.5376 36.4 19.7376 36.3C19.8376 36.2 19.9376 36.2 20.0376 36.1L46.6376 13.9C46.8376 13.7 46.9376 13.6 47.0376 13.4C47.1376 13.2 47.1376 13 47.1376 12.8C47.1376 12.6 47.1376 12.4 47.0376 12.2C46.9376 12 46.8376 11.8 46.6376 11.7C46.5376 11.6 46.4376 11.6 46.3376 11.5C46.2376 11.4 46.1376 11.4 46.0376 11.4C45.9376 11.4 45.8376 11.3 45.6376 11.3C45.5376 11.1 45.3376 11.1 45.2376 11.1ZM60.6376 11.1C60.5376 11.1 60.4376 11.1 60.2376 11.1C60.1376 11.1 60.0376 11.1 59.8376 11.2C59.7376 11.2 59.6376 11.3 59.5376 11.3C59.4376 11.4 59.3376 11.4 59.2376 11.5L33.5376 33.5C33.3376 33.7 33.1376 33.9 33.0376 34.1C32.9376 34.3 32.8376 34.5 32.8376 34.8C32.8376 35 32.8376 35.3 32.9376 35.5C33.0376 35.7 33.1376 35.9 33.3376 36.1C33.4376 36.2 33.5376 36.3 33.6376 36.3C33.7376 36.4 33.8376 36.4 34.0376 36.5C34.1376 36.5 34.2376 36.6 34.4376 36.6C34.5376 36.6 34.7376 36.6 34.8376 36.6C34.9376 36.6 35.1376 36.6 35.2376 36.6C35.3376 36.6 35.5376 36.5 35.6376 36.5C35.7376 36.5 35.8376 36.4 36.0376 36.3C36.1376 36.2 36.2376 36.2 36.3376 36.1L62.0376 13.9C62.2376 13.7 62.3376 13.6 62.4376 13.4C62.5376 13.2 62.5376 13 62.5376 12.8C62.5376 12.6 62.4376 12.4 62.3376 12.2C62.2376 12 62.1376 11.8 61.9376 11.7C61.8376 11.6 61.7376 11.6 61.6376 11.5C61.5376 11.4 61.4376 11.4 61.3376 11.4C61.2376 11.4 61.1376 11.3 60.9376 11.3C60.8376 11.1 60.7376 11.1 60.6376 11.1ZM75.9376 11.1C75.8376 11.1 75.7376 11.1 75.5376 11.1C75.4376 11.1 75.3376 11.1 75.2376 11.2C75.1376 11.2 75.0376 11.3 74.9376 11.3C74.8376 11.4 74.7376 11.4 74.6376 11.5L49.7376 33.5C49.5376 33.7 49.4376 33.9 49.3376 34.1C49.2376 34.3 49.2376 34.5 49.2376 34.8C49.2376 35 49.3376 35.3 49.4376 35.5C49.5376 35.7 49.7376 35.9 49.9376 36.1C50.0376 36.2 50.1376 36.3 50.2376 36.3C50.3376 36.4 50.4376 36.4 50.6376 36.5C50.7376 36.5 50.8376 36.6 51.0376 36.6C51.1376 36.6 51.3376 36.6 51.4376 36.6C51.5376 36.6 51.7376 36.6 51.8376 36.6C51.9376 36.6 52.1376 36.5 52.2376 36.5C52.3376 36.5 52.4376 36.4 52.6376 36.3C52.7376 36.2 52.8376 36.2 52.9376 36.1L77.8376 13.9C78.0376 13.7 78.1376 13.6 78.2376 13.4C78.3376 13.2 78.3376 13 78.3376 12.8C78.3376 12.6 78.2376 12.4 78.1376 12.2C78.0376 12 77.8376 11.8 77.6376 11.7C77.5376 11.6 77.4376 11.6 77.3376 11.5C77.2376 11.4 77.1376 11.4 77.0376 11.4C76.9376 11.4 76.8376 11.3 76.6376 11.3C76.2376 11.1 76.0376 11.1 75.9376 11.1Z" fill="black"/>
<path d="M66.5375 36.6C66.4375 36.6 66.2375 36.6 66.1375 36.6C66.0375 36.6 65.8375 36.5 65.7375 36.5C65.6375 36.5 65.5375 36.4 65.3375 36.3C65.2375 36.2 65.1375 36.2 65.0375 36.1C64.8375 35.9 64.6375 35.7 64.5375 35.5C64.4375 35.3 64.3375 35.1 64.3375 34.8C64.3375 34.6 64.3375 34.3 64.4375 34.1C64.5375 33.9 64.6375 33.7 64.8375 33.5L74.4375 24.8C74.5375 24.7 74.6375 24.6 74.7375 24.6C74.8375 24.5 74.9375 24.5 75.0375 24.4C75.1375 24.4 75.2375 24.3 75.4375 24.3C75.5375 24.3 75.6375 24.3 75.8375 24.3C75.9375 24.3 76.1375 24.3 76.2375 24.3C76.3375 24.3 76.5375 24.4 76.6375 24.4C76.7375 24.4 76.8375 24.5 77.0375 24.6C77.1375 24.7 77.2375 24.7 77.3375 24.8C77.5375 25 77.7375 25.2 77.8375 25.4C77.9375 25.6 78.0375 25.8 78.0375 26C78.0375 26.2 78.0375 26.4 77.9375 26.6C77.8375 26.8 77.7375 27 77.5375 27.2L67.9375 36C67.8375 36.1 67.7375 36.2 67.6375 36.2C67.5375 36.3 67.4375 36.3 67.3375 36.4C67.2375 36.4 67.1375 36.5 66.9375 36.5C66.8375 36.6 66.6375 36.6 66.5375 36.6ZM21.4375 22.6C21.3375 22.6 21.1375 22.6 21.0375 22.6C20.9375 22.6 20.8375 22.5 20.6375 22.5C20.5375 22.5 20.4375 22.4 20.3375 22.3C20.2375 22.2 20.1375 22.2 20.0375 22.1C19.8375 21.9 19.7375 21.7 19.6375 21.5C19.5375 21.3 19.5375 21.1 19.5375 20.9C19.5375 20.7 19.6375 20.5 19.7375 20.3C19.8375 20.1 20.0375 19.9 20.2375 19.7L30.4375 11.5C30.5375 11.4 30.6375 11.4 30.7375 11.3C30.8375 11.2 30.9375 11.2 31.0375 11.2C31.1375 11.2 31.2375 11.1 31.4375 11.1C31.5375 11.1 31.6375 11.1 31.8375 11.1C31.9375 11.1 32.0375 11.1 32.2375 11.1C32.3375 11.1 32.4375 11.1 32.6375 11.2C32.7375 11.2 32.8375 11.3 32.9375 11.3C33.0375 11.4 33.1375 11.4 33.2375 11.5C33.4375 11.7 33.5375 11.8 33.6375 12C33.7375 12.2 33.7375 12.4 33.7375 12.6C33.7375 12.8 33.6375 13 33.5375 13.2C33.4375 13.4 33.3375 13.6 33.1375 13.7L22.9375 22C22.8375 22.1 22.7375 22.2 22.6375 22.2C22.5375 22.3 22.4375 22.3 22.2375 22.4C22.1375 22.4 22.0375 22.5 21.8375 22.5C21.7375 22.6 21.6375 22.6 21.4375 22.6ZM18.5375 36.6C18.4375 36.6 18.2375 36.6 18.1375 36.6C18.0375 36.6 17.8375 36.5 17.7375 36.5C17.6375 36.5 17.5375 36.4 17.4375 36.3C17.3375 36.2 17.2375 36.2 17.1375 36.1C16.9375 35.9 16.8375 35.7 16.7375 35.5C16.6375 35.3 16.6375 35.1 16.6375 34.8C16.6375 34.6 16.7375 34.3 16.8375 34.1C16.9375 33.9 17.1375 33.7 17.3375 33.5L43.9375 11.6C44.0375 11.5 44.1375 11.5 44.2375 11.4C44.3375 11.3 44.4375 11.3 44.5375 11.3C44.6375 11.3 44.7375 11.2 44.9375 11.2C45.0375 11.2 45.1375 11.2 45.3375 11.2C45.4375 11.2 45.5375 11.2 45.7375 11.2C45.8375 11.2 45.9375 11.2 46.1375 11.3C46.2375 11.3 46.3375 11.4 46.4375 11.4C46.5375 11.5 46.6375 11.5 46.7375 11.6C46.9375 11.8 47.0375 11.9 47.1375 12.1C47.2375 12.3 47.2375 12.5 47.2375 12.7C47.2375 12.9 47.2375 13.1 47.1375 13.3C47.0375 13.5 46.9375 13.7 46.7375 13.8L20.0375 36.1C19.9375 36.2 19.8375 36.3 19.7375 36.3C19.6375 36.4 19.5375 36.4 19.3375 36.5C19.2375 36.5 19.0375 36.6 18.9375 36.6C18.7375 36.6 18.6375 36.6 18.5375 36.6ZM34.8375 36.6C34.7375 36.6 34.5375 36.6 34.4375 36.6C34.3375 36.6 34.1375 36.5 34.0375 36.5C33.9375 36.5 33.8375 36.4 33.6375 36.3C33.5375 36.2 33.4375 36.2 33.3375 36.1C33.1375 35.9 33.0375 35.7 32.9375 35.5C32.8375 35.3 32.8375 35.1 32.8375 34.8C32.8375 34.6 32.9375 34.3 33.0375 34.1C33.1375 33.9 33.3375 33.7 33.5375 33.5L59.2375 11.6C59.3375 11.5 59.4375 11.5 59.5375 11.4C59.6375 11.3 59.7375 11.3 59.8375 11.3C59.9375 11.3 60.0375 11.2 60.2375 11.2C60.3375 11.2 60.4375 11.2 60.6375 11.2C60.7375 11.2 60.8375 11.2 61.0375 11.2C61.1375 11.2 61.2375 11.2 61.4375 11.3C61.5375 11.3 61.6375 11.4 61.7375 11.4C61.8375 11.5 61.9375 11.5 62.0375 11.6C62.2375 11.8 62.3375 11.9 62.4375 12.1C62.5375 12.3 62.6375 12.5 62.6375 12.7C62.6375 12.9 62.6375 13.1 62.5375 13.3C62.4375 13.5 62.3375 13.7 62.1375 13.8L36.3375 36.1C36.2375 36.2 36.1375 36.3 36.0375 36.3C35.9375 36.4 35.8375 36.4 35.6375 36.5C35.5375 36.5 35.3375 36.6 35.2375 36.6C35.1375 36.6 34.9375 36.6 34.8375 36.6ZM51.2375 36.6C51.1375 36.6 50.9375 36.6 50.8375 36.6C50.7375 36.6 50.5375 36.5 50.4375 36.5C50.3375 36.5 50.2375 36.4 50.0375 36.3C49.9375 36.2 49.8375 36.2 49.7375 36.1C49.5375 35.9 49.3375 35.7 49.2375 35.5C49.1375 35.3 49.0375 35.1 49.0375 34.8C49.0375 34.6 49.0375 34.3 49.1375 34.1C49.2375 33.9 49.3375 33.7 49.5375 33.5L74.4375 11.6C74.5375 11.5 74.6375 11.5 74.7375 11.4C74.8375 11.3 74.9375 11.3 75.0375 11.3C75.1375 11.3 75.2375 11.2 75.3375 11.2C75.4375 11.2 75.5375 11.2 75.7375 11.2C75.8375 11.2 75.9375 11.2 76.1375 11.2C76.2375 11.2 76.3375 11.2 76.5375 11.3C76.6375 11.3 76.7375 11.4 76.8375 11.4C76.9375 11.5 77.0375 11.5 77.1375 11.6C77.3375 11.8 77.5375 11.9 77.6375 12.1C77.7375 12.3 77.8375 12.5 77.8375 12.7C77.8375 12.9 77.8375 13.1 77.7375 13.3C77.6375 13.5 77.5375 13.7 77.3375 13.8L52.6375 36.1C52.5375 36.2 52.4375 36.3 52.3375 36.3C52.2375 36.4 52.1375 36.4 51.9375 36.5C51.8375 36.5 51.7375 36.6 51.5375 36.6C51.4375 36.6 51.3375 36.6 51.2375 36.6ZM18.3375 4.60001C17.7375 4.60001 16.8375 4.60001 15.8375 4.80001C14.8375 5.00001 13.7375 5.30001 12.6375 5.80001C11.5375 6.30001 10.5375 7.10001 9.73748 8.20001C8.93748 9.30001 8.33748 10.7 8.13748 12.6C7.93748 14.9 7.63748 17.4 7.43748 19.8C7.23748 22.3 6.93748 24.7 6.73748 26.9C6.53748 29.1 6.33748 31 6.23748 32.3C6.03748 33.6 5.93748 34.4 5.93748 34.4C5.93748 34.4 5.83748 34.8 5.73748 35.4C5.63748 36 5.63748 36.9 5.73748 38C5.83748 39.1 6.23748 40.3 6.83748 41.5C7.53748 42.7 8.43748 44 9.93748 45.2C11.4375 46.4 12.6375 47.3 13.6375 48C14.6375 48.7 15.3375 49.3 15.9375 49.7C16.5375 50.1 16.9375 50.3 17.1375 50.5C17.3375 50.6 17.4375 50.7 17.4375 50.7C17.4375 50.7 17.5375 50.9 17.8375 51.2C18.1375 51.5 18.6375 51.9 19.4375 52.3C20.1375 52.7 21.1375 53.1 22.4375 53.4C23.7375 53.7 25.2375 53.9 27.1375 53.9C29.0375 53.9 33.2375 53.9 38.5375 53.9C43.8375 53.9 50.0375 53.9 56.1375 53.9C62.2375 53.9 68.0375 53.9 72.2375 53.9C76.5375 53.9 79.3375 53.9 79.3375 53.9C79.3375 53.9 79.3375 53.9 79.4375 53.9C79.5375 53.9 79.6375 53.9 79.7375 53.9C79.8375 53.9 80.0375 53.9 80.2375 53.9C80.4375 53.9 80.6375 53.9 80.8375 53.9C81.6375 53.9 82.7375 53.8 83.8375 53.6C84.9375 53.3 86.1375 52.9 87.2375 52.1C88.2375 51.3 89.2375 50.2 89.7375 48.7C90.3375 47.2 90.5375 45.2 90.3375 42.7L87.6375 14.4C87.6375 14.4 87.6375 13.8 87.5375 12.8C87.4375 11.9 87.1375 10.6 86.4375 9.40001C85.8375 8.20001 84.8375 7.00001 83.3375 6.10001C81.8375 5.20001 79.8375 4.60001 77.0375 4.60001C74.2375 4.60001 69.2375 4.60001 63.3375 4.60001C57.4375 4.60001 50.5375 4.60001 43.9375 4.60001C37.3375 4.60001 31.2375 4.60001 26.6375 4.60001C22.0375 4.60001 19.1375 4.60001 19.1375 4.60001C19.1375 4.60001 19.1375 4.60001 19.0375 4.60001C19.0375 4.60001 18.9375 4.60001 18.8375 4.60001C18.7375 4.60001 18.6375 4.60001 18.5375 4.60001C18.4375 4.60001 18.4375 4.60001 18.3375 4.60001Z" fill="url(#paint0_linear)"/>
<path opacity="0.502" d="M18.6376 0.400013C18.2376 0.400013 17.6376 0.400013 17.0376 0.500013C16.4376 0.500013 15.7376 0.600013 14.9376 0.800013C14.2376 0.900013 13.4376 1.10001 12.6376 1.40001C11.8376 1.60001 11.0376 2.00001 10.1376 2.40001C9.43757 2.60001 8.63757 3.10001 7.83757 3.60001C7.13757 4.20001 6.33757 4.90001 5.63757 5.70001C4.93757 6.50001 4.33757 7.50001 3.83757 8.60001C3.33757 9.70001 2.93757 11 2.83757 12.5L2.63757 14.5H5.03757L5.23757 12.5C5.33757 11.3 5.63757 10.2 6.03757 9.20001C6.43757 8.20001 6.93757 7.40001 7.53757 6.70001C8.13757 6.00001 8.73757 5.40001 9.33757 5.00001C9.93757 4.50001 10.6376 4.10001 11.2376 3.80001C11.9376 3.50001 12.6376 3.20001 13.3376 3.00001C14.0376 2.80001 14.7376 2.60001 15.3376 2.50001C15.9376 2.40001 16.5376 2.30001 17.1376 2.30001C17.6376 2.30001 18.1376 2.20001 18.5376 2.20001C18.6376 2.20001 18.7376 2.20001 18.8376 2.20001C18.9376 2.20001 19.0376 2.20001 19.1376 2.20001C19.2376 2.20001 19.3376 2.20001 19.3376 2.20001C19.4376 2.20001 19.4376 2.20001 19.5376 2.20001H76.9376C77.9376 2.20001 78.8376 2.30001 79.7376 2.40001C80.6376 2.50001 81.4376 2.70001 82.2376 3.00001C83.0376 3.30001 83.8376 3.60001 84.5376 4.00001C85.2376 4.40001 85.9376 4.80001 86.5376 5.30001C87.5376 6.10001 88.2376 7.00001 88.8376 8.00001C89.4376 8.90001 89.8376 9.90001 90.0376 10.7C90.3376 11.6 90.4376 12.4 90.5376 13C90.6376 13.7 90.6376 14.2 90.6376 14.4H93.0376C93.0376 14 93.0376 13.3 92.8376 12.5C92.7376 11.7 92.5376 10.8 92.1376 9.80001C91.8376 8.80001 91.3376 7.80001 90.6376 6.80001C89.9376 5.80001 89.1376 4.80001 88.0376 3.90001C87.3376 3.30001 86.5376 2.70001 85.6376 2.30001C84.8376 1.80001 83.9376 1.50001 82.9376 1.20001C82.0376 0.900013 81.0376 0.700013 79.9376 0.500013C78.9376 0.500013 77.8376 0.400013 76.7376 0.400013H19.7376C19.6376 0.400013 19.6376 0.400013 19.5376 0.400013C19.4376 0.400013 19.3376 0.400013 19.2376 0.400013C19.1376 0.400013 19.0376 0.400013 18.9376 0.400013C18.8376 0.400013 18.7376 0.400013 18.6376 0.400013Z" fill="#FEEB20"/>
<path opacity="0.502" d="M93.9375 23.3H91.4375L93.5375 42.6C93.8375 45.2 93.6375 47.3 93.0375 49.1C92.4375 50.9 91.5375 52.4 90.3375 53.5C89.1375 54.6 87.6375 55.5 86.1375 56C84.5375 56.5 82.8375 56.8 81.1375 56.8C80.9375 56.8 80.7375 56.8 80.5375 56.8C80.3375 56.8 80.2375 56.8 80.0375 56.8C79.9375 56.8 79.7375 56.8 79.6375 56.8C79.5375 56.8 79.4375 56.8 79.3375 56.8H27.1375C25.3375 56.8 23.7375 56.6 22.3375 56.4C20.9375 56.1 19.8375 55.8 18.8375 55.4C17.9375 55 17.1375 54.6 16.5375 54.2C15.9375 53.8 15.5375 53.4 15.2375 53.1C15.0375 53 14.7375 52.8 14.3375 52.5C13.9375 52.2 13.4375 51.9 12.8375 51.4C12.2375 51 11.5375 50.4 10.7375 49.8C9.9375 49.2 8.9375 48.4 7.8375 47.5C6.2375 46.2 5.1375 44.8 4.3375 43.5C3.5375 41.9 3.0375 40.6 2.8375 39.4C2.6375 38.2 2.5375 37.1 2.6375 36.2C2.7375 35.3 2.8375 34.6 2.9375 34.3L4.0375 23.3H1.6375L0.3375 34.1C0.2375 34.5 0.1375 35.3 0.0375 36.4C-0.0625 37.4 0.0375 38.7 0.3375 40.1C0.6375 41.5 1.1375 43.1 2.0375 44.6C2.9375 46.2 4.2375 47.7 6.0375 49.2C7.0375 50 7.9375 50.7 8.7375 51.3C9.5375 51.9 10.2375 52.4 10.8375 52.9C11.4375 53.4 11.9375 53.7 12.4375 54C12.8375 54.3 13.2375 54.6 13.5375 54.7C13.9375 55.1 14.5375 55.6 15.2375 56.1C15.9375 56.6 16.8375 57.1 17.9375 57.5C19.0375 57.9 20.3375 58.3 21.8375 58.6C23.3375 58.9 25.0375 59 27.0375 59H79.4375C79.5375 59 79.6375 59 79.8375 59C80.0375 59 80.1375 59 80.2375 59C80.3375 59 80.5375 59 80.7375 59C80.9375 59 81.1375 59 81.3375 59C83.2375 59 85.2375 58.7 87.1375 58.1C89.0375 57.5 90.7375 56.5 92.2375 55.2C93.7375 53.9 94.8375 52.1 95.5375 50C96.2375 47.9 96.5375 45.3 96.1375 42.3L93.9375 23.3Z" fill="#FEEB20"/>
</g>
<defs>
<linearGradient id="paint0_linear" x1="47.8616" y1="-7.66487" x2="47.8822" y2="53.9001" gradientUnits="userSpaceOnUse">
<stop stop-color="#B48F0F"/>
<stop offset="1" stop-color="#FFEC00"/>
</linearGradient>
<clipPath id="clip0">
<rect width="97" height="59" fill="white"/>
</clipPath>
</defs>
</svg>
