<svg width="61" height="32" viewBox="0 0 61 32" fill="none" xmlns="http://www.w3.org/2000/svg">
<path d="M7.42452 10.7106L11.974 1.6394C12.478 0.63444 13.5061 0 14.6303 0H35.7457C36.6844 0 37.5679 0.443469 38.1286 1.19617L45.2176 10.7106L49.3061 15.9833H4.27627L7.42452 10.7106Z" fill="#FEF0AE"/>
<path d="M23.4806 1.19617C22.9199 0.443469 22.0364 0 21.0977 0H35.7457C36.6844 0 37.5679 0.443469 38.1286 1.19617L45.2176 10.7106L49.3061 15.9833H34.6581L30.5696 10.7106L23.4806 1.19617Z" fill="#FEE45A"/>
<path d="M11.5466 10.7111L14.8527 4.11859C14.9866 3.85209 15.258 3.68384 15.5552 3.68384H17.0019L19.2416 5.51691V13.5034L17.0019 14.7897H9.34465L11.5466 10.7111Z" fill="#B8DDFF"/>
<path d="M17.0019 10.7111V14.7896H43.8458L40.6233 10.7111L35.6237 4.00069C35.4751 3.80173 35.2417 3.68384 34.9936 3.68384H17.0019V10.7111Z" fill="#D5EAFF"/>
<path d="M13.363 10.7111H28.1826L31.3328 13.8685V23.5762L28.1826 24.9681H13.363L10.2555 21.6649V15.1286C10.2555 14.9086 10.3278 14.6948 10.461 14.5199L13.363 10.7111Z" fill="#FEDF30"/>
<path d="M1.62712 14.4013L1.0321 13.6812C1.24174 12.007 2.67039 10.7111 4.40153 10.7111H13.363V24.9681H1.00459V18.286L1.62712 17.9695V14.4013Z" fill="#FEE97D"/>
<path d="M42.4372 10.7111H53.2617C57.1548 10.7111 60.311 13.8673 60.311 17.7604V22.7846V24.9681H44.7215L39.6334 23.6954V13.6806L42.4372 10.7111Z" fill="#FEE97D"/>
<path d="M34.9936 3.68384C35.2417 3.68384 35.4751 3.80173 35.6237 4.00069L40.6233 10.7111L43.8458 14.7896H33.7325L30.5696 10.7106L25.3341 3.68384H34.9936Z" fill="#B8DDFF"/>
<path d="M19.551 24.9678V24.9681H13.3631L10.2557 21.6649V15.6725C15.3809 15.6725 19.551 19.8423 19.551 24.9678Z" fill="#FED402"/>
<path d="M1.0046 24.0671C1.45912 19.3627 5.43401 15.6724 10.2556 15.6724C11.3451 15.6724 12.3907 15.8625 13.363 16.2084V24.9681H1.0046V24.0671Z" fill="#FEE45A"/>
<path d="M39.6334 23.6955V21.5333C41.0025 18.1034 44.3559 15.6724 48.2685 15.6724C53.3939 15.6724 57.5638 19.8423 57.5638 24.9677V24.968H44.7215L39.6334 23.6955Z" fill="#FEE45A"/>
<path d="M28.1826 10.7111V24.9681H44.7215V19.5411V14.8608C44.7215 14.6803 44.6736 14.5047 44.5827 14.3499L42.4372 10.7111H28.1826Z" fill="#FEE45A"/>
<path d="M44.7215 16.3773V19.5412V24.9682H38.9729C38.9729 24.968 38.9729 24.9679 38.9729 24.9678C38.9729 21.0979 41.3507 17.7742 44.7215 16.3773Z" fill="#FEDF30"/>
<path d="M-3.8147e-06 23.6356V25.8192C-3.8147e-06 26.2883 0.380711 26.669 0.851074 26.669H60.311C60.6917 26.669 61 26.3608 61 25.9801V23.4747C61 23.094 60.6917 22.7845 60.311 22.7845H0.851074C0.380711 22.7845 -3.8147e-06 23.1653 -3.8147e-06 23.6356Z" fill="#D7D0D6"/>
<path d="M57.5638 24.9676C57.5638 25.5489 57.5075 26.1169 57.405 26.6689H39.1317C39.0292 26.1169 38.9729 25.5489 38.9729 24.9676C38.9729 24.2157 39.0651 23.4851 39.2344 22.7844H57.3023C57.4717 23.4852 57.5638 24.2157 57.5638 24.9676Z" fill="#B8B2B8"/>
<path d="M48.2684 31.1928C44.8303 31.1928 42.0432 28.4058 42.0432 24.9677C42.0432 21.5296 44.8303 18.7426 48.2684 18.7426C51.7064 18.7426 54.4935 21.5296 54.4935 24.9677C54.4935 28.4058 51.7064 31.1928 48.2684 31.1928Z" fill="#736572"/>
<path d="M48.2684 24.9677C48.2684 22.6639 47.0142 20.6529 45.1541 19.5764C46.0699 19.0464 47.1341 18.7427 48.2684 18.7427C51.7064 18.7427 54.4934 21.5297 54.4934 24.9678C54.4934 28.4059 51.7063 31.193 48.2684 31.193C47.1341 31.193 46.0693 30.8889 45.1535 30.3588C47.0136 29.2822 48.2684 27.2715 48.2684 24.9677Z" fill="#615260"/>
<path d="M48.2684 27.5085C49.6693 27.5085 50.8091 26.3687 50.8091 24.9678C50.8091 23.5669 49.6693 22.4271 48.2684 22.4271C46.8673 22.4271 45.7275 23.5669 45.7275 24.9678C45.7275 26.3687 46.8673 27.5085 48.2684 27.5085Z" fill="#F9F7F8"/>
<path d="M19.551 24.9676C19.551 25.5489 19.4947 26.1169 19.3922 26.6689H1.11906C1.01651 26.1169 0.960264 25.5489 0.960264 24.9676C0.960264 24.2157 1.05237 23.4851 1.22173 22.7844H19.2896C19.4588 23.4852 19.551 24.2157 19.551 24.9676Z" fill="#B8B2B8"/>
<path d="M10.2555 31.1928C6.81748 31.1928 4.03039 28.4058 4.03039 24.9677C4.03039 21.5296 6.81748 18.7426 10.2555 18.7426C13.6936 18.7426 16.4807 21.5296 16.4807 24.9677C16.4807 28.4058 13.6936 31.1928 10.2555 31.1928Z" fill="#736572"/>
<path d="M48.2684 24.9677C48.2684 24.0831 48.083 23.2421 47.7502 22.4804C47.9176 22.4455 48.0908 22.427 48.2684 22.427C49.6693 22.427 50.8091 23.5668 50.8091 24.9677C50.8091 26.3686 49.6693 27.5084 48.2684 27.5084C48.0908 27.5084 47.9163 27.4899 47.7489 27.455C48.0818 26.6933 48.2684 25.8523 48.2684 24.9677Z" fill="#D7D0D6"/>
<path d="M10.2555 24.9677C10.2555 22.6639 9.00127 20.653 7.14119 19.5764C8.05711 19.0464 9.12126 18.7426 10.2555 18.7426C13.6936 18.7426 16.4806 21.5296 16.4806 24.9677C16.4806 28.4058 13.6935 31.1928 10.2555 31.1928C9.12126 31.1928 8.05662 30.8888 7.1407 30.3587C9.00091 29.2823 10.2555 27.2715 10.2555 24.9677Z" fill="#615260"/>
<path d="M10.2557 27.5085C11.6566 27.5085 12.7964 26.3687 12.7964 24.9678C12.7964 23.5669 11.6566 22.4271 10.2557 22.4271C8.85464 22.4271 7.71483 23.5669 7.71483 24.9678C7.71483 26.3687 8.85452 27.5085 10.2557 27.5085Z" fill="#F9F7F8"/>
<path d="M10.2555 24.9677C10.2555 24.0832 10.0701 23.2423 9.73704 22.4805C9.90455 22.4457 10.078 22.427 10.2555 22.427C11.6564 22.427 12.7962 23.5668 12.7962 24.9677C12.7962 26.3686 11.6564 27.5084 10.2555 27.5084C10.0778 27.5084 9.90443 27.4897 9.7368 27.4549C10.07 26.6931 10.2555 25.8522 10.2555 24.9677Z" fill="#D7D0D6"/>
<path d="M32.2539 15.7106H32.9154C33.4242 15.7106 33.8365 15.2982 33.8365 14.7895C33.8365 14.2808 33.4242 13.8684 32.9154 13.8684H32.2539C31.7451 13.8684 31.3328 14.2808 31.3328 14.7895C31.3328 15.2982 31.7451 15.7106 32.2539 15.7106Z" fill="#FEF0AE"/>
<path d="M55.0891 10.9517V14.9504C55.0891 16.2116 56.1121 17.2346 57.3746 17.2346H60.2914C60.0691 14.2074 57.9334 11.7119 55.0891 10.9517Z" fill="#FEDF30"/>
<path d="M1.00459 14.1067V18.2859H3.21886C3.80221 18.2859 4.27626 17.8119 4.27626 17.2285V14.7379C4.27626 14.1546 3.80221 13.6805 3.21886 13.6805H1.03161C1.01318 13.8205 1.00459 13.963 1.00459 14.1067Z" fill="#E94444"/>
</svg>
