<svg width="217" height="66" viewBox="0 0 217 66" fill="none" xmlns="http://www.w3.org/2000/svg">
<path d="M195.542 4.55172C204.372 4.55172 211.564 11.7434 211.564 20.5738V45.4262C211.564 54.2566 204.372 61.4483 195.542 61.4483H20.5738C11.7434 61.4483 4.55172 54.2566 4.55172 45.4262V20.5738C4.55172 11.7434 11.7434 4.55172 20.5738 4.55172H195.542ZM195.542 0H20.5738C9.19448 0 0 9.19448 0 20.5738V45.4262C0 56.8055 9.19448 66 20.5738 66H195.542C206.921 66 216.116 56.8055 216.116 45.4262V20.5738C216.116 9.19448 206.83 0 195.542 0Z" fill="black"/>
</svg>
