<svg width="48" height="48" viewBox="0 0 48 48" fill="none" xmlns="http://www.w3.org/2000/svg">
<path d="M33.75 34.5L32.25 36L31.2038 36.3581L24.1444 38.7731L17.0484 41.2003L10.0256 43.6031L3.75 45.75H2.25V44.25L3.53344 41.1694L5.35781 36.7903L7.18219 32.4122L9.14062 27.7125L10.8309 23.6559L12.6553 19.2778L13.5 17.25L15 15.75L22.05 22.8L30.1491 30.8991L33.75 34.5Z" fill="#D69651"/>
<path d="M17.0485 41.2003L10.0256 43.6031L3.53345 41.1694L5.35782 36.7903L17.0485 41.2003Z" fill="#C78640"/>
<path d="M31.2039 36.3581L24.1446 38.7731L7.18237 32.4122L9.14081 27.7125L31.2039 36.3581Z" fill="#C78640"/>
<path d="M30.1492 30.8991L10.8311 23.656L12.6554 19.2778L22.0501 22.8L30.1492 30.8991Z" fill="#C78640"/>
<path d="M18.75 15L21.8862 11.8638C22.2792 11.4708 22.5 10.9377 22.5 10.3819C22.5 9.97178 22.3797 9.57064 22.1539 9.22824C21.9281 8.88583 21.6068 8.6172 21.2298 8.45564L19.277 7.61871C17.949 7.04956 16.7937 6.14163 15.9268 4.98576L15 3.75L17.25 2.25C18.2222 3.70827 19.6527 4.8009 21.3154 5.35513L22.2087 5.65289C23.1671 5.97236 24.0007 6.5853 24.5914 7.40487C25.1821 8.22444 25.5 9.2091 25.5 10.2194C25.5 11.3684 25.089 12.4795 24.3412 13.3519L21 17.25L18.75 15Z" fill="#FFC431"/>
<path d="M29.25 11.25L28.5 6.75L33 8.25L29.25 11.25Z" fill="#D1E4FF"/>
<path d="M24.5796 3.73212L24.9441 2.27712L27.9437 3.02856L27.5792 4.48356L24.5796 3.73212Z" fill="#FB6A83"/>
<path d="M31.8333 3.11627L34.0831 1.61548L34.9156 2.86348L32.6658 4.36427L31.8333 3.11627Z" fill="#FFC431"/>
<path d="M14.2742 8.42395L15.7292 8.05945L16.4806 11.059L15.0256 11.4235L14.2742 8.42395Z" fill="#6173E8"/>
<path d="M33 29.25L36.1362 26.1138C36.5292 25.7208 37.0623 25.5 37.6181 25.5C38.0282 25.5 38.4294 25.6203 38.7718 25.8461C39.1142 26.0719 39.3828 26.3932 39.5444 26.7702L40.3813 28.723C40.9504 30.051 41.8584 31.2063 43.0142 32.0732L44.25 33L45.75 30.75C44.2917 29.7778 43.1991 28.3473 42.6449 26.6846L42.3471 25.7913C42.0276 24.8329 41.4147 23.9993 40.5951 23.4086C39.7756 22.8179 38.7909 22.5 37.7806 22.5C36.6316 22.5 35.5205 22.911 34.6481 23.6588L30.75 27L33 29.25Z" fill="#6173E8"/>
<path d="M39 19.5L43.5 20.25L42 15.75L39 19.5Z" fill="#FFC431"/>
<path d="M43.5266 22.6583L44.9816 22.2938L45.733 25.2934L44.278 25.6579L43.5266 22.6583Z" fill="#FB6A83"/>
<path d="M43.6382 15.3403L45.139 13.0905L46.387 13.923L44.8862 16.1728L43.6382 15.3403Z" fill="#D1E4FF"/>
<path d="M36.5811 32.9974L36.9456 31.5424L39.9451 32.2939L39.5806 33.7489L36.5811 32.9974Z" fill="#6173E8"/>
<path d="M24 21L26.987 17.5129C27.9569 16.3804 29.3208 15.6588 30.8027 15.4941L30.8879 15.4847C32.159 15.3454 33.3547 14.8118 34.3072 13.9586C35.2598 13.1055 35.9215 11.9756 36.1995 10.7275V10.7275C36.3656 9.97984 36.7327 9.29176 37.2612 8.73748C37.7898 8.18319 38.4596 7.78375 39.1985 7.58223L45 6L45.75 9L41.6943 9.90126C40.8933 10.0793 40.1615 10.4869 39.5885 11.0742C39.0155 11.6615 38.626 12.4031 38.4678 13.2083L38.4465 13.3166C38.1803 14.6704 37.4856 15.9026 36.4651 16.831C35.4445 17.7594 34.1523 18.3348 32.7795 18.4721L32.6909 18.4809C30.9685 18.649 29.3817 19.4889 28.2742 20.8186C27.2912 22.0005 26.25 23.25 26.25 23.25L24 21Z" fill="#FB6A83"/>
</svg>
