<svg width="37" height="37" viewBox="0 0 37 37" fill="none" xmlns="http://www.w3.org/2000/svg">
<path d="M30.8881 30.8C24.0881 37.6 12.9881 37.6 6.08812 30.8C-0.811885 24 -0.611885 12.9 6.18812 6.1C12.9881 -0.7 24.0881 -0.7 30.9881 6.1C37.8881 12.9 37.7881 24 30.8881 30.8Z" fill="#E0E0E0" stroke="#BDBDBD" stroke-width="0.4718" stroke-miterlimit="10"/>
<path d="M14.369 12.2349C14.0558 11.9217 13.5481 11.9217 13.2349 12.2349C12.9217 12.5481 12.9217 13.0558 13.2349 13.369L17.8659 18L13.2349 22.631C12.9218 22.9442 12.9218 23.4519 13.2349 23.7651C13.5481 24.0783 14.0559 24.0783 14.369 23.7651L19 19.1341L23.631 23.7651C23.9441 24.0783 24.4519 24.0783 24.7651 23.7651C25.0782 23.4519 25.0782 22.9442 24.7651 22.631L20.1341 18L24.7651 13.369C25.0783 13.0558 25.0783 12.5481 24.7651 12.2349C24.4519 11.9217 23.9442 11.9217 23.631 12.2349L19 16.8659L14.369 12.2349Z" fill="#B8B4B8" stroke="#B8B4B8" stroke-width="3"/>
</svg>
