<svg width="204" height="102" viewBox="0 0 204 102" fill="none" xmlns="http://www.w3.org/2000/svg">
<path d="M101.75 2.71289C46.7701 2.71289 2.20001 47.0367 2.20001 101.713H201.3C201.3 47.0367 156.73 2.71289 101.75 2.71289Z" fill="#C4C4C4"/>
<path d="M101.75 0.512939C45.555 0.512939 0 45.8217 0 101.713H203.5C203.5 45.8217 157.945 0.512939 101.75 0.512939Z" fill="black"/>
<path fill-rule="evenodd" clip-rule="evenodd" d="M179.317 72.2235C133.476 31.2593 70.0472 31.2593 24.2056 72.2235C16.4421 77.6958 11.3192 78.0606 13.8542 71.6502C24.2056 39.5459 60.5937 9.31787 101.735 9.31787C145.939 8.84882 181.641 41.8391 189.669 71.6502C192.151 78.0606 187.028 77.7479 179.317 72.2235Z" fill="url(#paint0_linear)"/>
<path fill-rule="evenodd" clip-rule="evenodd" d="M200.847 102H197.797C196.627 48.57 153.931 5.40316 101.75 5.40316C49.5691 5.40316 6.87259 48.57 5.65288 102H2.65796C3.27453 75.7069 13.5249 51.0756 31.7082 32.4313C50.4281 13.1856 75.3003 2.61621 101.75 2.61621C128.2 2.61621 153.072 13.1856 171.792 32.3787C189.986 51.0345 200.288 75.7347 200.847 102Z" fill="url(#paint1_linear)"/>
<path d="M101.75 2.71289C46.7701 2.71289 2.20001 47.0367 2.20001 101.713H201.3C201.3 47.0367 156.73 2.71289 101.75 2.71289Z" fill="#C4C4C4"/>
<path d="M101.75 0.512939C45.555 0.512939 0 45.8217 0 101.713H203.5C203.5 45.8217 157.945 0.512939 101.75 0.512939Z" fill="black"/>
<path fill-rule="evenodd" clip-rule="evenodd" d="M179.317 72.2235C133.476 31.2593 70.0472 31.2593 24.2056 72.2235C16.4421 77.6958 11.3192 78.0606 13.8542 71.6502C24.2056 39.5459 60.5937 9.31787 101.735 9.31787C145.939 8.84882 181.641 41.8391 189.669 71.6502C192.151 78.0606 187.028 77.7479 179.317 72.2235Z" fill="url(#paint2_linear)"/>
<path fill-rule="evenodd" clip-rule="evenodd" d="M200.847 102H197.797C196.627 48.57 153.931 5.40316 101.75 5.40316C49.5691 5.40316 6.87259 48.57 5.65288 102H2.65796C3.27453 75.7069 13.5249 51.0756 31.7082 32.4313C50.4281 13.1856 75.3003 2.61621 101.75 2.61621C128.2 2.61621 153.072 13.1856 171.792 32.3787C189.986 51.0345 200.288 75.7347 200.847 102Z" fill="url(#paint3_linear)"/>
<path opacity="0.4" d="M88.1878 64.476H86.8354C86.6229 64.476 86.449 64.6499 86.449 64.8624V77.6136C86.449 77.8261 86.6229 78 86.8354 78H88.1878C88.4003 78 88.5742 77.8261 88.5742 77.6136V74.3292C88.5742 74.0394 88.6128 73.8462 88.7481 73.6144L89.0186 73.0927C89.2311 72.6484 89.5982 72.7063 89.7527 73.2086L91.2404 77.7488C91.279 77.9034 91.4142 78 91.5881 78H92.8439C93.153 78 93.3462 77.7295 93.2496 77.4204L90.8926 70.1174C90.796 69.8276 90.8153 69.5958 90.9506 69.3446L93.0951 65.1715C93.269 64.8238 93.0564 64.476 92.67 64.476H91.5302C91.3949 64.476 91.279 64.5533 91.221 64.6692L89.2697 68.4752C88.9992 68.9776 88.5742 68.881 88.5742 68.3014V64.8624C88.5742 64.6499 88.4003 64.476 88.1878 64.476ZM97.2256 64.476H95.8539C95.6414 64.476 95.4675 64.6499 95.4675 64.8624V77.6136C95.4675 77.8261 95.6414 78 95.8539 78H97.1677C97.3802 78 97.5541 77.8261 97.5541 77.6136V74.1746C97.5348 73.8269 97.9791 73.8076 98.0371 74.136L98.7326 77.6909C98.7712 77.8841 98.9065 78 99.0997 78H100.491C100.684 78 100.819 77.8841 100.858 77.6909L101.553 74.136C101.631 73.7689 102.056 73.8655 102.036 74.1746V77.6136C102.036 77.8261 102.21 78 102.423 78H103.736C103.949 78 104.123 77.8261 104.123 77.6136V64.8624C104.123 64.6499 103.949 64.476 103.736 64.476H102.365C102.191 64.476 102.056 64.5726 101.998 64.7465L100.085 71.9915C99.9691 72.4358 99.6213 72.4358 99.5054 71.9915L97.5927 64.7465C97.5348 64.5726 97.3995 64.476 97.2256 64.476ZM109.275 64.476H108.714C108.541 64.476 108.386 64.5919 108.347 64.7851L106.222 77.517C106.183 77.7875 106.357 78 106.628 78H107.188C107.362 78 107.517 77.8841 107.555 77.6909L109.68 64.959C109.719 64.6885 109.545 64.476 109.275 64.476ZM113.526 64.476H112.174C111.962 64.476 111.788 64.6499 111.788 64.8624V77.6136C111.788 77.8261 111.962 78 112.174 78H113.526C113.739 78 113.913 77.8261 113.913 77.6136V73.653C113.913 73.0927 114.203 72.7836 114.744 72.7836C115.285 72.7836 115.574 73.0927 115.574 73.653V77.6136C115.574 77.8261 115.748 78 115.961 78H117.313C117.526 78 117.7 77.8261 117.7 77.6136V64.8624C117.7 64.6499 117.526 64.476 117.313 64.476H115.961C115.748 64.476 115.574 64.6499 115.574 64.8624V69.789C115.574 70.3493 115.285 70.6584 114.744 70.6584C114.203 70.6584 113.913 70.3493 113.913 69.789V64.8624C113.913 64.6499 113.739 64.476 113.526 64.476Z" fill="white"/>
<path d="M57 54H36C31.5817 54 28 57.5817 28 62V83C28 87.4183 31.5817 91 36 91H57C61.4183 91 65 87.4183 65 83V62C65 57.5817 61.4183 54 57 54Z" fill="#333333"/>
<defs>
<linearGradient id="paint0_linear" x1="100.805" y1="127.039" x2="104.097" y2="-64.1056" gradientUnits="userSpaceOnUse">
<stop offset="0.1758"/>
<stop offset="0.4485" stop-color="#1A2323"/>
<stop offset="0.685584" stop-color="#AEB8C2"/>
</linearGradient>
<linearGradient id="paint1_linear" x1="101.75" y1="105.445" x2="101.75" y2="2.61621" gradientUnits="userSpaceOnUse">
<stop/>
<stop offset="0.0839581" stop-color="#080909"/>
<stop offset="0.224" stop-color="#1F2123"/>
<stop offset="0.4028" stop-color="#45494D"/>
<stop offset="0.6111" stop-color="#A9B8C7"/>
<stop offset="0.8061" stop-color="#C5CED7"/>
</linearGradient>
<linearGradient id="paint2_linear" x1="100.805" y1="127.039" x2="104.097" y2="-64.1056" gradientUnits="userSpaceOnUse">
<stop offset="0.1758"/>
<stop offset="0.4485" stop-color="#1A2323"/>
<stop offset="0.685584" stop-color="#AEB8C2"/>
</linearGradient>
<linearGradient id="paint3_linear" x1="101.75" y1="105.445" x2="101.75" y2="2.61621" gradientUnits="userSpaceOnUse">
<stop/>
<stop offset="0.0839581" stop-color="#080909"/>
<stop offset="0.224" stop-color="#1F2123"/>
<stop offset="0.4028" stop-color="#45494D"/>
<stop offset="0.6111" stop-color="#A9B8C7"/>
<stop offset="0.8061" stop-color="#C5CED7"/>
</linearGradient>
</defs>
</svg>
