<?xml version="1.0" encoding="iso-8859-1"?>
<!-- Generator: Adobe Illustrator 19.0.0, SVG Export Plug-In . SVG Version: 6.00 Build 0)  -->
<svg version="1.1" id="Capa_1" xmlns="http://www.w3.org/2000/svg" xmlns:xlink="http://www.w3.org/1999/xlink" x="0px" y="0px"
	 viewBox="0 0 341.609 341.609" style="enable-background:new 0 0 341.609 341.609;" xml:space="preserve">
<g>
	<g>
		<path d="M295.383,187c-0.642-0.639-1.329-1.199-2.065-1.631c-24.72-15.536-57.695-12.624-79.216,8.897l-11.311,11.327V53.354
			c0-17.601-14.4-32-32-32c-17.601,0-31.986,14.399-31.986,32v70.399c-5.841-7.168-14.654-11.84-24.622-11.84
			c-6.928,0-13.311,2.273-18.544,6.032l-68.912,39.888c-9.519,5.536-15.935,15.792-15.935,27.568v52.624
			c0,57.216,46.367,103.584,103.584,103.584c27.712,0,52.815-10.944,71.392-28.672l0.016,0.143l109.616-109.616
			C299.943,198.92,299.943,191.544,295.383,187z"/>
	</g>
</g>
<g>
	<g>
		<polygon points="336.616,53.687 282.944,0 282.944,37.609 234.805,37.609 234.805,69.609 282.944,69.609 282.944,107.376 		"/>
	</g>
</g>
<g>
	<g>
		<polygon points="58.665,37.609 58.665,0 4.993,53.687 58.665,107.376 58.665,69.609 106.805,69.609 106.805,37.609 		"/>
	</g>
</g>
<g>
</g>
<g>
</g>
<g>
</g>
<g>
</g>
<g>
</g>
<g>
</g>
<g>
</g>
<g>
</g>
<g>
</g>
<g>
</g>
<g>
</g>
<g>
</g>
<g>
</g>
<g>
</g>
<g>
</g>
</svg>
