<svg width="44" height="44" viewBox="0 0 44 44" fill="none" xmlns="http://www.w3.org/2000/svg">
<path d="M22 44C34.1503 44 44 34.1503 44 22C44 9.84974 34.1503 0 22 0C9.84974 0 0 9.84974 0 22C0 34.1503 9.84974 44 22 44Z" fill="#FFEC00"/>
<path d="M22.0146 39.0291C31.4114 39.0291 39.0291 31.4114 39.0291 22.0146C39.0291 12.6177 31.4114 5 22.0146 5C12.6177 5 5 12.6177 5 22.0146C5 31.4114 12.6177 39.0291 22.0146 39.0291Z" fill="url(#paint0_linear)"/>
<path d="M30.2888 17.4987C30.2888 17.5862 30.2888 17.6736 30.2888 17.7901C30.2888 20.2957 28.2494 22.3059 25.773 22.3059C23.2674 22.3059 21.2571 20.2665 21.2571 17.7901C21.2571 15.3719 23.18 13.3908 25.569 13.2742C24.4619 12.8081 23.2674 12.575 21.9855 12.575C16.7995 12.575 12.575 16.7995 12.575 22.0146C12.575 27.2297 16.7995 31.4542 22.0146 31.4542C27.2297 31.4542 31.4542 27.2297 31.4542 22.0146C31.4251 20.3831 31.0172 18.8389 30.2888 17.4987Z" fill="url(#paint1_linear)"/>
<path d="M22 44C34.1503 44 44 34.1503 44 22C44 9.84974 34.1503 0 22 0C9.84974 0 0 9.84974 0 22C0 34.1503 9.84974 44 22 44Z" fill="#FFEC00"/>
<path d="M22.0146 39.0291C31.4114 39.0291 39.0291 31.4114 39.0291 22.0146C39.0291 12.6177 31.4114 5 22.0146 5C12.6177 5 5 12.6177 5 22.0146C5 31.4114 12.6177 39.0291 22.0146 39.0291Z" fill="url(#paint2_linear)"/>
<path d="M30.2888 17.4987C30.2888 17.5862 30.2888 17.6736 30.2888 17.7901C30.2888 20.2957 28.2494 22.3059 25.773 22.3059C23.2674 22.3059 21.2571 20.2665 21.2571 17.7901C21.2571 15.3719 23.18 13.3908 25.569 13.2742C24.4619 12.8081 23.2674 12.575 21.9855 12.575C16.7995 12.575 12.575 16.7995 12.575 22.0146C12.575 27.2297 16.7995 31.4542 22.0146 31.4542C27.2297 31.4542 31.4542 27.2297 31.4542 22.0146C31.4251 20.3831 31.0172 18.8389 30.2888 17.4987Z" fill="url(#paint3_linear)"/>
<defs>
<linearGradient id="paint0_linear" x1="22.0021" y1="13.6588" x2="22.0021" y2="117.356" gradientUnits="userSpaceOnUse">
<stop stop-color="white"/>
<stop offset="0.00758207" stop-color="#FBFBFB"/>
<stop offset="0.127" stop-color="#C1C1C1"/>
<stop offset="0.2495" stop-color="#8E8E8E"/>
<stop offset="0.3723" stop-color="#626262"/>
<stop offset="0.4956" stop-color="#3F3F3F"/>
<stop offset="0.6195" stop-color="#232323"/>
<stop offset="0.7442" stop-color="#101010"/>
<stop offset="0.8703" stop-color="#040404"/>
<stop offset="1"/>
</linearGradient>
<linearGradient id="paint1_linear" x1="22.2665" y1="0.588319" x2="21.1575" y2="90.4172" gradientUnits="userSpaceOnUse">
<stop stop-color="#18B4ED"/>
<stop offset="0.0978798" stop-color="#1392C0"/>
<stop offset="0.2224" stop-color="#0E6B8E"/>
<stop offset="0.3496" stop-color="#0A4A62"/>
<stop offset="0.4774" stop-color="#06303F"/>
<stop offset="0.6057" stop-color="#041B23"/>
<stop offset="0.7349" stop-color="#020C10"/>
<stop offset="0.8656" stop-color="#000304"/>
<stop offset="1"/>
</linearGradient>
<linearGradient id="paint2_linear" x1="22.0021" y1="13.6588" x2="22.0021" y2="117.356" gradientUnits="userSpaceOnUse">
<stop stop-color="white"/>
<stop offset="0.00758207" stop-color="#FBFBFB"/>
<stop offset="0.127" stop-color="#C1C1C1"/>
<stop offset="0.2495" stop-color="#8E8E8E"/>
<stop offset="0.3723" stop-color="#626262"/>
<stop offset="0.4956" stop-color="#3F3F3F"/>
<stop offset="0.6195" stop-color="#232323"/>
<stop offset="0.7442" stop-color="#101010"/>
<stop offset="0.8703" stop-color="#040404"/>
<stop offset="1"/>
</linearGradient>
<linearGradient id="paint3_linear" x1="22.2665" y1="0.588319" x2="21.1575" y2="90.4172" gradientUnits="userSpaceOnUse">
<stop stop-color="#18B4ED"/>
<stop offset="0.0978798" stop-color="#1392C0"/>
<stop offset="0.2224" stop-color="#0E6B8E"/>
<stop offset="0.3496" stop-color="#0A4A62"/>
<stop offset="0.4774" stop-color="#06303F"/>
<stop offset="0.6057" stop-color="#041B23"/>
<stop offset="0.7349" stop-color="#020C10"/>
<stop offset="0.8656" stop-color="#000304"/>
<stop offset="1"/>
</linearGradient>
</defs>
</svg>
