<svg width="64" height="63" viewBox="0 0 64 63" fill="none" xmlns="http://www.w3.org/2000/svg">
<path d="M32.2117 59C17.0239 59 4.71173 46.9117 4.71173 32C4.71173 17.0883 17.0239 5 32.2117 5C47.3996 5 59.7117 17.0883 59.7117 32C59.7117 46.9117 47.3996 59 32.2117 59Z" fill="#030405"/>
<path d="M18.7117 26.1042H30.0291V18L45.7117 31.9797L30.0291 46V37.8958H18.7117V26.1042Z" fill="white"/>
<path opacity="0.5" d="M0.626317 31.0298H1.60059C1.94855 31.0298 2.22691 31.3081 2.22691 31.6561V32.6304C2.22691 32.9783 1.94855 33.2567 1.60059 33.2567H0.626317C0.278364 33.2567 0 32.9783 0 32.6304V31.6561C0 31.3081 0.278364 31.0298 0.626317 31.0298Z" fill="#FFEC00"/>
<path opacity="0.5" d="M62.2836 31.0298H63.2579C63.6059 31.0298 63.8842 31.3081 63.8842 31.6561V32.6304C63.8842 32.9783 63.6059 33.2567 63.2579 33.2567H62.2836C61.9357 33.2567 61.6573 32.9783 61.6573 32.6304V31.6561C61.7269 31.3081 62.0053 31.0298 62.2836 31.0298Z" fill="#FFEC00"/>
<path opacity="0.5" d="M1.60057 26.9935H0.626301C0.556709 26.9935 0.556713 26.9935 0.487122 26.9935C2.8532 12.1011 16.2146 0.688232 31.9421 0.688232C47.7392 0.688232 61.1006 12.1011 63.4667 27.0631C63.3971 27.0631 63.3275 27.0631 63.2579 27.0631H62.2836C62.0053 27.0631 61.7269 27.0631 61.4485 27.1327C59.0825 13.2841 46.6953 2.77595 31.9421 2.77595C17.2585 2.77595 4.80174 13.2841 2.43566 27.1327C2.22688 27.0631 1.87893 26.9935 1.60057 26.9935Z" fill="#FFEC00"/>
<path opacity="0.5" d="M0.556763 37.2233H1.60062C1.94857 37.2233 2.29652 37.1538 2.57489 37.0842C5.14974 50.6543 17.5369 60.9538 31.9421 60.9538C46.3474 60.9538 58.7345 50.6543 61.3094 37.1538C61.5877 37.2234 61.9357 37.2233 62.2141 37.2233H63.3275H63.3971C62.2141 43.9041 58.8041 50.0976 53.5848 54.7602C47.6696 60.0491 40.0146 62.9719 32.0117 62.9719C24.0088 62.9719 16.3538 60.0491 10.4386 54.7602C5.21933 50.0976 1.7398 43.9041 0.556763 37.2233Z" fill="#FFEC00"/>
</svg>
