<svg height="512pt" viewBox="0 0 512 512" width="512pt" xmlns="http://www.w3.org/2000/svg"><path d="m13.359375 13.359375c7.808594-7.8125 20.472656-7.8125 28.285156 0l135.40625 135.40625c7.808594 7.808594 7.808594 20.472656 0 28.285156-7.8125 7.808594-20.476562 7.808594-28.285156 0l-135.40625-135.410156c-11.546875-11.832031-3.90625-24.378906 0-28.28125zm0 0" fill="#abebf4"/><path d="m41.644531 13.359375c-7.8125-7.8125-20.476562-7.8125-28.285156 0-3.90625 3.902344-11.542969 16.449219 0 28.28125l66.546875 66.550781c3.226562-10.921875 10.902344-22.238281 27.777344-28.792968zm0 0" fill="#8ed7e8"/><path d="m7.5 109.898438v-82.398438c0-11.046875 8.953125-20 20-20h82.398438c11.046874 0 20 8.953125 20 20s-8.953126 20-20 20h-62.398438v62.398438c0 11.046874-8.953125 20-20 20s-20-8.957032-20-20zm0 0" fill="#ccf8ff"/><path d="m498.132812 13.359375c-7.8125-7.8125-20.476562-7.8125-28.285156 0l-135.40625 135.40625c-7.8125 7.808594-7.8125 20.472656 0 28.28125 7.808594 7.8125 20.472656 7.8125 28.285156 0l135.40625-135.40625c11.542969-11.832031 3.902344-24.378906 0-28.28125zm0 0" fill="#abebf4"/><path d="m469.847656 13.359375c7.808594-7.8125 20.472656-7.8125 28.285156 0 3.902344 3.902344 11.542969 16.449219 0 28.28125l-66.550781 66.550781c-3.222656-10.921875-10.898437-22.238281-27.773437-28.792968zm0 0" fill="#8ed7e8"/><path d="m503.988281 109.898438v-82.398438c0-11.046875-8.953125-20-20-20h-82.394531c-11.046875 0-20 8.953125-20 20s8.953125 20 20 20h62.394531v62.398438c0 11.046874 8.957031 20 20 20 11.046875 0 20-8.957032 20-20zm0 0" fill="#ccf8ff"/><path d="m13.359375 498.640625c7.808594 7.8125 20.472656 7.8125 28.285156 0l135.40625-135.40625c7.808594-7.808594 7.808594-20.472656 0-28.285156-7.8125-7.808594-20.476562-7.808594-28.285156 0l-135.40625 135.410156c-11.546875 11.832031-3.90625 24.378906 0 28.28125zm0 0" fill="#abebf4"/><path d="m41.644531 498.640625c-7.8125 7.8125-20.476562 7.8125-28.285156 0-3.90625-3.902344-11.542969-16.449219 0-28.28125l66.546875-66.550781c3.226562 10.921875 10.902344 22.238281 27.777344 28.792968zm0 0" fill="#8ed7e8"/><path d="m7.5 402.101562v82.398438c0 11.046875 8.953125 20 20 20h82.398438c11.046874 0 20-8.953125 20-20s-8.953126-20-20-20h-62.398438v-62.398438c0-11.046874-8.953125-20-20-20s-20 8.953126-20 20zm0 0" fill="#ccf8ff"/><path d="m498.132812 498.640625c-7.8125 7.8125-20.476562 7.8125-28.285156 0l-135.40625-135.40625c-7.8125-7.808594-7.8125-20.472656 0-28.285156 7.808594-7.808594 20.472656-7.808594 28.285156 0l135.40625 135.410156c11.542969 11.832031 3.902344 24.378906 0 28.28125zm0 0" fill="#abebf4"/><path d="m469.847656 498.640625c7.808594 7.8125 20.472656 7.8125 28.285156 0 3.902344-3.902344 11.542969-16.449219 0-28.28125l-66.550781-66.550781c-3.222656 10.921875-10.898437 22.238281-27.773437 28.792968zm0 0" fill="#8ed7e8"/><path d="m503.988281 402.101562v82.398438c0 11.046875-8.953125 20-20 20h-82.394531c-11.046875 0-20-8.953125-20-20s8.953125-20 20-20h62.394531v-62.398438c0-11.046874 8.957031-20 20-20 11.046875 0 20 8.953126 20 20zm0 0" fill="#ccf8ff"/><path d="m27.5 137.398438c15.164062 0 27.5-12.339844 27.5-27.5v-16.007813l88.460938 88.460937c5.359374 5.363282 21.285156 15.875 38.890624 0 11.261719-10.15625 10.722657-28.167968 0-38.890624l-88.457031-88.460938h16.003907c15.164062 0 27.5-12.335938 27.5-27.5s-12.335938-27.5-27.5-27.5h-82.398438c-15.164062 0-27.5 12.335938-27.5 27.5v82.398438c0 15.164062 12.335938 27.5 27.5 27.5zm144.246094 16.667968c4.875 4.875 4.875 12.804688 0 17.679688s-12.804688 4.875-17.679688 0l-99.066406-99.070313v-17.675781h17.679688zm-156.746094-126.566406c0-6.894531 5.605469-12.5 12.5-12.5h82.398438c6.890624 0 12.5 5.605469 12.5 12.5s-5.609376 12.5-12.5 12.5h-62.398438c-4.140625 0-7.5 3.355469-7.5 7.5v62.398438c0 6.890624-5.605469 12.5-12.5 12.5s-12.5-5.609376-12.5-12.5zm0 0"/><path d="m483.988281 0h-82.394531c-15.164062 0-27.5 12.335938-27.5 27.5s12.335938 27.5 27.5 27.5h16.003906l-88.460937 88.460938c-5.191407 5.195312-14.863281 23.566406 0 38.894531 15.828125 16.316406 33.699219 5.191406 38.933593-.042969l31.082032-31.578125c2.90625-2.949219 2.867187-7.699219-.082032-10.605469-2.953124-2.90625-7.703124-2.863281-10.605468.085938l-31.042969 31.53125c-2.359375 2.363281-11.109375 6.722656-17.679687 0-6.566407-6.722656-2.359376-15.316406 0-17.675782l99.070312-99.070312h17.675781v17.679688l-45.378906 45.378906c-2.925781 2.929687-2.925781 7.675781 0 10.605468 1.464844 1.464844 6.554687 3.855469 10.609375 0l34.769531-34.773437v16.007813c0 15.164062 12.335938 27.5 27.5 27.5 15.164063 0 27.5-12.335938 27.5-27.5v-82.398438c0-15.164062-12.335937-27.5-27.5-27.5zm12.5 109.898438c0 6.890624-5.605469 12.5-12.5 12.5-6.890625 0-12.5-5.609376-12.5-12.5v-62.398438c0-4.144531-3.355469-7.5-7.5-7.5h-62.394531c-6.894531 0-12.5-5.605469-12.5-12.5s5.605469-12.5 12.5-12.5h82.394531c6.894531 0 12.5 5.605469 12.5 12.5zm0 0"/><path d="m483.988281 374.601562c-15.164062 0-27.5 12.335938-27.5 27.5v16.007813l-88.460937-88.460937c-5.191406-5.195313-22.960938-16.113282-38.890625 0-15.929688 16.113281-5.195313 33.695312 0 38.890624l88.460937 88.460938h-16.007812c-15.164063 0-27.5 12.335938-27.5 27.5s12.335937 27.5 27.5 27.5h82.398437c15.164063 0 27.5-12.335938 27.5-27.5v-82.398438c0-15.164062-12.335937-27.5-27.5-27.5zm-144.246093-16.667968c-4.875-4.875-4.875-12.804688 0-17.679688s12.804687-4.875 17.679687 0l99.066406 99.066406v17.679688h-17.675781zm156.746093 126.566406c0 6.890625-5.605469 12.5-12.5 12.5h-82.394531c-6.894531 0-12.5-5.609375-12.5-12.5 0-6.894531 5.605469-12.5 12.5-12.5h62.394531c4.144531 0 7.5-3.359375 7.5-7.5v-62.398438c0-6.890624 5.609375-12.5 12.5-12.5 6.894531 0 12.5 5.609376 12.5 12.5zm0 0"/><path d="m143.460938 329.648438-88.460938 88.460937v-16.007813c0-15.164062-12.335938-27.5-27.5-27.5s-27.5 12.335938-27.5 27.5v16.851563c0 4.144531 3.359375 7.5 7.5 7.5 4.144531 0 7.5-3.355469 7.5-7.5v-16.851563c0-6.890624 5.609375-12.5 12.5-12.5 6.894531 0 12.5 5.609376 12.5 12.5v62.398438c0 4.140625 3.359375 7.5 7.5 7.5h62.398438c6.894531 0 12.5 5.605469 12.5 12.5 0 6.890625-5.605469 12.5-12.5 12.5h-82.398438c-6.894531 0-12.5-5.609375-12.5-12.5v-32.203125c0-4.144531-3.359375-7.5-7.5-7.5s-7.5 3.355469-7.5 7.5v32.203125c0 15.164062 12.335938 27.5 27.5 27.5h82.398438c15.164062 0 27.5-12.335938 27.5-27.5s-12.335938-27.5-27.5-27.5h-16.007813l88.464844-88.460938c5.191406-5.195312 16.15625-22.851562 0-38.890624-16.160157-16.039063-33.699219-5.195313-38.894531 0zm28.285156 28.285156-99.066406 99.066406h-17.679688v-17.679688l99.066406-99.066406c4.875-4.875 12.804688-4.875 17.679688 0s4.875 12.804688 0 17.679688zm0 0"/></svg>