<svg width="45" height="102" viewBox="0 0 45 102" fill="none" xmlns="http://www.w3.org/2000/svg">
<path d="M41.7436 96.966C41.4058 99.7364 38.8719 102 36.0677 102H8.33006C5.55967 102 3.1947 99.7364 3.12713 96.9322L0.897309 5.71213C0.829739 2.94174 3.05956 0.644348 5.82995 0.644348H34.0068C36.7772 0.644348 39.3111 2.90796 39.5814 5.67835C39.5814 5.67835 44.3451 51.8627 44.21 68.9919C44.1424 77.2692 41.7436 96.966 41.7436 96.966Z" fill="#333333"/>
<path d="M41.4733 96.6619C41.1355 99.4323 38.6016 101.662 35.7974 101.662H8.60032C5.82994 101.662 3.46497 99.3985 3.3974 96.6281L1.23515 6.04996C1.16758 3.24579 3.36361 0.982178 6.16779 0.982178H33.7703C36.5407 0.982178 39.0746 3.24579 39.3449 6.01618C39.3449 6.01618 44.041 51.8627 43.8721 68.8905C43.8045 77.1003 41.4733 96.6619 41.4733 96.6619Z" fill="url(#paint0_linear)"/>
<path d="M39.9868 95.3105C39.6827 98.0809 37.115 100.311 34.3447 100.311H10.0193C7.24891 100.311 4.88394 98.0471 4.85016 95.2767L2.82304 8.00952C2.75547 5.20535 4.9853 3.00931 7.78947 3.00931H32.4527C35.2231 3.00931 37.757 5.20535 38.0272 7.97574C38.0272 7.97574 42.3518 52.133 42.2166 68.6202C42.1153 76.5935 39.9868 95.3105 39.9868 95.3105Z" fill="url(#paint1_linear)"/>
<path d="M6.20157 27.2333C6.10021 27.2333 5.96507 27.2333 5.86371 27.1995C5.05287 26.9968 4.54609 26.186 4.7488 25.3751L7.62054 13.6179C7.82326 12.807 8.60032 12.3002 9.41116 12.503C10.222 12.7057 10.7288 13.5165 10.5261 14.3274L7.65433 26.0846C7.4854 26.7603 6.87727 27.2333 6.20157 27.2333Z" fill="#333333"/>
<path d="M30.4594 48.0788C30.358 48.0788 30.2229 48.0788 30.1215 48.045C29.3107 47.8423 28.8039 47.0315 29.0066 46.2206L33.0946 29.0239C33.2973 28.2131 34.0744 27.7063 34.8852 27.909C35.6961 28.1117 36.2029 28.9226 36.0002 29.7334L31.9121 46.9301C31.7432 47.6058 31.1351 48.0788 30.4594 48.0788Z" fill="#333333"/>
<path d="M8.93818 40.342C8.83683 40.342 8.70169 40.342 8.60033 40.3082C7.78949 40.1055 7.28271 39.2946 7.48542 38.4838L13.3303 13.6179C13.533 12.807 14.31 12.3002 15.1209 12.503C15.9317 12.7057 16.4385 13.5165 16.2358 14.3274L10.3909 39.1595C10.222 39.869 9.61389 40.342 8.93818 40.342Z" fill="#333333"/>
<path d="M13.8708 44.6327C13.7695 44.6327 13.6343 44.6327 13.533 44.5989C12.7221 44.3962 12.2153 43.5854 12.4181 42.7745L19.3102 13.6179C19.5129 12.807 20.29 12.3002 21.1009 12.503C21.9117 12.7057 22.4185 13.5165 22.2158 14.3274L15.3236 43.484C15.1547 44.1597 14.5465 44.6327 13.8708 44.6327Z" fill="#333333"/>
<path d="M19.5805 46.153C19.4791 46.153 19.344 46.153 19.2426 46.1192C18.4318 45.9165 17.925 45.1057 18.1277 44.2948L25.324 13.6516C25.5267 12.8408 26.3038 12.334 27.1146 12.5367C27.9255 12.7394 28.4322 13.5503 28.2295 14.3611L21.0333 45.0043C20.8643 45.68 20.2562 46.153 19.5805 46.153Z" fill="#333333"/>
<path d="M25.2564 47.6396C25.1551 47.6396 25.0199 47.6396 24.9186 47.6058C24.1077 47.4031 23.601 46.5922 23.8037 45.7814L31.304 13.6179C31.5067 12.807 32.2838 12.3002 33.0946 12.503C33.9055 12.7057 34.4122 13.5165 34.2095 14.3274L26.7092 46.4909C26.5403 47.1666 25.9321 47.6396 25.2564 47.6396Z" fill="#333333"/>
<path d="M8.12733 68.4175C8.02598 68.4175 7.89083 68.4175 7.78948 68.3837C6.97863 68.181 6.47186 67.3702 6.67457 66.5593L9.54631 54.8021C9.74902 53.9912 10.5261 53.4844 11.3369 53.6872C12.1478 53.8899 12.6546 54.7007 12.4518 55.5116L9.5801 67.2688C9.41117 67.9445 8.80304 68.4175 8.12733 68.4175Z" fill="#333333"/>
<path d="M32.3851 89.2629C32.2838 89.2629 32.1486 89.2629 32.0473 89.2292C31.2364 89.0264 30.7297 88.2156 30.9324 87.4047L35.0204 70.2081C35.2231 69.3972 36.0001 68.8904 36.811 69.0932C37.6218 69.2959 38.1286 70.1067 37.9259 70.9176L33.8379 88.1142C33.669 88.7899 33.0608 89.2629 32.3851 89.2629Z" fill="#333333"/>
<path d="M10.8639 81.5262C10.7626 81.5262 10.6274 81.5262 10.5261 81.4924C9.71524 81.2897 9.20846 80.4788 9.41117 79.668L15.256 54.8021C15.4587 53.9912 16.2358 53.4844 17.0466 53.6872C17.8575 53.8899 18.3643 54.7007 18.1615 55.5116L12.3167 80.3775C12.1478 81.0532 11.5396 81.5262 10.8639 81.5262Z" fill="#333333"/>
<path d="M15.7966 85.8169C15.6952 85.8169 15.5601 85.8169 15.4587 85.7831C14.6479 85.5804 14.1411 84.7696 14.3438 83.9587L21.236 54.8021C21.4387 53.9912 22.2158 53.4844 23.0266 53.6872C23.8374 53.8899 24.3442 54.7007 24.1415 55.5116L17.2493 84.6682C17.1142 85.3439 16.4723 85.8169 15.7966 85.8169Z" fill="#333333"/>
<path d="M21.5063 87.3034C21.4049 87.3034 21.2698 87.3034 21.1684 87.2697C20.3576 87.0669 19.8508 86.2561 20.0535 85.4453L27.2498 54.8021C27.4525 53.9912 28.2295 53.4844 29.0404 53.6872C29.8512 53.8899 30.358 54.7007 30.1553 55.5116L22.959 86.1548C22.7901 86.8305 22.182 87.3034 21.5063 87.3034Z" fill="#333333"/>
<path d="M27.1822 88.8238C27.0808 88.8238 26.9457 88.8238 26.8443 88.79C26.0335 88.5873 25.5267 87.7764 25.7294 86.9656L33.2297 54.8021C33.4325 53.9912 34.2095 53.4844 35.0204 53.6872C35.8312 53.8899 36.338 54.7007 36.1353 55.5116L28.635 87.6751C28.466 88.3508 27.8579 88.8238 27.1822 88.8238Z" fill="#333333"/>
<path d="M9.34359 6.99597C9.34359 7.77303 8.70167 8.41495 7.89083 8.41495C7.07998 8.41495 6.43806 7.77303 6.43806 6.99597C6.43806 6.21891 7.07998 5.577 7.89083 5.577C8.70167 5.577 9.34359 6.18513 9.34359 6.99597Z" fill="#333333"/>
<path d="M8.26248 8.0433C7.45163 8.0433 6.80972 7.40138 6.80972 6.62432C6.80972 6.32026 6.91107 6.04997 7.08 5.81348C6.70836 6.08376 6.47186 6.48918 6.47186 6.99596C6.47186 7.77302 7.11378 8.41494 7.92463 8.41494C8.43141 8.41494 8.83683 8.17844 9.10711 7.8068C8.83683 7.97573 8.56655 8.0433 8.26248 8.0433Z" fill="#979797"/>
<path d="M33.1622 6.99597C33.1622 7.77303 32.5203 8.41495 31.7094 8.41495C30.8986 8.41495 30.2567 7.77303 30.2567 6.99597C30.2567 6.21891 30.8986 5.577 31.7094 5.577C32.5203 5.577 33.1622 6.18513 33.1622 6.99597Z" fill="#333333"/>
<path d="M32.0811 8.0433C31.2702 8.0433 30.6283 7.40138 30.6283 6.62432C30.6283 6.32026 30.7296 6.04997 30.8986 5.81348C30.5269 6.08376 30.2904 6.48918 30.2904 6.99596C30.2904 7.77302 30.9324 8.41494 31.7432 8.41494C32.25 8.41494 32.6554 8.17844 32.9257 7.8068C32.6554 7.97573 32.3851 8.0433 32.0811 8.0433Z" fill="#979797"/>
<path d="M10.9653 95.0402C10.9653 95.8173 10.3234 96.4592 9.51253 96.4592C8.70169 96.4592 8.05977 95.8173 8.05977 95.0402C8.05977 94.2632 8.70169 93.6213 9.51253 93.6213C10.2896 93.6213 10.9653 94.2632 10.9653 95.0402Z" fill="#333333"/>
<path d="M9.85039 96.1214C9.03954 96.1214 8.39762 95.4794 8.39762 94.7024C8.39762 94.3983 8.49898 94.128 8.6679 93.8915C8.29626 94.1618 8.05977 94.5672 8.05977 95.074C8.05977 95.8511 8.70169 96.493 9.51253 96.493C10.0193 96.493 10.4247 96.2565 10.695 95.8849C10.4585 96.02 10.1545 96.1214 9.85039 96.1214Z" fill="#979797"/>
<path d="M37.0137 95.0402C37.0137 95.8173 36.3718 96.4592 35.5609 96.4592C34.7501 96.4592 34.1082 95.8173 34.1082 95.0402C34.1082 94.2632 34.7501 93.6213 35.5609 93.6213C36.3718 93.6213 37.0137 94.2632 37.0137 95.0402Z" fill="#333333"/>
<path d="M35.9326 96.1214C35.1217 96.1214 34.4798 95.4794 34.4798 94.7024C34.4798 94.3983 34.5811 94.128 34.7501 93.8915C34.3784 94.1618 34.1419 94.5672 34.1419 95.074C34.1419 95.8511 34.7839 96.493 35.5947 96.493C36.1015 96.493 36.5069 96.2565 36.7772 95.8849C36.5069 96.02 36.2366 96.1214 35.9326 96.1214Z" fill="#979797"/>
<defs>
<linearGradient id="paint0_linear" x1="-13.3416" y1="20.1851" x2="55.6903" y2="82.3416" gradientUnits="userSpaceOnUse">
<stop stop-color="#CECACE"/>
<stop offset="0.013054" stop-color="#C4C0C4"/>
<stop offset="0.1001" stop-color="#848184"/>
<stop offset="0.2249" stop-color="#CECACE"/>
<stop offset="0.2627" stop-color="#B3B0B3"/>
<stop offset="0.3564" stop-color="#737173"/>
<stop offset="0.3847" stop-color="#777577"/>
<stop offset="0.4152" stop-color="#848284"/>
<stop offset="0.4466" stop-color="#9A979A"/>
<stop offset="0.4786" stop-color="#B8B4B8"/>
<stop offset="0.4983" stop-color="#CECACE"/>
<stop offset="0.547" stop-color="#B3B0B3"/>
<stop offset="0.6678" stop-color="#737173"/>
<stop offset="0.6699" stop-color="#716F71"/>
<stop offset="0.7237" stop-color="#444444"/>
<stop offset="0.7509" stop-color="#333333"/>
<stop offset="0.9446" stop-color="#333333"/>
</linearGradient>
<linearGradient id="paint1_linear" x1="22.5031" y1="100.311" x2="22.5031" y2="3.00931" gradientUnits="userSpaceOnUse">
<stop stop-color="#4A494A"/>
<stop offset="0.0713509" stop-color="#615F61"/>
<stop offset="0.167" stop-color="#7B787B"/>
<stop offset="0.2247" stop-color="#848184"/>
<stop offset="0.3478" stop-color="#B8B4B8"/>
<stop offset="0.4118" stop-color="#CECACE"/>
<stop offset="0.6367" stop-color="#CECECE"/>
<stop offset="0.7844" stop-color="#A8A7A8"/>
<stop offset="1" stop-color="#737173"/>
</linearGradient>
</defs>
</svg>
