<svg width="34" height="34" viewBox="0 0 34 34" fill="none" xmlns="http://www.w3.org/2000/svg">
<g clip-path="url(#clip0)">
<path d="M17.0146 34.0291C26.4114 34.0291 34.0291 26.4114 34.0291 17.0146C34.0291 7.61768 26.4114 0 17.0146 0C7.61768 0 0 7.61768 0 17.0146C0 26.4114 7.61768 34.0291 17.0146 34.0291Z" fill="url(#paint0_linear)"/>
<path d="M25.2887 12.4987C25.2887 12.5862 25.2887 12.6736 25.2887 12.7901C25.2887 15.2957 23.2493 17.3059 20.7729 17.3059C18.2673 17.3059 16.257 15.2665 16.257 12.7901C16.257 10.3719 18.1799 8.39078 20.569 8.27424C19.4618 7.80809 18.2673 7.57501 16.9854 7.57501C11.7995 7.57501 7.57495 11.7995 7.57495 17.0146C7.57495 22.2297 11.7995 26.4542 17.0145 26.4542C22.2296 26.4542 26.4541 22.2297 26.4541 17.0146C26.425 15.3831 26.0171 13.8389 25.2887 12.4987Z" fill="url(#paint1_linear)"/>
</g>
<defs>
<linearGradient id="paint0_linear" x1="17.0021" y1="8.65878" x2="17.0021" y2="112.356" gradientUnits="userSpaceOnUse">
<stop stop-color="white"/>
<stop offset="0.00758207" stop-color="#FBFBFB"/>
<stop offset="0.127" stop-color="#C1C1C1"/>
<stop offset="0.2495" stop-color="#8E8E8E"/>
<stop offset="0.3723" stop-color="#626262"/>
<stop offset="0.4956" stop-color="#3F3F3F"/>
<stop offset="0.6195" stop-color="#232323"/>
<stop offset="0.7442" stop-color="#101010"/>
<stop offset="0.8703" stop-color="#040404"/>
<stop offset="1"/>
</linearGradient>
<linearGradient id="paint1_linear" x1="17.2664" y1="-4.41169" x2="16.1574" y2="85.4172" gradientUnits="userSpaceOnUse">
<stop stop-color="#18B4ED"/>
<stop offset="0.0978798" stop-color="#1392C0"/>
<stop offset="0.2224" stop-color="#0E6B8E"/>
<stop offset="0.3496" stop-color="#0A4A62"/>
<stop offset="0.4774" stop-color="#06303F"/>
<stop offset="0.6057" stop-color="#041B23"/>
<stop offset="0.7349" stop-color="#020C10"/>
<stop offset="0.8656" stop-color="#000304"/>
<stop offset="1"/>
</linearGradient>
<clipPath id="clip0">
<rect width="34" height="34" fill="white"/>
</clipPath>
</defs>
</svg>
