<svg id="Layer_1" enable-background="new 0 0 512 512" height="512" viewBox="0 0 512 512" width="512" xmlns="http://www.w3.org/2000/svg"><g><path d="m309.644 34.434c-4.142 0-7.5 3.358-7.5 7.5v35.822c0 10.654-8.667 19.322-19.322 19.322-18.925 0-34.322 15.396-34.322 34.322v38.434c0 4.142 3.358 7.5 7.5 7.5s7.5-3.358 7.5-7.5v-38.434c0-10.654 8.667-19.322 19.322-19.322 18.925 0 34.322-15.396 34.322-34.322v-35.822c0-4.142-3.358-7.5-7.5-7.5z" fill="#325a93"/><path d="m512 212.266v226.4c0 21.45-17.45 38.9-38.91 38.9h-434.18c-21.46 0-38.91-17.45-38.91-38.9v-226.4c0-11.33 9.21-20.54 20.54-20.54h470.92c11.33 0 20.54 9.21 20.54 20.54z" fill="#dcf3ff"/><path d="m512 212.266v226.4c0 21.45-17.45 38.9-38.91 38.9h-23.99c21.48 0 38.9-17.42 38.9-38.9v-226.4c0-11.34-9.2-20.54-20.54-20.54h24c11.33 0 20.54 9.21 20.54 20.54z" fill="#9bc9e0"/><path d="m283.38 162.333h-55.388c-4.142 0-7.5 3.358-7.5 7.5v29.388c0 4.142 3.358 7.5 7.5 7.5h55.388c4.142 0 7.5-3.358 7.5-7.5v-29.388c0-4.142-3.358-7.5-7.5-7.5z" fill="#dcf3ff"/><g><g fill="#9bc9e0"><path d="m77.278 263.755h-35.388c-2.761 0-5 2.239-5 5v35.388c0 2.761 2.239 5 5 5h35.388c2.761 0 5-2.239 5-5v-35.388c0-2.762-2.239-5-5-5z"/><path d="m238.392 309.142h35.388c2.761 0 5-2.239 5-5v-35.388c0-2.761-2.239-5-5-5h-35.388c-2.761 0-5 2.239-5 5v35.388c0 2.762 2.239 5 5 5z"/><path d="m172.521 309.142h35.388c2.761 0 5-2.239 5-5v-35.388c0-2.761-2.239-5-5-5h-35.388c-2.761 0-5 2.239-5 5v35.388c0 2.762 2.239 5 5 5z"/><path d="m107.275 309.142h35.388c2.761 0 5-2.239 5-5v-35.388c0-2.761-2.239-5-5-5h-35.388c-2.761 0-5 2.239-5 5v35.388c0 2.762 2.239 5 5 5z"/><path d="m303.78 309.142h35.388c2.761 0 5-2.239 5-5v-35.388c0-2.761-2.239-5-5-5h-35.388c-2.761 0-5 2.239-5 5v35.388c0 2.762 2.239 5 5 5z"/><path d="m41.576 374.617h35.388c2.761 0 5-2.239 5-5v-35.388c0-2.761-2.239-5-5-5h-35.388c-2.761 0-5 2.239-5 5v35.388c0 2.762 2.238 5 5 5z"/><path d="m238.078 374.617h35.388c2.761 0 5-2.239 5-5v-35.388c0-2.761-2.239-5-5-5h-35.388c-2.761 0-5 2.239-5 5v35.388c0 2.762 2.239 5 5 5z"/><path d="m172.207 374.617h35.388c2.761 0 5-2.239 5-5v-35.388c0-2.761-2.239-5-5-5h-35.388c-2.761 0-5 2.239-5 5v35.388c0 2.762 2.239 5 5 5z"/><path d="m106.961 374.617h35.388c2.761 0 5-2.239 5-5v-35.388c0-2.761-2.239-5-5-5h-35.388c-2.761 0-5 2.239-5 5v35.388c0 2.762 2.239 5 5 5z"/><path d="m77.092 394.704h-35.388c-2.761 0-5 2.239-5 5v35.388c0 2.761 2.239 5 5 5h35.388c2.761 0 5-2.239 5-5v-35.388c0-2.761-2.239-5-5-5z"/></g><path d="m409.556 417.403c0 12.51-10.18 22.69-22.7 22.69h-262.07c-12.52 0-22.7-10.18-22.7-22.69 0-12.52 10.18-22.7 22.7-22.7h262.07c12.52 0 22.7 10.18 22.7 22.7z" fill="#5fe1ff"/><path d="m409.556 417.403c0 12.51-10.18 22.69-22.7 22.69h-19.73c12.51 0 22.69-10.18 22.69-22.69 0-12.52-10.18-22.7-22.69-22.7h19.73c12.52 0 22.7 10.18 22.7 22.7z" fill="#3eb6ff"/><path d="m303.466 374.617h35.388c2.761 0 5-2.239 5-5v-35.388c0-2.761-2.239-5-5-5h-35.388c-2.761 0-5 2.239-5 5v35.388c0 2.762 2.239 5 5 5z" fill="#9bc9e0"/><path d="m404.554 329.229h-35.388c-2.761 0-5 2.239-5 5v35.388c0 2.761 2.239 5 5 5h35.388c2.761 0 5-2.239 5-5v-35.388c0-2.761-2.239-5-5-5z" fill="#9bc9e0"/><path d="m474.796 334.233v100.86c0 2.76-2.24 5-5 5h-35.38c-2.77 0-5-2.24-5-5v-100.86c0-2.76 2.23-5 5-5h35.38c2.76 0 5 2.24 5 5z" fill="#5fe1ff"/><path d="m474.796 334.233v100.86c0 2.76-2.24 5-5 5h-15c2.76 0 5-2.24 5-5v-100.86c0-2.76-2.24-5-5-5h15c2.76 0 5 2.24 5 5z" fill="#3eb6ff"/><path d="m474.796 268.753v35.39c0 2.76-2.24 5-5 5h-100.63c-2.76 0-5-2.24-5-5v-35.39c0-2.76 2.24-5 5-5h100.63c2.76 0 5 2.24 5 5z" fill="#5fe1ff"/><path d="m474.796 268.753v35.39c0 2.76-2.24 5-5 5h-15.31c2.76 0 5-2.24 5-5v-35.39c0-2.76-2.24-5-5-5h15.31c2.76 0 5 2.24 5 5z" fill="#3eb6ff"/></g><path d="m512 212.266v29.32h-512v-29.32c0-11.33 9.21-20.54 20.54-20.54h470.92c11.33 0 20.54 9.21 20.54 20.54z" fill="#325a93"/><path d="m512 212.266v29.32h-24v-29.32c0-11.34-9.2-20.54-20.54-20.54h24c11.33 0 20.54 9.21 20.54 20.54z" fill="#132d77"/></g></svg>