<svg width="215" height="204" viewBox="0 0 215 204" fill="none" xmlns="http://www.w3.org/2000/svg">
<path opacity="0.5" d="M157.553 58.0965C130.118 30.6608 85.6407 30.7315 58.2757 58.0965C30.9106 85.4616 30.7692 130.009 58.205 157.445C85.6407 184.881 130.118 184.81 157.483 157.445C184.848 130.08 184.989 85.5323 157.553 58.0965ZM55.8715 136.868C43.1436 114.099 46.3963 84.8252 65.7003 65.5212C80.6203 50.6012 101.409 45.2272 120.572 49.3991C126.017 50.6012 131.391 52.5811 136.482 55.2681C136.623 55.2681 136.765 55.4095 136.835 55.4802L136.906 55.551C137.189 55.6924 137.33 55.8338 137.542 56.0459C138.886 57.3894 139.098 59.44 138.108 60.9957C138.108 60.9957 138.037 61.0664 137.967 61.1371C137.825 61.2785 137.754 61.4907 137.613 61.6321C136.906 62.4806 136.057 63.3291 135.067 63.8948C134.785 64.0362 134.573 64.2484 134.29 64.3898C133.37 64.3191 132.522 64.3191 131.673 64.4605C131.673 64.4605 131.603 64.5312 131.532 64.4605C131.178 64.5312 130.754 64.6726 130.33 64.8141C130.188 64.8141 130.118 64.8848 129.906 64.9555C115.481 70.1881 101.833 78.6026 90.2369 90.1992C78.6404 101.796 70.1551 115.372 64.9932 129.868C64.9932 130.009 64.8518 130.151 64.8518 130.292C64.4275 131.565 64.3568 132.908 64.4275 134.252C64.2861 134.535 64.1447 134.818 63.9325 135.03C63.2254 136.02 62.5183 136.868 61.6698 137.575C61.5284 137.717 61.3869 137.858 61.1748 137.929C61.1041 138 61.1041 138 61.0334 138.07C59.4778 139.06 57.4272 138.848 56.0836 137.505C56.1544 137.293 56.0129 137.151 55.8715 136.868ZM133.158 158.859C133.158 159.001 133.158 159.142 133.158 159.284C133.158 160.273 132.734 161.263 131.956 162.041C131.603 162.395 131.108 162.748 130.683 162.89C130.683 162.89 130.683 162.89 130.613 162.96C122.41 166.355 113.571 167.84 104.803 167.415C103.318 167.345 101.904 167.203 100.419 166.991C93.3482 166.142 86.4185 163.88 79.9839 160.556C79.701 160.415 79.3475 160.203 79.0646 159.92C78.0747 158.93 77.7211 157.586 77.9333 156.243C77.9333 156.102 78.004 156.031 78.0747 155.819C78.8525 153.061 80.3374 150.445 82.4587 148.323C82.8123 147.97 83.0951 147.687 83.5194 147.404C89.6005 148.96 95.8938 149.738 102.116 149.596C109.894 149.455 117.531 147.899 124.814 145.141C124.956 145.141 125.097 145 125.309 144.929C126.37 145.566 127.289 146.343 128.209 147.263C131.391 150.445 133.017 154.617 133.158 158.859ZM120.148 119.968C113.43 126.686 102.47 126.757 95.6816 119.968C88.8934 113.18 88.8934 102.291 95.6816 95.5025C102.399 88.785 113.359 88.7143 120.148 95.5025C126.936 102.291 126.865 113.251 120.148 119.968ZM167.524 104.695C167.594 106.604 167.594 108.443 167.524 110.352C167.241 117.14 165.827 123.928 163.21 130.363C163.21 130.363 163.21 130.363 163.14 130.434C163.14 130.575 162.998 130.716 162.998 130.858C162.786 131.211 162.574 131.565 162.291 131.848C161.584 132.555 160.594 132.979 159.675 133.05H159.533C159.392 133.05 159.251 133.05 158.968 133.05C154.725 132.908 150.624 131.211 147.442 128.029C146.523 127.11 145.745 126.191 145.108 125.13C145.179 124.918 145.25 124.847 145.321 124.635C147.513 118.908 148.927 112.968 149.492 106.887C149.634 105.19 149.705 103.564 149.775 101.937C149.917 95.7146 149.21 89.4921 147.583 83.4817C147.583 83.4817 147.513 83.411 147.583 83.3403C147.866 83.0574 148.149 82.6331 148.432 82.3503C150.624 80.1583 153.169 78.7441 155.927 77.9662C156.069 77.9662 156.139 77.8955 156.351 77.8248C157.624 77.542 159.038 77.9662 160.028 78.9562C160.311 79.239 160.523 79.5926 160.665 79.8754C160.735 79.9461 160.735 79.9461 160.735 80.0876C164.13 86.4515 166.251 93.3812 167.099 100.311C167.241 101.725 167.453 103.21 167.524 104.695Z" fill="#C1C1C1"/>
<path d="M114.844 32.3578C92.3583 30.2365 70.2966 38.2975 54.3867 54.2074C38.406 70.188 30.4157 92.179 32.5371 114.665C33.9513 130.787 40.3859 145.566 50.9218 157.657L52.6189 155.96C42.1537 143.939 36.214 129.373 34.8705 114.453C33.032 93.5225 40.0324 71.9558 56.0837 55.9045C72.135 39.8531 93.7018 32.8528 114.632 34.6912C129.552 36.0347 144.119 41.9744 156.139 52.4396L157.836 50.7426C145.745 40.2067 130.896 33.8427 114.844 32.3578Z" fill="#FFEC00"/>
<path d="M172.474 72.875C187.535 100.664 183.222 136.09 159.746 159.566C136.27 183.042 100.844 187.356 73.0543 172.294C68.3874 169.749 63.9326 166.708 59.69 163.031L57.9929 164.728C62.3063 168.476 66.9025 171.658 71.8522 174.345C85.9236 181.911 102.399 184.951 118.309 182.759C134.714 180.497 149.634 173.072 161.443 161.263C173.181 149.525 180.605 134.605 182.939 118.13C185.131 102.22 182.161 85.6736 174.524 71.6729C171.837 66.7231 168.584 62.0562 164.907 57.8136L163.21 59.5107C166.887 63.7533 169.928 68.2081 172.474 72.875Z" fill="#FFEC00"/>
<path fill-rule="evenodd" clip-rule="evenodd" d="M39.7356 43.2091C40.7247 42.2457 42.3075 42.2666 43.2709 43.2556C44.2342 44.2447 44.2134 45.8275 43.2243 46.7909C28.8234 60.8177 19.7429 80.254 19.1148 101.806L26.9107 102.527L15.4597 112.097L6 100.593L14.1267 101.344C14.8725 78.5835 24.5025 58.0466 39.7356 43.2091Z" fill="#F3CC30"/>
<path fill-rule="evenodd" clip-rule="evenodd" d="M158.173 157.277C158.111 157.34 158.049 157.402 157.987 157.464C130.622 184.829 86.0746 184.97 58.6389 157.535C31.2031 130.099 31.2738 85.6218 58.6389 58.2568C58.7245 58.1711 58.8103 58.0858 58.8963 58.0007L66.321 65.4254C66.235 65.5104 66.1491 65.5957 66.0635 65.6814C51.1435 80.6013 45.7695 101.39 49.9415 120.553C51.1435 125.998 53.1234 131.372 55.8104 136.463C55.8104 136.604 55.9519 136.746 56.0226 136.816L56.0933 136.887C56.2347 137.17 56.3761 137.311 56.5882 137.523H56.5883C57.9318 138.867 59.9824 139.079 61.538 138.089L61.6794 137.948C61.7501 137.877 61.8385 137.824 61.9269 137.771C62.0153 137.718 62.1037 137.665 62.1744 137.594C63.0229 136.887 63.8715 136.039 64.4371 135.049C64.5079 134.907 64.5962 134.783 64.6846 134.66C64.773 134.536 64.8614 134.412 64.9321 134.271C64.8614 133.351 64.8614 132.503 65.0028 131.654C65.0028 131.654 65.0735 131.584 65.0028 131.513C65.0735 131.159 65.2149 130.735 65.3564 130.311C65.3564 130.224 65.3834 130.163 65.4207 130.08C65.4438 130.028 65.4708 129.968 65.4978 129.887C70.7304 115.462 79.145 101.815 90.7415 90.218C90.8035 90.156 90.8656 90.094 90.9278 90.0322L96.3042 95.4086C96.2171 95.4922 96.1306 95.5769 96.0448 95.6627C89.3273 102.38 89.2566 113.34 96.0448 120.129C102.833 126.917 113.793 126.846 120.511 120.129C120.596 120.043 120.681 119.956 120.765 119.869L158.173 157.277ZM110.894 167.505C108.985 167.575 107.146 167.575 105.237 167.505C104.208 167.456 103.179 167.339 102.174 167.225C101.728 167.174 101.287 167.124 100.853 167.08C93.9235 166.232 86.9938 164.111 80.6299 160.717C80.4885 160.717 80.4885 160.717 80.4178 160.646C80.1349 160.504 79.7813 160.292 79.4985 160.009C78.5086 159.019 78.0843 157.605 78.3671 156.332C78.3942 156.251 78.4212 156.191 78.4442 156.139C78.4816 156.056 78.5086 155.996 78.5086 155.908C79.2864 153.15 80.7006 150.605 82.8926 148.413C83.034 148.271 83.2108 148.13 83.3876 147.989C83.5644 147.847 83.7412 147.706 83.8826 147.564C83.9533 147.494 84.024 147.564 84.024 147.564C90.0344 149.191 96.2569 149.898 102.479 149.756H102.48C104.106 149.686 105.732 149.615 107.429 149.474C113.51 148.908 119.45 147.494 125.178 145.302C125.284 145.266 125.354 145.231 125.425 145.196C125.496 145.16 125.567 145.125 125.673 145.089C126.733 145.726 127.652 146.504 128.572 147.423C131.754 150.605 133.451 154.706 133.592 158.949V159.514V159.656C133.521 160.575 133.097 161.565 132.39 162.272C132.107 162.555 131.754 162.767 131.4 162.979C131.329 162.979 131.259 163.015 131.188 163.05C131.117 163.085 131.047 163.121 130.976 163.121L130.905 163.191C124.471 165.808 117.682 167.222 110.894 167.505Z" fill="#F3CC30"/>
<path d="M118.536 118.616C112.726 124.461 103.242 124.461 97.3472 118.616C91.452 112.771 91.6228 103.229 97.4326 97.384C103.242 91.5387 112.726 91.5387 118.621 97.384C124.516 103.229 124.431 112.771 118.536 118.616Z" fill="#E0E0E0"/>
<path d="M103.255 103.215C102.968 102.928 102.502 102.928 102.215 103.215C101.928 103.502 101.928 103.968 102.215 104.255L106.46 108.5L102.215 112.745C101.928 113.032 101.928 113.498 102.215 113.785C102.502 114.072 102.968 114.072 103.255 113.785L107.5 109.54L111.745 113.785C112.032 114.072 112.498 114.072 112.785 113.785C113.072 113.498 113.072 113.032 112.785 112.745L108.54 108.5L112.785 104.255C113.072 103.968 113.072 103.502 112.785 103.215C112.498 102.928 112.032 102.928 111.745 103.215L107.5 107.46L103.255 103.215Z" fill="black" stroke="black" stroke-width="2"/>
</svg>
