<svg width="168" height="143" viewBox="0 0 168 143" fill="none" xmlns="http://www.w3.org/2000/svg">
<g clip-path="url(#clip0)">
<g opacity="0.5">
<path opacity="0.5" d="M92.2236 74.4752C92.2236 84.3747 84.2333 92.365 74.3338 92.365C64.4343 92.365 56.444 84.3747 56.444 74.4752C56.444 64.5757 64.4343 56.5854 74.3338 56.5854C84.2333 56.5854 92.2236 64.5757 92.2236 74.4752Z" fill="#BDBDBD"/>
<path opacity="0.5" d="M91.0214 73.2731C91.0214 82.8897 83.1725 90.7386 73.4852 90.8093C63.7978 90.88 56.0903 82.8897 56.0903 73.2731C56.0903 63.6564 63.9392 55.8075 73.6266 55.7368C83.314 55.6661 91.0921 63.5857 91.0214 73.2731Z" fill="#E0E0E0" stroke="#BDBDBD" stroke-width="0.4718" stroke-miterlimit="10"/>
</g>
<path d="M166.48 66.5927L157.02 78.0972L145.569 68.5269L166.48 66.5927Z" fill="white"/>
<path d="M121.175 20.775C93.475 -6.925 48.475 -6.925 20.775 20.775C-6.925 48.475 -6.925 93.475 20.775 121.175C48.475 148.875 93.475 148.875 121.175 121.175C148.875 93.475 148.875 48.475 121.175 20.775ZM113.175 28.775C131.775 47.375 135.475 75.075 124.575 97.375C122.875 98.775 112.475 106.775 105.175 98.975C93.675 86.575 104.075 75.775 83.275 55.875C62.475 35.975 48.075 40.175 40.775 32.875C35.775 27.875 37.275 23.175 38.775 20.775C61.875 5.875 92.975 8.575 113.175 28.775ZM19.775 40.175C27.275 42.575 39.775 44.175 40.975 50.975C42.475 59.675 42.375 88.675 22.775 106.175C8.475 86.775 7.475 60.575 19.775 40.175ZM39.175 121.475C46.175 114.575 80.175 100.675 90.275 102.375C95.975 103.275 101.475 111.175 103.675 120.875C84.175 133.775 58.875 133.975 39.175 121.475Z" fill="#E0E0E0"/>
<path d="M121.375 20.975L113.375 28.975C131.975 47.575 135.675 75.275 124.775 97.575C123.075 98.975 112.675 106.975 105.375 99.175C94.175 87.075 103.775 76.475 84.975 57.475L20.975 121.475C48.675 149.175 93.675 149.175 121.375 121.475C149.075 93.675 149.075 48.675 121.375 20.975ZM39.375 121.775C46.375 114.875 80.375 100.975 90.475 102.675C96.175 103.575 101.675 111.475 103.875 121.175C84.475 133.975 59.075 134.175 39.375 121.775Z" fill="#3FA9F5" fill-opacity="0.6"/>
<path d="M83.525 88.475C76.525 95.475 65.225 95.475 58.225 88.475C51.225 81.475 51.225 70.175 58.225 63.175C65.225 56.175 76.525 56.175 83.525 63.175C90.525 70.175 90.525 81.475 83.525 88.475Z" fill="#BDBDBD"/>
<path d="M83.525 86.775C76.725 93.575 65.625 93.575 58.725 86.775C51.825 79.975 52.025 68.875 58.825 62.075C65.625 55.275 76.725 55.275 83.625 62.075C90.525 68.875 90.425 79.975 83.525 86.775Z" fill="#E0E0E0" stroke="#BDBDBD" stroke-width="0.4718" stroke-miterlimit="10"/>
<path d="M131 11C146.4 26 155.9 47 155.9 70.2" stroke="white" stroke-width="5" stroke-miterlimit="10" stroke-linecap="round"/>
<path d="M66.369 69.2349C66.0558 68.9217 65.5481 68.9217 65.2349 69.2349C64.9217 69.5481 64.9217 70.0558 65.2349 70.369L69.8659 75L65.2349 79.631C64.9218 79.9442 64.9218 80.4519 65.2349 80.7651C65.5481 81.0783 66.0559 81.0783 66.369 80.7651L71 76.1341L75.631 80.7651C75.9441 81.0783 76.4519 81.0783 76.7651 80.7651C77.0782 80.4519 77.0782 79.9442 76.7651 79.631L72.1341 75L76.7651 70.369C77.0783 70.0558 77.0783 69.5481 76.7651 69.2349C76.4519 68.9217 75.9442 68.9217 75.631 69.2349L71 73.8659L66.369 69.2349Z" fill="#B8B4B8" stroke="#B8B4B8" stroke-width="3"/>
</g>
<defs>
<clipPath id="clip0">
<rect width="168" height="143" fill="white"/>
</clipPath>
</defs>
</svg>
