<svg width="64" height="63" viewBox="0 0 64 63" fill="none" xmlns="http://www.w3.org/2000/svg">
<g clip-path="url(#clip0)">
<path opacity="0.5" d="M63.3275 36.5352H62.2837C61.9357 36.5352 61.5878 36.4656 61.3094 36.396C58.7346 49.9662 46.3474 60.2656 31.9422 60.2656C17.5369 60.2656 5.14976 49.9662 2.5749 36.4656C2.29654 36.5352 1.94859 36.5352 1.67022 36.5352H0.556777H0.487186C1.67022 43.2159 5.08016 49.4094 10.2995 54.072C16.2147 59.3609 23.8696 62.2837 31.8726 62.2837C39.8755 62.2837 47.5305 59.3609 53.4457 54.072C58.665 49.4094 62.1445 43.2159 63.3275 36.5352Z" fill="#FFEC00"/>
<path d="M31.6725 58.3118C46.8603 58.3118 59.1725 46.2235 59.1725 31.3118C59.1725 16.4001 46.8603 4.31177 31.6725 4.31177C16.4847 4.31177 4.17249 16.4001 4.17249 31.3118C4.17249 46.2235 16.4847 58.3118 31.6725 58.3118Z" fill="#030405"/>
<path opacity="0.5" d="M62.2837 26.3053H63.258C63.3275 26.3053 63.3275 26.3053 63.3971 26.3053C61.0311 11.4129 47.6697 0 31.9422 0C16.1451 0 2.78368 11.4129 0.417606 26.3749C0.487196 26.3749 0.556787 26.3749 0.626378 26.3749H1.60064C1.87901 26.3749 2.15737 26.3749 2.43573 26.4444C4.80181 12.5959 17.1889 2.08772 31.9422 2.08772C46.6258 2.08772 59.0825 12.5959 61.4486 26.4444C61.6574 26.3749 62.0053 26.3053 62.2837 26.3053Z" fill="#FFEC00"/>
<path d="M45 30.9667L19 8V54L45 30.9667Z" fill="url(#paint0_linear)"/>
<path d="M42.5 36.5C45.8137 36.5 48.5 33.8137 48.5 30.5C48.5 27.1863 45.8137 24.5 42.5 24.5C39.1863 24.5 36.5 27.1863 36.5 30.5C36.5 33.8137 39.1863 36.5 42.5 36.5Z" fill="white" stroke="black" stroke-width="5"/>
</g>
<defs>
<linearGradient id="paint0_linear" x1="40.5" y1="31" x2="17" y2="31" gradientUnits="userSpaceOnUse">
<stop stop-color="white"/>
<stop offset="1" stop-color="#C4C4C4" stop-opacity="0"/>
</linearGradient>
<clipPath id="clip0">
<rect width="64" height="63" fill="white"/>
</clipPath>
</defs>
</svg>
