<svg width="20" height="20" viewBox="0 0 20 20" fill="none" xmlns="http://www.w3.org/2000/svg">
<path d="M18.2887 5.49875C18.2887 5.58615 18.2887 5.67356 18.2887 5.79009C18.2887 8.29566 16.2493 10.3059 13.7729 10.3059C11.2673 10.3059 9.25704 8.26653 9.25704 5.79009C9.25704 3.37193 11.1799 1.39078 13.569 1.27424C12.4618 0.808088 11.2673 0.575012 9.9854 0.575012C4.79946 0.575012 0.574951 4.79952 0.574951 10.0146C0.574951 15.2297 4.79946 19.4542 10.0145 19.4542C15.2296 19.4542 19.4541 15.2297 19.4541 10.0146C19.425 8.38307 19.0171 6.83894 18.2887 5.49875Z" fill="url(#paint0_linear)"/>
<defs>
<linearGradient id="paint0_linear" x1="10.2664" y1="-11.4117" x2="9.1574" y2="78.4172" gradientUnits="userSpaceOnUse">
<stop stop-color="#18B4ED"/>
<stop offset="0.0978798" stop-color="#1392C0"/>
<stop offset="0.2224" stop-color="#0E6B8E"/>
<stop offset="0.3496" stop-color="#0A4A62"/>
<stop offset="0.4774" stop-color="#06303F"/>
<stop offset="0.6057" stop-color="#041B23"/>
<stop offset="0.7349" stop-color="#020C10"/>
<stop offset="0.8656" stop-color="#000304"/>
<stop offset="1"/>
</linearGradient>
</defs>
</svg>
