<svg id="Capa_1" enable-background="new 0 0 512 512" height="512" viewBox="0 0 512 512" width="512" xmlns="http://www.w3.org/2000/svg"><g><g><g><path d="m479.246 504.5h-446.492c-13.947 0-25.254-11.307-25.254-25.254v-446.492c0-13.948 11.307-25.254 25.254-25.254h446.492c13.948 0 25.254 11.307 25.254 25.254v446.492c0 13.947-11.306 25.254-25.254 25.254z" fill="#f7f7f7"/></g></g><g><g><path d="m36.152 36.152h439.696v439.696h-439.696z" fill="#5392f9" transform="matrix(0 1 -1 0 512 0)"/></g></g><g><g><path d="m445.848 36.152h30v439.696h-30z" fill="#4981f8"/></g></g><g><g><g><path d="m161.145 117.441c0-9.117 8.248-17.365 21.272-17.365h87.26c55.134 0 98.547 26.482 98.547 97.679v2.604c0 71.197-44.715 98.547-102.02 98.547h-48.622v100.718c0 11.722-14.326 17.799-28.218 17.799-14.326 0-28.218-6.078-28.218-17.799v-282.183zm56.437 32.126v105.059h48.622c28.218 0 45.583-16.063 45.583-49.925v-5.21c0-33.862-17.365-49.925-45.583-49.925h-48.622z" fill="#f7f7f7"/></g></g></g><g><g><g><path d="m269.677 100.076h-30c55.134 0 98.547 26.482 98.547 97.679v2.604c0 71.197-44.715 98.547-102.02 98.547h30c57.305 0 102.02-27.35 102.02-98.547v-2.604c0-71.197-43.413-97.679-98.547-97.679z" fill="#e8e8e8"/></g></g></g><g><g><g><path d="m189.363 424.924c-21.03 0-35.718-10.403-35.718-25.299v-282.184c0-14.175 12.369-24.865 28.772-24.865h87.26c31.486 0 56.682 8.073 74.886 23.995 20.677 18.084 31.161 45.398 31.161 81.184v2.604c0 35.893-10.813 63.368-32.137 81.665-18.857 16.179-44.893 24.382-77.383 24.382h-41.122v93.218c0 16.61-17.969 25.3-35.719 25.3zm-6.946-317.348c-8.945 0-13.772 5.083-13.772 9.865v282.183c0 6.447 10.534 10.299 20.718 10.299 9.964 0 20.718-3.938 20.718-10.299v-108.217h56.122c28.806 0 51.555-6.987 67.616-20.767 17.853-15.317 26.904-38.963 26.904-70.28v-2.604c0-74.534-49.512-90.179-91.047-90.179h-87.259zm83.787 154.55h-56.122v-120.059h56.122c33.735 0 53.083 20.931 53.083 57.425v5.21c0 36.493-19.348 57.424-53.083 57.424zm-41.122-15h41.122c25.271 0 38.083-14.274 38.083-42.425v-5.21c0-28.151-12.813-42.425-38.083-42.425h-41.122z"/></g></g></g><g><path d="m373.62 468.348h-329.968v-424.696h99.168c4.142 0 7.5-3.358 7.5-7.5s-3.358-7.5-7.5-7.5h-106.668c-4.142 0-7.5 3.358-7.5 7.5v439.697c0 4.142 3.358 7.5 7.5 7.5h337.468c4.142 0 7.5-3.358 7.5-7.5 0-4.143-3.358-7.501-7.5-7.501z"/><path d="m475.848 28.652h-303.028c-4.142 0-7.5 3.358-7.5 7.5s3.358 7.5 7.5 7.5h295.528v424.697h-64.728c-4.142 0-7.5 3.358-7.5 7.5s3.358 7.5 7.5 7.5h72.228c4.142 0 7.5-3.358 7.5-7.5v-439.697c0-4.143-3.358-7.5-7.5-7.5z"/><path d="m479.246 0h-446.492c-18.061 0-32.754 14.693-32.754 32.754v446.492c0 18.061 14.693 32.754 32.754 32.754h446.492c18.061 0 32.754-14.693 32.754-32.754v-446.492c0-18.061-14.693-32.754-32.754-32.754zm17.754 479.246c0 9.79-7.964 17.754-17.754 17.754h-446.492c-9.79 0-17.754-7.964-17.754-17.754v-446.492c0-9.79 7.964-17.754 17.754-17.754h446.492c9.79 0 17.754 7.964 17.754 17.754z"/></g></g></svg>