<?xml version="1.0"?>
<svg xmlns="http://www.w3.org/2000/svg" xmlns:xlink="http://www.w3.org/1999/xlink" xmlns:svgjs="http://svgjs.com/svgjs" version="1.1" width="512" height="512" x="0" y="0" viewBox="0 0 512 512" style="enable-background:new 0 0 512 512" xml:space="preserve"><g><g xmlns="http://www.w3.org/2000/svg" id="Solid"><circle cx="256" cy="256" r="24" fill="#1ca067" data-original="#000000" style=""/><path d="m312 377.941-32 32v-73.941a24 24 0 0 0 -48 0v73.941l-32-32a22.627 22.627 0 0 0 -32 32l71.029 71.029a24 24 0 0 0 33.942 0l71.029-71.029a22.627 22.627 0 0 0 -32-32z" fill="#1ca067" data-original="#000000" style=""/><path d="m168 134.059a22.627 22.627 0 0 0 32 0l32-32v73.941a24 24 0 0 0 48 0v-73.941l32 32a22.627 22.627 0 0 0 32 0 22.627 22.627 0 0 0 0-32l-71.029-71.03a24 24 0 0 0 -33.942 0l-71.029 71.03a22.627 22.627 0 0 0 0 32z" fill="#1ca067" data-original="#000000" style=""/></g></g></svg>
