<svg id="Layer_1" enable-background="new 0 0 512 512" height="512" viewBox="0 0 512 512" width="512" xmlns="http://www.w3.org/2000/svg"><g><path d="m497 449.643h-48.2c-8.284 0-15 6.716-15 15s6.716 15 15 15h48.2c8.284 0 15-6.716 15-15s-6.716-15-15-15z"/><path d="m256 351.11c8.284 0 15-6.716 15-15s-6.716-15-15-15h-64.267c-8.284 0-15 6.716-15 15v128.533c0 8.284 6.716 15 15 15h64.267c8.284 0 15-6.716 15-15v-64.267c0-8.284-6.716-15-15-15h-49.267v-34.266zm-15 64.266v34.267h-34.267v-34.267z"/><path d="m384.533 321.11h-64.267c-8.284 0-15 6.716-15 15v128.533c0 8.284 6.716 15 15 15h64.267c8.284 0 15-6.716 15-15v-128.533c0-8.285-6.716-15-15-15zm-15 128.533h-34.267v-98.533h34.267z"/><path d="m143.901 57.563c-21.189 10.245-40.748 23.328-58.411 39.07l66.828 66.828c8.894-7.403 18.497-13.779 28.725-19.08z"/><path d="m240.552 126.868v-94.511c-23.628 1.36-46.717 5.939-68.954 13.676l37.222 87.006c10.331-3.123 20.934-5.181 31.732-6.171z"/><path d="m101.027 240.357-87.685-35.139c-7.478 21.847-11.92 44.509-13.259 67.691h94.511c1.019-11.084 3.167-21.963 6.433-32.552z"/><path d="m94.523 302.909h-94.523c1.428 24.819 6.403 49.046 14.864 72.312l86.896-37.175c-3.724-11.401-6.139-23.149-7.237-35.137z"/><path d="m131.104 184.675-66.829-66.829c-16.034 17.988-29.315 37.938-39.644 59.577l87.803 35.186c5.219-9.933 11.458-19.269 18.67-27.934z"/><path d="m511.472 287.942c0-29.656-5.004-58.585-14.889-86.176l-86.948 37.197c5.021 15.766 7.57 32.183 7.57 48.978 0 8.284 6.716 15 15 15h64.267c8.284.001 15-6.715 15-14.999z"/><path d="m113.701 365.568-86.924 37.187c12.219 24.395 28.231 46.589 47.792 66.142 2.929 2.928 6.766 4.392 10.604 4.392s7.678-1.465 10.606-4.394l45.444-45.444c2.813-2.813 4.394-6.629 4.394-10.608s-1.582-7.794-4.396-10.607c-10.981-10.978-20.19-23.267-27.52-36.668z"/><path d="m397.986 211.317 86.89-37.173c-10.088-20.378-22.826-39.223-38.047-56.299l-66.829 66.83c6.898 8.289 12.91 17.189 17.986 26.642z"/><path d="m358.787 163.462 66.829-66.829c-17.773-15.843-37.466-28.994-58.807-39.268l-35.194 87.822c9.65 5.136 18.728 11.246 27.172 18.275z"/><path d="m270.552 32.357v94.511c11.381 1.045 22.542 3.288 33.399 6.701l35.137-87.68c-22.108-7.649-45.056-12.181-68.536-13.532z"/></g></svg>