<svg width="17" height="17" viewBox="0 0 17 17" fill="none" xmlns="http://www.w3.org/2000/svg">
<path d="M8.23056 0.151107L10.5045 4.98648C10.5409 5.06538 10.6136 5.12137 10.6984 5.13409L15.7821 5.9103C15.993 5.94338 16.0778 6.21314 15.9251 6.37093L12.2451 10.1323C12.1845 10.1934 12.1578 10.2825 12.1724 10.3716L13.0403 15.6854C13.0766 15.9068 12.856 16.0722 12.6669 15.9704L8.12147 13.4611C8.04632 13.4204 7.95662 13.4204 7.88147 13.4611L3.33602 15.9704C3.14693 16.0748 2.92632 15.9068 2.96268 15.6854L3.83056 10.3716C3.84511 10.285 3.81844 10.196 3.75784 10.1323L0.0778358 6.36838C-0.0748915 6.21314 0.00995701 5.94083 0.220866 5.90775L5.3045 5.13155C5.38693 5.11882 5.45965 5.06283 5.49844 4.98394L7.77238 0.148562C7.8645 -0.0499428 8.13602 -0.0499428 8.23056 0.151107Z" fill="#F3CC30"/>
<path d="M8.00037 1.26868L5.9737 5.38892C5.86704 5.60524 5.6634 5.7503 5.4331 5.77066L1.03552 6.19058L5.68279 6.41962C5.97855 6.43489 6.24764 6.24657 6.34946 5.95644L8.00037 1.26868Z" fill="#F7DB5E"/>
<path d="M3.06222 15.0749L2.96283 15.6857C2.92647 15.9071 3.14707 16.0725 3.33616 15.9707L7.88162 13.4614C7.95677 13.4207 8.04647 13.4207 8.12162 13.4614L12.6671 15.9707C12.8562 16.0751 13.0768 15.9071 13.0404 15.6857L12.1701 10.3719C12.1556 10.2853 12.1822 10.1963 12.2428 10.1326L15.9204 6.36867C16.0731 6.21343 15.9883 5.94112 15.7774 5.90804L14.078 5.651C11.324 10.8376 7.10828 13.5683 3.06222 15.0749Z" fill="#EDBD31"/>
</svg>
