<svg width="37" height="35" viewBox="0 0 37 35" fill="none" xmlns="http://www.w3.org/2000/svg">
<path d="M16.5235 1.99387C17.1222 0.151251 19.729 0.15125 20.3277 1.99387L23.1404 10.6504C23.4081 11.4745 24.1761 12.0324 25.0425 12.0324H34.1445C36.082 12.0324 36.8875 14.5116 35.3201 15.6504L27.9564 21.0005C27.2554 21.5097 26.9621 22.4125 27.2299 23.2365L30.0425 31.8931C30.6413 33.7357 28.5323 35.2679 26.9649 34.1291L19.6012 28.7791C18.9002 28.2698 17.951 28.2698 17.25 28.7791L9.88634 34.1291C8.31891 35.2679 6.20995 33.7357 6.80865 31.8931L9.62133 23.2365C9.88908 22.4125 9.59576 21.5097 8.89479 21.0005L1.5311 15.6504C-0.0363317 14.5116 0.769217 12.0324 2.70666 12.0324H11.8087C12.6751 12.0324 13.4431 11.4745 13.7108 10.6504L16.5235 1.99387Z" fill="#D9D9D9"/>
</svg>
