<svg width="202" height="191" viewBox="0 0 202 191" fill="none" xmlns="http://www.w3.org/2000/svg">
<path d="M158.041 81.7898L158.052 81.6819L158.016 81.5793C149.889 57.909 127.501 40.7952 100.975 40.7952C72.168 40.7952 48.0677 61.0457 42.2207 88.1416L42.1971 88.2507L42.2222 88.3595C42.5551 89.802 43.3166 91.6878 44.9386 93.216C46.571 94.754 49.0317 95.8888 52.6796 95.8888C55.3705 95.8888 57.8369 95.0304 60.4418 93.7742C61.7439 93.1464 63.0914 92.4135 64.5222 91.6327L64.6734 91.5502C66.063 90.7918 67.5357 89.9879 69.1413 89.1798C75.7788 85.8391 84.7041 82.4164 99.0062 82.1001C113.282 81.7844 120.45 85.3368 126.159 89.0378C127.036 89.6065 127.883 90.1824 128.719 90.751C133.34 93.8934 137.638 96.8156 144.938 97.0906H144.94C150.541 97.2761 153.782 93.9325 155.62 90.349C157.449 86.7817 157.933 82.9056 158.041 81.7898ZM42.7633 114.955L42.4119 115.136L42.5069 115.52C48.2825 138.837 67.6761 156.805 91.7078 160.442L92.2508 160.524L92.2818 159.976C93.0321 146.72 88.244 134.914 82.3832 125.798C76.5249 116.686 69.5686 110.221 65.908 107.638L65.9064 107.636C64.3625 106.556 62.5439 106.289 60.6221 106.521C58.7075 106.752 56.6575 107.481 54.6001 108.432C52.5394 109.384 50.4424 110.572 48.4341 111.74C48.074 111.95 47.717 112.159 47.3635 112.365C45.738 113.316 44.1886 114.221 42.7633 114.955ZM113.698 159.166L113.693 159.795L114.307 159.658C137.268 154.524 155.166 136.341 159.872 113.237L159.941 112.898L159.649 112.714C155.394 110.033 150.859 108.255 146.78 107.579C142.719 106.907 139.023 107.316 136.533 109.125C134.356 110.676 131.858 113.988 129.351 118.153C126.831 122.34 124.26 127.458 121.952 132.69C119.643 137.923 117.592 143.281 116.113 147.952C114.64 152.604 113.716 156.627 113.698 159.166ZM30.4815 100.975C30.4815 62.0774 62.0774 30.4815 100.975 30.4815C139.873 30.4814 171.469 62.0774 171.469 100.975C171.469 139.873 139.873 171.468 100.975 171.468C62.0774 171.468 30.4815 139.873 30.4815 100.975Z" fill="#E0E0E0" stroke="black"/>
<g opacity="0.5">
<path opacity="0.5" d="M120.876 107.986C120.876 117.886 112.886 125.876 102.986 125.876C93.0867 125.876 85.0964 117.886 85.0964 107.986C85.0964 98.0867 93.0867 90.0964 102.986 90.0964C112.886 90.0964 120.876 98.0867 120.876 107.986Z" fill="#BDBDBD"/>
<path opacity="0.5" d="M119.674 106.784C119.674 116.401 111.825 124.25 102.138 124.32C92.4503 124.391 84.7428 116.401 84.7428 106.784C84.7428 97.1675 92.5917 89.3186 102.279 89.2479C111.966 89.1772 119.745 97.0968 119.674 106.784Z" fill="#E0E0E0" stroke="#BDBDBD" stroke-width="0.4718" stroke-miterlimit="10"/>
</g>
</svg>
