<svg width="142" height="142" viewBox="0 0 142 142" fill="none" xmlns="http://www.w3.org/2000/svg">
<g opacity="0.3" clip-path="url(#clip0)">
<path d="M71 -3.05176e-05C31.7967 -3.05176e-05 0 31.7966 0 71C0 110.203 31.7967 142 71 142C110.203 142 142 110.203 142 71C142 31.7966 110.203 -3.05176e-05 71 -3.05176e-05ZM71 130.725C38.0239 130.725 11.2751 103.976 11.2751 71C11.2751 38.0239 38.0239 11.2751 71 11.2751C103.976 11.2751 130.725 38.0239 130.725 71C130.725 103.976 103.976 130.725 71 130.725Z" fill="#E0E0E0"/>
<path d="M12.3601 56.0923C12.3601 56.0923 12.4073 65.3389 22.6917 65.3389C33.0233 65.3389 40.194 52.2239 68.9714 51.5634C97.7488 50.9501 98.0791 65.9521 114.968 66.5654C126.573 66.99 127.564 51.4219 127.564 51.4219C127.564 51.4219 139.028 74.7269 129.498 83.1714C121.054 77.8877 111.619 76.1894 106.901 79.586C98.5508 85.5774 84.2565 119.591 84.2565 129.31C84.2565 139.783 64.018 143.84 61.8479 130.725C63.7349 104.165 42.9302 83.2186 35.6651 78.1236C29.9568 74.1136 20.0498 81.8505 13.0206 85.4359C4.90632 88.0306 12.3601 56.0923 12.3601 56.0923Z" fill="#E0E0E0"/>
<path d="M88.9269 79.3973C88.9269 89.0684 81.0957 96.8996 71.4246 96.8996C61.7535 96.8996 53.9223 89.0684 53.9223 79.3973C53.9223 69.7262 61.7535 61.895 71.4246 61.895C81.0957 61.8478 88.9269 69.7262 88.9269 79.3973Z" fill="#BDBDBD"/>
<path d="M88.5023 78.5482C88.5023 88.2193 80.6711 96.0505 71 96.0505C61.3289 96.0505 53.4977 88.2193 53.4977 78.5482C53.4977 68.8771 61.3289 61.0458 71 61.0458C80.6711 61.0458 88.5023 68.8771 88.5023 78.5482Z" fill="#E0E0E0" stroke="#BDBDBD" stroke-width="0.471761" stroke-miterlimit="10"/>
<path d="M84.2565 129.262C84.2565 129.262 86.8512 112.326 93.22 101.334C101.051 87.8419 106.193 79.3973 106.193 79.3973C106.193 79.3973 89.4459 93.4558 85.6718 101.24C81.8977 109.024 81.6618 124.592 76.0007 125.3C70.3396 126.007 61.2817 119.214 61.2817 119.214C61.2817 119.214 62.0366 121.384 61.9422 126.007C61.8479 130.678 61.895 130.064 61.895 130.064C61.895 130.064 67.6505 132.565 75.5289 132.14C80.0578 131.904 84.2565 129.262 84.2565 129.262Z" fill="#BDBDBD"/>
<path d="M136.245 42.9302C136.245 42.9302 135.443 47.0817 133.32 48.4498C131.197 49.8179 130.583 50.4312 128.649 49.9123C126.715 49.3933 126.762 44.3455 125.205 41.3262C123.649 38.3069 122.988 33.495 119.733 31.2777C116.478 29.0604 114.968 25.994 114.449 24.0126C113.883 21.984 117.044 21.4179 116.242 19.5309C115.44 17.6438 111.807 16.5116 111.855 14.7189C111.855 12.9262 112.185 13.1621 112.185 13.1621C112.185 13.1621 122.139 20.9933 124.969 24.8618C127.8 28.7302 132.187 35.382 133.367 37.505C134.499 39.5335 136.245 42.9302 136.245 42.9302Z" fill="#BDBDBD"/>
<path d="M5.70831 42.883C5.70831 42.883 6.51031 47.0345 8.63323 48.4026C10.7562 49.7708 11.3694 50.384 13.3037 49.8651C15.2379 49.3462 15.1907 44.2983 16.7475 41.2791C18.3043 38.2598 18.9648 33.4478 22.2199 31.2306C25.4751 29.0133 26.9847 25.9468 27.5037 23.9183C28.0698 21.8897 24.909 21.3236 25.711 19.4365C26.513 17.5495 30.1455 16.4173 30.0983 14.6246C30.0983 12.8319 29.7681 13.0678 29.7681 13.0678C29.7681 13.0678 19.8611 20.899 17.0306 24.7674C14.2 28.6359 9.81263 35.2877 8.63323 37.4106C7.45383 39.5335 5.70831 42.883 5.70831 42.883Z" fill="#BDBDBD"/>
<path d="M129.498 83.1243C129.498 83.1243 123.696 79.0671 119.969 78.5482C116.242 78.0292 112.562 77.7934 112.562 77.7934C112.562 77.7934 116.761 75.9535 121.054 76.6611C125.3 77.3688 126.149 79.6804 128.13 78.5482C130.112 77.3688 132.848 71 132.848 71C132.848 71 132.282 76.3309 131.055 79.3973C129.876 82.4638 129.498 83.1243 129.498 83.1243Z" fill="#BDBDBD"/>
<path d="M55.6206 78.5482C55.6206 78.5482 56.9415 70.3395 63.0273 65.3389C68.311 60.9987 80.9542 65.3389 80.9542 65.3389C80.9542 65.3389 70.9057 63.9236 64.4425 68.0279C57.9794 72.1794 55.6206 78.5482 55.6206 78.5482Z" fill="#BDBDBD"/>
<path d="M9.48238 74.6797C9.48238 74.6797 9.38803 82.1335 12.4073 82.5109C15.3794 82.9355 23.0691 77.2744 27.0791 76.6611C31.089 76.0478 35.099 76.095 36.6558 77.5103C33.9668 75.8119 36.8917 76.1893 31.3721 75.0571C25.8525 73.9249 17.9741 78.2179 14.5774 79.3973C11.1807 80.5767 9.48238 74.6797 9.48238 74.6797Z" fill="#BDBDBD"/>
<path d="M12.3601 61.8478C12.3601 61.8478 14.0113 65.2917 17.9269 65.9522C21.7953 66.6126 29.2491 63.9236 29.2491 63.9236C29.2491 63.9236 24.4844 70.7169 19.7668 69.1601C15.0491 67.5561 12.3601 61.8478 12.3601 61.8478Z" fill="#F2F2F2"/>
<path d="M42.4113 58.7814C42.4113 58.7814 57.8851 51.6106 70.5282 52.9787C83.1243 54.3468 96.994 60.008 96.994 60.008C96.994 60.008 80.8598 55.2904 70.5282 55.2904C60.1967 55.2904 42.4113 58.7814 42.4113 58.7814Z" fill="#F2F2F2"/>
<path d="M35.4764 10.6146C35.4764 10.6146 53.5448 0.707607 68.8299 1.5096C84.0678 2.31159 97.7488 6.18003 97.7488 6.18003C97.7488 6.18003 79.6804 3.8684 68.9714 3.72688C58.3096 3.58535 35.4764 10.6146 35.4764 10.6146Z" fill="#F2F2F2"/>
</g>
<defs>
<clipPath id="clip0">
<rect width="142" height="142" fill="white"/>
</clipPath>
</defs>
</svg>
