<svg width="202" height="191" viewBox="0 0 202 191" fill="none" xmlns="http://www.w3.org/2000/svg">
<path d="M100.975 29.9815C61.8013 29.9815 29.9815 61.8013 29.9815 100.975C29.9815 140.149 61.8013 171.968 100.975 171.968C140.149 171.968 171.969 140.149 171.969 100.975C171.969 61.8012 140.149 29.9814 100.975 29.9815ZM100.975 41.2952C127.279 41.2952 149.483 58.2657 157.544 81.7417C157.331 83.9337 155.634 96.9445 144.957 96.5909C128.057 95.9545 127.774 80.9639 98.9951 81.6002C70.2159 82.2366 63.0034 95.3888 52.6796 95.3888C45.6085 95.3888 43.3458 91.0048 42.7094 88.2471C48.5077 61.377 72.4079 41.2952 100.975 41.2952ZM42.9923 115.4C49.9926 111.794 59.9628 104.086 65.6197 108.046C72.8322 113.137 93.2675 133.714 91.7826 159.948C67.9531 156.341 48.7198 138.522 42.9923 115.4ZM114.198 159.17C114.269 149.341 128.481 115.471 136.825 109.531C141.492 106.137 150.967 107.834 159.382 113.137C154.715 136.047 136.967 154.079 114.198 159.17Z" fill="#E0E0E0"/>
<path d="M122.224 104.475C122.224 114.375 114.233 122.365 104.334 122.365C94.4342 122.365 86.4439 114.375 86.4439 104.475C86.4439 94.5757 94.4342 86.5854 104.334 86.5854C114.233 86.5854 122.224 94.5757 122.224 104.475Z" fill="#BDBDBD"/>
<path d="M121.021 103.273C121.021 112.89 113.173 120.739 103.485 120.809C93.7978 120.88 86.0904 112.89 86.0904 103.273C86.0904 93.6564 93.9393 85.8075 103.627 85.7368C113.314 85.6661 121.092 93.5857 121.021 103.273Z" fill="#E0E0E0" stroke="#BDBDBD" stroke-width="0.4718" stroke-miterlimit="10"/>
</svg>
