<?xml version="1.0"?>
<svg xmlns="http://www.w3.org/2000/svg" xmlns:xlink="http://www.w3.org/1999/xlink" xmlns:svgjs="http://svgjs.com/svgjs" version="1.1" width="512" height="512" x="0" y="0" viewBox="0 0 368 368" style="enable-background:new 0 0 512 512" xml:space="preserve" class=""><g>
<g xmlns="http://www.w3.org/2000/svg">
	<g>
		<path d="M248,208H120c-4.416,0-8,3.576-8,8s3.584,8,8,8h128c4.424,0,8-3.576,8-8S252.424,208,248,208z" fill="#4eb6ff" data-original="#000000" style="" class=""/>
	</g>
</g>
<g xmlns="http://www.w3.org/2000/svg">
	<g>
		<path d="M248,256H120c-4.416,0-8,3.576-8,8s3.584,8,8,8h128c4.424,0,8-3.576,8-8S252.424,256,248,256z" fill="#4eb6ff" data-original="#000000" style="" class=""/>
	</g>
</g>
<g xmlns="http://www.w3.org/2000/svg">
	<g>
		<path d="M248,304H120c-4.416,0-8,3.576-8,8s3.584,8,8,8h128c4.424,0,8-3.576,8-8S252.424,304,248,304z" fill="#4eb6ff" data-original="#000000" style="" class=""/>
	</g>
</g>
<g xmlns="http://www.w3.org/2000/svg">
	<g>
		<path d="M288,160h-64V16h24c4.424,0,8-3.576,8-8s-3.576-8-8-8h-32h-64h-32c-4.416,0-8,3.576-8,8s3.584,8,8,8h24v144H80    c-8.824,0-16,7.176-16,16v152c0,22.056,17.944,40,40,40h160c22.056,0,40-17.944,40-40V176C304,167.176,296.824,160,288,160z     M160,16h48v144h-48V16z M288,328c0,13.232-10.768,24-24,24H104c-13.232,0-24-10.768-24-24V176l71.976-0.008    c0.008,0,0.016,0.008,0.024,0.008h64c0.016,0,0.032-0.008,0.048-0.008L288,175.984V328z" fill="#4eb6ff" data-original="#000000" style="" class=""/>
	</g>
</g>
<g xmlns="http://www.w3.org/2000/svg">
</g>
<g xmlns="http://www.w3.org/2000/svg">
</g>
<g xmlns="http://www.w3.org/2000/svg">
</g>
<g xmlns="http://www.w3.org/2000/svg">
</g>
<g xmlns="http://www.w3.org/2000/svg">
</g>
<g xmlns="http://www.w3.org/2000/svg">
</g>
<g xmlns="http://www.w3.org/2000/svg">
</g>
<g xmlns="http://www.w3.org/2000/svg">
</g>
<g xmlns="http://www.w3.org/2000/svg">
</g>
<g xmlns="http://www.w3.org/2000/svg">
</g>
<g xmlns="http://www.w3.org/2000/svg">
</g>
<g xmlns="http://www.w3.org/2000/svg">
</g>
<g xmlns="http://www.w3.org/2000/svg">
</g>
<g xmlns="http://www.w3.org/2000/svg">
</g>
<g xmlns="http://www.w3.org/2000/svg">
</g>
</g></svg>
