<?xml version="1.0"?>
<svg xmlns="http://www.w3.org/2000/svg" xmlns:xlink="http://www.w3.org/1999/xlink" xmlns:svgjs="http://svgjs.com/svgjs" version="1.1" width="512" height="512" x="0" y="0" viewBox="0 0 510 510" style="enable-background:new 0 0 512 512" xml:space="preserve" class=""><g><g xmlns="http://www.w3.org/2000/svg"><path d="m240 420h30v30h-30z" fill="#1ca067" data-original="#000000" style="" class=""/><path d="m478.631 194.344c-14.779-9.41-34.47-17.604-58.631-24.421v-169.923h-330v169.923c-24.161 6.816-43.853 15.012-58.632 24.422-25.926 16.507-31.368 33.938-31.368 45.655 0 31.557 36.598 55.074 90 70.142v199.858h330v-199.909c12.535-3.548 24.025-7.518 34.295-11.879 46.041-19.552 55.705-42.448 55.705-58.212 0-11.717-5.442-29.149-31.369-45.656zm-268.631-164.344h90v30h-90zm-30 0v60h150v-60h60v256.684c-34.06 7.528-71.669 11.483-106.81 12.794l-40.084-40.084-21.213 21.213 19.265 19.265c-44.086-.791-85.768-5.35-121.158-13.183v-256.689zm-90.231 248.716c-41.288-12.902-59.769-28.742-59.769-38.716 0-10.26 18.922-25.945 60-38.778v77.564c-.076-.023-.154-.046-.231-.07zm300.231 141.284h-90v30h90v30h-270v-30h90v-30h-90v-102.62c36.869 7.558 78.963 11.758 121.41 12.497l-19.517 19.517 21.213 21.213 41.148-41.147c35.178-1.31 71.835-5.117 105.746-12.099zm30-141.234v-77.545c41.078 12.833 60 28.518 60 38.779 0 10.436-19.405 26.042-60 38.766z" fill="#1ca067" data-original="#000000" style="" class=""/></g></g></svg>
