<svg width="142" height="44" viewBox="0 0 142 44" fill="none" xmlns="http://www.w3.org/2000/svg">
<path d="M142 22.4791L131.416 12V19.4732H74V25.5268H131.416V33L142 22.4791Z" fill="#FFEC00"/>
<path d="M0 22.5209L10.5843 33V25.5268H68V19.4732H10.5843V12L0 22.5209Z" fill="#FFEC00"/>
<path d="M71 44C83.1503 44 93 34.1503 93 22C93 9.84974 83.1503 0 71 0C58.8497 0 49 9.84974 49 22C49 34.1503 58.8497 44 71 44Z" fill="#FFEC00"/>
<path d="M71.0146 39.0291C80.4114 39.0291 88.0291 31.4114 88.0291 22.0146C88.0291 12.6177 80.4114 5 71.0146 5C61.6177 5 54 12.6177 54 22.0146C54 31.4114 61.6177 39.0291 71.0146 39.0291Z" fill="url(#paint0_linear)"/>
<defs>
<linearGradient id="paint0_linear" x1="71.0021" y1="13.6588" x2="71.0021" y2="117.356" gradientUnits="userSpaceOnUse">
<stop stop-color="white"/>
<stop offset="0.00758207" stop-color="#FBFBFB"/>
<stop offset="0.127" stop-color="#C1C1C1"/>
<stop offset="0.2495" stop-color="#8E8E8E"/>
<stop offset="0.3723" stop-color="#626262"/>
<stop offset="0.4956" stop-color="#3F3F3F"/>
<stop offset="0.6195" stop-color="#232323"/>
<stop offset="0.7442" stop-color="#101010"/>
<stop offset="0.8703" stop-color="#040404"/>
<stop offset="1"/>
</linearGradient>
</defs>
</svg>
