<svg width="168" height="143" viewBox="0 0 168 143" fill="none" xmlns="http://www.w3.org/2000/svg">
<path d="M166.48 66.5927L157.02 78.0972L145.569 68.527L166.48 66.5927Z" fill="white"/>
<path opacity="0.5" d="M121.175 20.775C93.475 -6.92497 48.475 -6.92497 20.775 20.775C-6.925 48.475 -6.925 93.475 20.775 121.175C48.475 148.875 93.475 148.875 121.175 121.175C148.875 93.475 148.875 48.475 121.175 20.775ZM113.175 28.775C131.775 47.375 135.475 75.075 124.575 97.375C122.875 98.775 112.475 106.775 105.175 98.975C93.675 86.575 104.075 75.775 83.275 55.875C62.475 35.975 48.075 40.175 40.775 32.875C35.775 27.875 37.275 23.175 38.775 20.775C61.875 5.87503 92.975 8.57503 113.175 28.775ZM19.775 40.175C27.275 42.575 39.775 44.175 40.975 50.975C42.475 59.675 42.375 88.675 22.775 106.175C8.475 86.775 7.475 60.575 19.775 40.175ZM39.175 121.475C46.175 114.575 80.175 100.675 90.275 102.375C95.975 103.275 101.475 111.175 103.675 120.875C84.175 133.775 58.875 133.975 39.175 121.475Z" fill="#E0E0E0"/>
<path d="M121.375 20.975L113.375 28.975C131.975 47.575 135.675 75.275 124.775 97.575C123.075 98.975 112.675 106.975 105.375 99.175C94.175 87.075 103.775 76.475 84.975 57.475L20.975 121.475C48.675 149.175 93.675 149.175 121.375 121.475C149.075 93.675 149.075 48.675 121.375 20.975ZM39.375 121.775C46.375 114.875 80.375 100.975 90.475 102.675C96.175 103.575 101.675 111.475 103.875 121.175C84.475 133.975 59.075 134.175 39.375 121.775Z" fill="#3FA9F5" fill-opacity="0.6"/>
<path d="M131 11C146.4 26 155.9 47 155.9 70.2" stroke="white" stroke-width="5" stroke-miterlimit="10" stroke-linecap="round"/>
</svg>
