<svg width="152" height="152" viewBox="0 0 152 152" fill="none" xmlns="http://www.w3.org/2000/svg">
<g clip-path="url(#clip0)">
<path opacity="0.5" d="M146.1 75.7C146.1 36.9 114.6 5.50001 75.9 5.50001C37.2 5.50001 5.59998 36.9 5.59998 75.7C5.59998 114.5 37.1 145.9 75.8 145.9C114.5 145.9 146.1 114.5 146.1 75.7ZM18.5 59.5C25.6 34.4 48.6 16 75.9 16C97 16 115.5 26.9 126.1 43.4C129.1 48.1 131.5 53.3 133.2 58.8C133.3 58.9 133.3 59.1 133.3 59.2V59.3C133.4 59.6 133.4 59.8 133.4 60.1C133.4 62 132.1 63.6 130.3 64C130.3 64 130.2 64 130.1 64C129.9 64 129.7 64.1 129.5 64.1C128.4 64.2 127.2 64.2 126.1 63.9C125.8 63.8 125.5 63.8 125.2 63.7C124.6 63 124 62.4 123.3 61.9C123.3 61.9 123.2 61.9 123.2 61.8C122.9 61.6 122.5 61.4 122.1 61.2C122 61.1 121.9 61.1 121.7 61C107.8 54.5 92.2 50.8 75.8 50.8C59.4 50.8 43.8 54.4 29.9 61C29.8 61.1 29.6 61.1 29.5 61.2C28.3 61.8 27.3 62.7 26.4 63.7C26.1 63.8 25.8 63.9 25.5 63.9C24.3 64.1 23.2 64.2 22.1 64.1C21.9 64.1 21.7 64.1 21.5 64C21.4 64 21.4 64 21.3 64C19.5 63.6 18.2 62 18.2 60.1C18.4 60 18.4 59.8 18.5 59.5ZM57.6 129.7C57.5 129.8 57.4 129.9 57.3 130C56.6 130.7 55.6 131.1 54.5 131.1C54 131.1 53.4 131 53 130.8C53 130.8 53 130.8 52.9 130.8C44.7 127.4 37.4 122.2 31.5 115.7C30.5 114.6 29.6 113.5 28.7 112.3C24.3 106.7 21 100.2 18.8 93.3C18.7 93 18.6 92.6 18.6 92.2C18.6 90.8 19.3 89.6 20.4 88.8C20.5 88.7 20.6 88.7 20.8 88.6C23.3 87.2 26.2 86.4 29.2 86.4C29.7 86.4 30.1 86.4 30.6 86.5C33.8 91.9 37.7 96.9 42.2 101.2C47.8 106.6 54.3 110.9 61.4 114.1C61.5 114.2 61.7 114.2 61.9 114.3C62.2 115.5 62.3 116.7 62.3 118C62.3 122.5 60.5 126.6 57.6 129.7ZM75.9 93C66.4 93 58.6 85.3 58.6 75.7C58.6 66.1 66.3 58.4 75.9 58.4C85.4 58.4 93.2 66.1 93.2 75.7C93.2 85.3 85.4 93 75.9 93ZM120.2 115.7C118.9 117.1 117.6 118.4 116.2 119.7C111.2 124.3 105.4 128.1 99 130.8C99 130.8 99 130.8 98.9 130.8C98.8 130.9 98.6 130.9 98.5 131C98.1 131.1 97.7 131.2 97.3 131.2C96.3 131.2 95.3 130.8 94.6 130.2L94.5 130.1C94.4 130 94.3 129.9 94.1 129.7C91.2 126.6 89.5 122.5 89.5 118C89.5 116.7 89.6 115.5 89.9 114.3C90.1 114.2 90.2 114.2 90.4 114.1C96 111.6 101.2 108.4 105.9 104.5C107.2 103.4 108.4 102.3 109.6 101.2C114.1 96.9 118 92 121.1 86.6C121.1 86.6 121.1 86.5 121.2 86.5C121.6 86.5 122.1 86.4 122.5 86.4C125.6 86.4 128.4 87.2 130.9 88.6C131 88.7 131.1 88.7 131.3 88.8C132.4 89.5 133.1 90.8 133.1 92.2C133.1 92.6 133 93 132.9 93.3C132.9 93.4 132.9 93.4 132.8 93.5C130.7 100.4 127.3 106.8 123 112.3C122.1 113.4 121.2 114.6 120.2 115.7Z" fill="#C1C1C1"/>
<g opacity="0.5">
<path opacity="0.5" d="M2.1 74.3H0.8C0.3 74.3 0 74.7 0 75.1V76.4C0 76.9 0.4 77.2 0.8 77.2H2.1C2.6 77.2 2.9 76.8 2.9 76.4V75.1C3 74.6 2.6 74.3 2.1 74.3Z" fill="#FFEC00"/>
<path opacity="0.5" d="M151.1 74.3H149.8C149.3 74.3 149 74.7 149 75.1V76.4C149 76.9 149.4 77.2 149.8 77.2H151.1C151.6 77.2 151.9 76.8 151.9 76.4V75.1C151.9 74.6 151.5 74.3 151.1 74.3Z" fill="#FFEC00"/>
<path opacity="0.5" d="M134.1 27.3C119.7 9.89999 98.4 -7.62939e-06 75.9 -7.62939e-06C53.3 -7.62939e-06 32.1 9.89999 17.7001 27.3C7.30005 39.7 1.40005 54.7 0.300049 70.7H2.70005C3.80005 54.8 9.90005 40.3 19.5 28.8C33 12.7 53.2 2.39999 75.9 2.39999C98.6001 2.39999 118.8 12.7 132.3 28.8C141.9 40.3 148 54.8 149.1 70.7H151.5C150.4 54.7 144.4 39.7 134.1 27.3Z" fill="#FFEC00"/>
<path opacity="0.5" d="M146.2 96.7C137.2 127 109.1 149 75.9 149C42.7 149 14.6 127 5.60005 96.7C4.10005 91.6 3.10005 86.3 2.70005 80.7H0.300049C0.700049 86.4 1.70005 91.9 3.30005 97.3C7.90005 112.6 17.4001 126.4 30.2001 136.1C43.4001 146.1 59.2 151.4 75.9 151.4C92.5 151.4 108.3 146.1 121.6 136.1C134.4 126.4 144 112.6 148.5 97.3C150.1 91.9 151.1 86.3 151.5 80.7H149.1C148.7 86.3 147.7 91.6 146.2 96.7Z" fill="#FFEC00"/>
</g>
</g>
<defs>
<clipPath id="clip0">
<rect width="152" height="152" fill="white"/>
</clipPath>
</defs>
</svg>
