<svg width="64" height="63" viewBox="0 0 64 63" fill="none" xmlns="http://www.w3.org/2000/svg">
<path d="M31.6725 58.3118C46.8604 58.3118 59.1725 46.2235 59.1725 31.3118C59.1725 16.4001 46.8604 4.31177 31.6725 4.31177C16.4847 4.31177 4.17255 16.4001 4.17255 31.3118C4.17255 46.2235 16.4847 58.3118 31.6725 58.3118Z" fill="#030405"/>
<path opacity="0.5" d="M62.2837 26.3053H63.258C63.3275 26.3053 63.3275 26.3053 63.3971 26.3053C61.0311 11.4129 47.6697 0 31.9422 0C16.1451 0 2.78368 11.4129 0.417603 26.3749C0.487193 26.3749 0.556784 26.3749 0.626375 26.3749H1.60064C1.87901 26.3749 2.15737 26.3749 2.43573 26.4444C4.80181 12.5959 17.1889 2.08772 31.9422 2.08772C46.6258 2.08772 59.0825 12.5959 61.4486 26.4444C61.6574 26.3749 62.0053 26.3053 62.2837 26.3053Z" fill="#FFEC00"/>
<path opacity="0.5" d="M63.3275 36.5351H62.2837C61.9357 36.5351 61.5878 36.4655 61.3094 36.3959C58.7346 49.9661 46.3474 60.2655 31.9422 60.2655C17.5369 60.2655 5.14976 49.9661 2.5749 36.4655C2.29654 36.5351 1.94859 36.5351 1.67022 36.5351H0.556774H0.487183C1.67022 43.2158 5.08016 49.4094 10.2995 54.072C16.2147 59.3608 23.8696 62.2837 31.8726 62.2837C39.8755 62.2837 47.5305 59.3608 53.4457 54.072C58.665 49.4094 62.1445 43.2158 63.3275 36.5351Z" fill="#FFEC00"/>
<path d="M46.5104 22L36.4287 30.987L46.5104 40" stroke="white" stroke-width="3" stroke-linecap="round"/>
<path d="M17 22L27.0817 30.987L17 40" stroke="white" stroke-width="3" stroke-linecap="round"/>
</svg>
