<?xml version="1.0"?>
<svg xmlns="http://www.w3.org/2000/svg" xmlns:xlink="http://www.w3.org/1999/xlink" xmlns:svgjs="http://svgjs.com/svgjs" version="1.1" width="512" height="512" x="0" y="0" viewBox="0 0 512 512" style="enable-background:new 0 0 512 512" xml:space="preserve"><g transform="matrix(6.123233995736766e-17,-1,1,6.123233995736766e-17,0,512)"><g xmlns="http://www.w3.org/2000/svg"><path d="m419 201.042v-161.042c0-22.056-17.944-40-40-40-49.531 0-189.172 0-246 0-22.056 0-40 17.944-40 40v161.042c-31.613 6.882-93 23.047-93 54.958 0 32.114 61.17 48.019 93 54.794v161.206c0 22.056 17.944 40 40 40h78c5.523 0 10-4.478 10-10s-4.477-10-10-10h-78c-11.028 0-20-8.972-20-20v-157.351c31.056 5.408 66.242 9.01 103 10.53v48.92c0 3.688 2.03 7.076 5.281 8.816 3.195 1.711 7.146 1.585 10.266-.496l87.776-58.513c28.12-1.898 55.358-5.097 79.677-9.345v157.439c0 11.028-8.972 20-20 20h-77.999c-5.523 0-10 4.478-10 10s4.477 10 10 10h77.999c22.056 0 40-17.944 40-40v-161.311c31.62-6.755 93-22.661 93-54.689 0-31.943-61.378-48.074-93-54.958zm-121.685-181.042-16.667 25h-49.296l-16.667-25zm-277.315 236c0-7.503 19.71-22.37 73-34.479v68.807c-53.291-11.895-73-26.766-73-34.328zm216 99.415v-82.63l61.975 41.316zm82.729-51.514-87.182-58.121c-3.068-2.046-7.014-2.237-10.266-.496-3.251 1.74-5.281 5.129-5.281 8.816v51.06c-36.965-1.561-72.212-5.263-103-10.82 0-29.913 0-233.099 0-254.34 0-11.028 8.972-20 20-20h57.648l27.031 40.547c1.855 2.782 4.977 4.453 8.321 4.453h60c3.344 0 6.466-1.671 8.32-4.453l27.032-40.547h57.648c11.028 0 20 8.972 20 20v254.246c-24.265 4.395-51.764 7.705-80.271 9.655zm100.271-13.682v-68.699c53.29 12.109 73 26.977 73 34.479 0 7.498-19.709 22.292-73 34.22z" fill="#000000" data-original="#000000" style=""/><circle cx="256.001" cy="502" r="10" fill="#000000" data-original="#000000" style=""/></g></g></svg>
