<?xml version="1.0"?>
<svg xmlns="http://www.w3.org/2000/svg" xmlns:xlink="http://www.w3.org/1999/xlink" xmlns:svgjs="http://svgjs.com/svgjs" version="1.1" width="512" height="512" x="0" y="0" viewBox="0 0 479.589 479.589" style="enable-background:new 0 0 512 512" xml:space="preserve"><g transform="matrix(6.123233995736766e-17,-1,1,6.123233995736766e-17,0.000213623046875,479.58831787109375)">
<g xmlns="http://www.w3.org/2000/svg">
	<g>
		<path d="M319.609,71.568h-176c-13.255,0-24,10.745-24,24v288c0,13.255,10.745,24,24,24h176c13.255,0,24-10.745,24-24v-288    C343.609,82.313,332.864,71.568,319.609,71.568z M327.609,383.568c0,4.418-3.582,8-8,8h-176c-4.418,0-8-3.582-8-8v-24h192V383.568    z M327.609,343.568h-192v-208h192V343.568z M327.609,119.568h-192v-24c0-4.418,3.582-8,8-8h176c4.418,0,8,3.582,8,8V119.568z" fill="#000000" data-original="#000000" style=""/>
	</g>
</g>
<g xmlns="http://www.w3.org/2000/svg">
	<g>
		<rect x="215.609" y="95.568" width="32" height="16" fill="#000000" data-original="#000000" style=""/>
	</g>
</g>
<g xmlns="http://www.w3.org/2000/svg">
	<g>
		<path d="M478.417,235.368c-1.457-2.362-4.033-3.8-6.808-3.8h-8.2C458.865,103.642,351.478,3.621,223.552,8.164    S-4.395,120.095,0.149,248.021S112.08,475.968,240.005,471.424c79.265-2.815,151.586-45.966,191.708-114.384l-13.8-8.112    c-60.337,102.981-192.733,137.551-295.714,77.213S-15.352,233.408,44.985,130.427S237.718-7.124,340.699,53.214    c63.699,37.322,103.939,104.579,106.709,178.354h-7.8c-4.418-0.024-8.019,3.538-8.044,7.956c-0.007,1.256,0.282,2.496,0.844,3.62    l16,32c1.971,3.954,6.774,5.562,10.729,3.591c1.556-0.775,2.816-2.036,3.591-3.591l16-32    C479.978,240.673,479.859,237.731,478.417,235.368z M455.609,253.68l-3.056-6.112h6.112L455.609,253.68z" fill="#000000" data-original="#000000" style=""/>
	</g>
</g>
<g xmlns="http://www.w3.org/2000/svg">
</g>
<g xmlns="http://www.w3.org/2000/svg">
</g>
<g xmlns="http://www.w3.org/2000/svg">
</g>
<g xmlns="http://www.w3.org/2000/svg">
</g>
<g xmlns="http://www.w3.org/2000/svg">
</g>
<g xmlns="http://www.w3.org/2000/svg">
</g>
<g xmlns="http://www.w3.org/2000/svg">
</g>
<g xmlns="http://www.w3.org/2000/svg">
</g>
<g xmlns="http://www.w3.org/2000/svg">
</g>
<g xmlns="http://www.w3.org/2000/svg">
</g>
<g xmlns="http://www.w3.org/2000/svg">
</g>
<g xmlns="http://www.w3.org/2000/svg">
</g>
<g xmlns="http://www.w3.org/2000/svg">
</g>
<g xmlns="http://www.w3.org/2000/svg">
</g>
<g xmlns="http://www.w3.org/2000/svg">
</g>
</g></svg>
