# 3ds Max Wavefront OBJ Exporter v0.97b - (c)2007 guruware
# File Created: 03.02.2021 22:38:43

#
# object Sign_Stop
#

v  365.2784 325.9244 -763.8956
v  391.3238 299.8790 -766.1700
v  365.2784 325.9244 -766.1700
v  391.3238 299.8790 -763.8956
v  391.3238 263.0453 -766.1700
v  391.3238 263.0453 -763.8956
v  365.2784 236.9998 -766.1700
v  328.4446 236.9998 -763.8956
v  328.4446 236.9998 -766.1700
v  302.3992 263.0453 -766.1700
v  302.3992 299.8790 -763.8956
v  302.3992 299.8790 -766.1700
v  365.2784 236.9998 -763.8956
v  328.4446 325.9244 -766.1700
v  302.3992 263.0453 -763.8956
v  328.4446 325.9244 -763.8956
v  342.7295 0.0561 -766.0226
v  350.2225 296.1692 -766.0226
v  342.7295 296.1692 -766.0226
v  350.2225 0.0561 -766.0226
v  350.2225 296.1691 -773.5156
v  342.7295 0.0561 -773.5156
v  350.2225 0.0561 -773.5156
v  342.7295 296.1691 -773.5156
# 24 vertices

vn 0.7071 0.7071 0.0000
vn 1.0000 -0.0000 -0.0000
vn 0.7071 -0.7071 -0.0000
vn -0.0000 -1.0000 -0.0000
vn -0.7071 -0.7071 -0.0000
vn -0.7071 -0.7071 0.0000
vn -1.0000 0.0000 -0.0000
vn -1.0000 0.0000 0.0000
vn -0.0000 -0.0000 1.0000
vn -0.7071 0.7071 0.0000
vn -0.0000 1.0000 0.0000
vn 0.0000 0.0000 -1.0000
vn 0.0000 1.0000 0.0000
vn 0.0000 -0.0000 1.0000
vn 1.0000 0.0000 -0.0000
vn 0.0000 1.0000 -0.0000
# 16 vertex normals

vt 0.4824 0.9810 0.0000
vt 0.4826 0.9804 0.0000
vt 0.4826 0.9810 0.0000
vt 0.4820 0.9816 0.0000
vt 0.4821 0.9811 0.0000
vt 0.4821 0.9816 0.0000
vt 0.4820 0.9811 0.0000
vt 0.4821 0.9804 0.0000
vt 0.4824 0.9816 0.0000
vt 0.4822 0.9811 0.0000
vt 0.4824 0.9811 0.0000
vt 0.4824 0.9804 0.0000
vt 0.4819 0.9821 0.0000
vt 0.4818 0.9816 0.0000
vt 0.4819 0.9816 0.0000
vt 0.5356 0.7892 0.0000
vt 0.6109 0.7892 0.0000
vt 0.6641 0.8424 0.0000
vt 0.4819 0.9809 0.0000
vt 0.4818 0.9804 0.0000
vt 0.4819 0.9804 0.0000
vt 0.4834 0.9793 0.0000
vt 0.4838 0.9788 0.0000
vt 0.4845 0.9804 0.0000
vt 0.4820 0.9804 0.0000
vt 0.4822 0.9816 0.0000
vt 0.4822 0.9804 0.0000
vt 0.4818 0.9821 0.0000
vt 0.6641 0.9177 0.0000
vt 0.6109 0.9709 0.0000
vt 0.5356 0.9709 0.0000
vt 0.4824 0.9177 0.0000
vt 0.4824 0.8424 0.0000
vt 0.4818 0.9809 0.0000
vt 0.4845 0.9788 0.0000
vt 0.4849 0.9793 0.0000
vt 0.4849 0.9799 0.0000
vt 0.4838 0.9804 0.0000
vt 0.4834 0.9799 0.0000
vt 0.0165 0.9753 0.0000
vt 0.0144 0.8928 0.0000
vt 0.0165 0.8928 0.0000
vt 0.0186 0.8928 0.0000
vt 0.0207 0.9753 0.0000
vt 0.0186 0.9753 0.0000
vt 0.0123 0.9753 0.0000
vt 0.0123 0.8928 0.0000
vt 0.0029 0.9856 0.0000
vt 0.0030 0.9859 0.0000
vt 0.0028 0.9858 0.0000
vt 0.0144 0.9753 0.0000
vt 0.0207 0.8928 0.0000
vt 0.0031 0.9857 0.0000
# 53 texture coords

g Sign_Stop
s off
f 1/1/1 2/2/1 3/3/1 
f 4/4/2 5/5/2 2/6/2 
f 6/7/3 7/8/3 5/5/3 
f 7/9/4 8/10/4 9/11/4 
f 8/10/5 10/12/6 9/11/5 
f 10/13/7 11/14/8 12/15/8 
f 8/16/9 13/17/9 6/18/9 
f 11/14/10 14/19/10 12/15/10 
f 14/19/11 1/20/11 3/21/11 
f 12/22/12 14/23/12 7/24/12 
f 1/1/1 4/12/1 2/2/1 
f 4/4/2 6/7/2 5/5/2 
f 6/7/3 13/25/3 7/8/3 
f 7/9/4 13/26/4 8/10/4 
f 8/10/5 15/27/6 10/12/6 
f 10/13/7 15/28/7 11/14/8 
f 6/18/9 4/29/9 1/30/9 
f 1/30/9 16/31/9 6/18/9 
f 16/31/9 11/32/9 6/18/9 
f 11/32/9 15/33/9 6/18/9 
f 15/33/9 8/16/9 6/18/9 
f 11/14/10 16/34/10 14/19/10 
f 14/19/11 16/34/13 1/20/11 
f 14/23/12 3/35/12 2/36/12 
f 2/36/12 5/37/12 14/23/12 
f 5/37/12 7/24/12 14/23/12 
f 7/24/12 9/38/12 10/39/12 
f 10/39/12 12/22/12 7/24/12 
f 17/40/14 18/41/14 19/42/14 
f 20/43/15 21/44/15 18/45/15 
f 22/40/12 21/43/12 23/45/12 
f 24/41/7 17/46/7 19/47/7 
f 19/48/16 21/49/16 24/50/16 
f 17/40/14 20/51/14 18/41/14 
f 20/43/15 23/52/15 21/44/15 
f 22/40/12 24/42/12 21/43/12 
f 24/41/7 22/51/7 17/46/7 
f 19/48/16 18/53/16 21/49/16 
# 0 polygons - 38 triangles

