# 3ds Max Wavefront OBJ Exporter v0.97b - (c)2007 guruware
# File Created: 03.02.2021 22:00:33

#
# object Sign_SlipperyRoad
#

v  51.6420 240.8074 -0.8634
v  52.0618 242.9568 0.7146
v  51.6420 240.8029 0.7085
v  -42.1813 239.4623 -0.8675
v  -39.5390 238.9498 0.7030
v  -42.1813 239.4580 0.7044
v  47.3409 238.8668 -0.8689
v  0.1462 320.7226 -0.6387
v  7.8204 320.7149 -0.6387
v  -43.3645 245.5940 0.7217
v  0.1462 320.7183 0.9332
v  -43.3645 245.5984 -0.8502
v  -44.2517 243.0537 0.7145
v  7.8203 320.7105 0.9332
v  -43.8362 240.8990 0.7085
v  -39.5390 238.9542 -0.8689
v  47.3408 238.8624 0.7030
v  3.9860 323.4649 0.9409
v  6.0619 322.7524 -0.6330
v  3.9861 323.4693 -0.6310
v  51.1798 245.5033 -0.8502
v  51.1798 245.4989 0.7217
v  -43.8362 240.9035 -0.8635
v  1.9087 322.7565 -0.6330
v  1.9087 322.7522 0.9389
v  49.9842 239.3652 0.7045
v  49.9842 239.3696 -0.8675
v  52.0618 242.9612 -0.8574
v  -44.2517 243.0581 -0.8574
v  6.0619 322.7480 0.9389
v  6.7604 290.7260 -2.7178
v  -0.5904 290.7261 -10.0686
v  -0.5904 290.7260 -2.7178
v  -0.5904 0.2340 -2.7179
v  -0.5904 0.2341 -10.0687
v  6.7604 0.2341 -10.0687
v  6.7604 290.7261 -10.0686
v  6.7604 0.2340 -2.7179
v  -36.8444 194.9783 -2.2821
v  46.0811 194.9783 0.2190
v  -36.8444 194.9783 0.2190
v  51.4325 201.4557 -2.2821
v  51.4325 231.0325 0.2190
v  51.4325 201.4557 0.2190
v  46.0811 237.5098 -2.2821
v  -36.8444 237.5098 0.2190
v  46.0811 237.5098 0.2190
v  -42.1958 231.0325 -2.2821
v  -36.8444 237.5098 -2.2821
v  46.0811 194.9783 -2.2821
v  49.8651 196.8755 0.2190
v  49.8651 196.8755 -2.2821
v  -40.6284 196.8755 0.2190
v  -40.6284 196.8755 -2.2821
v  -42.1958 201.4557 0.2190
v  -42.1958 201.4557 -2.2821
v  51.4325 231.0325 -2.2821
v  49.8651 235.6127 0.2190
v  49.8651 235.6126 -2.2821
v  -40.6284 235.6127 0.2190
v  -40.6284 235.6126 -2.2821
v  -42.1958 231.0325 0.2190
# 62 vertices

vn 0.9815 -0.1913 -0.0005
vn -0.1889 -0.9820 -0.0027
vn -0.0954 -0.9954 -0.0028
vn 0.0000 0.0028 -1.0000
vn -0.8142 0.5806 0.0016
vn -0.9088 0.4173 0.0012
vn -0.9441 0.3297 0.0009
vn -0.0000 -0.0028 1.0000
vn -0.6567 -0.7541 -0.0021
vn 0.0934 -0.9956 -0.0028
vn 0.3264 0.9452 0.0026
vn 0.9447 0.3278 0.0009
vn 0.9096 0.4155 0.0012
vn -0.9819 -0.1893 -0.0005
vn -0.7557 0.6549 0.0018
vn 0.1869 -0.9824 -0.0027
vn 0.6552 -0.7554 -0.0021
vn -0.3245 0.9459 0.0026
vn -0.3246 0.9459 0.0026
vn 0.7570 0.6534 0.0018
vn 0.8153 0.5790 0.0016
vn 0.0000 -0.0028 1.0000
vn 0.0000 1.0000 0.0000
vn 0.0000 -0.0000 1.0000
vn -1.0000 0.0000 0.0000
vn -1.0000 -0.0000 -0.0000
vn 0.0000 0.0000 -1.0000
vn 1.0000 -0.0000 -0.0000
vn 1.0000 0.0000 0.0000
vn 0.6552 -0.7555 -0.0021
vn 0.7571 0.6534 0.0018
vn 0.0000 -1.0000 -0.0000
vn 0.4482 -0.8939 -0.0000
vn 0.4482 -0.8939 0.0000
vn 0.9461 -0.3238 0.0000
vn -0.4482 -0.8939 -0.0000
vn -0.4482 -0.8939 0.0000
vn -0.9461 -0.3238 0.0000
vn 0.9461 0.3238 0.0000
vn 0.9461 0.3238 -0.0000
vn 0.4482 0.8939 -0.0000
vn 0.4482 0.8939 0.0000
vn -0.9461 0.3238 0.0000
vn -0.9461 0.3238 -0.0000
vn -0.4482 0.8939 -0.0000
vn -0.4482 0.8939 0.0000
vn -1.0000 0.0000 -0.0000
vn 1.0000 0.0000 -0.0000
vn -0.0000 -0.0000 1.0000
vn -0.0000 0.0000 -1.0000
# 50 vertex normals

vt 0.0152 0.9836 0.0000
vt 0.0151 0.9836 0.0000
vt 0.0153 0.9836 0.0000
vt 0.0153 0.9835 0.0000
vt 0.0137 0.9822 0.0000
vt 0.0124 0.9829 0.0000
vt 0.0124 0.9828 0.0000
vt 0.0152 0.9849 0.0000
vt 0.0152 0.9850 0.0000
vt 0.2946 0.0380 0.0000
vt 0.0076 0.0389 0.0000
vt 0.0192 0.0187 0.0000
vt 0.0153 0.9821 0.0000
vt 0.0124 0.9837 0.0000
vt 0.0124 0.9836 0.0000
vt 0.0151 0.9849 0.0000
vt 0.0136 0.9821 0.0000
vt 0.0137 0.9821 0.0000
vt 0.0137 0.9835 0.0000
vt 0.0137 0.9836 0.0000
vt 0.0136 0.9836 0.0000
vt 0.1632 0.2669 0.0000
vt 0.1579 0.2731 0.0000
vt 0.1399 0.2669 0.0000
vt 0.1516 0.2753 0.0000
vt 0.1453 0.2731 0.0000
vt 0.0049 0.0312 0.0000
vt 0.0112 0.0202 0.0000
vt 0.0061 0.0246 0.0000
vt 0.2829 0.0179 0.0000
vt 0.2909 0.0194 0.0000
vt 0.2972 0.0303 0.0000
vt 0.2959 0.0237 0.0000
vt 0.0140 0.9836 0.0000
vt 0.0139 0.9837 0.0000
vt 0.0139 0.9836 0.0000
vt 0.0148 0.9867 0.0000
vt 0.0146 0.9821 0.0000
vt 0.0148 0.9821 0.0000
vt 0.0151 0.9866 0.0000
vt 0.0150 0.9821 0.0000
vt 0.0151 0.9821 0.0000
vt 0.0146 0.9867 0.0000
vt 0.0145 0.9821 0.0000
vt 0.0149 0.9867 0.0000
vt 0.0151 0.9850 0.0000
vt 0.0140 0.9837 0.0000
vt 0.0150 0.9866 0.0000
vt 0.0145 0.9867 0.0000
vt 0.0149 0.9821 0.0000
vt 0.0151 0.9835 0.0000
vt 0.0152 0.9821 0.0000
vt 0.0152 0.9835 0.0000
vt 0.0138 0.9841 0.0000
vt 0.0138 0.9837 0.0000
vt 0.9889 0.4010 0.0000
vt 0.9676 0.4186 0.0000
vt 0.8491 0.4010 0.0000
vt 0.0144 0.9835 0.0000
vt 0.0138 0.9835 0.0000
vt 0.0138 0.9842 0.0000
vt 0.0138 0.9836 0.0000
vt 0.0139 0.9842 0.0000
vt 0.0139 0.9841 0.0000
vt 0.8704 0.1108 0.0000
vt 0.9676 0.1108 0.0000
vt 0.9889 0.1284 0.0000
vt 0.9827 0.1160 0.0000
vt 0.8491 0.1284 0.0000
vt 0.9827 0.4134 0.0000
vt 0.8704 0.4186 0.0000
vt 0.8554 0.4134 0.0000
vt 0.8554 0.1160 0.0000
vt 0.0144 0.9822 0.0000
vt 0.0143 0.9836 0.0000
vt 0.0138 0.9822 0.0000
vt 0.0138 0.9821 0.0000
vt 0.0139 0.9821 0.0000
vt 0.0143 0.9821 0.0000
vt 0.0144 0.9821 0.0000
# 80 texture coords

g Sign_SlipperyRoad
s off
f 1/1/1 2/2/1 3/2/1 
f 4/3/2 5/4/3 6/3/2 
f 7/5/4 8/6/4 9/7/4 
f 8/1/5 10/8/6 11/1/5 
f 12/8/6 13/9/7 10/8/6 
f 5/10/8 14/11/8 11/12/8 
f 15/3/9 4/3/9 6/3/9 
f 16/4/3 17/13/10 5/4/3 
f 18/14/11 19/15/11 20/14/11 
f 2/2/12 21/1/13 22/2/13 
f 13/9/14 23/9/14 15/9/14 
f 24/1/15 11/1/5 25/1/15 
f 7/13/10 26/13/16 17/13/10 
f 1/13/17 26/13/17 27/13/17 
f 20/14/18 25/14/18 18/14/19 
f 19/9/20 14/16/21 9/8/21 
f 9/7/4 21/17/4 7/5/4 
f 21/17/4 28/18/4 7/5/4 
f 28/18/4 1/18/4 27/18/4 
f 27/18/4 7/5/4 28/18/4 
f 16/19/4 4/20/4 12/21/4 
f 4/20/4 23/20/4 29/20/4 
f 12/21/4 4/20/4 29/20/4 
f 12/21/4 8/6/4 16/19/4 
f 8/6/4 24/6/4 19/7/4 
f 24/6/4 20/7/4 19/7/4 
f 19/7/4 9/7/4 8/6/4 
f 17/22/8 26/23/8 22/24/8 
f 14/11/8 17/22/8 22/24/8 
f 26/23/8 3/25/8 2/26/22 
f 2/26/22 22/24/8 26/23/8 
f 14/11/8 30/27/8 25/28/8 
f 30/27/8 18/29/8 25/28/8 
f 25/28/8 11/12/8 14/11/8 
f 11/12/8 10/30/8 5/10/8 
f 10/30/8 13/31/8 6/32/8 
f 13/31/8 15/33/8 6/32/8 
f 6/32/8 5/10/8 10/30/8 
f 31/34/23 32/35/23 33/36/23 
f 34/37/24 31/38/24 33/39/24 
f 35/40/25 33/41/26 32/42/26 
f 22/2/13 9/8/21 14/16/21 
f 36/43/27 32/44/27 37/38/27 
f 37/39/28 38/45/29 36/37/29 
f 1/1/1 28/1/1 2/2/1 
f 4/3/2 16/4/3 5/4/3 
f 7/5/4 16/19/4 8/6/4 
f 8/1/5 12/8/6 10/8/6 
f 12/8/6 29/9/7 13/9/7 
f 5/10/8 17/22/8 14/11/8 
f 15/3/9 23/3/9 4/3/9 
f 16/4/3 7/13/10 17/13/10 
f 18/14/11 30/15/11 19/15/11 
f 2/2/12 28/1/12 21/1/13 
f 13/9/14 29/9/14 23/9/14 
f 24/1/15 8/1/5 11/1/5 
f 7/13/10 27/13/16 26/13/16 
f 1/13/17 3/13/30 26/13/17 
f 20/14/18 24/14/18 25/14/18 
f 19/9/20 30/46/31 14/16/21 
f 31/34/23 37/47/23 32/35/23 
f 34/37/24 38/43/24 31/38/24 
f 35/40/25 34/48/25 33/41/26 
f 22/2/13 21/1/13 9/8/21 
f 36/43/27 35/49/27 32/44/27 
f 37/39/28 31/50/28 38/45/29 
f 39/51/32 40/52/32 41/53/32 
f 42/54/28 43/55/28 44/54/28 
f 45/53/23 46/52/23 47/53/23 
f 40/56/24 44/57/24 47/58/24 
f 39/59/27 48/36/27 49/60/27 
f 50/42/33 51/52/34 40/52/33 
f 52/61/35 44/54/35 51/61/35 
f 39/51/36 53/53/37 54/51/37 
f 54/62/38 55/35/38 56/55/38 
f 57/55/39 58/62/40 43/55/39 
f 59/53/41 47/53/42 58/53/41 
f 48/54/43 60/63/44 61/61/44 
f 61/52/45 46/52/46 49/52/46 
f 62/64/26 56/55/26 55/35/47 
f 39/51/32 50/42/32 40/52/32 
f 42/54/28 57/55/48 43/55/28 
f 45/53/23 49/52/23 46/52/23 
f 62/65/49 55/66/24 41/67/49 
f 55/66/24 53/68/49 41/67/49 
f 41/67/49 40/56/24 46/69/49 
f 62/65/49 41/67/49 46/69/49 
f 40/56/24 51/70/24 44/57/24 
f 44/57/24 43/71/24 47/58/24 
f 43/71/24 58/72/24 47/58/24 
f 47/58/24 46/69/49 40/56/24 
f 46/69/49 60/73/49 62/65/49 
f 50/74/50 39/59/27 49/60/27 
f 39/59/27 54/59/27 56/75/27 
f 48/36/27 39/59/27 56/75/27 
f 48/36/27 61/60/27 49/60/27 
f 49/60/27 45/76/50 50/74/50 
f 45/76/50 59/77/50 57/78/50 
f 50/74/50 45/76/50 42/79/50 
f 57/78/50 42/79/50 45/76/50 
f 42/79/50 52/80/50 50/74/50 
f 50/42/33 52/42/34 51/52/34 
f 52/61/35 42/54/35 44/54/35 
f 39/51/36 41/53/36 53/53/37 
f 54/62/38 53/36/38 55/35/38 
f 57/55/39 59/62/40 58/62/40 
f 59/53/41 45/53/42 47/53/42 
f 48/54/43 62/64/43 60/63/44 
f 61/52/45 60/52/45 46/52/46 
f 62/64/26 48/54/26 56/55/26 
# 0 polygons - 110 triangles

